<svg xmlns="http://www.w3.org/2000/svg" viewBox="0 0 1201.24 799.05"><title>calc-img</title><g id="fa279d2a-58ae-4e7a-be48-3b5eae04e357" data-name="Layer 2"><g id="a6e5c018-2be6-42e7-b40b-99642b2b68e7" data-name="Layer 1"><path d="M929.87,663.77c-84.25-.64-345.35-3.58-503.81-13.38C132.24,632.23-107.68,663.66,50,698.72c44.06,9.8-82.9,69.28,228.11,82.07,273,11.23,551.28-14.44,685.95-25.49s196.81-30.32,225.65-39C1215.08,708.64,1224.39,666,929.87,663.77Z" fill="#e9f6ff"/><path d="M181.37,681l-.8-21c.16,4.34.62,16,.8,20.54A4,4,0,0,0,181.37,681Z" fill="#ffc910"/><path d="M355.12,651.16q.45,11.64.88,23.28c.23,5.93-7.55,12.19-23.64,17.58-34.74,11.64-95.09,14.82-134.79,7.1-21.32-4.14-32.34-10.59-32.6-17.47l-.89-23.28c.26,6.88,11.29,13.33,32.61,17.47,39.7,7.72,100.05,4.54,134.79-7.1C347.57,663.35,355.35,657.09,355.12,651.16Z" fill="#ffab01"/><path d="M322.51,633.69c39.7,7.72,43.72,23.41,9,35s-95.09,14.82-134.79,7.1-43.71-23.41-9-35.05S282.81,626,322.51,633.69Zm-115,38.53c32.88,6.4,82.87,3.76,111.65-5.88s25.45-22.64-7.43-29-82.86-3.76-111.64,5.89-25.46,22.63,7.42,29" fill="#ffc910"/><path d="M311.71,637.31c32.88,6.39,36.21,19.39,7.43,29s-78.77,12.28-111.65,5.88-36.2-19.39-7.42-29S278.84,630.92,311.71,637.31Z" fill="#ffab01"/><path d="M200.07,646.09c28.78-9.64,78.77-12.27,111.64-5.88,16.37,3.18,25.4,8,26.81,13.22,1.65-6.31-7.45-12.36-26.81-16.12-32.87-6.39-82.86-3.76-111.64,5.89-14.46,4.84-20.81,10.53-19.39,15.8C181.83,654.59,188.23,650.06,200.07,646.09Z" fill="#f99b0f"/><path d="M173.21,668.51v22.81c5.46,3,13.6,5.71,24.36,7.8a244.7,244.7,0,0,0,35.51,3.9V679.78a246.22,246.22,0,0,1-36.39-3.94C186.49,673.86,178.65,671.35,173.21,668.51Z" fill="#f99b0f"/><path d="M298.23,644.56l-8.71,2.92c3.47,1,5.11,2.13,4.9,3.48s-2.23,2.75-6.09,4.2l-9-1.75q3.24-1.23,2.82-2.4t-4.37-2a36.9,36.9,0,0,0-9.1-.56,33.28,33.28,0,0,0-8.63,1.55,9,9,0,0,0-2.1.94c-.47.31-.7.63-.7,1,0,.68,1.58,1.54,4.88,2.6,2,.63,3.38,1.13,4.26,1.52,3.05,1.33,4.39,2.67,4,4s-2.47,2.66-6.24,3.92a72.53,72.53,0,0,1-16.37,3.25,74.24,74.24,0,0,1-16.76-.19l-10.47,3.51L212.21,669l10.06-3.38q-6.61-1.76-6.35-4.19c.18-1.61,2.66-3.23,7.47-4.86l8.63,1.68q-4.58,1.68-4.21,3.06c.25.91,2.15,1.72,5.74,2.41a41.89,41.89,0,0,0,10.45.65,38,38,0,0,0,9.91-1.78,16.53,16.53,0,0,0,2.51-1,3.55,3.55,0,0,0,1.25-.95q.94-1.49-4.48-3.3l-1.32-.45c-4.42-1.53-6.74-3-7-4.33s1.67-2.7,5.64-4a63.63,63.63,0,0,1,14.7-2.88,77.31,77.31,0,0,1,16,.25l8.63-2.89Z" fill="#f99b0f"/><path d="M298.23,641.3l-8.71,2.91c3.47,1,5.11,2.13,4.9,3.48s-2.23,2.75-6.09,4.2l-9-1.75q3.24-1.23,2.82-2.4t-4.37-2a36.9,36.9,0,0,0-9.1-.56,33.28,33.28,0,0,0-8.63,1.55,9,9,0,0,0-2.1.94c-.47.31-.7.63-.7,1,0,.68,1.58,1.54,4.88,2.6,2,.63,3.38,1.13,4.26,1.52,3.05,1.33,4.39,2.67,4,4s-2.47,2.66-6.24,3.92A72.53,72.53,0,0,1,247.8,664,74.24,74.24,0,0,1,231,663.8l-10.47,3.51-8.36-1.62,10.06-3.37q-6.61-1.77-6.35-4.2c.18-1.61,2.66-3.23,7.47-4.86l8.63,1.68q-4.58,1.69-4.21,3.06c.25.91,2.15,1.72,5.74,2.42a42.39,42.39,0,0,0,10.45.64,38.39,38.39,0,0,0,9.91-1.77,17.52,17.52,0,0,0,2.51-1,3.55,3.55,0,0,0,1.25-1c.63-1-.86-2.09-4.48-3.3l-1.32-.44q-6.63-2.31-7-4.34c-.22-1.36,1.67-2.7,5.64-4a63.63,63.63,0,0,1,14.7-2.88,77.31,77.31,0,0,1,16,.25l8.63-2.89Z" fill="#ffc910"/><path d="M180.66,650.25l-.8-21c.16,4.34.62,16,.8,20.54A3.84,3.84,0,0,0,180.66,650.25Z" fill="#ffc910"/><path d="M354.41,620.38q.43,11.64.88,23.28c.23,5.93-7.55,12.19-23.64,17.58-34.74,11.64-95.09,14.82-134.79,7.1-21.32-4.14-32.35-10.59-32.61-17.47l-.88-23.28c.26,6.88,11.29,13.33,32.61,17.47,39.7,7.72,100,4.54,134.79-7.1C346.86,632.57,354.64,626.31,354.41,620.38Z" fill="#ffab01"/><path d="M321.8,602.91c39.7,7.72,43.72,23.41,9,35.05s-95.09,14.82-134.79,7.1-43.71-23.4-9-35S282.1,595.2,321.8,602.91Zm-115,38.53c32.88,6.39,82.87,3.76,111.65-5.88s25.45-22.64-7.43-29-82.86-3.75-111.64,5.88-25.46,22.64,7.42,29" fill="#ffc910"/><path d="M311,606.53c32.88,6.39,36.21,19.39,7.43,29s-78.77,12.27-111.65,5.88-36.2-19.38-7.42-29S278.13,600.14,311,606.53Z" fill="#ffab01"/><path d="M199.36,615.31c28.78-9.64,78.77-12.27,111.64-5.88,16.37,3.18,25.4,8,26.81,13.22,1.65-6.31-7.45-12.36-26.81-16.12-32.87-6.39-82.86-3.76-111.64,5.88C184.9,617.26,178.55,623,180,628.22,181.12,623.81,187.52,619.28,199.36,615.31Z" fill="#f99b0f"/><path d="M172.5,637.73v22.81c5.46,3,13.6,5.71,24.36,7.8a244.7,244.7,0,0,0,35.51,3.9V649A246.22,246.22,0,0,1,196,645.06C185.78,643.08,177.94,640.57,172.5,637.73Z" fill="#f99b0f"/><path d="M297.52,613.79l-8.72,2.92q5.22,1.44,4.91,3.47c-.19,1.35-2.23,2.75-6.09,4.19l-9-1.74q3.24-1.23,2.82-2.4t-4.37-2a36.46,36.46,0,0,0-9.1-.55,32.88,32.88,0,0,0-8.63,1.54,8.83,8.83,0,0,0-2.1.94c-.47.31-.7.63-.7,1,0,.68,1.58,1.54,4.88,2.6,2,.63,3.38,1.13,4.26,1.52,3.05,1.33,4.39,2.67,4,4s-2.47,2.66-6.24,3.92a72.53,72.53,0,0,1-16.37,3.25,74.24,74.24,0,0,1-16.76-.19l-10.47,3.51-8.36-1.62,10.06-3.37q-6.62-1.77-6.35-4.2t7.46-4.86l8.64,1.68c-3.05,1.12-4.45,2.15-4.21,3.06s2.15,1.72,5.74,2.41a41.81,41.81,0,0,0,10.44.65,38,38,0,0,0,9.92-1.78,16.53,16.53,0,0,0,2.51-1,3.55,3.55,0,0,0,1.25-1q.94-1.49-4.48-3.3l-1.32-.44c-4.43-1.54-6.74-3-6.95-4.34s1.67-2.7,5.64-4a63.63,63.63,0,0,1,14.7-2.88,77.31,77.31,0,0,1,16,.25l8.63-2.89Z" fill="#f99b0f"/><path d="M297.52,610.52l-8.72,2.92q5.22,1.44,4.91,3.47c-.19,1.35-2.23,2.75-6.09,4.2l-9-1.75q3.24-1.23,2.82-2.4t-4.37-2a36.46,36.46,0,0,0-9.1-.55,32.88,32.88,0,0,0-8.63,1.54,8.83,8.83,0,0,0-2.1.94c-.47.31-.7.63-.7,1,0,.68,1.58,1.54,4.88,2.6,2,.63,3.38,1.13,4.26,1.52,3.05,1.33,4.39,2.67,4,4s-2.47,2.66-6.24,3.92a72.53,72.53,0,0,1-16.37,3.25,74.87,74.87,0,0,1-16.76-.18l-10.47,3.5-8.36-1.62,10.06-3.37q-6.62-1.77-6.35-4.2t7.46-4.86l8.64,1.68q-4.58,1.7-4.21,3.06t5.74,2.42a42.3,42.3,0,0,0,10.44.64,38,38,0,0,0,9.92-1.78,16.53,16.53,0,0,0,2.51-1,3.55,3.55,0,0,0,1.25-1c.63-1-.86-2.08-4.48-3.3l-1.32-.44c-4.43-1.54-6.74-3-6.95-4.34s1.67-2.7,5.64-4a63.63,63.63,0,0,1,14.7-2.88,77.31,77.31,0,0,1,16,.25l8.63-2.89Z" fill="#ffc910"/><path d="M184,617.61l-.8-21c.17,4.34.62,16,.8,20.54C184,617.29,184,617.44,184,617.61Z" fill="#ffc910"/><path d="M357.79,587.73l.87,23.28c.23,5.93-7.55,12.19-23.63,17.58-34.75,11.64-95.1,14.82-134.8,7.1-21.31-4.14-32.34-10.59-32.6-17.47L166.75,595c.26,6.87,11.28,13.32,32.6,17.46,39.7,7.72,100,4.54,134.8-7.1C350.23,599.92,358,593.66,357.79,587.73Z" fill="#ffab01"/><path d="M325.18,570.26c39.69,7.72,43.71,23.41,9,35s-95.1,14.82-134.8,7.1-43.71-23.4-9-35S285.48,562.55,325.18,570.26Zm-115,38.53c32.88,6.4,82.87,3.76,111.65-5.88s25.46-22.64-7.42-29-82.87-3.75-111.65,5.89-25.45,22.63,7.42,29" fill="#ffc910"/><path d="M314.38,573.88c32.88,6.39,36.2,19.39,7.42,29S243,615.19,210.15,608.79s-36.2-19.38-7.42-29S281.5,567.49,314.38,573.88Z" fill="#ffab01"/><path d="M202.73,582.66c28.78-9.64,78.77-12.27,111.65-5.88,16.36,3.18,25.4,8,26.81,13.22,1.64-6.31-7.46-12.36-26.81-16.12-32.88-6.39-82.87-3.76-111.65,5.89-14.46,4.84-20.81,10.53-19.38,15.8C184.5,591.16,190.89,586.63,202.73,582.66Z" fill="#f99b0f"/><path d="M175.88,605.08v22.81c5.45,3,13.59,5.71,24.35,7.8a244.85,244.85,0,0,0,35.51,3.9V616.35a246.52,246.52,0,0,1-36.39-3.94C189.15,610.43,181.31,607.92,175.88,605.08Z" fill="#f99b0f"/><path d="M300.89,581.14l-8.71,2.92c3.47,1,5.11,2.12,4.9,3.47s-2.23,2.75-6.08,4.2L282,590q3.24-1.23,2.83-2.4t-4.38-2a36.4,36.4,0,0,0-9.1-.55,32.88,32.88,0,0,0-8.63,1.54,9.46,9.46,0,0,0-2.1.94c-.46.31-.69.64-.69,1,0,.68,1.58,1.54,4.87,2.6,2,.63,3.38,1.13,4.26,1.52,3.06,1.33,4.4,2.67,4,4s-2.47,2.66-6.24,3.92a72.43,72.43,0,0,1-16.36,3.25,74.34,74.34,0,0,1-16.77-.19l-10.46,3.51-8.37-1.62,10.07-3.37q-6.63-1.77-6.35-4.2t7.46-4.86l8.64,1.68c-3.06,1.13-4.46,2.15-4.22,3.06s2.16,1.72,5.74,2.42a42.42,42.42,0,0,0,10.45.64,38,38,0,0,0,9.91-1.78,16.11,16.11,0,0,0,2.51-1,3.55,3.55,0,0,0,1.25-1c.63-1-.86-2.09-4.48-3.3l-1.32-.44q-6.63-2.31-6.95-4.34c-.22-1.36,1.67-2.7,5.65-4a63.54,63.54,0,0,1,14.69-2.88,77.29,77.29,0,0,1,16,.25l8.63-2.89Z" fill="#f99b0f"/><path d="M300.89,577.87l-8.71,2.92c3.47,1,5.11,2.12,4.9,3.47s-2.23,2.75-6.08,4.2l-9-1.75q3.24-1.23,2.83-2.4t-4.38-1.95a36.4,36.4,0,0,0-9.1-.55,32.88,32.88,0,0,0-8.63,1.54,10,10,0,0,0-2.1.94c-.46.31-.69.64-.69,1,0,.68,1.58,1.54,4.87,2.6,2,.63,3.38,1.13,4.26,1.52,3.06,1.33,4.4,2.67,4,4s-2.47,2.66-6.24,3.92a72.43,72.43,0,0,1-16.36,3.25,75,75,0,0,1-16.77-.18l-10.46,3.5-8.37-1.62,10.07-3.37q-6.63-1.77-6.35-4.19t7.46-4.87l8.64,1.68c-3.06,1.13-4.46,2.15-4.22,3.06s2.16,1.72,5.74,2.42a42.42,42.42,0,0,0,10.45.64,38,38,0,0,0,9.91-1.77,17,17,0,0,0,2.51-1,3.44,3.44,0,0,0,1.25-1c.63-1-.86-2.09-4.48-3.3l-1.32-.44q-6.63-2.31-6.95-4.34c-.22-1.36,1.67-2.7,5.65-4a63,63,0,0,1,14.69-2.89,77.29,77.29,0,0,1,16,.25l8.63-2.89Z" fill="#ffc910"/><path d="M182.86,590.21c-.23-6.31-.55-14.72-.79-21,.16,4.34.61,16.05.8,20.55C182.86,589.89,182.86,590.05,182.86,590.21Z" fill="#ffc910"/><path d="M356.62,560.34q.44,11.64.88,23.27c.22,5.93-7.55,12.19-23.64,17.58-34.75,11.64-95.09,14.82-134.79,7.1-21.32-4.14-32.35-10.58-32.61-17.46l-.88-23.28c.26,6.88,11.29,13.32,32.61,17.46,39.69,7.72,100,4.54,134.79-7.1C349.07,572.52,356.84,566.27,356.62,560.34Z" fill="#ffab01"/><path d="M324,542.87c39.7,7.71,43.72,23.4,9,35s-95.1,14.82-134.79,7.1-43.71-23.4-9-35S284.31,535.15,324,542.87ZM209,581.4c32.88,6.39,82.86,3.75,111.65-5.89s25.45-22.63-7.43-29-82.86-3.75-111.64,5.89S176.11,575,209,581.4" fill="#ffc910"/><path d="M313.21,546.48c32.88,6.4,36.21,19.39,7.43,29S241.87,587.79,209,581.4s-36.2-19.39-7.42-29S280.33,540.09,313.21,546.48Z" fill="#ffab01"/><path d="M201.57,555.26c28.78-9.64,78.76-12.27,111.64-5.88,16.36,3.18,25.4,8,26.81,13.22,1.64-6.3-7.46-12.35-26.81-16.12-32.88-6.39-82.86-3.75-111.64,5.89-14.46,4.84-20.81,10.53-19.39,15.8C183.33,563.77,189.72,559.23,201.57,555.26Z" fill="#f99b0f"/><path d="M174.71,577.69V600.5c5.45,3,13.59,5.7,24.36,7.79a244.55,244.55,0,0,0,35.5,3.9V589A246.23,246.23,0,0,1,198.19,585C188,583,180.15,580.52,174.71,577.69Z" fill="#f99b0f"/><path d="M299.73,553.74,291,556.66q5.22,1.44,4.91,3.47c-.19,1.36-2.23,2.76-6.09,4.2l-9-1.75c2.15-.82,3.1-1.62,2.82-2.4s-1.73-1.43-4.38-1.95a36.83,36.83,0,0,0-9.09-.55,33,33,0,0,0-8.64,1.54,9.6,9.6,0,0,0-2.09.94c-.47.31-.7.64-.7,1,0,.67,1.58,1.53,4.88,2.59,2,.63,3.38,1.14,4.25,1.52,3.06,1.33,4.4,2.67,4,4s-2.47,2.65-6.24,3.91a72.53,72.53,0,0,1-16.37,3.25,74.28,74.28,0,0,1-16.76-.18l-10.47,3.5-8.36-1.62,10.06-3.37c-4.41-1.18-6.54-2.58-6.35-4.19s2.66-3.24,7.46-4.86l8.64,1.68q-4.59,1.68-4.21,3.05t5.74,2.42a41.82,41.82,0,0,0,10.44.64,37.49,37.49,0,0,0,9.91-1.77,17.23,17.23,0,0,0,2.52-1,3.33,3.33,0,0,0,1.25-1q.94-1.47-4.48-3.29l-1.33-.45q-6.63-2.31-6.94-4.34c-.22-1.35,1.66-2.7,5.64-4a62.5,62.5,0,0,1,14.7-2.88,77.32,77.32,0,0,1,16,.24l8.62-2.89Z" fill="#f99b0f"/><path d="M299.73,550.47,291,553.39q5.22,1.44,4.91,3.48c-.19,1.35-2.23,2.75-6.09,4.19l-9-1.74c2.15-.83,3.1-1.63,2.82-2.41S282,555.48,279.3,555a36.83,36.83,0,0,0-9.09-.55,32.94,32.94,0,0,0-8.64,1.55,9.19,9.19,0,0,0-2.09.93c-.47.32-.7.64-.7,1,0,.67,1.58,1.53,4.88,2.59,2,.63,3.38,1.14,4.25,1.52,3.06,1.33,4.4,2.68,4,4s-2.47,2.65-6.24,3.92A81.28,81.28,0,0,1,232.54,573l-10.47,3.51-8.36-1.63,10.06-3.37c-4.41-1.18-6.54-2.57-6.35-4.19s2.66-3.24,7.46-4.86l8.64,1.68q-4.59,1.68-4.21,3t5.74,2.42a41.82,41.82,0,0,0,10.44.64,37.49,37.49,0,0,0,9.91-1.77,17.23,17.23,0,0,0,2.52-1,3.33,3.33,0,0,0,1.25-.95q.94-1.47-4.48-3.29l-1.33-.45q-6.63-2.31-6.94-4.34c-.22-1.35,1.66-2.7,5.64-4a63,63,0,0,1,14.7-2.88,77.32,77.32,0,0,1,16,.24l8.62-2.89Z" fill="#ffc910"/><path d="M170.26,559.55c-.23-6.3-.55-14.71-.79-21,.16,4.34.61,16.05.8,20.54C170.26,559.23,170.26,559.39,170.26,559.55Z" fill="#ffc910"/><path d="M344,529.68q.44,11.64.88,23.28c.22,5.93-7.55,12.19-23.64,17.58-34.75,11.64-95.09,14.82-134.79,7.1-21.32-4.14-32.35-10.59-32.61-17.47L153,536.89c.26,6.88,11.29,13.33,32.61,17.47,39.69,7.72,100,4.54,134.79-7.1C336.47,541.87,344.24,535.61,344,529.68Z" fill="#ffab01"/><path d="M311.41,512.21c39.7,7.72,43.72,23.41,9,35s-95.1,14.82-134.79,7.1-43.71-23.41-9-35.05S271.71,504.5,311.41,512.21Zm-115,38.53c32.88,6.39,82.86,3.76,111.64-5.88s25.46-22.64-7.42-29-82.86-3.76-111.64,5.88-25.46,22.64,7.42,29" fill="#ffc910"/><path d="M300.61,515.83c32.88,6.39,36.21,19.39,7.42,29s-78.76,12.27-111.64,5.88-36.2-19.38-7.42-29S267.73,509.44,300.61,515.83Z" fill="#ffab01"/><path d="M189,524.61c28.78-9.64,78.76-12.27,111.64-5.88,16.36,3.18,25.4,8,26.81,13.22,1.64-6.31-7.46-12.36-26.81-16.12-32.88-6.39-82.86-3.76-111.64,5.88-14.46,4.85-20.81,10.54-19.39,15.81C170.73,533.11,177.12,528.58,189,524.61Z" fill="#f99b0f"/><path d="M162.11,547v22.81c5.45,3,13.59,5.71,24.36,7.8a244.55,244.55,0,0,0,35.5,3.9V558.29a245,245,0,0,1-36.38-3.93C175.38,552.38,167.55,549.87,162.11,547Z" fill="#f99b0f"/><path d="M287.13,523.08,278.41,526q5.22,1.46,4.91,3.48c-.19,1.35-2.23,2.75-6.09,4.19l-9-1.74c2.15-.82,3.1-1.62,2.82-2.4s-1.73-1.44-4.38-1.95a36.82,36.82,0,0,0-9.09-.56,33.36,33.36,0,0,0-8.64,1.55,9.19,9.19,0,0,0-2.09.93c-.47.32-.7.64-.7,1,0,.68,1.58,1.54,4.88,2.6,2,.63,3.38,1.13,4.25,1.52,3.06,1.33,4.4,2.67,4,4s-2.48,2.66-6.24,3.92a72.64,72.64,0,0,1-16.37,3.25,74.24,74.24,0,0,1-16.76-.19l-10.47,3.51-8.36-1.63,10.06-3.37c-4.41-1.17-6.54-2.57-6.35-4.19s2.66-3.23,7.46-4.86l8.64,1.68q-4.59,1.68-4.21,3.06t5.74,2.42a42.3,42.3,0,0,0,10.44.64,37.89,37.89,0,0,0,9.91-1.78,16.27,16.27,0,0,0,2.52-1,3.55,3.55,0,0,0,1.25-.95q.94-1.49-4.48-3.3l-1.33-.45q-6.63-2.31-6.94-4.33c-.22-1.36,1.66-2.7,5.64-4a63.53,63.53,0,0,1,14.7-2.88,76.62,76.62,0,0,1,16,.25l8.62-2.89Z" fill="#f99b0f"/><path d="M287.13,519.82l-8.72,2.91q5.22,1.46,4.91,3.48c-.19,1.35-2.23,2.75-6.09,4.2l-9-1.75c2.15-.82,3.1-1.62,2.82-2.4s-1.73-1.44-4.38-2a36.82,36.82,0,0,0-9.09-.56A33.36,33.36,0,0,0,249,525.3a8.72,8.72,0,0,0-2.09.94c-.47.31-.7.63-.7,1,0,.68,1.58,1.54,4.88,2.6,2,.63,3.38,1.13,4.25,1.52,3.06,1.33,4.4,2.67,4,4s-2.48,2.66-6.24,3.92a72.64,72.64,0,0,1-16.37,3.25,74.24,74.24,0,0,1-16.76-.19l-10.47,3.51-8.36-1.62,10.06-3.38c-4.41-1.17-6.54-2.57-6.35-4.19s2.66-3.23,7.46-4.86l8.64,1.68q-4.59,1.69-4.21,3.06t5.74,2.42a42.3,42.3,0,0,0,10.44.64,37.89,37.89,0,0,0,9.91-1.78,16.27,16.27,0,0,0,2.52-1,3.55,3.55,0,0,0,1.25-.95q.94-1.49-4.48-3.3l-1.33-.44c-4.42-1.55-6.73-3-6.94-4.34s1.66-2.7,5.64-4a63.53,63.53,0,0,1,14.7-2.88,77.31,77.31,0,0,1,16,.25l8.62-2.89Z" fill="#ffc910"/><path d="M185.53,526.78l-.8-21c.16,4.34.62,16.06.8,20.55A3.84,3.84,0,0,0,185.53,526.78Z" fill="#ffc910"/><path d="M359.28,496.91q.44,11.64.88,23.28c.23,5.93-7.55,12.18-23.64,17.57-34.74,11.64-95.09,14.82-134.79,7.1-21.32-4.14-32.35-10.58-32.61-17.46l-.88-23.28c.26,6.88,11.29,13.32,32.61,17.47,39.7,7.71,100,4.53,134.79-7.11C351.73,509.1,359.51,502.84,359.28,496.91Z" fill="#ffab01"/><path d="M326.67,479.44c39.7,7.71,43.72,23.4,9,35s-95.09,14.82-134.79,7.11-43.71-23.41-9-35.05S287,471.72,326.67,479.44ZM211.65,518c32.88,6.39,82.87,3.75,111.65-5.89s25.45-22.63-7.43-29S233,479.3,204.23,488.94s-25.46,22.64,7.42,29" fill="#ffc910"/><path d="M315.87,483.05c32.88,6.4,36.21,19.39,7.43,29S244.53,524.36,211.65,518s-36.2-19.39-7.42-29S283,476.66,315.87,483.05Z" fill="#ffab01"/><path d="M204.23,491.84C233,482.19,283,479.56,315.87,486c16.37,3.18,25.4,8,26.81,13.23,1.65-6.31-7.46-12.36-26.81-16.13C283,476.66,233,479.3,204.23,488.94c-14.46,4.84-20.81,10.53-19.39,15.81C186,500.34,192.39,495.8,204.23,491.84Z" fill="#f99b0f"/><path d="M177.37,514.26v22.81c5.46,3,13.6,5.7,24.36,7.79a244.7,244.7,0,0,0,35.51,3.9V525.52a247.64,247.64,0,0,1-36.39-3.93C190.65,519.6,182.81,517.09,177.37,514.26Z" fill="#f99b0f"/><path d="M302.39,490.31l-8.72,2.92q5.22,1.44,4.91,3.47c-.19,1.36-2.23,2.76-6.09,4.2l-9-1.74q3.24-1.25,2.82-2.41c-.27-.79-1.73-1.43-4.37-1.95a36.94,36.94,0,0,0-9.1-.55,33.29,33.29,0,0,0-8.63,1.54,9.71,9.71,0,0,0-2.1.94c-.47.32-.7.64-.7,1,0,.67,1.58,1.53,4.88,2.59,2,.63,3.38,1.14,4.26,1.52,3.05,1.33,4.39,2.67,4,4s-2.47,2.65-6.24,3.92a81.28,81.28,0,0,1-33.13,3.06l-10.47,3.51-8.36-1.63,10.06-3.37c-4.41-1.18-6.53-2.57-6.35-4.19s2.66-3.24,7.46-4.86l8.64,1.68q-4.58,1.68-4.21,3.05c.24.92,2.15,1.72,5.74,2.42a41.82,41.82,0,0,0,10.44.64,37.64,37.64,0,0,0,9.92-1.77,18.9,18.9,0,0,0,2.51-1,3.44,3.44,0,0,0,1.25-1q.94-1.47-4.48-3.29l-1.32-.45c-4.43-1.54-6.74-3-6.95-4.34s1.67-2.7,5.64-4a63.11,63.11,0,0,1,14.7-2.88,77.32,77.32,0,0,1,16,.24l8.63-2.88Z" fill="#f99b0f"/><path d="M302.39,487,293.67,490q5.22,1.44,4.91,3.48c-.19,1.35-2.23,2.75-6.09,4.19l-9-1.74q3.24-1.25,2.82-2.41T282,491.54a36.45,36.45,0,0,0-9.1-.56,32.87,32.87,0,0,0-8.63,1.55,9.3,9.3,0,0,0-2.1.93c-.47.32-.7.64-.7,1,0,.67,1.58,1.53,4.88,2.59,2,.63,3.38,1.14,4.26,1.52,3.05,1.33,4.39,2.68,4,4s-2.47,2.65-6.24,3.92A72.55,72.55,0,0,1,252,509.73a73.7,73.7,0,0,1-16.76-.18l-10.47,3.51-8.36-1.63,10.06-3.37c-4.41-1.18-6.53-2.57-6.35-4.19s2.66-3.24,7.46-4.86l8.64,1.68q-4.58,1.68-4.21,3.05c.24.92,2.15,1.72,5.74,2.42a41.82,41.82,0,0,0,10.44.64,37.64,37.64,0,0,0,9.92-1.77,18.9,18.9,0,0,0,2.51-1,3.44,3.44,0,0,0,1.25-1q.94-1.47-4.48-3.29l-1.32-.45c-4.43-1.54-6.74-3-6.95-4.34s1.67-2.7,5.64-4a63.63,63.63,0,0,1,14.7-2.88,77.32,77.32,0,0,1,16,.24l8.63-2.88Z" fill="#ffc910"/><path d="M759.74,125.94a73.77,73.77,0,0,0,59.72,32.56L812,166.69a73.79,73.79,0,0,1-59.69-32.51l.08-.24-.08.24a72.59,72.59,0,0,1-12.6-40.55A69.93,69.93,0,0,1,757.91,46l7.45-8.19a69.91,69.91,0,0,0-18.19,47.65,72.67,72.67,0,0,0,12.57,40.5,17.82,17.82,0,0,0-2.38,2.22c-1.72,1.88-3.25,3.91-4.93,5.82,1.68-1.91,3.21-3.94,4.93-5.82A17.82,17.82,0,0,1,759.74,125.94Z" fill="#ffc910"/><path d="M819.46,158.5a70.23,70.23,0,0,0,53.44-22.9l-7.45,8.19A70.24,70.24,0,0,1,812,166.69Z" fill="#ffc910"/><path d="M811.35,23.08c39.74.7,72.11,33.41,72.29,73.06A70,70,0,0,1,812,166.69c-39.75-.69-72.11-33.4-72.29-73.06A70,70,0,0,1,811.35,23.08Z" fill="#ffab01"/><polygon points="785.99 48.87 785.32 48.85 785.32 48.93 785.99 48.94 785.99 48.87" fill="#f99b0f"/><polygon points="786.34 125.71 785.67 125.69 785.67 125.77 786.34 125.78 786.34 125.71" fill="#f99b0f"/><path d="M743.7,93.63A70,70,0,0,1,812,23.11l-.61,0a70,70,0,0,0-71.63,70.55c.18,39.66,32.54,72.37,72.29,73.06,1.13,0,2.25,0,3.37,0C775.92,165.65,743.88,133.08,743.7,93.63Z" fill="#f99b0f"/><path d="M757.91,46l7.45-8.19a70.24,70.24,0,0,1,53.44-22.9l-7.45,8.19A70.23,70.23,0,0,0,757.91,46Z" fill="#ffab01"/><path d="M746.77,35.85l7.45-8.19A84.74,84.74,0,0,1,818.73,0L811.28,8.2A84.78,84.78,0,0,0,746.77,35.85Z" fill="#ee8f01"/><path d="M884.05,145.73l-7.45,8.19a84.45,84.45,0,0,0,22-57.52C898.34,48.53,859.26,9,811.28,8.2L818.73,0c48,.84,87.07,40.33,87.29,88.2A84.46,84.46,0,0,1,884.05,145.73Z" fill="#f99b0f"/><path d="M811.28,8.2c48,.84,87.06,40.33,87.28,88.2a84.51,84.51,0,0,1-86.48,85.17c-48-.84-87.06-40.32-87.28-88.2A84.51,84.51,0,0,1,811.28,8.2ZM812,166.69a70,70,0,0,0,71.63-70.55c-.18-39.65-32.55-72.36-72.29-73.06a70,70,0,0,0-71.63,70.55c.18,39.66,32.54,72.37,72.29,73.06" fill="#ffc910"/><path d="M817.37,40.88l0,12a18.56,18.56,0,0,1,11.73,6.78q4.43,5.49,5,14.08l-10.84-.19a11.57,11.57,0,0,0-3.37-7.76,11.09,11.09,0,0,0-7.8-3,10.75,10.75,0,0,0-8.2,3,11.26,11.26,0,0,0-3,8.34,10.85,10.85,0,0,0,.56,3.51,8.34,8.34,0,0,0,1.67,2.89q2.28,2.69,9.67,4.45a59.49,59.49,0,0,1,6.73,1.92c5.4,2,9.49,4.9,12.29,8.68A21.89,21.89,0,0,1,836,109c0,6.58-1.65,12.12-5,16.65a18.7,18.7,0,0,1-13.21,7.76l.07,14.42-10.11-.17-.07-13.85a22.37,22.37,0,0,1-14.46-8q-5.36-6.54-5.46-16.52l10.44.19q.38,6.7,3.8,10.15t9.93,3.55q5.94.09,9.45-3.44c2.34-2.36,3.5-5.56,3.48-9.57a17.28,17.28,0,0,0-.44-3.94,10.49,10.49,0,0,0-1.23-3.13c-1.78-2.93-5.44-5.09-11-6.51l-2-.54q-10.33-2.82-15.25-8c-3.28-3.48-4.91-8-4.94-13.43q0-9,4.58-14.86a19.58,19.58,0,0,1,12.75-7.21l0-11.88Z" fill="#f99b0f"/><path d="M812.87,40.88l0,12a18.56,18.56,0,0,1,11.73,6.78q4.43,5.49,5,14.08l-10.84-.19a11.61,11.61,0,0,0-3.37-7.76,11.09,11.09,0,0,0-7.8-3,10.75,10.75,0,0,0-8.2,3,11.26,11.26,0,0,0-3,8.34,11.14,11.14,0,0,0,.55,3.51,8.52,8.52,0,0,0,1.68,2.89q2.26,2.69,9.67,4.45A59.49,59.49,0,0,1,815,86.94c5.4,2,9.49,4.9,12.29,8.68A21.89,21.89,0,0,1,831.53,109q0,9.87-5,16.65a18.74,18.74,0,0,1-13.21,7.76l.06,14.42-10.1-.17-.07-13.85a22.37,22.37,0,0,1-14.46-8q-5.37-6.54-5.46-16.52l10.44.19q.38,6.7,3.8,10.15t9.93,3.55q5.93.09,9.45-3.44c2.34-2.36,3.5-5.56,3.48-9.57a17.28,17.28,0,0,0-.44-3.94,10.49,10.49,0,0,0-1.23-3.13c-1.78-2.93-5.44-5.09-11-6.51l-2-.54q-10.33-2.82-15.25-8t-4.94-13.43q0-9,4.58-14.86a19.58,19.58,0,0,1,12.75-7.21l0-11.88Z" fill="#ffc910"/><path d="M1136.27,396.44a44.36,44.36,0,0,1-36.16-40.6l10.51-.72a33.78,33.78,0,0,0,36,31.42,25.94,25.94,0,0,0,24.15-27.68,19.71,19.71,0,0,0-21-18.35,14.73,14.73,0,0,0-13.71,15.7l-10.51.72A25.26,25.26,0,0,1,1149,330a30.31,30.31,0,0,1,32.27,28.15,36.51,36.51,0,0,1-34,38.92A44.4,44.4,0,0,1,1136.27,396.44Z" fill="#387bff"/><path d="M734,692.29a10.58,10.58,0,0,1-10.55,10.54H645.4a10.57,10.57,0,0,1-10.53-10.54V598.35a10.57,10.57,0,0,1,10.53-10.54h78.07A10.58,10.58,0,0,1,734,598.35Z" fill="#0063cb"/><path d="M991.82,692.29a10.58,10.58,0,0,1-10.54,10.54H903.2a10.57,10.57,0,0,1-10.54-10.54V598.35a10.57,10.57,0,0,1,10.54-10.54h78.08a10.57,10.57,0,0,1,10.54,10.54Z" fill="#0063cb"/><path d="M533.71,96c-.68,0-1.31.09-2,.1V278.44h99A117,117,0,0,0,533.71,96Z" fill="#06497d"/><path d="M876.8,159.46H702.29c-106.57,0-196.75,70-227.08,166.58H412.75V464.87h41l-8.84,42.79h42.64c38.27,80.19,120,135.68,214.74,135.68H876.8c131.43,0,238-106.55,238-238v-7.92C1114.77,266,1008.23,159.46,876.8,159.46Z" fill="#387bff"/><path d="M906.71,698a26,26,0,0,0,.49,4.87h74.08a10.58,10.58,0,0,0,10.54-10.54V636.52a236.49,236.49,0,0,1-85.11,30.39Z" fill="#387bff"/><path d="M634.87,665.27v27a10.57,10.57,0,0,0,10.53,10.54h60.5V670.57H684.72A237.24,237.24,0,0,1,634.87,665.27Z" fill="#387bff"/><path d="M596.25,377.6h-10a30.67,30.67,0,0,0-61.34,0h-10a40.72,40.72,0,1,1,81.43,0Z" fill="#06497d"/><path d="M621,96c-.69,0-1.33.09-2,.1V278.44h99A117,117,0,0,0,621,96Z" fill="#387bff"/><path d="M1163,326.13a25.27,25.27,0,0,0-32.25-15.41l3.52,9.94a14.73,14.73,0,0,1,18.79,9,19.73,19.73,0,0,1-12,25.18c-4.61,1.63-9.57,0-13.92-1.95-3.71-1.64-2.31,17.05,14.88,12.68.86-.22,1.7-.5,2.55-.79A30.3,30.3,0,0,0,1163,326.13Z" fill="#387bff"/><path d="M400.65,390.32l16.93-30.38-3.41-7.46s-.41.17-.5,2.18c0,.57,1.3,2.76,1,3.33-.34.76,0,3.44-.94,4.06-6.83,4.48-17.88,9.84-23.57,17.13C381,390.91,400.56,390.93,400.65,390.32Z" fill="#e9d6b8"/><path d="M352.17,465.69s-3.35-13.61,13.05-47.15C382,384.26,383.77,386,383.77,386l5.58-6.62,14,7.14-30.77,75.8Z" fill="#d1dbea"/><polygon points="388.69 387.09 397.26 392.18 399.58 393.17 403.05 386.8 392.27 383.25 388.69 387.09" fill="#b0bfde"/><path d="M408.25,351.86c.22-2.69.07-7.61,1.54-6.61l.59,8.78,1.94,3.86,3.25,1.23-1.47,2.51c.21,1.09.27,1.92-1.54,2.22l-.59,1.08c-2-2.66-2.86-3.72-3.12-4.69l-.76-4.12A17.93,17.93,0,0,1,408.25,351.86Z" fill="#e9d6b8"/><path d="M335.89,547.92s17.55,62.18,31.61,84.45,19-6.71,19-6.71L369,522.26,328.15,522S329.19,524.12,335.89,547.92Z" fill="#3c463b"/><path d="M355.28,522.25s-11.76,102-13.44,107.13c-5.69,17.35-18.71,6.15-20.72.37s-5.36-48.55-4.69-79.76.67-29.17.67-29.17Z" fill="#3c463b"/><path d="M319.44,722.54c-.6.74-.16,2.67-.16,2.67s10.58,1.18,14,.38a17.9,17.9,0,0,0,3.79-1.78c.24-.13.66-.95.89-1.09.42-.25.64.18,1-.05a11.16,11.16,0,0,0,1.61-1.12c.93-4.85-.3-6.8-.3-6.8s-9-3-10.7-.91C325.59,718.75,320.77,720.94,319.44,722.54Z" fill="#161711"/><path d="M385.23,718.19l1.51,7.88h8s.45-1.11,1.13-1.11,1.32,1.11,2.09,1.11h20.45s.36-1.65-.08-2.22a7.61,7.61,0,0,0-2.47-1.06c-4.15-1.17-16-4.81-18.1-8.78C395.28,709.18,385.23,718.19,385.23,718.19Z" fill="#161711"/><path d="M335,411.15c.63,2.53-.25,4.93-2,5.35h0c-1.72.43-3.63-1.27-4.25-3.8l-.79-3.18c-.63-2.53.25-4.93,2-5.36h0c1.72-.42,3.62,1.27,4.25,3.81Z" fill="#e9d6b8"/><path d="M350.83,434.82c-.38,4.54-2.82,8.49-5.4,8.68H338.1c-2.57-.19-5-4.14-5.4-8.68l-1.8-22.53c-.4-4.49,1.36-13.54,5.25-16.2a9.71,9.71,0,0,1,11.22,0c3.9,2.66,5.66,11.71,5.26,16.2Z" fill="#e2c59c"/><path d="M296.11,507.48l26.12,26.75S290.73,527,289.33,514,296.11,507.48,296.11,507.48Z" fill="#e9d6b8"/><path d="M378.64,441.85l-13.36-16L342,440.13l-14.14-1.61-15.57,6.75s-7,6.76-.5,28.47,4,55.74,4,55.74L371.25,532a340.79,340.79,0,0,0,1.92-60.48C372,452.94,376.19,447.21,378.64,441.85Z" fill="#d1dbea"/><path d="M322.34,446.24s-8.64-6.77-17.08,5.79a233.92,233.92,0,0,0-23.11,44.88c-1.51,4.34-3.52,17.37,2.51,21.22l6,3.87,12.56-7.72-2-3.86-1-2.42s7-15.44,14.57-29.44S322.34,446.24,322.34,446.24Z" fill="#d1dbea"/><path d="M354.64,423.23c-1.17,4.24-2.92,5.25-6,5.72-2.95.29-3.67.59-6.62.88-3.13.15-6.32-4-7-7.78-1.16-6.23-4.56-11.37-5.73-17.61-.75-3.73.85-7.09,5.41-9.79,4.17-2.43,9.11-7.39,13.56-5.82,4.86,1.78,7.52,9.17,7.3,13C355.21,408.23,354.92,416.84,354.64,423.23Z" fill="#e9d6b8"/><polygon points="341.84 440.22 337.19 447.84 328.02 437.69 332.07 433.33 341.84 440.22" fill="#b0bfde"/><polygon points="351.48 433.2 345.93 438.82 349.65 445.42 354.19 436.71 351.48 433.2" fill="#b0bfde"/><path d="M344.82,585.86s-2.62,38.69-2.24,59.15c.28,15.43.31,45-2,70.21-.14,1.54-12.73.38-12.73.38s-8.44-96.45-9.78-112.25S334.77,574.57,344.82,585.86Z" fill="#3c463b"/><path d="M382.13,628.69a144,144,0,0,1-14.73,1.75c-5.1.44,14.9,89.26,14.9,89.26l15.84-6.83-11.93-89.49Z" fill="#323b31"/><path d="M327,399.57l2.27,4.87s4.83-5.44,8.24-9.89c1.07-1.41,12.09-1.53,14.82-1,2,.35,2.23,2.91,2.68,4.39,1.64,5.3-.7-8.93-.7-8.93s-3.73-6.69-10.74-7.26c-3.87-.3-5.67,2-7.14,4.87-.35.68,4.27-1.12,3.46-1.22a49.81,49.81,0,0,0-4.87,4.26,23.85,23.85,0,0,1-2.42,4.37C328.82,399,327,399.57,327,399.57Z" fill="#163f59"/><polygon points="343.44 402.49 346.48 402.91 345.66 404.77 348.07 405.66 350.44 415 346.45 415.3 345.83 409.58 343.42 406.71 337.3 406.14 343.44 402.49" fill="#e2c59c"/><polygon points="290.41 519.55 301.24 510.42 305.48 516.2 294.87 524.85 290.41 519.55" fill="#d1dbea"/><path d="M314.48,524c1.74.52,1.64.42,1.64.42a6.69,6.69,0,0,0,1.29,4c.68.85,3.23,3.23,3.23,3.23l3.72,3.56,1.86,1.52s1.12.78,1.23,1.19c.32,1.2-.7,1-.7,1L319,533.69l5.83,6.81s.6,1,.23,1.47-.6.19-.6.19L316.11,536l2.62,3.85s.56,1,.23,1.47a7.84,7.84,0,0,0-.45.7l-6.4-7.1S312.74,523.5,314.48,524Z" fill="#e9d6b8"/><path d="M318.21,535.16l3.82,5a5.32,5.32,0,0,1,1.15,1.79.84.84,0,0,1-.56,1.06l-6.51-7Z" fill="#e9d6b8"/><path d="M341.45,530.43h5.86a221.29,221.29,0,0,0-.9-92l-5.3,2.12A211.46,211.46,0,0,1,341.45,530.43Z" fill="#b0bfde"/><polygon points="1045.15 710.17 1049.41 710.17 950.34 340.39 946.07 340.39 1045.15 710.17" fill="#b0bfde"/><polygon points="986.87 710.17 991.14 710.17 892.05 340.39 887.79 340.39 986.87 710.17" fill="#b0bfde"/><polygon points="954.35 363.32 953.2 359.06 893.5 359.06 894.64 363.32 954.35 363.32" fill="#b0bfde"/><polygon points="963.06 395.84 961.92 391.57 902.21 391.57 903.35 395.84 963.06 395.84" fill="#b0bfde"/><polygon points="971.77 428.36 970.63 424.09 910.92 424.09 912.06 428.36 971.77 428.36" fill="#b0bfde"/><polygon points="980.48 460.87 979.34 456.6 919.63 456.6 920.78 460.87 980.48 460.87" fill="#b0bfde"/><polygon points="989.2 493.38 988.05 489.12 928.35 489.12 929.49 493.38 989.2 493.38" fill="#b0bfde"/><polygon points="997.91 525.9 996.77 521.64 937.06 521.64 938.21 525.9 997.91 525.9" fill="#b0bfde"/><polygon points="1006.62 558.42 1005.48 554.16 945.78 554.16 946.91 558.42 1006.62 558.42" fill="#b0bfde"/><polygon points="1015.34 590.94 1014.19 586.68 954.49 586.68 955.63 590.94 1015.34 590.94" fill="#b0bfde"/><polygon points="1024.05 623.46 1022.9 619.19 963.2 619.19 964.34 623.46 1024.05 623.46" fill="#b0bfde"/><polygon points="1032.76 655.98 1031.62 651.71 971.92 651.71 973.06 655.98 1032.76 655.98" fill="#b0bfde"/><polygon points="1041.47 688.49 1040.33 684.23 980.63 684.23 981.77 688.49 1041.47 688.49" fill="#b0bfde"/><path d="M952.24,423.67c-.66-.67-.38-2.61-.38-2.61s10.34-2,13.75-1.48a17.29,17.29,0,0,1,3.88,1.46c.24.11.72.88,1,1,.44.22.62-.22,1,0a12.18,12.18,0,0,1,1.68,1c1.3,4.71.24,6.73.24,6.73s-8.37,3.37-10.47,1.75C957.56,427.36,953.67,425.15,952.24,423.67Z" fill="#161711"/><path d="M928.19,415l.72,7.9-7.64,2.21s-.73-.94-1.37-.76-.94,1.42-1.69,1.64l-4.1,1.18-15.33,4.41s-.79-1.47-.52-2.14a7.58,7.58,0,0,1,2-1.68c3.63-2.24,13.91-9,14.79-13.29C916.17,409.17,928.19,415,928.19,415Z" fill="#161711"/><path d="M922.16,161.05l1.24-9.55s-6.53-1.67-6.6-5.51c-.17-7.7,5.64-18,8.18-20.53,7.26-7.29,14.26-22,30.17-3,6,7.22-13.34,25.69-15.86,30.26s-1.82,11.05-1.82,11.05l-5.88,1.92Z" fill="#e9d6b8"/><path d="M963.48,225.61l-39.75,11.53s23.51,5.23,43.17,1S965.4,225.82,963.48,225.61Z" fill="#e2c59c"/><path d="M946.73,322.84s-15.92,19.93-10.11,36.88C947,389.86,955.29,414,958.73,424.1c1.34,3.92,2.42,3.1,2.42,3.1l8.74.27,3.83-3.9-18-69.43Z" fill="#163f59"/><path d="M861.22,158.44l-24.51-29.69s9.39,40.85,22.68,44.15S861.22,158.44,861.22,158.44Z" fill="#e9d6b8"/><path d="M938.58,162.93s8.74-1,25.37,31.16S977,226,977,226l1.78,8-12.27,5.78L949.5,213Z" fill="#d4edff"/><path d="M905.38,266s16.25,66.94,38,105.08c11.65,20.42,10.91-8.92,10.91-8.92l-18-120.44-41.55-2S899.07,245.27,905.38,266Z" fill="#163f59"/><path d="M933.14,262.74s-33.39,67.39-35,72.2c-7.83,23.47-17.77-5.37-18.26-11.09s1.7-35.14,9.56-63.41l7.86-28.27Z" fill="#163f59"/><path d="M899,321.82s5.71,11.6,12,26.7c4.64,11.09,14.12,43.86,18.56,67.24.28,1.42-15.42,1.35-15.42,1.35s-23.64-62.19-29-76.11S887,314.24,899,321.82Z" fill="#163f59"/><path d="M951,172.72,940.86,162l-4.29-5.76-18.71-2.62-4,5.76-15.36,5.5s-4.3,6-3.83,30.06c.51,26.66-12.77,63.19-7.45,67.18,34.83,26.14,53.27,5.68,53.27,5.68S958.32,217.5,951,172.72Z" fill="#d4edff"/><path d="M924.32,168.47s2.1,4.47-10.22,8c-21,6-43,3.86-47.31,3.57s-10.34-.86-14.4-8.66c-3.12-6-4.19-7.92-4.19-7.92L860,155.1l2.63,3.21,1.14,2s15.91-.88,30.83-1.83C929.45,156.24,924.32,168.47,924.32,168.47Z" fill="#d4edff"/><path d="M929.76,130s2.74-.62,2.5,1.23-2.76,5.28-3.92,5.28-3.1,4.58-3.1,4.58l1,6.16,14.1,4.79s5-.44,6.42-3.46,12.39-24,12.39-24L951,116a69.08,69.08,0,0,0-7.65-6.66c-5.06-3.51-7.26-.91-7.61.71s-2.16,1.21-4.43.44-5.64,0-4.78,1.49c.36.6-2.35,1.22-2,3.19.48,2.8,4.49,5,3.54,9C927.62,125.91,926.39,131.91,929.76,130Z" fill="#194866"/><path d="M838.25,136.89s5.91-2.79,6.34-4.6,1.54-8.59,1.54-8.59l.13-1.75s-1.85-1.23-2.56,3.32-1.57,2.13-1.57,2.13l-.94-4.38-1.56-5.29-.4-2.43a4.49,4.49,0,0,0-.43-1.7c-.9-.9-1.24.11-1.24.11l.74,9.58-3.08-8.67s-.59-1.05-1.2-1-.47.44-.47.44l1.18,10.6-2.09-4.29s-.59-1-1.19-1a7.64,7.64,0,0,1-.85,0l5.77,17.65Z" fill="#e9d6b8"/><path d="M881.9,590.19c6.73,1.69,19.13,7.73,21.73,18,3.9,15.49-3.9,38.23,8.45,60.47,3.94,7.09-68.22,16.63-68.22,16.63l-13.92-78.28s17.39-17,20.94-18.13C858.25,586.56,868.45,586.81,881.9,590.19Z" fill="#fec00f"/><path d="M829.82,607.11c-2.51,6.25-8.84,43.46-1.78,52.24.81,1-3.66,2.58-2.86,7.21.14.78,1.49,4.47,1.49,4.47l5.77,1.5,17.43-9.92-3.34-4.06-1.58,0a3.57,3.57,0,0,1-1.08-3.1c.41-1.7-4-4.48-10.66-33.36C831.25,613.63,830.37,605.73,829.82,607.11Z" fill="#f99b1c"/><path d="M836.56,657.58l5.16-1.13,2.08-.34a3.8,3.8,0,0,0,1.15,2.47l-4,.13-4.68,1-5.66,3.23Z" fill="#ecb60d"/><path d="M843.93,662.39a15.42,15.42,0,0,0-7.38,2c-2.58,1.59-5,5.05-2.58,6.92a37.85,37.85,0,0,0,6,3.62S849.07,675.22,843.93,662.39Z" fill="#c4d1e1"/><path d="M834,671.49l2.43-.52s8.35-.76,9.54-.11,5,3.25,5,3.25l.79.72s-1.87,1.17-4.38-.6-2.73-.4-2.73-.4l.42,2.23,0,2.84.38,1.2s.36.65.08.89a1.62,1.62,0,0,1-1.59.36l-2.54-4.44-.69,4.83a1.76,1.76,0,0,1-1.14.82c-.75.16-.75,0-.75,0l-.58-1.22a1.57,1.57,0,0,1-.5.84,2.43,2.43,0,0,1-1.52.43l.24-5.09-1,2.59a1.91,1.91,0,0,1-1.15.82l-1.07.26Z" fill="#e4eef3"/><path d="M877.27,651.59S871.2,667,856.62,671.07c-2.52.72-4.07,3.44-2.85,4.31,1.56,1.13,3.69,1.37,7.35,1.36,7.62,0,18-2.39,25.18-9.33,10.62-10.28,14-14.95,12.89-20.12S877.27,651.59,877.27,651.59Z" fill="#e9d6b8"/><path d="M901.56,603.06c3.09,5.07,4.87,13.22,4.85,24.88,0,9-7.8,23.81-9,28.35-.2.76-.67,4-.67,4l-8.63,8.47L870.79,657l5.26-8.08,1.57.17s1-4.46.73-6.19,4.8-25,7.3-40C887.09,594.39,898.5,598,901.56,603.06Z" fill="#f99b1c"/><path d="M886.06,648.83l-5-1.56-2.06-.51a3.85,3.85,0,0,1-1.35,2.37l4,.46,4.59,1.4,5.37,3.68Z" fill="#e8b00e"/><path d="M857.74,671l-8.82-2.41s-2.5,3.35-2,4.18,0,5.79,0,5.79l4.27,3.64,3.48-1.16s.24-1.52-.95-1.66.8-1,1.43-1.37S860.85,675,857.74,671Z" fill="#e9d6b8"/><rect x="853.39" y="573.62" width="16.08" height="24.25" rx="5.39" transform="translate(-145.31 318.09) rotate(-19.33)" fill="#e4eef3"/><path d="M849.42,600.62a3.47,3.47,0,0,0,4.27,2.42l15.1-4.16a3.49,3.49,0,0,0,2.43-4.28l-6.17-22.35a3.47,3.47,0,0,0-4.27-2.43L845.68,574a3.48,3.48,0,0,0-2.43,4.27Z" fill="#e9d6b8"/><path d="M844.5,582.87s-2.62-1.6-3.36-2.83a5.19,5.19,0,0,1,1-4.78c1.41-1.44,3.3,0,3.3,0s-2.27,2.24-2.25,2.84S844.5,582.87,844.5,582.87Z" fill="#163f59"/><path d="M869.37,581.88s-.09-9.22-1.21-11.62-1.87-4.07-5-3.5c-4.71.85-4.5,1.84-7.12,1.06s-7.57-3-9-3c-2.46.07-5.86,1.84-4.8,6.2a5.05,5.05,0,0,1-.93,4.68c.28.34,1.22.47,2.88.8,4.77.94,7.41.66,10.39-1.06s8.47-5.19,9.82-3,3.08,9.53,3.51,10S868.92,582.46,869.37,581.88Z" fill="#194866"/><path d="M866.46,589.9a1.16,1.16,0,0,0,1.43.81l3.26-.9a1.15,1.15,0,0,0,.81-1.42l-1.64-6a1.15,1.15,0,0,0-1.43-.81l-3.26.89a1.16,1.16,0,0,0-.81,1.43Z" fill="#e9d6b8"/><path d="M847,595.26a1.17,1.17,0,0,0,1.43.81l3.26-.9a1.15,1.15,0,0,0,.81-1.42l-1.64-6a1.16,1.16,0,0,0-1.43-.81l-3.26.91a1.15,1.15,0,0,0-.81,1.42Z" fill="#e9d6b8"/><path d="M868.46,584.24,871.7,596c.73,2.65,1.27,8.77-13.72,12.9-8.87,2.44-10.34-4.16-10.93-6.31-.45-1.63.05-7,.73-8.22,0,0,1,3.63,1,3.63a7.32,7.32,0,0,1,5.09-5.21c6.8-1.87,9.44,1.68,12.42.79C868.58,592.87,869.28,588.62,868.46,584.24Z" fill="#194866"/><path d="M858.25,597.77l-4.65,1.29a1.16,1.16,0,0,1-1.43-.81l-.18-.65,6.9-1.9.17.65A1.14,1.14,0,0,1,858.25,597.77Z" fill="#e9d6b8"/><path d="M784.63,687.08c2.14,5.94,39.8,27.8,52.42,26.51l38,1.81c32.35-3.95,47.65-54.2,47.65-54.2-1.29-12.62-33.15,5.67-44.51,11.34-18,9-29.36,9.43-29.36,9.43-12,1.23-26-8.05-41.17-8.38C791,673.24,781.24,677.72,784.63,687.08Z" fill="#282723"/><path d="M867.37,681s0,0,0,0v-1.58l-65.46-1.19,0,1.58a.08.08,0,0,0,0,.05l.16.3c.82,1.38,2.33,1.66,4.05,1.69l57,1c1.73,0,3.24-.18,4.11-1.53Z" fill="#b6c2c9"/><path d="M851.59,681s0,0,0,0l.15.25a2.64,2.64,0,0,0,.94.82l10,.18c1.66,0,3.12-.14,4-1.24l.16-.23,0-.05V680l-15.17-.27Z" fill="#d8e5ed"/><rect x="825.85" y="663.23" width="1.12" height="32.72" transform="translate(131.79 1493.41) rotate(-88.95)" fill="#879ba6"/><path d="M851.26,679.06l-7.9-32.33a2.16,2.16,0,0,0-1.92-1.57l-45.93-.83a1.14,1.14,0,0,0-1.16,1.51l7.9,32.33Z" fill="#b0bfde"/><path d="M825.59,661.73a2.22,2.22,0,0,1-2.24,2.94,4.18,4.18,0,0,1-3.71-3,2.22,2.22,0,0,1,2.24-2.94A4.14,4.14,0,0,1,825.59,661.73Z" fill="#e1eefe"/><path d="M880.89,723.77c-4.53.78-8-4.48-8-4.48l-11.71-9.22,2.48-6.23,22.8,10.25S885.43,723,880.89,723.77Z" fill="#e9d6b8"/><path d="M872.89,718.93a11.77,11.77,0,0,0,.87,3c.87,2.4,1.94,3.24,3.07,3.57,4.37,1.29,7.51.64,18,2.66s13.66.5,16.73-4.34-.11-8.65-5.24-9c-7.42-.56-11.55.29-15.41-.3-4.05-.62-4.31-1.52-6.67-3s-4.27,6.77-2.17,8.65C884,721.76,874.47,722,872.89,718.93Z" fill="#f99b1c"/><path d="M875.14,723.61c4.37,1.29,7.52.64,18,2.66s13.66.5,16.74-4.34c1.42-2.25,1.49-4.24.66-5.8,2.31,1.58,3.1,4.37,1,7.64-3.07,4.84-6.23,6.37-16.73,4.34s-13.66-1.37-18-2.66a4.07,4.07,0,0,1-2.45-2.16A4.11,4.11,0,0,0,875.14,723.61Z" fill="#fff"/><path d="M872.91,719.08a.86.86,0,0,1,0-.15l.1.17Z" fill="#e9d6b8"/><path d="M895.61,722.72c.34.12.64-.51.74-1.4a24.66,24.66,0,0,1,1.22-5.42c.3-.89.3-1.67-.07-1.78s-1,.54-1.25,1.41a24.84,24.84,0,0,0-1.15,5.35C895,721.77,895.27,722.59,895.61,722.72Z" fill="#fff"/><path d="M892.35,722.13c.36.07.68-.55.78-1.39a23.57,23.57,0,0,1,1.2-5.1c.3-.83.28-1.55-.11-1.6s-1,.58-1.28,1.41a23.6,23.6,0,0,0-1.14,5C891.72,721.32,892,722.05,892.35,722.13Z" fill="#fff"/><path d="M888.94,722c.37,0,.74-.61.87-1.48a25.69,25.69,0,0,1,1.42-5.26c.33-.86.33-1.59-.08-1.61s-1,.66-1.37,1.51a25.24,25.24,0,0,0-1.35,5.2C888.31,721.2,888.57,721.93,888.94,722Z" fill="#fff"/><path d="M880.1,708.73s-80.45-33.07-85-33.12c-15.54-.14-12,15.58-4.11,23,9.29,8.72,79.92,24.69,79.92,24.69Z" fill="#323b31"/><polygon points="848.18 714.48 870.15 693.65 860.79 684.38 836.81 709.59 848.18 714.48" fill="#e9d6b8"/><path d="M843.64,698.1s55.88-51.22,59.65-52.75c12.76-5.18,20.66,8.91,20.21,13.78-.58,6.31-57.36,57.61-57.36,57.61Z" fill="#3c463b"/><path d="M810.52,716.1c-1.31,1.21-1.53,4.76-1.53,4.76s18.65,7,25.2,7.18a33.17,33.17,0,0,0,7.69-1.46c.5-.13,1.64-1.41,2.12-1.56.89-.26,1.09.61,1.86.37a24.37,24.37,0,0,0,3.45-1.27c3.94-8.38,2.61-12.5,2.61-12.5s-8.57,2.45-7.1.53c3.14-4.1-5.84-8.3-7.84-6.11C829,714.77,814.3,712.61,810.52,716.1Z" fill="#f99b1c"/><path d="M809.48,717.84c5.73,2.28,17.78,7,20.18,7.15,9.81.7,16.67-2.79,21.26-4.84a36.46,36.46,0,0,1-1.61,4,24.37,24.37,0,0,1-3.45,1.27c-.77.24-1-.63-1.86-.37-.48.15-1.62,1.43-2.12,1.56a33.17,33.17,0,0,1-7.69,1.46c-6.55-.13-25.2-7.18-25.2-7.18A12.44,12.44,0,0,1,809.48,717.84Z" fill="#fff"/><path d="M822.66,712.41c-.17.33.56.71,1.6.93a35,35,0,0,1,6.3,1.9c1,.42,2,.51,2.1.16s-.57-1-1.58-1.43a35.19,35.19,0,0,0-6.23-1.84C823.82,711.93,822.84,712.09,822.66,712.41Z" fill="#fff"/><path d="M826.85,710.93c-.16.34.55.8,1.57,1.1a36.34,36.34,0,0,1,6.08,2.39c1,.49,1.88.65,2,.27s-.54-1.12-1.52-1.59a35.83,35.83,0,0,0-6-2.32C828,710.5,827,710.6,826.85,710.93Z" fill="#fff"/><path d="M830.88,709.64c-.15.34.54.88,1.53,1.25a36.51,36.51,0,0,1,5.87,2.86c.94.56,1.8.77,1.92.37s-.52-1.2-1.45-1.75a36,36,0,0,0-5.83-2.77C831.94,709.24,831,709.29,830.88,709.64Z" fill="#fff"/><path d="M102.75,698.17c-.23-6.31-.55-14.72-.79-21,.16,4.34.62,16.05.8,20.54C102.75,697.85,102.75,698,102.75,698.17Z" fill="#ffc910"/><path d="M276.51,668.3q.44,11.64.88,23.28c.23,5.93-7.55,12.19-23.64,17.57C219,720.79,158.66,724,119,716.25c-21.32-4.14-32.35-10.58-32.61-17.46l-.88-23.28c.26,6.88,11.29,13.32,32.61,17.47,39.7,7.71,100,4.53,134.79-7.11C269,680.49,276.73,674.23,276.51,668.3Z" fill="#ffab01"/><path d="M243.9,650.83c39.7,7.71,43.72,23.4,9,35S157.78,700.69,118.08,693s-43.71-23.41-9-35.05S204.2,643.11,243.9,650.83Zm-115,38.53c32.88,6.39,82.87,3.76,111.65-5.88s25.45-22.64-7.43-29-82.86-3.75-111.64,5.89S96,683,128.88,689.36" fill="#ffc910"/><path d="M233.1,654.44c32.88,6.4,36.21,19.39,7.43,29s-78.77,12.27-111.65,5.88-36.2-19.39-7.42-29S200.22,648.05,233.1,654.44Z" fill="#ffab01"/><path d="M121.46,663.23c28.78-9.64,78.76-12.28,111.64-5.89,16.36,3.18,25.4,8,26.81,13.23,1.65-6.31-7.46-12.36-26.81-16.13-32.88-6.39-82.86-3.75-111.64,5.89-14.46,4.84-20.81,10.53-19.39,15.81C103.22,671.73,109.61,667.19,121.46,663.23Z" fill="#f99b0f"/><path d="M94.6,685.65v22.81c5.46,3,13.59,5.7,24.36,7.79a244.55,244.55,0,0,0,35.5,3.9V696.91A246.29,246.29,0,0,1,118.08,693C107.87,691,100,688.48,94.6,685.65Z" fill="#f99b0f"/><path d="M219.62,661.7l-8.72,2.92q5.22,1.44,4.91,3.47c-.19,1.36-2.23,2.76-6.09,4.2l-9-1.74q3.24-1.24,2.82-2.41c-.27-.79-1.73-1.43-4.37-1.95a36.94,36.94,0,0,0-9.1-.55,33.36,33.36,0,0,0-8.64,1.55,9.4,9.4,0,0,0-2.09.93c-.47.32-.7.64-.7,1,0,.67,1.58,1.54,4.88,2.59,2,.63,3.38,1.14,4.25,1.52,3.06,1.34,4.4,2.67,4,4s-2.47,2.65-6.24,3.92a72.55,72.55,0,0,1-16.37,3.24,73.7,73.7,0,0,1-16.76-.18L142,687.72l-8.36-1.63,10.06-3.37c-4.41-1.17-6.54-2.57-6.35-4.19s2.66-3.24,7.46-4.86l8.64,1.68q-4.59,1.68-4.21,3c.24.92,2.15,1.72,5.74,2.42a41.82,41.82,0,0,0,10.44.64,37.49,37.49,0,0,0,9.91-1.77,18.55,18.55,0,0,0,2.52-1,3.44,3.44,0,0,0,1.25-1q.94-1.47-4.48-3.29l-1.33-.45c-4.42-1.54-6.73-3-6.94-4.34s1.66-2.7,5.64-4a63.63,63.63,0,0,1,14.7-2.88,77.32,77.32,0,0,1,16,.24l8.63-2.88Z" fill="#f99b0f"/><path d="M219.62,658.43l-8.72,2.92q5.22,1.44,4.91,3.48c-.19,1.35-2.23,2.75-6.09,4.19l-9-1.74c2.16-.82,3.1-1.63,2.82-2.41s-1.73-1.43-4.37-2a36.94,36.94,0,0,0-9.1-.55,32.94,32.94,0,0,0-8.64,1.55,9.4,9.4,0,0,0-2.09.93c-.47.32-.7.64-.7,1,0,.67,1.58,1.54,4.88,2.59,2,.63,3.38,1.14,4.25,1.52,3.06,1.34,4.4,2.68,4,4s-2.47,2.66-6.24,3.92a72.55,72.55,0,0,1-16.37,3.24,73.7,73.7,0,0,1-16.76-.18L142,684.45l-8.36-1.63,10.06-3.37c-4.41-1.17-6.54-2.57-6.35-4.19s2.66-3.24,7.46-4.86l8.64,1.68q-4.59,1.68-4.21,3t5.74,2.42a41.82,41.82,0,0,0,10.44.64,37.49,37.49,0,0,0,9.91-1.77,18.55,18.55,0,0,0,2.52-1,3.55,3.55,0,0,0,1.25-.95q.94-1.49-4.48-3.3l-1.33-.45c-4.42-1.54-6.73-3-6.94-4.34s1.66-2.7,5.64-4a63.63,63.63,0,0,1,14.7-2.88,76.62,76.62,0,0,1,16,.25l8.63-2.89Z" fill="#ffc910"/><path d="M113.06,672.9c-.24-6.31-.55-14.72-.79-21,.16,4.34.61,16,.8,20.55C113.06,672.58,113.06,672.74,113.06,672.9Z" fill="#ffc910"/><path d="M286.82,643q.44,11.64.88,23.27c.22,5.94-7.55,12.19-23.64,17.58C229.31,695.52,169,698.7,129.27,691,108,686.84,96.92,680.4,96.66,673.52l-.88-23.28c.26,6.88,11.28,13.32,32.6,17.46,39.7,7.72,100.05,4.54,134.8-7.1C279.26,655.22,287,649,286.82,643Z" fill="#ffab01"/><path d="M254.21,625.56c39.69,7.71,43.71,23.4,9,35s-95.1,14.82-134.8,7.1-43.71-23.4-9-35S214.51,617.84,254.21,625.56Zm-115,38.53c32.89,6.39,82.87,3.75,111.65-5.88s25.46-22.64-7.42-29-82.86-3.75-111.65,5.89-25.45,22.64,7.42,29" fill="#ffc910"/><path d="M243.41,629.17c32.88,6.4,36.2,19.39,7.42,29s-78.77,12.27-111.65,5.88-36.2-19.39-7.42-29S210.53,622.78,243.41,629.17Z" fill="#ffab01"/><path d="M131.76,638c28.79-9.65,78.77-12.28,111.65-5.89,16.36,3.18,25.4,8,26.81,13.22,1.64-6.3-7.46-12.35-26.81-16.12-32.88-6.39-82.86-3.75-111.65,5.89-14.45,4.84-20.8,10.53-19.38,15.81C113.53,646.46,119.92,641.92,131.76,638Z" fill="#f99b0f"/><path d="M104.91,660.38v22.81c5.45,3,13.59,5.7,24.36,7.79a244.55,244.55,0,0,0,35.5,3.9V671.64a246.52,246.52,0,0,1-36.39-3.94C118.18,665.72,110.34,663.21,104.91,660.38Z" fill="#f99b0f"/><path d="M229.92,636.43l-8.71,2.92c3.47,1,5.12,2.12,4.9,3.47s-2.22,2.76-6.08,4.2l-9-1.74q3.23-1.24,2.82-2.41c-.27-.79-1.74-1.43-4.38-2a36.88,36.88,0,0,0-9.1-.55,32.46,32.46,0,0,0-8.63,1.55,9.19,9.19,0,0,0-2.09.93c-.47.32-.7.64-.7,1q-.06,1,4.87,2.59c2,.63,3.39,1.14,4.26,1.52,3.06,1.33,4.4,2.67,4,4s-2.48,2.65-6.24,3.92a73.22,73.22,0,0,1-16.37,3.24,74.38,74.38,0,0,1-16.77-.18l-10.46,3.51-8.36-1.63L154,657.45c-4.42-1.18-6.54-2.57-6.35-4.19s2.66-3.24,7.46-4.86l8.64,1.68q-4.59,1.68-4.21,3c.24.92,2.15,1.72,5.73,2.42a41.94,41.94,0,0,0,10.45.64,37.49,37.49,0,0,0,9.91-1.77,17,17,0,0,0,2.51-1,3.3,3.3,0,0,0,1.26-.95c.62-1-.87-2.08-4.49-3.29l-1.32-.45c-4.42-1.54-6.73-3-6.95-4.34s1.67-2.7,5.65-4a62.5,62.5,0,0,1,14.7-2.88,77.32,77.32,0,0,1,16,.24l8.62-2.89Z" fill="#f99b0f"/><path d="M229.92,633.16l-8.71,2.92c3.47,1,5.12,2.12,4.9,3.48s-2.22,2.75-6.08,4.19l-9-1.74q3.23-1.25,2.82-2.41c-.27-.79-1.74-1.43-4.38-2a36.88,36.88,0,0,0-9.1-.55,33.29,33.29,0,0,0-8.63,1.54,9.6,9.6,0,0,0-2.09.94c-.47.32-.7.64-.7,1q-.06,1,4.87,2.59c2,.63,3.39,1.14,4.26,1.52,3.06,1.34,4.4,2.68,4,4s-2.48,2.65-6.24,3.92a72.66,72.66,0,0,1-16.37,3.24,73.8,73.8,0,0,1-16.77-.18l-10.46,3.51-8.36-1.63L154,654.18c-4.42-1.18-6.54-2.57-6.35-4.19s2.66-3.24,7.46-4.86l8.64,1.68q-4.59,1.68-4.21,3.05c.24.92,2.15,1.72,5.73,2.42a41.94,41.94,0,0,0,10.45.64,37.49,37.49,0,0,0,9.91-1.77,17,17,0,0,0,2.51-1,3.3,3.3,0,0,0,1.26-1c.62-1-.87-2.08-4.49-3.29l-1.32-.45c-4.42-1.54-6.73-3-6.95-4.34s1.67-2.7,5.65-4a63.53,63.53,0,0,1,14.7-2.88,77.32,77.32,0,0,1,16,.24l8.62-2.88Z" fill="#ffc910"/><path d="M104.8,642.6l-.8-21c.17,4.34.62,16,.8,20.55A3.84,3.84,0,0,0,104.8,642.6Z" fill="#ffc910"/><path d="M278.55,612.73q.45,11.64.88,23.27c.23,5.94-7.55,12.19-23.64,17.58-34.74,11.64-95.09,14.82-134.79,7.1-21.32-4.14-32.34-10.58-32.6-17.46l-.89-23.28c.26,6.88,11.29,13.32,32.61,17.47,39.7,7.71,100,4.53,134.79-7.11C271,624.92,278.78,618.66,278.55,612.73Z" fill="#ffab01"/><path d="M245.94,595.26c39.7,7.71,43.72,23.4,9,35s-95.09,14.82-134.79,7.11-43.71-23.41-9-35S206.24,587.54,245.94,595.26Zm-115,38.53c32.88,6.39,82.87,3.75,111.65-5.89s25.46-22.63-7.43-29-82.86-3.75-111.64,5.89-25.46,22.64,7.42,29" fill="#ffc910"/><path d="M235.14,598.87c32.89,6.4,36.21,19.39,7.43,29s-78.77,12.28-111.65,5.89-36.2-19.39-7.42-29S202.27,592.48,235.14,598.87Z" fill="#ffab01"/><path d="M123.5,607.66c28.78-9.65,78.77-12.28,111.64-5.89,16.37,3.18,25.4,8,26.81,13.23,1.65-6.31-7.45-12.36-26.81-16.13-32.87-6.39-82.86-3.75-111.64,5.89-14.46,4.84-20.81,10.53-19.38,15.81C105.26,616.16,111.66,611.62,123.5,607.66Z" fill="#f99b0f"/><path d="M96.64,630.08v22.81c5.46,3,13.6,5.7,24.36,7.79a244.7,244.7,0,0,0,35.51,3.9V641.34a247.64,247.64,0,0,1-36.39-3.93C109.92,635.42,102.08,632.91,96.64,630.08Z" fill="#f99b0f"/><path d="M221.66,606.13,213,609.05c3.47,1,5.11,2.12,4.9,3.47s-2.23,2.76-6.08,4.2l-9-1.74q3.24-1.25,2.83-2.41c-.28-.79-1.74-1.43-4.38-2a36.91,36.91,0,0,0-9.1-.55,32.88,32.88,0,0,0-8.63,1.54,10,10,0,0,0-2.1.94c-.47.32-.7.64-.7,1,0,.67,1.58,1.53,4.88,2.59,2,.63,3.38,1.14,4.26,1.52,3.05,1.33,4.39,2.67,4,4s-2.47,2.65-6.24,3.92a73.1,73.1,0,0,1-16.37,3.24,73.71,73.71,0,0,1-16.76-.18L144,632.14l-8.37-1.62,10.06-3.37c-4.41-1.18-6.53-2.57-6.35-4.19s2.66-3.24,7.47-4.86l8.63,1.68q-4.57,1.68-4.21,3.05c.25.92,2.15,1.72,5.74,2.42a41.94,41.94,0,0,0,10.45.64,37.56,37.56,0,0,0,9.91-1.77,17.52,17.52,0,0,0,2.51-1,3.33,3.33,0,0,0,1.25-1q.94-1.47-4.48-3.29l-1.32-.45q-6.63-2.31-7-4.34c-.22-1.35,1.67-2.7,5.65-4a62.92,62.92,0,0,1,14.69-2.88,77.32,77.32,0,0,1,16,.24l8.63-2.89Z" fill="#f99b0f"/><path d="M221.66,602.86,213,605.78c3.47,1,5.11,2.12,4.9,3.47s-2.23,2.76-6.08,4.2l-9-1.74q3.24-1.25,2.83-2.41c-.28-.79-1.74-1.43-4.38-1.95a36.91,36.91,0,0,0-9.1-.55,32.87,32.87,0,0,0-8.63,1.55,9.51,9.51,0,0,0-2.1.93c-.47.32-.7.64-.7,1,0,.67,1.58,1.53,4.88,2.59,2,.63,3.38,1.14,4.26,1.52,3.05,1.33,4.39,2.68,4,4s-2.47,2.65-6.24,3.92a73.1,73.1,0,0,1-16.37,3.24,73.71,73.71,0,0,1-16.76-.18L144,628.88l-8.37-1.63,10.06-3.37q-6.62-1.75-6.35-4.19c.18-1.62,2.66-3.24,7.47-4.86l8.63,1.68q-4.57,1.68-4.21,3c.25.92,2.15,1.72,5.74,2.42a41.94,41.94,0,0,0,10.45.64,37.56,37.56,0,0,0,9.91-1.77,18.9,18.9,0,0,0,2.51-1,3.44,3.44,0,0,0,1.25-1q.94-1.47-4.48-3.29l-1.32-.45q-6.63-2.31-7-4.34c-.22-1.35,1.67-2.7,5.65-4a62.92,62.92,0,0,1,14.69-2.88,77.32,77.32,0,0,1,16,.24l8.63-2.88Z" fill="#ffc910"/><path d="M224.7,598l20.82-5.26C266,587.62,289.38,603,301,631c13.24,31.94,6.06,68.21-16,81l-20.83,5.25c22.1-12.79,29.29-49.06,16-81C268.56,608.25,245.17,592.87,224.7,598Z" fill="#ffc910"/><path d="M276.37,715.46l-20.82,5.26a33.37,33.37,0,0,0,8.55-3.5L284.93,712A33.19,33.19,0,0,1,276.37,715.46Z" fill="#ffc910"/><path d="M224.7,598l20.82-5.26a33.23,33.23,0,0,0-8.55,3.5l-20.83,5.25A33,33,0,0,1,224.7,598Z" fill="#ffab01"/><path d="M276.37,715.46l-20.82,5.26c-20.48,5.16-43.86-10.22-55.45-38.17-13.25-31.95-6.06-68.22,16-81L237,596.28c-22.11,12.79-29.29,49.07-16.05,81C232.51,705.25,255.89,720.63,276.37,715.46Z" fill="#ffab01"/><path d="M279.57,728.18l-20.83,5.25c-24.72,6.23-53-12.33-66.94-46.08-16-38.57-7.31-82.36,19.38-97.81L232,584.29c-26.69,15.45-35.37,59.24-19.38,97.81C226.61,715.85,254.85,734.41,279.57,728.18Z" fill="#f99b0f"/><path d="M232,584.29c26.68-15.45,61.28,3.29,77.27,41.86s7.31,82.35-19.38,97.81-61.28-3.29-77.27-41.86S205.31,599.74,232,584.29ZM284.93,712c22.1-12.8,29.28-49.07,16-81s-41.9-47.48-64-34.68-29.29,49.07-16.05,81,41.9,47.48,64,34.68" fill="#ffc910"/><path d="M237,596.28c22.1-12.8,50.75,2.72,64,34.67s6.06,68.22-16,81-50.77-2.73-64-34.68S214.86,609.07,237,596.28Z" fill="#ffab01"/><path d="M221.5,585.32l20.82-5.25A40.09,40.09,0,0,0,232,584.29l-20.82,5.25A40.09,40.09,0,0,1,221.5,585.32Z" fill="#ee8f01"/><path d="M237,596.28a37.59,37.59,0,0,0-9.91,8.39,37.55,37.55,0,0,1,8.77-7.1c22.1-12.79,50.75,2.73,64,34.68,11,26.54,7.89,56-6.14,72.62,15-16.29,18.57-46.67,7.28-73.92C287.72,599,259.07,583.48,237,596.28Z" fill="#f99b0f"/><path d="M258.74,733.43l20.83-5.25c-12.08,3-25,.16-36.67-7.51l-19.24,6.27C234.92,733.85,247.21,736.34,258.74,733.43Z" fill="#ee8f01"/><path d="M245.75,610.32l4,9.67a9.48,9.48,0,0,1,8.71,1.53c2.83,2,5.31,5.2,7.4,9.69l-6,3.49a10.6,10.6,0,0,0-4.42-5.13,5.26,5.26,0,0,0-5.29.22,7.22,7.22,0,0,0-3.51,5.2,13.61,13.61,0,0,0,1.1,7.75,11.74,11.74,0,0,0,1.46,2.64,7.34,7.34,0,0,0,1.88,1.78q2.14,1.4,6.8.34a25.94,25.94,0,0,1,4.34-.72,14.34,14.34,0,0,1,9.64,2.87,21.85,21.85,0,0,1,6.78,9.4,32.9,32.9,0,0,1,2.75,15.14q-.54,7.17-4.7,10.7l4.82,11.62-5.62,3.25-4.63-11.15a11.27,11.27,0,0,1-10.59-1.56q-5.11-3.46-8.48-11.49l5.8-3.37c1.62,3.53,3.45,5.84,5.46,6.92s4.24.92,6.64-.47a8.25,8.25,0,0,0,4.06-5.95,15.6,15.6,0,0,0-1.25-8.9,20.83,20.83,0,0,0-1.55-3,9.9,9.9,0,0,0-1.72-2.11c-2-1.77-4.68-2.28-8.2-1.56l-1.3.25c-4.42.79-8.11.35-11.06-1.37s-5.34-4.76-7.17-9.18a28.45,28.45,0,0,1-2.4-13.53,15.32,15.32,0,0,1,4.63-10.11l-4-9.57Z" fill="#f99b0f"/><path d="M249.38,608.85l4,9.66a9.54,9.54,0,0,1,8.71,1.53c2.83,2,5.31,5.21,7.4,9.7l-6,3.49A10.6,10.6,0,0,0,259,628.1a5.26,5.26,0,0,0-5.29.22,7.21,7.21,0,0,0-3.51,5.19,13.59,13.59,0,0,0,1.1,7.75,11.82,11.82,0,0,0,1.46,2.65,7,7,0,0,0,1.88,1.77c1.43.94,3.7,1.05,6.8.35a25.94,25.94,0,0,1,4.34-.72,14.29,14.29,0,0,1,9.64,2.87,21.85,21.85,0,0,1,6.78,9.4A32.88,32.88,0,0,1,285,672.71q-.54,7.18-4.7,10.71L285.11,695l-5.62,3.25-4.63-11.15a11.27,11.27,0,0,1-10.59-1.56q-5.11-3.47-8.48-11.49l5.8-3.37q2.43,5.29,5.46,6.92t6.64-.47a8.27,8.27,0,0,0,4.06-5.95,15.59,15.59,0,0,0-1.25-8.9,20.83,20.83,0,0,0-1.55-3,10.24,10.24,0,0,0-1.72-2.12c-2-1.76-4.68-2.27-8.2-1.55-.58.11-1,.2-1.3.24q-6.63,1.2-11.06-1.36t-7.17-9.18a28.45,28.45,0,0,1-2.4-13.53,15.32,15.32,0,0,1,4.63-10.11l-4-9.57Z" fill="#ffc910"/><path d="M401.73,777.15c-.24-6.19-.55-14.45-.78-20.64.16,4.26.6,15.76.78,20.17A3.69,3.69,0,0,0,401.73,777.15Z" fill="#ffc910"/><path d="M572.34,747.82l.87,22.86c.22,5.82-7.42,12-23.21,17.26-34.12,11.43-93.38,14.55-132.36,7-20.93-4.07-31.76-10.4-32-17.15l-.86-22.86c.25,6.75,11.08,13.08,32,17.15,39,7.58,98.24,4.46,132.36-7C564.93,759.79,572.56,753.64,572.34,747.82Z" fill="#ffab01"/><path d="M540.32,730.66c39,7.58,42.93,23,8.81,34.42s-93.38,14.55-132.36,7-42.92-23-8.8-34.41S501.34,723.09,540.32,730.66ZM427.38,768.5c32.29,6.28,81.37,3.69,109.63-5.78s25-22.23-7.29-28.5-81.37-3.69-109.63,5.78-25,22.22,7.29,28.5" fill="#ffc910"/><path d="M529.72,734.22c32.29,6.27,35.55,19,7.29,28.5s-77.35,12.06-109.63,5.78-35.55-19-7.29-28.5S497.44,727.94,529.72,734.22Z" fill="#ffab01"/><path d="M420.09,742.84c28.26-9.47,77.35-12.05,109.63-5.78,16.07,3.12,24.94,7.86,26.32,13,1.62-6.2-7.32-12.14-26.32-15.83-32.28-6.28-81.37-3.69-109.63,5.78-14.2,4.75-20.43,10.34-19,15.52C402.18,751.19,408.46,746.74,420.09,742.84Z" fill="#f99b0f"/><path d="M393.72,764.86v22.39c5.36,3,13.35,5.61,23.92,7.66a240.54,240.54,0,0,0,34.86,3.83V775.92a242.07,242.07,0,0,1-35.73-3.87C406.75,770.1,399.06,767.64,393.72,764.86Z" fill="#f99b0f"/><path d="M516.48,741.34l-8.56,2.87c3.41.94,5,2.08,4.82,3.41s-2.19,2.7-6,4.12L498,750c2.12-.81,3-1.6,2.77-2.36s-1.7-1.41-4.29-1.92a36.13,36.13,0,0,0-8.94-.54,32.29,32.29,0,0,0-8.48,1.52,9.21,9.21,0,0,0-2.05.92c-.46.31-.69.62-.69.94,0,.67,1.55,1.51,4.79,2.55,1.93.62,3.32,1.12,4.18,1.49,3,1.31,4.32,2.63,3.92,4s-2.42,2.61-6.12,3.85A71.42,71.42,0,0,1,467,763.62a72.23,72.23,0,0,1-16.46-.18l-10.27,3.45-8.22-1.6,9.88-3.31c-4.33-1.15-6.41-2.53-6.23-4.12s2.61-3.17,7.33-4.77l8.48,1.65c-3,1.1-4.38,2.11-4.14,3s2.12,1.69,5.64,2.38a41.77,41.77,0,0,0,10.25.63A37.16,37.16,0,0,0,473,759a16.46,16.46,0,0,0,2.47-1,3.48,3.48,0,0,0,1.22-.93c.62-1-.84-2.05-4.4-3.24l-1.3-.44q-6.51-2.26-6.82-4.26t5.55-4a61.83,61.83,0,0,1,14.43-2.83,75.92,75.92,0,0,1,15.69.24l8.47-2.83Z" fill="#f99b0f"/><path d="M516.48,738.13,507.92,741c3.41.94,5,2.08,4.82,3.41s-2.19,2.7-6,4.12L498,746.82c2.12-.81,3-1.6,2.77-2.36s-1.7-1.41-4.29-1.92a36.13,36.13,0,0,0-8.94-.54,32.29,32.29,0,0,0-8.48,1.52,8.77,8.77,0,0,0-2.05.92c-.46.31-.69.62-.69.95,0,.66,1.55,1.5,4.79,2.54,1.93.62,3.32,1.12,4.18,1.49,3,1.31,4.32,2.63,3.92,4s-2.42,2.61-6.12,3.85A71.42,71.42,0,0,1,467,760.41a72.23,72.23,0,0,1-16.46-.18l-10.27,3.45-8.22-1.6,9.88-3.31c-4.33-1.15-6.41-2.53-6.23-4.11s2.61-3.18,7.33-4.78l8.48,1.65c-3,1.1-4.38,2.11-4.14,3s2.12,1.69,5.64,2.38a41.77,41.77,0,0,0,10.25.63,37.16,37.16,0,0,0,9.74-1.75,16.46,16.46,0,0,0,2.47-1,3.36,3.36,0,0,0,1.22-.93c.62-1-.84-2.05-4.4-3.24l-1.3-.44q-6.51-2.26-6.82-4.26t5.55-4a61.83,61.83,0,0,1,14.43-2.83,75.92,75.92,0,0,1,15.69.24l8.47-2.83Z" fill="#ffc910"/></g></g></svg>