<svg xmlns="http://www.w3.org/2000/svg" xmlns:xlink="http://www.w3.org/1999/xlink" viewBox="0 0 1359.69 996.37"><defs><style>.cls-1,.cls-12,.cls-13,.cls-14,.cls-15,.cls-20,.cls-21,.cls-41,.cls-42,.cls-43,.cls-5,.cls-6,.cls-7,.cls-8,.cls-9{fill:none;}.cls-2{isolation:isolate;}.cls-10,.cls-16,.cls-3{fill:#d4edff;}.cls-21,.cls-4,.cls-7,.cls-8,.cls-9{mix-blend-mode:multiply;}.cls-10,.cls-11,.cls-12,.cls-15,.cls-16,.cls-17,.cls-5,.cls-6{stroke:#387bff;}.cls-10,.cls-11,.cls-12,.cls-20,.cls-41,.cls-42,.cls-43,.cls-5,.cls-7,.cls-8,.cls-9{stroke-miterlimit:10;}.cls-10,.cls-11,.cls-13,.cls-14,.cls-15,.cls-16,.cls-20,.cls-21,.cls-5,.cls-6,.cls-7{stroke-width:6.24px;}.cls-14,.cls-21,.cls-6{stroke-linecap:round;}.cls-14,.cls-15,.cls-16,.cls-17,.cls-21,.cls-6{stroke-linejoin:round;}.cls-13,.cls-14,.cls-20,.cls-21,.cls-7,.cls-8,.cls-9{stroke:#8dcfff;}.cls-8{stroke-width:4.16px;}.cls-9{stroke-width:3.12px;}.cls-11,.cls-18{fill:#fff;}.cls-12{stroke-width:10.4px;}.cls-17,.cls-22{fill:#387bff;}.cls-17{stroke-width:6.56px;}.cls-19{fill:#8dcfff;}.cls-23{fill:#e9d6b8;}.cls-24{fill:#163f59;}.cls-25{fill:#0253a2;}.cls-26{fill:#7dc2f5;}.cls-27{fill:#e2c59c;}.cls-28{fill:#73a9ff;}.cls-29{fill:#ffd463;}.cls-30{fill:#ffe1cc;}.cls-31{fill:#0063cb;}.cls-32{fill:#aebddc;}.cls-33{fill:#d1dbea;}.cls-34{fill:#001f46;}.cls-35{fill:#194866;}.cls-36{fill:#1c5274;}.cls-37{fill:#f5d9ae;}.cls-38{clip-path:url(#clip-path);}.cls-39{fill:#7eb3ff;}.cls-40{fill:#acd4f8;}.cls-41,.cls-42{stroke:#73a9ff;}.cls-41{stroke-width:2.74px;}.cls-42{stroke-width:3.02px;}.cls-43{stroke:#d4edff;stroke-width:1.8px;}.cls-44{fill:#e9f6ff;}</style><clipPath id="clip-path"><rect class="cls-1" x="828.66" y="570.38" width="529.54" height="382.04"/></clipPath></defs><title>COVID-resources</title><g class="cls-2"><g id="Layer_2" data-name="Layer 2"><g id="Layer_1-2" data-name="Layer 1"><path class="cls-3" d="M1192,467.92q-11.88-15.6-23.75-31.2a28.09,28.09,0,0,0-4.85-5,6.27,6.27,0,0,0-1.61-1.09c-9-3.45-16.22-3.45-25.18,0a4.63,4.63,0,0,0-1,.58c-1.29.6-3.82,3.09-5.69,5.55q-11.88,15.58-23.73,31.2c-2,2.61-3.09,5.14-2.46,5.66q3.38,2.51,6.73,5c.67.47,2.79-1.32,4.72-4l8.58-11.7q-4.18,15.38-8.63,30.67c-1.34,4.38,1.72,9,7,9.88,1.09.18,2.21.31,3.3.47q.63,17.14,1.26,34.31c.12,3.29,2.69,7.07,5.8,8.08,1.34.4,2.66.75,4,1.07,1.76-10.4,3.51-20.85,5.12-31.29.51-3.2,1.81-6.73,2.8-7.58,3.48-2.87,6.21-2.87,9.73,0,1,.85,2.24,4.38,2.77,7.58,1.61,10.44,3.35,20.89,5.12,31.29,1.32-.32,2.66-.67,4-1.07,3.13-1,5.68-4.79,5.82-8.08q.63-17.17,1.25-34.31l3.31-.47c5.23-.92,8.29-5.5,6.93-9.88q-4.36-15-8.47-30.15c2.72,3.73,5.47,7.44,8.21,11.18,1.94,2.64,4,4.43,4.71,4l6.74-5C1195.1,473.06,1194,470.53,1192,467.92Z"/><path class="cls-3" d="M1149.23,425.82a15.49,15.49,0,1,0-15.48-15.47A15.48,15.48,0,0,0,1149.23,425.82Z"/><path class="cls-3" d="M180.7,26.18c-22.31-6-27.55-5.16-53.09,8.76a80.22,80.22,0,0,1-10.46,4.79,80.48,80.48,0,0,1-11.5.8c-29.08,0-34.09,1.73-50.81,17.68-14.9,13.1-18.31,40.88-6.19,68,14,31.41,27.69,30.36,36.75,65.94,9,35.38,26.75,49.68,37.42,47s12.94-16.2,16.93-49.48c2.73-22.82,13.78-29.15,29.21-7.44,19.42,27.33,27.86,38.09,38.53,35.37s19.41-23.75,10.41-59.13,3.49-40.83.76-75.48C216.33,53.34,200.05,30.56,180.7,26.18Z"/><path class="cls-3" d="M619.7,97.17l5-5a46.26,46.26,0,0,0,0-65.43l-.68-.69a46.28,46.28,0,0,0-65.44,0l-5,5-5-5a46.29,46.29,0,0,0-65.44,0l-.68.69a46.26,46.26,0,0,0,0,65.43l5,5,66.11,66.12Z"/><path class="cls-3" d="M483.29,664.31a48.3,48.3,0,0,0-82.46-34.16l-39,39h0l-46.51,46.51A48.33,48.33,0,0,0,359,797.2a44.87,44.87,0,0,0,4.57-1.14c.75-.23,1.5-.47,2.23-.73A48.32,48.32,0,0,0,383.63,784l46.51-46.51h0l39-39A48,48,0,0,0,483.29,664.31Zm-59.7,66.62-55.22-55.22,39-39a39,39,0,1,1,55.21,55.22Z"/><g class="cls-4"><path class="cls-5" d="M16,174.7A98.47,98.47,0,0,0,4,189.25l89.32,89.31A18.77,18.77,0,0,0,119.9,252L30.58,162.69A99.7,99.7,0,0,0,16,174.7Z"/><path class="cls-5" d="M30.79,163.69c.84.84-4.25,7.29-11.36,14.4S5.86,190.3,5,189.46"/><line class="cls-5" x1="31.39" y1="183.55" x2="41.15" y2="173.79"/><line class="cls-5" x1="40.51" y1="192.68" x2="50.28" y2="182.92"/><line class="cls-5" x1="49.64" y1="201.81" x2="59.4" y2="192.04"/><line class="cls-5" x1="58.77" y1="210.94" x2="68.53" y2="201.17"/><line class="cls-5" x1="67.9" y1="220.06" x2="77.66" y2="210.3"/><line class="cls-5" x1="77.02" y1="229.19" x2="86.78" y2="219.43"/><line class="cls-5" x1="86.15" y1="238.32" x2="95.91" y2="228.56"/><line class="cls-5" x1="95.28" y1="247.44" x2="105.04" y2="237.68"/><line class="cls-5" x1="104.41" y1="256.57" x2="114.17" y2="246.81"/></g><polygon class="cls-3" points="383.73 325.5 383.73 390.64 313.94 390.64 313.94 325.5 258.11 325.5 258.11 511.61 313.94 511.61 313.94 446.47 383.73 446.47 383.73 511.61 439.56 511.61 439.56 325.5 383.73 325.5"/><line class="cls-5" x1="671.3" y1="64.75" x2="671.3" y2="40.99"/><path class="cls-5" d="M672.66,19c4.39,10.05,2.44,20.61-4.38,23.6S652.38,39.88,648,29.82s-2.45-20.62,4.37-23.6S668.26,9,672.66,19Z"/><path class="cls-5" d="M677.94,16.72c-4.4-10-13.48-15.79-20.29-12.81a9.58,9.58,0,0,0-2.46,1.58c6.32-.63,13.66,4.83,17.47,13.55s2.84,17.79-1.92,22a9.38,9.38,0,0,0,2.83-.73C680.38,37.34,682.34,26.78,677.94,16.72Z"/><path class="cls-5" d="M670.71,65.82c-1.42,0-2.69.44-2.83,1L665,80h12.53c-.95-4.4-1.91-8.8-2.85-13.19-.14-.55-1.41-1-2.83-1Z"/><path class="cls-5" d="M677.14,80H665.46a5.69,5.69,0,0,0-1.21,3.53V196.36a5.76,5.76,0,0,0,5.76,5.77h2.57a5.77,5.77,0,0,0,5.77-5.77V83.53A5.74,5.74,0,0,0,677.14,80Z"/><line class="cls-5" x1="712.43" y1="86.97" x2="712.43" y2="57.89"/><path class="cls-5" d="M711.85,87c-1.43,0-2.69.44-2.83,1q-1.44,6.6-2.86,13.19H718.7q-1.44-6.59-2.86-13.19c-.14-.55-1.41-1-2.83-1Z"/><path class="cls-5" d="M710.87,35.63l10.54,8.61a3.86,3.86,0,0,1,0,5.45l-9.52,9.51"/><path class="cls-5" d="M718.27,101.16H706.59a5.79,5.79,0,0,0-1.21,3.53v91.67a5.77,5.77,0,0,0,5.77,5.77h2.56a5.77,5.77,0,0,0,5.77-5.77V104.69A5.73,5.73,0,0,0,718.27,101.16Z"/><line class="cls-5" x1="615.03" y1="57" x2="622.42" y2="57.66"/><path class="cls-5" d="M633,159.16c0,1.87-3.47,3.38-7.75,3.38h-3.43c-4.28,0-7.74-1.51-7.74-3.38V105.49c0-1.87,3.46-3.38,7.74-3.38h3.44c4.26,0,7.74,1.51,7.74,3.38Z"/><path class="cls-5" d="M639.24,65.71a3.86,3.86,0,0,1-4.53,3l-10.37-2.08a3.84,3.84,0,0,1-3-4.53L622.55,56a3.85,3.85,0,0,1,4.53-3l10.37,2.07a3.86,3.86,0,0,1,3,4.53Z"/><path class="cls-5" d="M621.82,102.11h3.44a13.88,13.88,0,0,1,5.67,1.09q2.22-17.2,4.47-34.41a4,4,0,0,1-.69-.06l-7.48-1.5q-5,17.24-9.9,34.48a5.4,5.4,0,0,0-.56,1.22A14.71,14.71,0,0,1,621.82,102.11Z"/><path class="cls-5" d="M625.25,162.54h-3.43a14.42,14.42,0,0,1-5.33-.93v34.75a5.77,5.77,0,0,0,5.77,5.77h2.56a5.77,5.77,0,0,0,5.77-5.77V161.6A14.26,14.26,0,0,1,625.25,162.54Z"/><path class="cls-6" d="M138.64,313.28a13.84,13.84,0,1,0,13.84-13.85A13.84,13.84,0,0,0,138.64,313.28Z"/><path class="cls-6" d="M108.8,406.76a43.68,43.68,0,1,0,87.35,0,43.45,43.45,0,0,0-9.09-26.66"/><path class="cls-6" d="M142,383.11c0,8.15,5.38,14.76,12.05,14.76h3c6.64,0,12-6.61,12-14.76V360.35c0-8.16-5.4-14.76-12-14.76h-3c-6.67,0-12.05,6.6-12.05,14.76Z"/><polyline class="cls-6" points="152.13 397.87 110.3 397.87 84.46 442.46"/><line class="cls-6" x1="152.13" y1="376.95" x2="115.22" y2="376.95"/><path class="cls-5" d="M332.23,504.33a46,46,0,1,0-92,0c0,.69,0,1.39.06,2.08l-6.43,11.13-8.45,14.62h10.69v18.16a12.4,12.4,0,0,0,12.4,12.4h19.64V586.5H318.8V536.81A45.84,45.84,0,0,0,332.23,504.33Z"/><path class="cls-7" d="M279.55,481.48a26.92,26.92,0,1,0,26.91-26.92A26.91,26.91,0,0,0,279.55,481.48Z"/><path class="cls-8" d="M288,481.48a18.43,18.43,0,1,0,18.43-18.43A18.43,18.43,0,0,0,288,481.48Z"/><path class="cls-9" d="M295.46,481.48a11,11,0,1,0,11-11A11,11,0,0,0,295.46,481.48Z"/><path class="cls-6" d="M392.34,572.26a47.68,47.68,0,0,0,0,89.7,47.67,47.67,0,0,0,0-89.7Z"/><line class="cls-6" x1="392.34" y1="572.26" x2="392.34" y2="659.25"/><line class="cls-6" x1="392.35" y1="662.15" x2="392.34" y2="671.82"/><line class="cls-6" x1="414.81" y1="594.1" x2="393.5" y2="613.55"/><line class="cls-6" x1="422.61" y1="615.01" x2="393.39" y2="641.69"/><line class="cls-6" x1="369.88" y1="594.1" x2="391.19" y2="613.56"/><line class="cls-6" x1="362.09" y1="615.01" x2="391.3" y2="641.69"/><path class="cls-5" d="M158.43,615.52v121a38.21,38.21,0,0,1-38.21,38.21h-6.36a38.21,38.21,0,0,1-38.21-38.21V691.94"/><path class="cls-5" d="M158.7,681.9V612.1a22,22,0,0,1,22-22.05h3.68a22,22,0,0,1,22,22.05v70.78"/><path class="cls-10" d="M231.67,707.07A24.68,24.68,0,1,1,207,682.39,24.68,24.68,0,0,1,231.67,707.07Z"/><path class="cls-11" d="M218.93,707.07A11.94,11.94,0,1,1,207,695.13,11.95,11.95,0,0,1,218.93,707.07Z"/><path class="cls-5" d="M43.83,533.8a24.7,24.7,0,0,0-24.7,24.7V645"/><path class="cls-5" d="M109.39,534.2a24.7,24.7,0,0,1,24.71,24.7v86.45"/><line class="cls-12" x1="75.65" y1="736.52" x2="75.65" y2="691.94"/><path class="cls-12" d="M133.76,610.22v39.27a44.58,44.58,0,0,1-44.58,44.58H63.71a44.57,44.57,0,0,1-44.58-44.58V610.22"/><path class="cls-12" d="M43.83,533.8A24.65,24.65,0,0,0,33.73,536"/><path class="cls-12" d="M109.39,534.2a24.66,24.66,0,0,1,9.77,2"/><polyline class="cls-7" points="929.66 330.5 951.59 330.5 972.79 330.5 984.09 302.87 998.8 366.26 1011.8 327.24 1036.18 327.24 1047.56 289.86 1060.12 366.26 1075.86 302.87 1083.47 327.24 1164.81 327.24"/><g class="cls-4"><path class="cls-13" d="M489.9,320.79a36.12,36.12,0,1,1-51.07,0A36.11,36.11,0,0,1,489.9,320.79Z"/><line class="cls-14" x1="515.24" y1="295.46" x2="490.33" y2="320.37"/><polyline class="cls-14" points="486.69 294.89 515.8 294.89 515.8 324"/></g><path class="cls-15" d="M279.41,64.84a96.35,96.35,0,0,0-84.07,49.34,96.29,96.29,0,0,0,168.12,0A96.33,96.33,0,0,0,279.41,64.84Z"/><path class="cls-16" d="M321.15,113.42a41.75,41.75,0,1,1-41.76-41.75A41.75,41.75,0,0,1,321.15,113.42Z"/><path class="cls-17" d="M304.07,113.42A24.67,24.67,0,1,1,279.4,88.75,24.67,24.67,0,0,1,304.07,113.42Z"/><path class="cls-18" d="M276.49,98.7A10.79,10.79,0,1,1,265.7,87.91,10.78,10.78,0,0,1,276.49,98.7Z"/><path class="cls-18" d="M290.36,102.63a4.91,4.91,0,1,1-4.91-4.91A4.91,4.91,0,0,1,290.36,102.63Z"/><rect class="cls-3" x="168.93" y="829.52" width="75.46" height="32.67"/><rect class="cls-5" x="244.39" y="839.47" width="21.3" height="12.78"/><rect class="cls-5" x="129.34" y="829.52" width="115.05" height="32.67"/><rect class="cls-5" x="84.59" y="836.98" width="34.8" height="17.76"/><rect class="cls-5" x="119.79" y="817.98" width="8.08" height="55.76"/><line class="cls-5" x1="84.5" y1="823.47" x2="84.5" y2="868.25"/><line class="cls-5" x1="264.27" y1="845.86" x2="306.17" y2="845.86"/><line class="cls-5" x1="145.01" y1="849.1" x2="145" y2="828.21"/><line class="cls-5" x1="156.3" y1="844.83" x2="156.3" y2="828.21"/><line class="cls-5" x1="167.61" y1="844.83" x2="167.61" y2="828.21"/><line class="cls-5" x1="178.91" y1="849.1" x2="178.91" y2="828.21"/><line class="cls-5" x1="190.21" y1="844.83" x2="190.21" y2="828.21"/><line class="cls-5" x1="201.51" y1="844.83" x2="201.51" y2="828.21"/><line class="cls-5" x1="212.81" y1="849.1" x2="212.81" y2="828.21"/><line class="cls-5" x1="224.12" y1="844.83" x2="224.12" y2="828.21"/><line class="cls-5" x1="235.42" y1="844.83" x2="235.42" y2="828.21"/><g class="cls-4"><path class="cls-19" d="M1251.4,36.59c.58.65,1.23,1.36,2,2.16,10.77,11.9,36,39.75,36,60.92a48.75,48.75,0,0,1-9.66,29.26,35.61,35.61,0,0,1-56.58,0,48.84,48.84,0,0,1-9.68-29.27c0-21.18,25.25-49,36-60.95l1.92-2.12m0-9.23c-.14.05-.13.22,0,.49.13-.27.13-.44,0-.49Zm0,.49c-2.32,4.75-43.54,42.14-43.52,71.82,0,22.24,14.35,48.56,43.52,48.79,29.18-.23,43.5-26.55,43.5-48.79,0-29.68-41.21-67.07-43.5-71.82Z"/></g><g class="cls-4"><path class="cls-20" d="M416.8,260.8a6.89,6.89,0,0,1-9.73,0l-21.43-21.43a6.89,6.89,0,0,1,0-9.74L448,167.3a6.89,6.89,0,0,1,9.74,0l21.42,21.42a6.89,6.89,0,0,1,0,9.74Z"/><path class="cls-19" d="M451.54,177.35a1.84,1.84,0,1,0,1.3,3.14,1.85,1.85,0,0,0,0-2.6,1.83,1.83,0,0,0-1.3-.54Z"/><path class="cls-19" d="M456.77,182.59a1.84,1.84,0,1,0,1.3.54,1.83,1.83,0,0,0-1.3-.54Z"/><path class="cls-19" d="M462,187.82a1.84,1.84,0,1,0,1.3,3.14,1.85,1.85,0,0,0,0-2.6,1.83,1.83,0,0,0-1.3-.54Z"/><path class="cls-19" d="M467.24,193.06a1.83,1.83,0,0,0-1.3,3.13,1.83,1.83,0,1,0,1.3-3.13Z"/><path class="cls-19" d="M446.63,182.26a1.84,1.84,0,1,0,1.3,3.14,1.85,1.85,0,0,0,0-2.6,1.83,1.83,0,0,0-1.3-.54Z"/><path class="cls-19" d="M451.86,187.5a1.84,1.84,0,1,0,1.3.54,1.83,1.83,0,0,0-1.3-.54Z"/><path class="cls-19" d="M457.1,192.73a1.84,1.84,0,1,0,1.3,3.14,1.85,1.85,0,0,0,0-2.6,1.83,1.83,0,0,0-1.3-.54Z"/><path class="cls-19" d="M462.33,198a1.84,1.84,0,1,0,1.3.54,1.83,1.83,0,0,0-1.3-.54Z"/><path class="cls-19" d="M441.72,187.17a1.84,1.84,0,1,0,1.3,3.14,1.85,1.85,0,0,0,0-2.6,1.83,1.83,0,0,0-1.3-.54Z"/><path class="cls-19" d="M447,192.41a1.83,1.83,0,0,0-1.3,3.13,1.84,1.84,0,1,0,2.6-2.6,1.86,1.86,0,0,0-1.3-.53Z"/><path class="cls-19" d="M452.19,197.64a1.84,1.84,0,1,0,1.3,3.14,1.85,1.85,0,0,0,0-2.6,1.83,1.83,0,0,0-1.3-.54Z"/><path class="cls-19" d="M457.42,202.88a1.83,1.83,0,0,0-1.3,3.13,1.84,1.84,0,0,0,2.6-2.6,1.86,1.86,0,0,0-1.3-.53Z"/><path class="cls-19" d="M436.81,192.08a1.84,1.84,0,1,0,1.3,3.14,1.85,1.85,0,0,0,0-2.6,1.83,1.83,0,0,0-1.3-.54Z"/><path class="cls-19" d="M442,197.32a1.84,1.84,0,1,0,1.3.54,1.83,1.83,0,0,0-1.3-.54Z"/><path class="cls-19" d="M447.28,202.55a1.84,1.84,0,1,0,1.3,3.14,1.85,1.85,0,0,0,0-2.6,1.83,1.83,0,0,0-1.3-.54Z"/><path class="cls-19" d="M452.51,207.79a1.83,1.83,0,0,0-1.3,3.13,1.83,1.83,0,1,0,1.3-3.13Z"/><path class="cls-19" d="M407.35,221.54a1.84,1.84,0,1,0,1.3,3.14,1.85,1.85,0,0,0,0-2.6,1.83,1.83,0,0,0-1.3-.54Z"/><path class="cls-19" d="M412.58,226.78a1.84,1.84,0,1,0,1.3.54,1.83,1.83,0,0,0-1.3-.54Z"/><path class="cls-19" d="M417.82,232a1.84,1.84,0,1,0,1.3,3.14,1.85,1.85,0,0,0,0-2.6,1.83,1.83,0,0,0-1.3-.54Z"/><path class="cls-19" d="M423.05,237.25a1.83,1.83,0,0,0-1.3,3.13,1.83,1.83,0,1,0,1.3-3.13Z"/><path class="cls-19" d="M402.44,226.45a1.84,1.84,0,1,0,1.3,3.14,1.85,1.85,0,0,0,0-2.6,1.83,1.83,0,0,0-1.3-.54Z"/><path class="cls-19" d="M407.67,231.69a1.84,1.84,0,1,0,1.3.54,1.83,1.83,0,0,0-1.3-.54Z"/><path class="cls-19" d="M412.91,236.92a1.84,1.84,0,1,0,1.3,3.14,1.85,1.85,0,0,0,0-2.6,1.83,1.83,0,0,0-1.3-.54Z"/><path class="cls-19" d="M418.14,242.16a1.84,1.84,0,1,0,1.3.54,1.83,1.83,0,0,0-1.3-.54Z"/><path class="cls-19" d="M397.53,231.36a1.84,1.84,0,1,0,1.3.54,1.83,1.83,0,0,0-1.3-.54Z"/><path class="cls-19" d="M402.76,236.6a1.84,1.84,0,1,0,1.3.54,1.83,1.83,0,0,0-1.3-.54Z"/><path class="cls-19" d="M408,241.83a1.84,1.84,0,1,0,1.3,3.14,1.85,1.85,0,0,0,0-2.6,1.83,1.83,0,0,0-1.3-.54Z"/><path class="cls-19" d="M413.23,247.07a1.83,1.83,0,0,0-1.3,3.13,1.84,1.84,0,1,0,2.6-2.6,1.86,1.86,0,0,0-1.3-.53Z"/><path class="cls-19" d="M467.24,231.36a1.83,1.83,0,0,0-1.3.54,1.85,1.85,0,0,0,0,2.6,1.84,1.84,0,1,0,1.3-3.14Z"/><path class="cls-19" d="M462,236.6a1.84,1.84,0,1,0,1.3.54,1.83,1.83,0,0,0-1.3-.54Z"/><path class="cls-19" d="M456.77,241.83a1.83,1.83,0,0,0-1.3.54,1.85,1.85,0,0,0,0,2.6,1.84,1.84,0,1,0,1.3-3.14Z"/><path class="cls-19" d="M451.54,247.07a1.86,1.86,0,0,0-1.3.53,1.84,1.84,0,1,0,2.6,0,1.86,1.86,0,0,0-1.3-.53Z"/><path class="cls-19" d="M462.33,226.45a1.83,1.83,0,0,0-1.3.54,1.85,1.85,0,0,0,0,2.6,1.84,1.84,0,1,0,1.3-3.14Z"/><path class="cls-19" d="M457.1,231.69a1.84,1.84,0,1,0,1.3.54,1.83,1.83,0,0,0-1.3-.54Z"/><path class="cls-19" d="M451.86,236.92a1.79,1.79,0,0,0-1.29.54,1.83,1.83,0,0,0,0,2.6,1.79,1.79,0,0,0,1.29.54,1.84,1.84,0,0,0,0-3.68Z"/><path class="cls-19" d="M446.63,242.16a1.84,1.84,0,1,0,1.3.54,1.83,1.83,0,0,0-1.3-.54Z"/><path class="cls-19" d="M457.42,221.54a1.83,1.83,0,0,0-1.3.54,1.85,1.85,0,0,0,0,2.6,1.84,1.84,0,1,0,1.3-3.14Z"/><path class="cls-19" d="M452.19,226.78a1.83,1.83,0,1,0,1.3.53,1.86,1.86,0,0,0-1.3-.53Z"/><path class="cls-19" d="M447,232a1.83,1.83,0,0,0-1.3.54,1.85,1.85,0,0,0,0,2.6A1.84,1.84,0,1,0,447,232Z"/><path class="cls-19" d="M441.72,237.24a1.84,1.84,0,1,0,1.3,3.14,1.85,1.85,0,0,0,0-2.6,1.83,1.83,0,0,0-1.3-.54Z"/><path class="cls-19" d="M423.05,187.17a1.83,1.83,0,0,0-1.3.54,1.84,1.84,0,1,0,2.6,0,1.83,1.83,0,0,0-1.3-.54Z"/><path class="cls-19" d="M417.82,192.41a1.86,1.86,0,0,0-1.3.53,1.84,1.84,0,1,0,2.6,0,1.86,1.86,0,0,0-1.3-.53Z"/><path class="cls-19" d="M412.58,197.64a1.83,1.83,0,0,0-1.3.54,1.85,1.85,0,0,0,0,2.6,1.84,1.84,0,1,0,1.3-3.14Z"/><path class="cls-19" d="M407.35,202.88a1.86,1.86,0,0,0-1.3.53,1.84,1.84,0,1,0,2.6,0,1.86,1.86,0,0,0-1.3-.53Z"/><path class="cls-19" d="M418.14,182.26a1.83,1.83,0,0,0-1.3.54,1.85,1.85,0,0,0,0,2.6,1.84,1.84,0,1,0,1.3-3.14Z"/><path class="cls-19" d="M412.91,187.5a1.84,1.84,0,1,0,1.3,3.13,1.83,1.83,0,0,0-1.3-3.13Z"/><path class="cls-19" d="M407.67,192.73a1.83,1.83,0,0,0-1.3.54,1.83,1.83,0,0,0,1.3,3.13,1.84,1.84,0,0,0,0-3.67Z"/><path class="cls-19" d="M402.44,198a1.84,1.84,0,1,0,1.3,3.13,1.83,1.83,0,0,0-1.3-3.13Z"/><path class="cls-19" d="M413.23,177.35a1.83,1.83,0,0,0-1.3.54,1.85,1.85,0,0,0,0,2.6,1.84,1.84,0,1,0,1.3-3.14Z"/><path class="cls-19" d="M408,182.59a1.86,1.86,0,0,0-1.3.53,1.84,1.84,0,1,0,2.6,0,1.86,1.86,0,0,0-1.3-.53Z"/><path class="cls-19" d="M402.76,187.82a1.83,1.83,0,0,0-1.3.54,1.85,1.85,0,0,0,0,2.6,1.84,1.84,0,1,0,1.3-3.14Z"/><path class="cls-19" d="M397.53,193.06a1.86,1.86,0,0,0-1.3.53,1.84,1.84,0,1,0,2.6,0,1.86,1.86,0,0,0-1.3-.53Z"/><path class="cls-20" d="M401.22,214.05l31.17-31.17L416.8,167.3a6.87,6.87,0,0,0-9.73,0l-21.43,21.42a6.89,6.89,0,0,0,0,9.74Z"/><path class="cls-20" d="M463.55,214.05l-31.16,31.16L448,260.8a6.9,6.9,0,0,0,9.74,0l21.42-21.43a6.89,6.89,0,0,0,0-9.74Z"/></g><path class="cls-5" d="M980.07,81.18l1.3-1.3-17-17-1.3,1.3A23.13,23.13,0,0,0,940.19,70L913.33,96.87l-1.51,1.51-4.17,4.16a2.76,2.76,0,0,0,0,3.89l30.15,30.15a2.74,2.74,0,0,0,3.89,0l4.17-4.16,1.51-1.51,26.86-26.86A23.12,23.12,0,0,0,980.07,81.18Z"/><polygon class="cls-5" points="983.5 81.68 983.5 81.68 962.55 60.74 962.55 60.74 972.53 50.75 972.53 50.75 993.48 71.7 993.48 71.7 983.5 81.68"/><line class="cls-5" x1="974.42" y1="52.64" x2="965.91" y2="61.14"/><line class="cls-5" x1="976.87" y1="55.09" x2="968.36" y2="63.6"/><line class="cls-5" x1="979.33" y1="57.55" x2="970.82" y2="66.06"/><line class="cls-5" x1="981.78" y1="60" x2="973.27" y2="68.51"/><line class="cls-5" x1="984.24" y1="62.45" x2="975.73" y2="70.97"/><line class="cls-5" x1="986.69" y1="64.91" x2="978.18" y2="73.42"/><line class="cls-5" x1="989.15" y1="67.37" x2="980.64" y2="75.87"/><line class="cls-5" x1="991.6" y1="69.82" x2="983.09" y2="78.33"/><path class="cls-21" d="M957.74,107.64a14.81,14.81,0,1,1,0-21A14.82,14.82,0,0,1,957.74,107.64Z"/><polygon class="cls-22" points="950.73 89.17 947.26 92.64 943.8 89.17 939.27 93.7 942.73 97.17 939.27 100.63 943.8 105.16 947.26 101.7 950.73 105.16 955.26 100.63 951.79 97.17 955.26 93.7 950.73 89.17 950.73 89.17"/><g class="cls-4"><path class="cls-20" d="M1253.43,367.7c-19.13,7.63-23,6.5-39.33,0-39.87-16-78.41-4-60.47,66.77,9.08,35.76,27.07,66.78,60.47,66.78a55.21,55.21,0,0,0,19.67-3.63,55.2,55.2,0,0,0,19.66,3.63c33.42,0,51.41-31,60.48-66.78C1331.85,363.71,1293.31,351.74,1253.43,367.7Z"/><path class="cls-7" d="M1226.17,353.64a46.39,46.39,0,0,0,.51,6.82,45.52,45.52,0,0,0,5.51.36c24.54,0,44.44-20.21,44.44-45.13a45.06,45.06,0,0,0-.51-6.82,43.46,43.46,0,0,0-5.51-.36C1246.07,308.51,1226.17,328.72,1226.17,353.64Z"/></g><g class="cls-4"><polyline class="cls-14" points="1056.51 172.71 1043.77 185.46 1056.51 198.2"/><line class="cls-14" x1="1047.23" y1="185.46" x2="1093.43" y2="185.45"/></g><g class="cls-4"><polyline class="cls-14" points="1080.69 172.1 1093.43 159.35 1080.69 146.61"/><line class="cls-14" x1="1089.97" y1="159.35" x2="1043.77" y2="159.36"/></g><path class="cls-3" d="M878.92,879.38s-55,22.28-202.08,13.26-273.46-43.38-162.7-74.47,135.12-43.09,300.49-41.72S1240.58,813,1116.85,834,939.83,849.37,878.92,879.38Z"/><path class="cls-23" d="M835.92,317.49c.66,7.95,4.94,14.84,9.43,15.17h12.79c4.49-.33,8.77-7.22,9.44-15.17q1.56-19.67,3.15-39.33c.69-7.86-2.38-23.64-9.19-28.3a17,17,0,0,0-19.58,0c-6.81,4.66-9.89,20.44-9.19,28.3Z"/><path class="cls-24" d="M849.86,240.59v-9.1H830.22a12,12,0,0,0-12,12v9.09H837.9A12,12,0,0,0,849.86,240.59Z"/><path class="cls-23" d="M868.69,295.79A10.64,10.64,0,0,1,858,306.43H833.91a10.64,10.64,0,0,1-10.64-10.64V247.52a10.64,10.64,0,0,1,10.64-10.65H858a10.65,10.65,0,0,1,10.65,10.65Z"/><path class="cls-24" d="M850.62,231.49a12,12,0,0,1,10,5.42h4.1a9.27,9.27,0,0,1,9.27,9.26v22.91h-6.52v-9.31a6.53,6.53,0,0,0-6.53-6.52H841.27a12,12,0,0,1-12-12v-9.79Z"/><path class="cls-23" d="M865.42,275a5.67,5.67,0,0,1,5.68-5.66h.47a5.67,5.67,0,0,1,5.68,5.66v6.9a5.69,5.69,0,0,1-5.68,5.68h-.47a5.68,5.68,0,0,1-5.19-3.39"/><path class="cls-25" d="M946.49,777.33l.71,16.17h13.16s.73-2,1.84-2c.94,0,2.15,2,3.43,2h33.46s.59-3-.13-4c-.37-.53-2.58-1.45-4-1.9-6.8-2.11-26.25-8.69-29.63-15.86C961.18,763,946.49,777.33,946.49,777.33Z"/><path class="cls-26" d="M999.2,790.1a10.47,10.47,0,0,1-.11,3.4H965.63c-1.28,0-2.49-2-3.43-2-1.11,0-1.84,2-1.84,2H947.2l-.59-3.4Z"/><path class="cls-26" d="M974.84,783.77c.29.43,1,0,2-.89,2.4-2,2.18-1.8,1.56-2.14-.43-.23-.94-.46-2.32.76C975.13,782.35,974.55,783.35,974.84,783.77Z"/><path class="cls-26" d="M971.28,782.05c.29.42,1.05-.06,2-.89,2.4-2,2.18-1.81,1.57-2.14-.44-.23-1-.47-2.33.75C971.57,780.63,971,781.64,971.28,782.05Z"/><path class="cls-26" d="M968,780.09c.29.42,1-.06,2-.9,2.39-2,2.18-1.8,1.56-2.14-.44-.23-1-.46-2.33.76C968.31,778.66,967.72,779.66,968,780.09Z"/><path class="cls-25" d="M817.65,799c-1.06,1.81-.34,6-.34,6s21.75,2.68,28.75.87c1.82-.48,4.89-2.21,7.79-4,.49-.31,1.35-2.15,1.82-2.46.88-.58,1.33.38,2.08-.13a24.64,24.64,0,0,0,3.32-2.54c1.91-11-.63-15.46-.63-15.46s-13.93-6.79-17.4-2.05C834.87,790.43,820.72,793.8,817.65,799Z"/><path class="cls-26" d="M817,801.39c6.71,1,20.8,2.86,23.4,2.33,10.62-2.13,17-8.28,21.28-12.08a49,49,0,0,1-.63,5.14,24.64,24.64,0,0,1-3.32,2.54c-.75.51-1.2-.45-2.08.13-.47.31-1.33,2.15-1.82,2.46-2.9,1.83-6,3.56-7.79,4-7,1.81-28.75-.87-28.75-.87A17.43,17.43,0,0,1,817,801.39Z"/><path class="cls-26" d="M828.84,791c-.09.47.81.73,2,.66a34.42,34.42,0,0,1,7.49.41c1.24.19,2.29,0,2.34-.49s-.91-1.15-2.14-1.33a34,34,0,0,0-7.38-.33C830,790,828.94,790.48,828.84,791Z"/><path class="cls-26" d="M833,787.67c-.08.49.84.85,2.05.89a35.8,35.8,0,0,1,7.38,1.1c1.22.31,2.25.22,2.29-.3s-.92-1.27-2.12-1.57a35.61,35.61,0,0,0-7.31-1C834.13,786.75,833.11,787.19,833,787.67Z"/><path class="cls-26" d="M837.1,784.67c-.07.5.85,1,2,1.13a35.88,35.88,0,0,1,7.28,1.76c1.19.42,2.2.4,2.22-.14s-.92-1.38-2.1-1.79a36.29,36.29,0,0,0-7.21-1.67C838.16,783.82,837.16,784.19,837.1,784.67Z"/><polygon class="cls-24" points="895.53 465.01 928.5 604.72 971.57 776.02 944.2 786.82 898.67 625.92 849.22 467.37 895.53 465.01"/><path class="cls-24" d="M862.57,469.33l-44.74,9.42L829.6,648.28l8.73,133.35a92.91,92.91,0,0,1,16.2,5.26c2.3,1.08,8.43,4.44,8.43,4.44l-3.53-152.46Z"/><path class="cls-27" d="M909.19,336.64s43.21,50.2,43.21,58.05c0,6.86-7.78,23.2-13,19.9C930.48,409,889,360.81,890,359.27,896,350.08,905.08,334,909.19,336.64Z"/><path class="cls-23" d="M909.19,336.64c-2.07-1.35-5.39,2.06-8.94,7,5,6.4,44.37,57.21,44.29,65.67a21.05,21.05,0,0,1-.58,4.28c4.29-3.78,8.44-13.84,8.44-18.86C952.4,386.84,909.19,336.64,909.19,336.64Z"/><path class="cls-27" d="M783.66,314.78s-18.09,2.88-25.22,5.62c-8.21,3.15-12.61,1.23-17.55,6.72s-8.78,15.21-3.29,20.15,49.36-2.19,58.68-8.77S789.7,314.78,783.66,314.78Z"/><path class="cls-23" d="M859.34,298.47s4.93,18.09,17,21.38S857.69,337.4,841.79,333s-16.45-18.09-16.45-18.09,12.07,1.09,11-7.13S855,290.24,859.34,298.47Z"/><path class="cls-28" d="M838,324.79c-3.9-2.4-9.32-11-11.51-14.26s-19.2-2.74-36.2,1.1-24.67,5.89-26.32,6.44,13.16,2.33,18.1,19.33,6.17,19.74,6.17,19.74l11.38-1.65s19.08,159.1,21.83,172.26,69.75,5.77,82.36,4.12-4.89-145.57-7.63-157.08l9.6,2.74S918,360.4,925,357.63c2.74-1.09-27.77-37.78-27.77-37.78s-21.79-3.4-27.82-3.4C869.36,316.45,863.9,340.74,838,324.79Z"/><path class="cls-23" d="M739.79,327c6.94-4.75,12.07-4.39,33.45,3.29,28.41,10.19,37.84,14.26,42.23,16.45s3.84,9.32,6,17.55,1.65,18.64,1.65,20.29-10.42,7.68-10.42,7.68l-4.39-6-1.64-9.88s5.48-.54,7.67,0-6-4.5-5.48-13.16c.54-9.87-4.39-11.51-12.06-11s-42.78,2.2-49.36,1.1-15.91-5.48-13.71-13.71S736.91,329,739.79,327Z"/><path class="cls-23" d="M943.91,413.73s-28.55,38.78-33.86,43.91c-1.2,1.16-14.45,11.57-17.8,11.92s-11.54-3.21-11.54-3.21c-.9-4.43,12.07-.67,13.28-1.83s-6.19-.75-4.5-2.14,3.13-2.06,6.49-3.63.52-3.87,4.66-10,9.38-6.18,12-8,9.79-46.07,14.51-50.32C934.56,383.71,953.78,389.89,943.91,413.73Z"/><rect class="cls-19" x="722.56" y="352.04" width="117.86" height="455.8"/><rect class="cls-19" x="553.59" y="521.01" width="455.8" height="117.86"/><path class="cls-27" d="M800.22,448.56s-3.75-1.76-3.06-2.31c.84-.66,3.41.41,6,1C806.05,447.84,801,448.28,800.22,448.56Z"/><path class="cls-27" d="M949.81,449.17s6.2-2.88,5.47-3.38c-.89-.6-3.38.64-5.9,1.37C946.52,448,949,448.94,949.81,449.17Z"/><path class="cls-27" d="M947.74,450.59s6.08-1.67,5.74-2.3-2.89,0-5.18.25C945.72,448.81,947.22,450.22,947.74,450.59Z"/><path class="cls-29" d="M914.2,440.21s-1,17-8.83,14.5S903.92,436.6,914.2,440.21Z"/><path class="cls-30" d="M892.21,437s8.77-5.34,24.45-.3,23.86,12,27,11.15,9.92-5.31,11.68-5.39-6.31,6.91-9.68,10.6a16.46,16.46,0,0,0-3.85,6.74c-.46,1.86-1.38,3.73-2.36,4.4s-.37-2.28-.29-4.58,1.27-4-3.16-5.24c-4-1.15-19.59-3.54-25.53-4.07s-21.62-1.49-27.48-.26S889.41,437.67,892.21,437Z"/><path class="cls-30" d="M854.18,428.34s-14.4-.44-26,5.23-18.35,10.78-20.71,11.64a36.86,36.86,0,0,1-7.71,2.48c-2.74.62-3.51-.88-5.55.23-1,.53,2.25,2.15,3.95,2.72s4.24.25,5.35,2.52,1.93,2.86,1.38,5.44.59,2.45,1.71,1.46,4.49-4,4.9-5.33,2.1-1.59,6.71-3.61c3.83-1.69,12.33-4.46,30.78-4.29C868.48,447,856.92,428.54,854.18,428.34Z"/><path class="cls-22" d="M898.73,432.68s11.74.4,12.57.49-3.5,10.44-3.53,14.78c0,2.8-.92,6.07,1.3,6.31s-7.17,1.48-9.6,3.19-4.5,16.08-3.16,30,10.68,21.05-5.4,21.87-23,5.43-36.06-1.28-12-8.84-15.9-6.17,6.75-10.79,9.31-21.75,6.9-22.83,6.87-25.08-2.29-2.71-8-6.18c0,0,.51-11.55,1.73-20.4.31-2.28,6.86-1.51,11.27-1.79C866,426.26,894.11,433.88,898.73,432.68Z"/><path class="cls-31" d="M884.36,465.11c5.63,5.09,5,5.3,6.33-1.57s2-8.49,7.74-12.09a62.86,62.86,0,0,1,9.45-4.85,11.46,11.46,0,0,0-.11,1.35c0,2.8-.92,6.07,1.3,6.31s-7.17,1.48-9.6,3.19-4.5,16.08-3.16,30c1.12,11.71,8,18.64.42,21l-.34-.53c-3.58-6-11.93-1.26-11-4.81s-7.44-9.2-1.61-8.59,3.52-9.45-.84-18.61S878.72,460,884.36,465.11Z"/><path class="cls-30" d="M850,558.63a42.77,42.77,0,0,0,.42,5.84,7.52,7.52,0,0,1-1.67,6.25c-1.25,1.25-8.33,2.5-10.41,5.41s-7.92,6.67-8.33,5.42-1.67-6.67-1.26-9.58,5.35-7.08,8.09-10.41S847.49,554.05,850,558.63Z"/><path class="cls-30" d="M921.24,561.55s-2.08,6.25.83,7.5,7.5,2.92,10.42,5.83,8.75,7.09,11.66,5,.84-7.91.42-11.25-7.5-5.41-10-9.16S920.41,554.05,921.24,561.55Z"/><path class="cls-32" d="M859.6,503.67c-9.64-3.86-17.78-7.44-24.7-6.95-5.4.39-11.19,1.55-8.49,8.49s5.85,19.18,33.58,20.46c22.22,1,23.89-.09,33.89-3.42,7-2.32,12.42,16.92,19.37,28.89s4,10.71,8.82,12.08c5.75,1.63,11.67.41,15-4.59.72-1.07-16.11-50.33-20.35-55.35s-14.28-13.12-32-2.7S863.26,505.13,859.6,503.67Z"/><path class="cls-33" d="M848,516.41a31,31,0,0,0,.3,10.28c2.9,14.5,3.88,33.89,3.88,33.89s-12.67,3.68-15.38,1-13.5-44-13.5-49.4,0-17,10.41-12.35S848.41,512.16,848,516.41Z"/><path class="cls-32" d="M852.21,560.58s-1-19.39-3.88-33.89a31,31,0,0,1-.3-10.28c.31-3.48-2.2-15.69-13-16.94-2.91.83,6.35,5.74,2.92,20.42-2.92,12.49,5.15,31.72,9.08,41.92C849.87,561.26,852.21,560.58,852.21,560.58Z"/><path class="cls-33" d="M931.57,561.81a44.54,44.54,0,0,0-3.66-9.84s-11.74-28.52-13.34-32.5c-3.33-8.33-3.24,1.1-5,2.5-2.08,1.67-2.08-4.17-4.58-8.75s-11.67-2.08-13.75,1.25,6.32,2.55,8.61,10.78c4.42,5.63,8.55,17.53,13.4,25.89C920.19,563.1,928,562,931.57,561.81Z"/><path class="cls-24" d="M891,425.81s9.24,5.83,14.42.23,9.81-4.79,9.81-9.79,2.13-6.89.11-7.21,2-11.28-3.68-17.26-3-2.86-3.85-1.25c-.93,1.84-4.89-3.87-6.85-6.33-2.53-3.16-16-4.76-14.38.57s-4.47-1.82-5.35,1.22-4-.25-4.72-2.82-6.68,8.07-.24,19S887.61,426.54,891,425.81Z"/><path class="cls-30" d="M889.22,438.41a10.36,10.36,0,0,1,2.32-8.62c3.44-4,10.67-3.49,12.56-6.1s2-7.42-.88-5.44-6.39,3.59-5.44.62,8.37-4.07,8.08-8.19-5.17-2.46-7.26-4.65-2-3.92.08-4.8-.47-1.71-4-3.44-8-2.49-6.57-4-.92-3.16-3.54-2-9.5,9.44-12.47,11.83-9.32,7-4.2,15.1,5.7,7.15,5.18,9.66c-.22,1.08-11,8.49,1.08,15.75C879.26,447.21,886.76,443.85,889.22,438.41Z"/><path class="cls-34" d="M652.67,373.34s9.23,9.24,12.12,2.89-1.15-25.39,1.15-32.89,8.66-45.59-18.46-44.43S641.13,363,652.67,373.34Z"/><path class="cls-23" d="M658.25,374.69s-3.85-10.77,0-17.7,8.46-5.38,10.77-7.69,6.15-36.16-9.23-42.32-13.08-5.38-21.54,9.24,1.54,52.31,3.07,59.24S652.09,381.61,658.25,374.69Z"/><path class="cls-34" d="M649.79,302.37s-4,29.43-10.39,39.24,20,41.38-5.74,50.2c-64,21.92-32.34-16.74-25.42-33.47s1.15-46.16,23.08-54.82S645.17,298.33,649.79,302.37Z"/><path class="cls-19" d="M609.63,498a63.3,63.3,0,0,0-3.8,12.5c-1,5.87-3,13.48-5.05,13.21s-4.62-3.87-4.35-8.15-1.16-9-2.52-12.39-.56-7.46,3.26-8.33,6.34-4.5,7.93-3.81S609.63,498,609.63,498Z"/><path class="cls-26" d="M602.72,512.64a27.63,27.63,0,0,0-3.66-14.14,4.43,4.43,0,0,0-4.24-2.41c-1.74,1.67-1.93,4.56-.91,7.1,1.36,3.41,2.79,8.11,2.52,12.39s2.26,7.89,4.35,8.15c.44.06.88-.26,1.31-.83A57.27,57.27,0,0,0,602.72,512.64Z"/><path class="cls-35" d="M620.74,465.47s-8.85,10.1-11.92,14.62c-2.3,3.37-10,13.08-10,13.08s6.92,6.16,8,13.75c.18,1.28,6.89-10.61,11.25-16.06C626.9,479.8,622.76,467.49,620.74,465.47Z"/><path class="cls-23" d="M648.63,798s-2.88,21.93-3.46,27.12-1.15,19,5.77,11.54,9.81-25.39,10.39-31.16,1.15-19-2.31-15S649.79,791.11,648.63,798Z"/><path class="cls-23" d="M673,777.83s2.89,21.93,3.47,27.12,1.15,19-5.77,11.55-9.81-25.39-10.39-31.16-1.16-19.05,2.31-15S671.83,770.91,673,777.83Z"/><path class="cls-36" d="M699.41,526.25s1.15,17.31,1.15,35.78-13.27,90-16.73,98.67,2.31,7.5,0,28.27S673.44,768,674,773.22s-2.31,8.65-8.08,11-2.88-12.69-2.88-19-1.16-90-2.31-106.75-17.31-126.94,11.54-132.14S698.26,519.91,699.41,526.25Z"/><path class="cls-35" d="M688.45,541.83c1.73-7.5-2.89-14.42-2.89-14.42-.64-1.2-1.24-2.31-1.83-3.3-3.12.6-6.88,1.32-11.44,2.14-28.85,5.2-12.7,115.41-11.54,132.14s2.31,100.4,2.31,106.75-2.89,21.35,2.88,19a20.68,20.68,0,0,0,2.71-1.3,4.76,4.76,0,0,0,.76-2.74c0-4.61,1.15-2.88.57-12.69s1.16-29.43-.57-54.24-2.31-41-1.74-50.2S686.71,549.33,688.45,541.83Z"/><path class="cls-24" d="M621.51,529.72s6.35,92.9,13.27,125.79,11.54,113.67,12.12,124.63,1.15,8.08.58,11-4,2.31-2.31,5.19,1.73,2.88.58,5.19-.58,3.46,6.92-.57,13.85-8.08,12.69-12.7-2.3-4-1.72-6.92-.79-2.85-.58-6.93c.58-11.54,2.88-53.08,1.15-86s-1.73-51.93-1.73-69.25.58-78.47,2.31-81.36,11.54-5.19,12.69-10.38S628.44,526.25,621.51,529.72Z"/><path class="cls-31" d="M622.66,382c2.07,1,13.28,8.65,5.78,35.2s-16.74,42.12-19.05,46.16-2.3.58-6.34-.58-7.5-5.19-9.24-6.35,12.12-58.28,17.89-65.78S619.2,380.27,622.66,382Z"/><path class="cls-25" d="M637.09,375.65s16.16-4.62,26-5.77,28.85-16.73,28.27,11.54-4,66.36-1.15,75,13.27,69.25,10.38,84.25-30.58-9.23-43.85-11-28.85,3.46-35.77,2.88-3.47-57.7-2.31-75.59S588.62,382.58,637.09,375.65Z"/><path class="cls-35" d="M645.17,663.58c9.23,8.08,11,8.08,6.92-.57s-4-11-6.34-21.35-3.46-38.66-4.62-68.09-.58-29.43-8.08-30.58c-4.11-.64-8.39-3.17-11.42-5.34,1.83,24.63,7,89.72,12.58,116.12,6.92,32.9,11.54,113.68,12.11,124.64s1.16,8.08.58,11-4,2.31-2.31,5.2,1.73,2.88.58,5.19a4.45,4.45,0,0,0-.44,1.22c4.17-7.42,7.71-36.5,5.63-51.42-3.46-24.81-5.77-64-8.07-75S635.94,655.51,645.17,663.58Z"/><path class="cls-24" d="M661.42,795.63a14.06,14.06,0,0,1,2,7.21c0,2.69-2.69,14.23-3.46,19.24s-3.85,22.31-11.16,24.23-3.46-18.08-3.65-21.16-.25,11.76,8.08,2.89c3-3.18,6.35-20.2,7.11-24S659.88,792.93,661.42,795.63Z"/><path class="cls-24" d="M667.1,803.8c1.15,2.88,5.32,11.75,8.84,10.58.87-.29.87-2,.87-2a17.55,17.55,0,0,0,1.25,3.85c1.25,2.79,4.23,4.19,5,5.86,1.15,2.5-1,3.66-6.73,1.93s-9.81-3.75-10.39-6.06-4.61-20.2-5.19-22.79c-.39-1.75,1-2.71,2-3.15C663.26,791.78,665.94,800.92,667.1,803.8Z"/><path class="cls-35" d="M659.88,433.06s33.47,8.95,38.66,12.7,6.35,5.77,1.16,15.87-21.64,40.1-21.64,40.1-8.37-3.17-10.39-4.33,15.58-34.62,16.45-38.95c0,0-36.93-2.59-42.41-4S650.36,432.49,659.88,433.06Z"/><path class="cls-37" d="M658.63,370.84s12.31-9.23,16.93-10.38,8.46,0,10,1.54-.38,3.07-3.46,2.69-4.23.38-7.69,5-5.78,10-8.85,12.69-7.31,6.54-7.7,2.7S655.56,372.77,658.63,370.84Z"/><path class="cls-37" d="M589.39,415.47s0,5.77,2.31,7.3,9.23.39,12.31-8.84S590.16,413.54,589.39,415.47Z"/><path class="cls-19" d="M677.19,499.42a63.21,63.21,0,0,0,1.45,13c1.44,5.76,2.59,13.56.57,14.13s-5.77-1.73-7.21-5.77-4.61-7.79-7.21-10.39-3.46-6.63-.29-8.94,4-6.63,5.77-6.63S677.19,499.42,677.19,499.42Z"/><path class="cls-26" d="M676.62,515.58a27.59,27.59,0,0,0-9-11.54,4.45,4.45,0,0,0-4.84-.55c-1,2.23,0,5,2,6.89,2.6,2.6,5.77,6.35,7.21,10.39s5.19,6.35,7.21,5.77c.44-.12.71-.59.88-1.28A57.45,57.45,0,0,0,676.62,515.58Z"/><path class="cls-23" d="M670.75,447.78s2.69,4.61-6.16,7.69-16.15,2.69-28.85,4.62-23.46,1.54-11.15-1.92,25-9.62,28.85-13.47,5.38-3.08,5.38-3.08A49.18,49.18,0,0,0,670.75,447.78Z"/><path class="cls-31" d="M686.14,366.42c2.06,1,13.27,8.65,5.77,35.2s-16.74,42.12-19,46.16-2.31.58-6.35-.58-7.5-5.19-9.23-6.35,12.12-58.27,17.88-65.78S682.68,364.69,686.14,366.42Z"/><path class="cls-27" d="M628,383.71s-3.2-10.07,1.71-15.34a71,71,0,0,0,6.07-8.45c1.61-2.57-.44-8.71-2.26-12.89-7.35-16.85-11.79-13-14.67-14.11s-11.89,2.29-15.67,4.92c-6.73,4.69-11.8,9.74-9.15,20.13s5.88,10.95,10.08,13.6c3,1.89,5,9.39,4.53,11.61S628,383.71,628,383.71Z"/><path class="cls-24" d="M594.53,340.17c-5-14.11,17-10.79,13.56-16.18-2.58-4.05,19-3.9,10.08,3.79-2,1.75,1.71-5.15,9.61-1.72,6.37,2.77,1.85,5.72.58,6.28-3.61,1.6,7.22-1.84,7.68,1.53.31,2.34-10.65,7.76-15.1,8.5-2.55.43-12.1.75-8.94,9.82C612.41,353.38,600.75,357.91,594.53,340.17Z"/><path class="cls-24" d="M619.6,355.82s-6.19-1.11-6,2.21,5.53,3.76,5.53,5.53,3.74,10-5.45,10.89c-4.26.41-7,3.31-8.58,1.37-2.38-2.91-3.73-6.06-6.52-8.24-21-16.38-12.24-32.37-4.53-30.79,2.62.53,6.06,6.65,9.82,8.19S619.6,355.82,619.6,355.82Z"/><path class="cls-24" d="M634.3,334.64s1.37,2.06-10.3,8.58c-3,1.65,7.21,3.89-2.4,10.29-3.58,2.39.63,3.87-.69,3.09s-13-3.09-12.69-1.71S592.43,329.15,634.3,334.64Z"/><path class="cls-19" d="M609.78,381.61a16.51,16.51,0,0,0,12.69-.38c5-2.36,2.89-6.93,12.7-6.93,11.15,0,24.23-5.38,24.23-5.38.39,1.92-2.69,7.31,1.54,16.93,1.09,2.46-13.08,6.53-13.08,6.53,0,4.24,6.93,24.24,8.85,30s4.23,5.39,2.69,7.69-.38.39,1.54,1.16.77,10-6.15,16.92-28.47,13.47-33.09,13.47-15-40.39-15.77-47.32a48.18,48.18,0,0,0-3.84,3.08c-2.7,2.31-12.7,2.31-12.7-1.92s5.39-19.62,8.85-24.24S609.78,381.61,609.78,381.61Z"/><path class="cls-23" d="M599.59,465.86c-2.6-.81-5.78-13.46,1.53-24.62s21.16-33.47,24.24-39.62,5.77-17.7,14.23-20l8.46-2.3s1.16.76-1.92,2.69a28.38,28.38,0,0,1-5.38,2.69s16.54-1.54,19.61-1.92,1.54,3.84-2.69,5a57.34,57.34,0,0,0-11.16,4.61c-1.15.77-6.53,3.08,1.16,3.47s11.92-1.16,11.54.38-11.54,5.39-16.16,6.16-7.31-.77-8.46,1.53-8.08,28.86-10.77,41.17S611.89,469.71,599.59,465.86Z"/><g class="cls-38"><path class="cls-28" d="M1289.6,905.68c-.25-.2-.5-.37-.75-.55l.39-.14c3.42-1.34,5.63-3.87,4.93-5.66s-4-2.15-7.46-.81c-.29.11-.57.24-.84.37,0-.13.05-.27.07-.41.55-3.62-.54-6.8-2.44-7.09s-3.88,2.43-4.43,6.06c0,.3-.08.61-.1.92-.1-.1-.21-.19-.32-.28-2.87-2.29-6.16-2.93-7.36-1.43s.16,4.57,3,6.86c.25.2.5.38.75.55l-.39.14c-3.42,1.34-5.62,3.87-4.92,5.66s4,2.15,7.45.81l.85-.37c0,.13,0,.27-.07.41-.55,3.63.54,6.8,2.44,7.09s3.87-2.43,4.42-6c.05-.31.08-.62.1-.93.11.1.21.19.33.28,2.86,2.29,6.16,2.93,7.35,1.43S1292.47,908,1289.6,905.68Zm-8.18,2.48a3.6,3.6,0,1,1,4.09-3A3.6,3.6,0,0,1,1281.42,908.16Z"/><path class="cls-39" d="M1357.4,854.37a336.44,336.44,0,0,1-66.87-155.52c-6.38-42.45-2.14-71.72-2.1-72l2.62.39c0,.29-4.22,29.24,2.12,71.33a333.67,333.67,0,0,0,66.32,154.19Z"/><path class="cls-39" d="M1288.94,630.55s-3.79-7.69-2.22-16c.57-3,3.81-7.76,6.61-7.24s4.33,4.78,3.5,9.15C1295.27,624.77,1288.94,630.55,1288.94,630.55Z"/><path class="cls-39" d="M1288.58,645.18a26.58,26.58,0,0,1,6.71-12.94c2-2,6.76-4,8.49-2.22s.63,5.64-2.23,8.5A26.67,26.67,0,0,1,1288.58,645.18Z"/><path class="cls-39" d="M1290.17,670s1.59-6.84,6.88-10.62c1.91-1.36,6.43-2,7.92.05s.26,5.52-2.53,7.51C1297.16,670.73,1290.17,670,1290.17,670Z"/><path class="cls-39" d="M1289.45,644.31s-6.9,1.05-12.33-2.44c-2-1.28-4.25-5.2-2.87-7.33s5-2.28,7.86-.44C1287.54,637.6,1289.45,644.31,1289.45,644.31Z"/><path class="cls-39" d="M1322.21,796.5a23.64,23.64,0,0,1-13.26,2.3c-2.52-.4-6.57-3-6.21-5.33s3.87-3.76,7.53-3.18C1317.23,791.36,1322.21,796.5,1322.21,796.5Z"/><path class="cls-39" d="M1288.61,670s-8,.57-14.61-3.69c-2.4-1.55-5.39-6-4-8.26s5.65-2.07,9.15.18C1285.83,662.54,1288.61,670,1288.61,670Z"/><path class="cls-39" d="M1290.55,696.52s-7.79,1.76-13.58-2c-2.1-1.35-4.36-5.82-2.66-8.46s5.75-3.06,8.8-1.09C1288.91,688.72,1290.55,696.52,1290.55,696.52Z"/><path class="cls-39" d="M1292.45,695.8s.32-7.85,5.35-12.83c1.83-1.81,6.66-3.22,8.74-1.12s1.46,6.11-1.2,8.73C1300.3,695.57,1292.45,695.8,1292.45,695.8Z"/><path class="cls-39" d="M1323.35,797.13a21.4,21.4,0,0,1,.19-13.45c.91-2.61,4.45-7,6.87-6.77s3.22,3.7,1.89,7.5C1329.78,791.63,1323.35,797.13,1323.35,797.13Z"/><path class="cls-39" d="M1302.5,746.42a18.09,18.09,0,0,1,7.19-8.61c2-1.34,6.89-2.81,8.55-1.76s.4,3.61-2.56,5.56C1310.05,745.32,1302.5,746.42,1302.5,746.42Z"/><path class="cls-39" d="M1295.5,723.41a15.41,15.41,0,0,1-9.58-3.4c-1.73-1.34-4.26-5.14-3.72-7s3.17-1.6,5.68.35C1292.62,717.1,1295.5,723.41,1295.5,723.41Z"/><path class="cls-39" d="M1313,773.29s-2.51-7.93-.92-13.88c.58-2.16,3.27-4.49,5.37-2.78s3.07,5.85,2.23,9A11.29,11.29,0,0,1,1313,773.29Z"/><path class="cls-39" d="M1303.37,747.17s-9.58,1.69-17-.87c-2.69-.93-5.75-4.2-3.79-6.27s7-2.57,10.88-1.22A17,17,0,0,1,1303.37,747.17Z"/><path class="cls-39" d="M1312.41,774.72s-9.08,1.57-15.71-1c-2.4-.92-4.89-4.16-2.84-6.18s6.76-2.46,10.24-1.11A14,14,0,0,1,1312.41,774.72Z"/><path class="cls-39" d="M1266.13,602.43a23.64,23.64,0,0,1-13.26,2.3c-2.52-.39-6.57-3-6.21-5.33s3.87-3.76,7.54-3.18A23.64,23.64,0,0,1,1266.13,602.43Z"/><path class="cls-39" d="M1334.6,818.54a17.86,17.86,0,0,1,1.73-11.08c1.06-2.2,4.51-6,6.5-5.9s2.25,2.92.7,6.11C1340.59,813.73,1334.6,818.54,1334.6,818.54Z"/><path class="cls-39" d="M1324.15,711.93s.63-7.7,4.08-12.77c1.25-1.83,4.38-3.38,5.58-1.39s.58,6-1.24,8.61A12.62,12.62,0,0,1,1324.15,711.93Z"/><path class="cls-39" d="M1296.72,724.8a27,27,0,0,1,5.38-13.12c1.79-2.39,6.51-6,8.49-5.29s1.31,4.25-1.31,7.71A44,44,0,0,1,1296.72,724.8Z"/><path class="cls-31" d="M1096.09,762.55s2.57-7.88-.36-15.14c-1.06-2.63-5.1-6.28-7.84-5.17s-3.59,5.34-2.05,9.16C1088.77,758.66,1096.09,762.55,1096.09,762.55Z"/><path class="cls-31" d="M1100.09,775s-3.54-6.33-9.89-8.62c-2.3-.83-7-.27-7.89,2.2s1.32,5.52,4.66,6.73C1093.32,777.6,1100.09,775,1100.09,775Z"/><path class="cls-31" d="M1107.48,788.33s-5.81-4.33-12.54-3.83c-2.45.18-6.5,2.61-6.3,5.22s3.45,4.51,7,4.25C1102.37,793.47,1107.48,788.33,1107.48,788.33Z"/><path class="cls-31" d="M1100.41,775.25a23.46,23.46,0,0,0,9.8-8.28c1.31-2.07,2.09-6.57.27-7.71s-4.94.57-6.83,3.57A23.62,23.62,0,0,0,1100.41,775.25Z"/><path class="cls-31" d="M1106.62,788.79a22.75,22.75,0,0,0,10-8.16c1.31-2.07,2-6.63.08-7.84s-5.13.45-7,3.46A22.85,22.85,0,0,0,1106.62,788.79Z"/><path class="cls-31" d="M1118.44,805.57s5.71-1.34,8.45-5.71c1-1.58,1.16-5.29-.76-6.5s-4.74-.18-6.19,2.12C1117.2,799.85,1118.44,805.57,1118.44,805.57Z"/><path class="cls-31" d="M1117.72,806a18.2,18.2,0,0,0-9.64-4.14c-2-.15-5.52,1.11-5.65,3s2.26,3.58,5.14,3.8A18.2,18.2,0,0,0,1117.72,806Z"/><path class="cls-31" d="M1150.3,882.09a6.88,6.88,0,0,1-2.44,1.6l-.43-1.3.21.65-.21-.65c.12,0,3-1.08,4.4-5.54,1.52-5,.47-12.08-3.11-21.06-4.91-12.32-14.53-27.86-28.58-46.2-16.32-21.31-20.84-35.21-23.85-44.41-.76-2.35-1.43-4.39-2.15-6.06l1.26-.54c.75,1.72,1.42,3.79,2.2,6.18,3,9.11,7.46,22.87,23.63,44,31.28,40.83,34.6,59.83,31.89,68.58A11,11,0,0,1,1150.3,882.09Z"/><path class="cls-39" d="M1359.69,796.34A210.83,210.83,0,0,0,1325.12,810c-28.36-27.86-63-44.88-96.87-28.63-28,13.44-47.93,27.84-59.49,41.9q-14.43-2-30.88-3.25c-23.85-1.79-40.25,4.22-51,14.72-48.32-12.45-95.87-17.21-120.53-.89-42.87,28.39-45.8,48-12.08,62.6C908.07,903.68,875,918.81,939.92,936c-44.07,2.51-77.44,1.93-76,14.28.38,3.3,13.64,2.17,22.19,2.17,83.88,0,285.25,2.83,473.28-11.76"/><path class="cls-40" d="M1160,855.93a102.32,102.32,0,0,1,59.13,74.91,102.06,102.06,0,0,1-154.33-68.19A102.33,102.33,0,0,1,1160,855.93Z"/><line class="cls-41" x1="1077.18" y1="867.54" x2="1213.49" y2="927.77"/><line class="cls-41" x1="1105.22" y1="880.13" x2="1082.35" y2="890.93"/><line class="cls-41" x1="1128.47" y1="890.4" x2="1100.27" y2="903.7"/><line class="cls-41" x1="1151.71" y1="900.67" x2="1104.59" y2="922.91"/><line class="cls-41" x1="1174.95" y1="910.93" x2="1129.11" y2="932.58"/><line class="cls-41" x1="1198.19" y1="921.2" x2="1172.67" y2="933.26"/><line class="cls-41" x1="1102.6" y1="878.48" x2="1095.18" y2="854.3"/><line class="cls-41" x1="1125.84" y1="888.75" x2="1114.28" y2="851.06"/><line class="cls-41" x1="1149.08" y1="899.02" x2="1134.61" y2="851.83"/><line class="cls-41" x1="1172.32" y1="909.29" x2="1157.46" y2="860.82"/><line class="cls-41" x1="1195.57" y1="919.56" x2="1182.8" y2="877.92"/><path class="cls-40" d="M1248.75,829.2A113,113,0,0,1,1261,933.93a112.77,112.77,0,0,1-105.63-153.6A113,113,0,0,1,1248.75,829.2Z"/><line class="cls-42" x1="1164.14" y1="792.1" x2="1257.42" y2="927.77"/><line class="cls-42" x1="1183.21" y1="820.2" x2="1155.45" y2="817.09"/><line class="cls-42" x1="1199.12" y1="843.33" x2="1164.9" y2="839.5"/><line class="cls-42" x1="1215.03" y1="866.46" x2="1157.81" y2="860.07"/><line class="cls-42" x1="1230.94" y1="889.59" x2="1175.27" y2="883.38"/><line class="cls-42" x1="1246.84" y1="912.72" x2="1215.85" y2="909.26"/><line class="cls-42" x1="1181.7" y1="817.13" x2="1188.74" y2="790.09"/><line class="cls-42" x1="1197.6" y1="840.26" x2="1208.58" y2="798.1"/><line class="cls-42" x1="1213.51" y1="863.39" x2="1227.26" y2="810.62"/><line class="cls-42" x1="1229.42" y1="886.52" x2="1243.54" y2="832.32"/><line class="cls-42" x1="1245.33" y1="909.66" x2="1257.45" y2="863.09"/><path class="cls-43" d="M1259.93,754s38.92,43.42,55.17,145.08"/><path class="cls-43" d="M1302.85,776.26s22.91,53.6,19.9,112.92"/><path class="cls-43" d="M1265.69,815.85s37,21.53,34.4,75.89"/><path class="cls-3" d="M1255.51,745.52c-8.75,4.57-14.34,11.16-12.49,14.7s10.45,2.71,19.2-1.86,14.34-11.16,12.49-14.7S1264.26,741,1255.51,745.52Z"/><path class="cls-26" d="M1257.8,749.9c-2.78,1.46-4.56,3.55-4,4.67s3.32.86,6.1-.59,4.55-3.54,4-4.67S1260.58,748.45,1257.8,749.9Z"/><path class="cls-3" d="M1301,772.74c-3.65,1.9-6,4.65-5.2,6.12s4.35,1.13,8-.77,6-4.65,5.2-6.12S1304.65,770.83,1301,772.74Z"/><path class="cls-26" d="M1302,774.57c-1.15.6-1.89,1.47-1.65,1.94s1.38.36,2.54-.25,1.89-1.47,1.65-1.94S1303.12,774,1302,774.57Z"/><path class="cls-3" d="M1263.05,813c-3.89,3.59-5.87,7.78-4.41,9.36s5.79-.06,9.69-3.65,5.86-7.79,4.41-9.37S1266.94,809.4,1263.05,813Z"/><path class="cls-26" d="M1264.85,814.94c-1.23,1.15-1.86,2.48-1.4,3s1.84,0,3.08-1.16,1.86-2.47,1.4-3S1266.09,813.8,1264.85,814.94Z"/><path class="cls-25" d="M1112.7,952c-4.15-6.39,1-7.71,20.76-10.6,21.54-3.15,42.13-1,59.07,2.9-40-19.35-86.52-46.53-44-49.68,13.26-1,33.65,5.44,56.33,15.47-25.3-20.59-39.22-37.51-23.89-40.65,14.23-2.92,43.24,13.82,74.13,36-17.6-18.63-27.79-34.88-19.89-42.55,6.45-6.26,20.22.92,36,14.23-.71-11.7,4.21-18.77,15.43-17.35,10.55,1.33,19.1,14.88,25.21,31.13,10.13-25.2,20.41-40.61,47.39-33,0,29-1.09,52.12-1.09,94Z"/><path class="cls-28" d="M1231.33,916a6.41,6.41,0,0,0-.52-.39l.27-.09c2.37-.93,3.9-2.69,3.42-3.92s-2.81-1.49-5.17-.57l-.59.26a2.74,2.74,0,0,0,0-.28c.38-2.52-.37-4.72-1.69-4.92s-2.68,1.68-3.07,4.2c0,.21,0,.42-.07.63l-.22-.18c-2-1.59-4.27-2-5.1-1s.11,3.17,2.1,4.76c.17.14.34.26.51.38l-.27.1c-2.36.92-3.89,2.68-3.41,3.92s2.8,1.49,5.17.56l.58-.26c0,.09,0,.19,0,.28-.39,2.52.37,4.72,1.69,4.92s2.68-1.68,3.06-4.19a4.81,4.81,0,0,0,.07-.64l.23.18c2,1.59,4.27,2,5.1,1S1233.32,917.62,1231.33,916Zm-5.67,1.71a2.49,2.49,0,1,1,2.84-2.09A2.49,2.49,0,0,1,1225.66,917.75Z"/><path class="cls-19" d="M991,841.19l1.46-1.33c.43.63,43.37,64.28,76.64,156l-1.89.49C1034.1,905.1,991.42,841.81,991,841.19Z"/><path class="cls-44" d="M1024.19,890.15s-6.63-13.86-2.84-27.66c1.37-5,8.09-12.45,13.45-11s8,9,6,16.3C1037,881.62,1024.19,890.15,1024.19,890.15Z"/><path class="cls-44" d="M1038.25,919.27s-.4-15.36,8.69-26.41c3.3-4,12.47-8.06,16.77-4.52s3.57,11.48-1.22,17.31C1053.4,916.71,1038.25,919.27,1038.25,919.27Z"/><path class="cls-44" d="M1018.65,892.33s-12,7.61-26.32,6.85c-5.18-.27-13.93-4.43-13.68-9s7-7.88,14.55-7.47C1007.5,883.5,1018.65,892.33,1018.65,892.33Z"/><path class="cls-44" d="M1033.74,921.09s-12.06,8.08-26.34,7.32c-5.19-.28-13.92-4.64-13.67-9.45s7-8.34,14.58-7.94C1022.61,911.78,1033.74,921.09,1033.74,921.09Z"/><path class="cls-44" d="M1045.83,946.35s-9.3,8.23-20.22,7.64c-3.95-.2-10.57-4.46-10.32-9.26s5.49-8.43,11.24-8.12C1037.44,937.18,1045.83,946.35,1045.83,946.35Z"/><path class="cls-44" d="M1052.51,952.07s-1.35-11.79,4.62-21.77c2.16-3.61,8.67-8.19,12.08-6.14s3.44,8.3.29,13.55C1063.53,947.68,1052.51,952.07,1052.51,952.07Z"/><path class="cls-44" d="M1007.52,868s-16.79-5.19-25.77-19.14c-3.25-5-4.62-16.51.63-19.89s13.64.31,18.37,7.65C1009.74,850.59,1007.52,868,1007.52,868Z"/><polygon class="cls-19" points="1018.64 892.55 978.63 890.44 978.66 889.99 1018.66 892.11 1018.64 892.55"/><rect class="cls-19" x="1002.99" y="885.07" width="0.45" height="7.32" transform="translate(-335.99 835.66) rotate(-39.27)"/><polygon class="cls-19" points="1019.35 920.25 1010.09 911.09 1010.4 910.77 1019.66 919.93 1019.35 920.25"/><rect class="cls-19" x="988.53" y="882.66" width="0.45" height="9.65" transform="translate(-339.82 899.73) rotate(-42.44)"/><rect class="cls-19" x="992.28" y="893.47" width="7.01" height="0.45" transform="translate(-336.21 1020.39) rotate(-47.34)"/><polygon class="cls-19" points="1024.08 891.75 1023.66 891.62 1035.84 852.16 1036.27 852.29 1024.08 891.75"/><polygon class="cls-19" points="1027.46 879.87 1019.87 864.19 1020.27 864 1027.86 879.67 1027.46 879.87"/><polygon class="cls-19" points="1031.77 866.09 1025.73 855.2 1026.13 854.98 1032.16 865.88 1031.77 866.09"/><rect class="cls-19" x="1029.82" y="869.31" width="9.31" height="0.45" transform="translate(-262.14 488.72) rotate(-23.68)"/><polygon class="cls-19" points="1038.42 919.42 1038.08 919.13 1064.36 888.85 1064.69 889.14 1038.42 919.42"/><polygon class="cls-19" points="1034.13 920.38 994.44 920.62 994.44 920.17 1034.13 919.93 1034.13 920.38"/><rect class="cls-19" x="1044.6" y="937.89" width="32.52" height="0.45" transform="translate(-287.81 1370.04) rotate(-59.24)"/><polygon class="cls-19" points="1045.83 946.57 1015.28 944.95 1015.31 944.51 1045.85 946.12 1045.83 946.57"/><polygon class="cls-19" points="1058.42 942.75 1057.97 942.79 1056.91 930.33 1057.35 930.29 1058.42 942.75"/><rect class="cls-19" x="1063" y="932.3" width="9.31" height="0.45" transform="matrix(0.92, -0.4, 0.4, 0.92, -284.7, 507.53)"/><polygon class="cls-19" points="1031.36 945.62 1023.02 937.45 1023.34 937.14 1031.68 945.3 1031.36 945.62"/><polygon class="cls-19" points="1054.68 900.74 1054.24 900.76 1053.43 888.47 1053.87 888.45 1054.68 900.74"/><rect class="cls-19" x="1043.99" y="902.71" width="0.45" height="9.15" transform="translate(-94.38 121.7) rotate(-6.38)"/><rect class="cls-19" x="1056.2" y="899.29" width="0.44" height="12.16" transform="translate(103.1 1918.72) rotate(-87.35)"/><polygon class="cls-19" points="1006.24 928.46 1005.92 928.14 1013.95 919.98 1014.27 920.29 1006.24 928.46"/><rect class="cls-19" x="994.73" y="825.29" width="0.45" height="46.43" transform="translate(-300.95 673.82) rotate(-32.78)"/><rect class="cls-19" x="985.3" y="833.32" width="0.45" height="13.38" transform="translate(-198.21 1365.04) rotate(-64.36)"/><rect class="cls-19" x="994.03" y="846.18" width="12.56" height="0.45" transform="translate(-206.5 1356.93) rotate(-63.17)"/></g></g></g></g></svg>