<svg xmlns="http://www.w3.org/2000/svg" xmlns:xlink="http://www.w3.org/1999/xlink" viewBox="0 0 137.04 42.64"><defs><style>.cls-1{fill:url(#linear-gradient);}.cls-2{fill:url(#linear-gradient-2);}.cls-3{fill:url(#linear-gradient-3);}.cls-4{fill:url(#linear-gradient-4);}.cls-5{fill:url(#linear-gradient-5);}.cls-6{fill:url(#linear-gradient-6);}.cls-7{fill:url(#linear-gradient-7);}.cls-8{fill:#fff;}.cls-9{fill:#329bce;}</style><linearGradient id="linear-gradient" y1="14.26" x2="28.52" y2="14.26" gradientUnits="userSpaceOnUse"><stop offset="0" stop-color="#00558d"/><stop offset="0.26" stop-color="#035990"/><stop offset="0.49" stop-color="#0b649b"/><stop offset="0.72" stop-color="#1976ac"/><stop offset="0.94" stop-color="#2d90c3"/><stop offset="1" stop-color="#3499cc"/></linearGradient><linearGradient id="linear-gradient-2" x1="34.46" y1="14.25" x2="54.82" y2="14.25" gradientUnits="userSpaceOnUse"><stop offset="0" stop-color="#00558d"/><stop offset="0.95" stop-color="#00558d"/><stop offset="1" stop-color="#00558d"/></linearGradient><linearGradient id="linear-gradient-3" x1="56.46" y1="14.25" x2="62.16" y2="14.25" xlink:href="#linear-gradient-2"/><linearGradient id="linear-gradient-4" x1="63.06" y1="17.38" x2="83.02" y2="17.38" xlink:href="#linear-gradient-2"/><linearGradient id="linear-gradient-5" x1="84.33" y1="17.43" x2="96.54" y2="17.43" xlink:href="#linear-gradient-2"/><linearGradient id="linear-gradient-6" x1="97.04" y1="17.39" x2="116.99" y2="17.39" xlink:href="#linear-gradient-2"/><linearGradient id="linear-gradient-7" x1="117.82" y1="17.39" x2="137.04" y2="17.39" xlink:href="#linear-gradient-2"/></defs><title>Asset 26</title><g id="Layer_2" data-name="Layer 2"><g id="Layer_1-2" data-name="Layer 1"><circle class="cls-1" cx="14.26" cy="14.26" r="14.26"/><path class="cls-2" d="M34.46,28.26V3.18a2.85,2.85,0,0,1,.86-2.08A2.81,2.81,0,0,1,37.39.25H54.82v4.8H40.16v6H51.07V13a2.9,2.9,0,0,1-2.93,2.93h-8V28.26Z"/><path class="cls-3" d="M56.46.25h2.93a2.78,2.78,0,0,1,2,.77,2.56,2.56,0,0,1,.81,1.92V28.26h-5.7Z"/><path class="cls-4" d="M66.24,26.31a8.1,8.1,0,0,1-2.44-3.95,18.15,18.15,0,0,1-.74-5.17,16.23,16.23,0,0,1,.62-4.4,9,9,0,0,1,1.91-3.67,8.5,8.5,0,0,1,5.46-2.89,12.66,12.66,0,0,1,6,.53A8.34,8.34,0,0,1,81.63,11,13.54,13.54,0,0,1,83,17.27a15.49,15.49,0,0,1-.57,4.48A11.23,11.23,0,0,1,81,24.92a8.12,8.12,0,0,1-5,3.34,11,11,0,0,1-5.41.12A9.5,9.5,0,0,1,66.24,26.31ZM70.15,12q-1.71,1.88-1.55,5.58c.11,2.47.57,4.2,1.39,5.17a3.5,3.5,0,0,0,1.71,1.1,3.9,3.9,0,0,0,2.48.09,4.19,4.19,0,0,0,2.24-1.84,9.22,9.22,0,0,0,1.06-4.72,8.25,8.25,0,0,0-.94-4.4,4.17,4.17,0,0,0-2.16-1.87,3.91,3.91,0,0,0-2.44,0A4.32,4.32,0,0,0,70.15,12Z"/><path class="cls-5" d="M84.33,28.26V17.76a13.33,13.33,0,0,1,.94-5.34A8.74,8.74,0,0,1,87.83,9a10.15,10.15,0,0,1,3.62-1.79,16.12,16.12,0,0,1,4.28-.57h.81v5.78H94.67a4.77,4.77,0,0,0-3.5,1.14A4.91,4.91,0,0,0,90,17.11V28.26Z"/><path class="cls-6" d="M110.89,22.23c.46-.6.9-1.12,2.7-1.12h3.15a9.4,9.4,0,0,1-3.49,5.69,10.2,10.2,0,0,1-6.35,1.87,9.07,9.07,0,0,1-7.25-3c-1.74-2-2.61-4.75-2.61-8.39,0-3.48.84-6.19,2.53-8.15a9.09,9.09,0,0,1,7.25-3A9.77,9.77,0,0,1,114.39,9c1.74,2,2.6,4.81,2.6,8.39v.9a3.44,3.44,0,0,1,0,.57H102.82a5.62,5.62,0,0,0,1.23,3.74A3.83,3.83,0,0,0,107.22,24a4.61,4.61,0,0,0,2.36-.57A4.15,4.15,0,0,0,110.89,22.23Zm-8.07-7h8.31A5.33,5.33,0,0,0,110,12a4,4,0,0,0-3-1.14A4,4,0,0,0,104.05,12,4.73,4.73,0,0,0,102.82,15.23Z"/><path class="cls-7" d="M129.71,15a15,15,0,0,1,5.78,2.44A5.14,5.14,0,0,1,137,21.34a6.52,6.52,0,0,1-2.61,5.54q-2.44,1.79-7.33,1.79-4.63,0-6.92-1.87a6.57,6.57,0,0,1-2.36-5.46V21.1h5.54a3,3,0,0,0,1.22,2.44,5.81,5.81,0,0,0,3.26.81,5.27,5.27,0,0,0,2.52-.57,1.73,1.73,0,0,0,1-1.54c0-1-1.14-1.71-3.42-2.2-1-.22-1.67-.35-2.2-.49q-4.32-1.07-5.78-2.53a5,5,0,0,1-1.63-3.91A6.48,6.48,0,0,1,120.67,8,10.19,10.19,0,0,1,127,6.11,11.15,11.15,0,0,1,133.78,8a7.17,7.17,0,0,1,2.52,5.3h-3.5a2.58,2.58,0,0,1-2.36-1.39,2.85,2.85,0,0,0-.65-.65,4.38,4.38,0,0,0-2.69-.73,4.79,4.79,0,0,0-2.44.49,1.62,1.62,0,0,0-.73,1.46c0,.87,1.41,1.61,4.23,2.2Z"/><path class="cls-8" d="M5,20.91c2.11-10.15,18.71-1.25,18.09-15a.1.1,0,0,0-.16-.07C17.66,10.14,2.37,7,4.83,20.91A.07.07,0,0,0,5,20.91Z"/><path class="cls-8" d="M6.55,23.25c1.7-3.69,11.78.61,12.37-7.93,0,0,0-.06-.06,0-3.55,2.32-13.36.52-12.44,8C6.42,23.3,6.52,23.31,6.55,23.25Z"/><path class="cls-9" d="M37,34a3.17,3.17,0,0,1,.86.1,1.69,1.69,0,0,1,.6.3,1.26,1.26,0,0,1,.35.47,1.54,1.54,0,0,1,.11.63,1.89,1.89,0,0,1-.1.63,2,2,0,0,1-.3.55,2,2,0,0,1-.49.42,2.17,2.17,0,0,1-.64.27,1.84,1.84,0,0,1,1,.48,1.33,1.33,0,0,1,.36,1,2.21,2.21,0,0,1-.17.87,1.63,1.63,0,0,1-.47.66,2.28,2.28,0,0,1-.75.42,3.16,3.16,0,0,1-1,.14H34.34l.85-6.9Zm-.58,6.52a2,2,0,0,0,1.39-.44,1.62,1.62,0,0,0,.48-1.25,1.19,1.19,0,0,0-.1-.51.93.93,0,0,0-.29-.39,1.32,1.32,0,0,0-.47-.25,2.11,2.11,0,0,0-.64-.09H35.23l-.36,2.93Zm-.82-6.14-.36,2.86h1.37a2.31,2.31,0,0,0,.82-.14,1.67,1.67,0,0,0,.57-.38,1.44,1.44,0,0,0,.33-.52,1.88,1.88,0,0,0,.11-.62,1.12,1.12,0,0,0-.37-.89A1.72,1.72,0,0,0,37,34.4Z"/><path class="cls-9" d="M43.32,40a4.62,4.62,0,0,1-.46.44,3,3,0,0,1-.46.3,2.3,2.3,0,0,1-.48.17,2.35,2.35,0,0,1-.54.06,1.76,1.76,0,0,1-.71-.14,1.36,1.36,0,0,1-.53-.38,1.46,1.46,0,0,1-.33-.6,2.43,2.43,0,0,1-.11-.79,3.78,3.78,0,0,1,.07-.74,3.64,3.64,0,0,1,.22-.71,3.06,3.06,0,0,1,.35-.64,2.7,2.7,0,0,1,.49-.52,2.22,2.22,0,0,1,.6-.34,1.88,1.88,0,0,1,.72-.13,1.51,1.51,0,0,1,.6.1,1.19,1.19,0,0,1,.4.25,1,1,0,0,1,.23.32,1,1,0,0,1,.06.33,1.2,1.2,0,0,1,0,.38,1.05,1.05,0,0,1-.19.34,1.27,1.27,0,0,1-.37.3,3.46,3.46,0,0,1-.6.26,7.8,7.8,0,0,1-.87.22c-.34.06-.73.12-1.19.17,0,.06,0,.13,0,.2v.2a1.78,1.78,0,0,0,.32,1.14,1.23,1.23,0,0,0,1,.41,1.6,1.6,0,0,0,.46-.06,2.21,2.21,0,0,0,.37-.14,1.62,1.62,0,0,0,.29-.19,2.38,2.38,0,0,0,.22-.18L43,39.9a.2.2,0,0,1,.13,0,.12.12,0,0,1,.1,0Zm-1.19-3.68a1.52,1.52,0,0,0-.71.17,1.65,1.65,0,0,0-.55.44,2.34,2.34,0,0,0-.41.64,3.21,3.21,0,0,0-.24.76c.41-.05.77-.1,1.07-.16a6.45,6.45,0,0,0,.76-.19,2.5,2.5,0,0,0,.51-.22,1.31,1.31,0,0,0,.3-.24.73.73,0,0,0,.14-.26A1.18,1.18,0,0,0,43,37a.6.6,0,0,0,0-.22.54.54,0,0,0-.16-.22.83.83,0,0,0-.28-.16A1,1,0,0,0,42.13,36.34Z"/><path class="cls-9" d="M44.56,40.11V40a.53.53,0,0,0,0-.14s0-.13,0-.22,0-.21,0-.36L45,36.56h-.64a.11.11,0,0,1-.08,0,.11.11,0,0,1,0-.08l0-.17.77-.06.32-1.74a.2.2,0,0,1,0-.08.11.11,0,0,1,.08,0h.23l-.23,1.85h2.41l.32-1.74a.14.14,0,0,1,0-.08.11.11,0,0,1,.08,0h.22l-.23,1.85h1.41l0,.34H48.28L48,39.31c0,.13,0,.24,0,.33s0,.15,0,.2,0,.1,0,.12V40a.61.61,0,0,0,.15.46.56.56,0,0,0,.38.14.88.88,0,0,0,.29,0,1,1,0,0,0,.21-.11l.16-.11s.06-.06.08-.06l0,0s0,0,0,0l.08.21a1.47,1.47,0,0,1-.47.33,1.38,1.38,0,0,1-.56.12.84.84,0,0,1-.62-.22.89.89,0,0,1-.23-.67V40a.82.82,0,0,1,0-.14s0-.13,0-.22,0-.21,0-.36l.34-2.76h-2.4l-.34,2.75c0,.13,0,.24,0,.33s0,.15,0,.2,0,.1,0,.12V40a.61.61,0,0,0,.15.46.52.52,0,0,0,.38.14.93.93,0,0,0,.29,0,1,1,0,0,0,.21-.11l.15-.11s.07-.06.09-.06a.08.08,0,0,1,.07.05l.09.21a1.59,1.59,0,0,1-.47.33,1.38,1.38,0,0,1-.56.12.83.83,0,0,1-.62-.22A.93.93,0,0,1,44.56,40.11Z"/><path class="cls-9" d="M53.81,40a4.65,4.65,0,0,1-.47.44,2.59,2.59,0,0,1-.46.3,2,2,0,0,1-.48.17,2.2,2.2,0,0,1-.53.06,1.81,1.81,0,0,1-.72-.14,1.44,1.44,0,0,1-.53-.38,1.57,1.57,0,0,1-.32-.6,2.43,2.43,0,0,1-.12-.79,3.81,3.81,0,0,1,.08-.74,4.44,4.44,0,0,1,.21-.71,3.63,3.63,0,0,1,.36-.64,2.42,2.42,0,0,1,.49-.52,2.22,2.22,0,0,1,.6-.34,1.88,1.88,0,0,1,.72-.13,1.51,1.51,0,0,1,.6.1,1.19,1.19,0,0,1,.4.25.92.92,0,0,1,.22.32.82.82,0,0,1,.07.33,1.58,1.58,0,0,1,0,.38,1.05,1.05,0,0,1-.19.34,1.42,1.42,0,0,1-.37.3,3.46,3.46,0,0,1-.6.26,7.8,7.8,0,0,1-.87.22c-.34.06-.74.12-1.19.17a1.23,1.23,0,0,0,0,.2,1.34,1.34,0,0,0,0,.2A1.78,1.78,0,0,0,51,40.21a1.21,1.21,0,0,0,1,.41,1.65,1.65,0,0,0,.46-.06,2.61,2.61,0,0,0,.37-.14,1.62,1.62,0,0,0,.29-.19l.22-.18.17-.15a.2.2,0,0,1,.13,0,.13.13,0,0,1,.1,0Zm-1.2-3.68a1.48,1.48,0,0,0-.7.17,1.68,1.68,0,0,0-.56.44,2.57,2.57,0,0,0-.4.64,3.21,3.21,0,0,0-.24.76c.41-.05.76-.1,1.06-.16a6.67,6.67,0,0,0,.77-.19,2.65,2.65,0,0,0,.5-.22,1.31,1.31,0,0,0,.3-.24.6.6,0,0,0,.14-.26.8.8,0,0,0,0-.27.47.47,0,0,0-.05-.22.62.62,0,0,0-.15-.22.83.83,0,0,0-.28-.16A1.11,1.11,0,0,0,52.61,36.34Z"/><path class="cls-9" d="M55.54,37.67a4.29,4.29,0,0,1,.44-.83,2.52,2.52,0,0,1,.5-.56A1.29,1.29,0,0,1,57,36a1.1,1.1,0,0,1,.59.07l-.08.43a1.08,1.08,0,0,0-1.19.25,2.35,2.35,0,0,0-.48.67,5.82,5.82,0,0,0-.4,1l-.3,2.48h-.45l.58-4.87h.21c.12,0,.17.06.17.18Z"/><path class="cls-9" d="M63,34a3.08,3.08,0,0,1,.86.1,1.69,1.69,0,0,1,.6.3,1.19,1.19,0,0,1,.36.47,1.73,1.73,0,0,1,.11.63,1.89,1.89,0,0,1-.1.63,1.77,1.77,0,0,1-.31.55,2,2,0,0,1-.48.42,2.17,2.17,0,0,1-.64.27,1.84,1.84,0,0,1,1,.48,1.33,1.33,0,0,1,.36,1,2.21,2.21,0,0,1-.17.87,1.85,1.85,0,0,1-.47.66,2.23,2.23,0,0,1-.76.42,3.1,3.1,0,0,1-1,.14H60.27l.84-6.9Zm-.57,6.52a2,2,0,0,0,1.39-.44,1.62,1.62,0,0,0,.48-1.25,1.19,1.19,0,0,0-.1-.51.93.93,0,0,0-.29-.39,1.41,1.41,0,0,0-.47-.25,2.13,2.13,0,0,0-.65-.09H61.16l-.36,2.93Zm-.83-6.14-.35,2.86h1.36a2.23,2.23,0,0,0,.82-.14,1.67,1.67,0,0,0,.57-.38,1.61,1.61,0,0,0,.34-.52,1.87,1.87,0,0,0,.1-.62,1.11,1.11,0,0,0-.36-.89,1.74,1.74,0,0,0-1.12-.31Z"/><path class="cls-9" d="M69.25,40a4.65,4.65,0,0,1-.47.44,2.59,2.59,0,0,1-.46.3,2,2,0,0,1-.48.17,2.2,2.2,0,0,1-.53.06,1.81,1.81,0,0,1-.72-.14,1.44,1.44,0,0,1-.53-.38,1.57,1.57,0,0,1-.32-.6,2.43,2.43,0,0,1-.12-.79,3.81,3.81,0,0,1,.08-.74,4.44,4.44,0,0,1,.21-.71,3.63,3.63,0,0,1,.36-.64,2.65,2.65,0,0,1,.48-.52,2.44,2.44,0,0,1,.61-.34,1.88,1.88,0,0,1,.72-.13,1.54,1.54,0,0,1,.6.1,1.3,1.3,0,0,1,.4.25.92.92,0,0,1,.22.32.82.82,0,0,1,.07.33,1.58,1.58,0,0,1-.05.38,1.05,1.05,0,0,1-.19.34,1.42,1.42,0,0,1-.37.3,3.46,3.46,0,0,1-.6.26,7.8,7.8,0,0,1-.87.22c-.34.06-.74.12-1.19.17a1.23,1.23,0,0,0,0,.2,1.34,1.34,0,0,0,0,.2,1.78,1.78,0,0,0,.33,1.14,1.2,1.2,0,0,0,1,.41,1.68,1.68,0,0,0,.47-.06,2.61,2.61,0,0,0,.37-.14,1.62,1.62,0,0,0,.29-.19l.22-.18.17-.15a.2.2,0,0,1,.13,0,.13.13,0,0,1,.1,0Zm-1.2-3.68a1.48,1.48,0,0,0-.7.17,1.68,1.68,0,0,0-.56.44,2.57,2.57,0,0,0-.4.64,3.76,3.76,0,0,0-.25.76c.42-.05.77-.1,1.07-.16A6,6,0,0,0,68,38a2.5,2.5,0,0,0,.51-.22,1.31,1.31,0,0,0,.3-.24.6.6,0,0,0,.14-.26A.8.8,0,0,0,69,37a.47.47,0,0,0,0-.22.62.62,0,0,0-.15-.22.83.83,0,0,0-.28-.16A1.11,1.11,0,0,0,68.05,36.34Z"/><path class="cls-9" d="M71,37.63a3.86,3.86,0,0,1,.43-.69,2.73,2.73,0,0,1,.51-.51,2.29,2.29,0,0,1,.55-.33,1.65,1.65,0,0,1,.58-.1,1.12,1.12,0,0,1,.53.12.93.93,0,0,1,.36.35,1.58,1.58,0,0,1,.17.58,2.86,2.86,0,0,1,0,.77l-.37,3.1h-.45l.36-3.1a1.9,1.9,0,0,0-.09-1.06.66.66,0,0,0-.66-.37,1.23,1.23,0,0,0-.55.13,2.68,2.68,0,0,0-.54.4,4.06,4.06,0,0,0-.49.62,5.21,5.21,0,0,0-.4.82l-.3,2.56h-.46l.58-4.87H71c.12,0,.17.06.17.18Z"/><path class="cls-9" d="M78.72,40a3.79,3.79,0,0,1-.47.44,2.93,2.93,0,0,1-.45.3,2.3,2.3,0,0,1-.48.17,2.35,2.35,0,0,1-.54.06,1.81,1.81,0,0,1-.72-.14,1.33,1.33,0,0,1-.52-.38,1.46,1.46,0,0,1-.33-.6,2.43,2.43,0,0,1-.11-.79,3.78,3.78,0,0,1,.07-.74,3.64,3.64,0,0,1,.22-.71,3.06,3.06,0,0,1,.35-.64,2.7,2.7,0,0,1,.49-.52,2.22,2.22,0,0,1,.6-.34,1.88,1.88,0,0,1,.72-.13,1.51,1.51,0,0,1,.6.1,1.19,1.19,0,0,1,.4.25,1,1,0,0,1,.23.32,1,1,0,0,1,.06.33,1.2,1.2,0,0,1,0,.38,1.05,1.05,0,0,1-.19.34,1.42,1.42,0,0,1-.37.3,3.46,3.46,0,0,1-.6.26,7.8,7.8,0,0,1-.87.22c-.34.06-.74.12-1.19.17,0,.06,0,.13,0,.2v.2a1.78,1.78,0,0,0,.32,1.14,1.21,1.21,0,0,0,1,.41,1.65,1.65,0,0,0,.46-.06,2.61,2.61,0,0,0,.37-.14,1.62,1.62,0,0,0,.29-.19,2.38,2.38,0,0,0,.22-.18l.17-.15a.2.2,0,0,1,.13,0,.12.12,0,0,1,.1,0Zm-1.19-3.68a1.52,1.52,0,0,0-.71.17,1.79,1.79,0,0,0-.56.44,2.57,2.57,0,0,0-.4.64,3.21,3.21,0,0,0-.24.76c.41-.05.77-.1,1.07-.16a6.45,6.45,0,0,0,.76-.19,2.5,2.5,0,0,0,.51-.22,1.05,1.05,0,0,0,.29-.24.63.63,0,0,0,.15-.26,1.18,1.18,0,0,0,0-.27.6.6,0,0,0,0-.22.65.65,0,0,0-.16-.22.83.83,0,0,0-.28-.16A1,1,0,0,0,77.53,36.34Z"/><path class="cls-9" d="M80.87,36.22H83.5l-.58,4.7h-.46L83,36.57H80.84l-.52,4.26L80.11,42a.24.24,0,0,1-.24.2h-.16l.68-5.57-.61,0c-.09,0-.13-.05-.12-.11l0-.2h.75l.06-.41a2.54,2.54,0,0,1,.22-.81,1.77,1.77,0,0,1,.43-.6,1.75,1.75,0,0,1,.61-.38,2.22,2.22,0,0,1,.79-.13h.16l.18,0,.17,0,.13,0-.05.22a0,0,0,0,1,0,0H83l-.16,0h-.22a1.65,1.65,0,0,0-1.15.39,1.79,1.79,0,0,0-.53,1.19Z"/><path class="cls-9" d="M84.77,40.11V40a.82.82,0,0,1,0-.14s0-.13,0-.22,0-.21,0-.36l.33-2.75h-.64a.1.1,0,0,1-.08,0,.09.09,0,0,1,0-.09l0-.18.77-.05.32-1.74a.14.14,0,0,1,0-.08.11.11,0,0,1,.08,0h.22l-.23,1.85h1.41l0,.35h-1.4l-.34,2.74c0,.13,0,.24,0,.33s0,.15,0,.2,0,.1,0,.12V40a.61.61,0,0,0,.15.46.56.56,0,0,0,.38.14.84.84,0,0,0,.29,0l.22-.11.15-.11s.07-.06.09-.06,0,0,.07.05l.09.21a1.52,1.52,0,0,1-.48.33,1.37,1.37,0,0,1-.55.12.85.85,0,0,1-.63-.22A.89.89,0,0,1,84.77,40.11Z"/><path class="cls-9" d="M90.68,36.66a.11.11,0,0,1-.11.07.17.17,0,0,1-.11-.06l-.2-.14a1.22,1.22,0,0,0-.3-.13,1.42,1.42,0,0,0-.44-.06,1.27,1.27,0,0,0-.48.08,1.3,1.3,0,0,0-.38.22,1,1,0,0,0-.26.32.94.94,0,0,0-.1.39.6.6,0,0,0,.1.34.91.91,0,0,0,.24.24,2.85,2.85,0,0,0,.35.17l.4.15a2.78,2.78,0,0,1,.4.16,1.33,1.33,0,0,1,.34.22.76.76,0,0,1,.25.31,1,1,0,0,1,.09.44,1.53,1.53,0,0,1-.12.6,1.57,1.57,0,0,1-.36.52,1.88,1.88,0,0,1-.56.37,1.81,1.81,0,0,1-.72.13,1.71,1.71,0,0,1-.79-.16,1.91,1.91,0,0,1-.55-.43l.12-.16a.15.15,0,0,1,.13-.08.16.16,0,0,1,.12.08l.2.17a1.69,1.69,0,0,0,.33.17,1.41,1.41,0,0,0,.5.08,1.44,1.44,0,0,0,.53-.09,1.17,1.17,0,0,0,.41-.27,1.12,1.12,0,0,0,.26-.38,1.18,1.18,0,0,0,.09-.46.69.69,0,0,0-.09-.36.75.75,0,0,0-.25-.25,1.83,1.83,0,0,0-.34-.18l-.4-.14-.4-.16a2,2,0,0,1-.35-.21.89.89,0,0,1-.24-.3.91.91,0,0,1-.09-.43A1.29,1.29,0,0,1,88,36.9a1.38,1.38,0,0,1,.34-.46,1.54,1.54,0,0,1,.52-.33,2.09,2.09,0,0,1,.67-.11,1.92,1.92,0,0,1,.71.12,1.52,1.52,0,0,1,.53.38Z"/><path class="cls-9" d="M95.33,34.42,95,37.23h2.76l0,.39H94.94l-.36,2.9h3.34l-.06.4H94l.85-6.9h3.82l0,.4Z"/><path class="cls-9" d="M101,38.33l1.36,2.59H102a.15.15,0,0,1-.16-.1l-1.14-2.23-.08.13L99,40.83l-.07.06a.17.17,0,0,1-.1,0h-.39l2-2.6-1.22-2.25h.39s.07,0,.09,0l0,0,1,1.94.08-.13,1.41-1.8a.14.14,0,0,1,.13-.08h.41Z"/><path class="cls-9" d="M104,37.76a4.15,4.15,0,0,1,.43-.72,3.43,3.43,0,0,1,.5-.56,2.6,2.6,0,0,1,.55-.36,1.52,1.52,0,0,1,.59-.12,1.2,1.2,0,0,1,.55.12,1,1,0,0,1,.4.34,1.68,1.68,0,0,1,.25.54,3.08,3.08,0,0,1,.08.71,4,4,0,0,1-.08.76,3.81,3.81,0,0,1-.22.75,4.06,4.06,0,0,1-.35.69,3.24,3.24,0,0,1-.47.56,2.15,2.15,0,0,1-.58.38A1.67,1.67,0,0,1,105,41a1.55,1.55,0,0,1-.73-.18,1.42,1.42,0,0,1-.54-.52l-.29,2.35H103l.8-6.59H104c.12,0,.17.06.17.18Zm-.25,2.16a1.34,1.34,0,0,0,.53.55,1.51,1.51,0,0,0,.65.15,1.32,1.32,0,0,0,.57-.12,2,2,0,0,0,.49-.34,2.74,2.74,0,0,0,.38-.5,3.28,3.28,0,0,0,.28-.6,3.79,3.79,0,0,0,.18-.66,3.66,3.66,0,0,0,.06-.65,1.79,1.79,0,0,0-.25-1,.82.82,0,0,0-.72-.36,1.06,1.06,0,0,0-.56.16,2,2,0,0,0-.54.44,3.3,3.3,0,0,0-.49.68,6,6,0,0,0-.41.88Z"/><path class="cls-9" d="M111.78,40a4.65,4.65,0,0,1-.47.44,2.59,2.59,0,0,1-.46.3,2,2,0,0,1-.48.17,2.2,2.2,0,0,1-.53.06,1.81,1.81,0,0,1-.72-.14,1.36,1.36,0,0,1-.53-.38,1.73,1.73,0,0,1-.33-.6,2.74,2.74,0,0,1-.11-.79,4.74,4.74,0,0,1,.07-.74,4.48,4.48,0,0,1,.22-.71,3.63,3.63,0,0,1,.36-.64,2.65,2.65,0,0,1,.48-.52,2.44,2.44,0,0,1,.61-.34,1.88,1.88,0,0,1,.72-.13,1.57,1.57,0,0,1,.6.1,1.3,1.3,0,0,1,.4.25.92.92,0,0,1,.22.32.82.82,0,0,1,.07.33,1.58,1.58,0,0,1-.05.38,1.05,1.05,0,0,1-.19.34,1.48,1.48,0,0,1-.38.3,3,3,0,0,1-.59.26c-.25.08-.54.15-.87.22s-.74.12-1.19.17a1.23,1.23,0,0,0,0,.2,1.34,1.34,0,0,0,0,.2,1.78,1.78,0,0,0,.33,1.14,1.2,1.2,0,0,0,1,.41,1.73,1.73,0,0,0,.47-.06,2.61,2.61,0,0,0,.37-.14,2.08,2.08,0,0,0,.29-.19l.22-.18.17-.15a.2.2,0,0,1,.13,0,.13.13,0,0,1,.1,0Zm-1.2-3.68a1.48,1.48,0,0,0-.7.17,1.68,1.68,0,0,0-.56.44,2.31,2.31,0,0,0-.4.64,3.76,3.76,0,0,0-.25.76c.42-.05.77-.1,1.07-.16a6,6,0,0,0,.76-.19,2.5,2.5,0,0,0,.51-.22,1.31,1.31,0,0,0,.3-.24.6.6,0,0,0,.14-.26.8.8,0,0,0,0-.27.63.63,0,0,0,0-.22.62.62,0,0,0-.15-.22.94.94,0,0,0-.28-.16A1.11,1.11,0,0,0,110.58,36.34Z"/><path class="cls-9" d="M113.51,37.67a4.29,4.29,0,0,1,.44-.83,2.29,2.29,0,0,1,.5-.56A1.29,1.29,0,0,1,115,36a1.1,1.1,0,0,1,.59.07l-.08.43a1.08,1.08,0,0,0-1.19.25,2.35,2.35,0,0,0-.48.67,5.1,5.1,0,0,0-.4,1l-.3,2.48h-.45l.58-4.87h.21c.11,0,.17.06.17.18Z"/><path class="cls-9" d="M116.92,36.07l-.59,4.85h-.45l.59-4.85Zm.36-1.68a.47.47,0,0,1,0,.17.6.6,0,0,1-.09.13.71.71,0,0,1-.14.1l-.15,0a.41.41,0,0,1-.16,0l-.13-.1a.57.57,0,0,1-.08-.13.33.33,0,0,1,0-.17.32.32,0,0,1,0-.16.42.42,0,0,1,.09-.14.45.45,0,0,1,.13-.1.37.37,0,0,1,.15,0,.45.45,0,0,1,.16,0l.13.1a.34.34,0,0,1,.09.14A.32.32,0,0,1,117.28,34.39Z"/><path class="cls-9" d="M121.42,40a6,6,0,0,1-.47.44,3,3,0,0,1-.46.3,2.11,2.11,0,0,1-.48.17,2.26,2.26,0,0,1-.53.06,1.81,1.81,0,0,1-.72-.14,1.36,1.36,0,0,1-.53-.38,1.73,1.73,0,0,1-.33-.6,2.74,2.74,0,0,1-.11-.79,3.78,3.78,0,0,1,.07-.74,3.64,3.64,0,0,1,.22-.71,2.7,2.7,0,0,1,.36-.64,2.65,2.65,0,0,1,.48-.52,2.13,2.13,0,0,1,.61-.34,1.87,1.87,0,0,1,.71-.13,1.59,1.59,0,0,1,.61.1,1.44,1.44,0,0,1,.4.25,1.08,1.08,0,0,1,.22.32,1,1,0,0,1,.07.33,1.21,1.21,0,0,1-.06.38.89.89,0,0,1-.19.34,1.27,1.27,0,0,1-.37.3,2.89,2.89,0,0,1-.6.26,7.8,7.8,0,0,1-.87.22c-.34.06-.73.12-1.19.17,0,.06,0,.13,0,.2a1.34,1.34,0,0,0,0,.2,1.78,1.78,0,0,0,.33,1.14,1.2,1.2,0,0,0,1,.41,1.73,1.73,0,0,0,.47-.06,2.61,2.61,0,0,0,.37-.14,2.08,2.08,0,0,0,.29-.19l.22-.18.17-.15a.18.18,0,0,1,.13,0,.14.14,0,0,1,.1,0Zm-1.2-3.68a1.52,1.52,0,0,0-.71.17A1.65,1.65,0,0,0,119,37a2.6,2.6,0,0,0-.41.64,3.21,3.21,0,0,0-.24.76c.41-.05.77-.1,1.07-.16a6.45,6.45,0,0,0,.76-.19,2.5,2.5,0,0,0,.51-.22,1.31,1.31,0,0,0,.3-.24.6.6,0,0,0,.14-.26,1.17,1.17,0,0,0,0-.27.63.63,0,0,0,0-.22.62.62,0,0,0-.15-.22.94.94,0,0,0-.28-.16A1.11,1.11,0,0,0,120.22,36.34Z"/><path class="cls-9" d="M123.15,37.63a3.89,3.89,0,0,1,.44-.69,2.73,2.73,0,0,1,.51-.51,2.11,2.11,0,0,1,.55-.33,1.63,1.63,0,0,1,.57-.1,1.13,1.13,0,0,1,.54.12,1,1,0,0,1,.35.35,1.58,1.58,0,0,1,.18.58,3.34,3.34,0,0,1,0,.77l-.37,3.1h-.46l.37-3.1a2,2,0,0,0-.1-1.06.64.64,0,0,0-.65-.37,1.2,1.2,0,0,0-.55.13,2.22,2.22,0,0,0-.54.4,3.53,3.53,0,0,0-.49.62,5.23,5.23,0,0,0-.41.82l-.29,2.56h-.46l.58-4.87h.21c.11,0,.17.06.17.18Z"/><path class="cls-9" d="M130.31,40.51a2.28,2.28,0,0,1-.45.29,2,2,0,0,1-.45.15,3.74,3.74,0,0,1-.49,0,1.67,1.67,0,0,1-.73-.15,1.27,1.27,0,0,1-.51-.4,1.76,1.76,0,0,1-.31-.61,2.78,2.78,0,0,1-.1-.78,3.6,3.6,0,0,1,.67-2.11,2.91,2.91,0,0,1,.49-.5,2.23,2.23,0,0,1,.58-.33,1.85,1.85,0,0,1,.67-.12,1.81,1.81,0,0,1,.43,0,1.4,1.4,0,0,1,.36.13,1.19,1.19,0,0,1,.29.21,1.55,1.55,0,0,1,.24.27l-.13.16a.12.12,0,0,1-.1,0,.15.15,0,0,1-.12-.07,1.08,1.08,0,0,0-.19-.17,1.49,1.49,0,0,0-.31-.17,1.34,1.34,0,0,0-.48-.08,1.41,1.41,0,0,0-.77.22,2.13,2.13,0,0,0-.61.59,2.85,2.85,0,0,0-.41.86,3.38,3.38,0,0,0-.15,1,2.18,2.18,0,0,0,.08.63,1.31,1.31,0,0,0,.23.49,1.16,1.16,0,0,0,.4.33,1.25,1.25,0,0,0,.56.12,1.68,1.68,0,0,0,.47-.06,1.92,1.92,0,0,0,.36-.14,1.12,1.12,0,0,0,.28-.18l.21-.18.16-.14a.17.17,0,0,1,.12-.06.16.16,0,0,1,.1,0l.1.13A3.52,3.52,0,0,1,130.31,40.51Z"/><path class="cls-9" d="M135.18,40a3.79,3.79,0,0,1-.47.44,2.93,2.93,0,0,1-.45.3,2.3,2.3,0,0,1-.48.17,2.35,2.35,0,0,1-.54.06,1.81,1.81,0,0,1-.72-.14,1.33,1.33,0,0,1-.52-.38,1.46,1.46,0,0,1-.33-.6,2.43,2.43,0,0,1-.11-.79,3.78,3.78,0,0,1,.07-.74,3.64,3.64,0,0,1,.22-.71,3.06,3.06,0,0,1,.35-.64,2.7,2.7,0,0,1,.49-.52,2.22,2.22,0,0,1,.6-.34A1.88,1.88,0,0,1,134,36a1.51,1.51,0,0,1,.6.1,1.19,1.19,0,0,1,.4.25,1,1,0,0,1,.23.32,1,1,0,0,1,.06.33,1.2,1.2,0,0,1-.05.38,1.05,1.05,0,0,1-.19.34,1.42,1.42,0,0,1-.37.3,3.46,3.46,0,0,1-.6.26,7.8,7.8,0,0,1-.87.22c-.34.06-.74.12-1.19.17,0,.06,0,.13,0,.2s0,.13,0,.2a1.78,1.78,0,0,0,.33,1.14,1.21,1.21,0,0,0,1,.41,1.65,1.65,0,0,0,.46-.06,2.61,2.61,0,0,0,.37-.14,1.62,1.62,0,0,0,.29-.19,2.38,2.38,0,0,0,.22-.18l.17-.15a.2.2,0,0,1,.13,0,.12.12,0,0,1,.1,0ZM134,36.34a1.52,1.52,0,0,0-.71.17,1.79,1.79,0,0,0-.56.44,2.57,2.57,0,0,0-.4.64,3.21,3.21,0,0,0-.24.76c.41-.05.77-.1,1.07-.16a6.45,6.45,0,0,0,.76-.19,2.5,2.5,0,0,0,.51-.22,1.05,1.05,0,0,0,.29-.24.63.63,0,0,0,.15-.26,1.18,1.18,0,0,0,0-.27.6.6,0,0,0,0-.22.65.65,0,0,0-.16-.22.83.83,0,0,0-.28-.16A1,1,0,0,0,134,36.34Z"/><path class="cls-9" d="M136.06,40.55a.58.58,0,0,1,0-.18.42.42,0,0,1,.09-.14.56.56,0,0,1,.15-.1.47.47,0,0,1,.17,0,.53.53,0,0,1,.18,0,.71.71,0,0,1,.14.1.45.45,0,0,1,.1.14.42.42,0,0,1,0,.36.45.45,0,0,1-.1.14.42.42,0,0,1-.14.09.37.37,0,0,1-.18,0,.48.48,0,0,1-.32-.13A.46.46,0,0,1,136.06,40.55Z"/></g></g></svg>