<svg xmlns="http://www.w3.org/2000/svg" xmlns:xlink="http://www.w3.org/1999/xlink" viewBox="0 0 1311.84 938.97"><defs><style>.cls-1{mask:url(#mask);filter:url(#luminosity-noclip-3);}.cls-2,.cls-4,.cls-48,.cls-50,.cls-7{mix-blend-mode:multiply;}.cls-2{fill:url(#linear-gradient);}.cls-3{mask:url(#mask-2);filter:url(#luminosity-noclip-4);}.cls-4{fill:url(#linear-gradient-2);}.cls-13,.cls-19,.cls-21,.cls-5,.cls-9{fill:none;}.cls-6{isolation:isolate;}.cls-48,.cls-50,.cls-7{opacity:0.7;}.cls-7{fill:url(#radial-gradient);}.cls-8{fill:#094d0b;}.cls-9{stroke:#36a895;}.cls-13,.cls-19,.cls-21,.cls-9{stroke-miterlimit:10;}.cls-10{fill:#298740;}.cls-11{fill:#36a895;}.cls-12{fill:#5ec4b2;}.cls-13{stroke:#5ec4b2;}.cls-14{fill:#0e5e05;}.cls-15{clip-path:url(#clip-path);}.cls-16{fill:#77ab52;}.cls-17{clip-path:url(#clip-path-2);}.cls-18{fill:#1a6611;}.cls-19{stroke:#094d0b;}.cls-20{fill:#fff;}.cls-21{stroke:#298740;}.cls-22{fill:#f7b03e;}.cls-23{fill:#ff586b;}.cls-24{fill:#1e0701;}.cls-25{fill:#e9d6b8;}.cls-26{fill:#2d9682;}.cls-27{fill:#44150f;}.cls-28{fill:#592116;}.cls-29{fill:#842430;}.cls-30{fill:#f7931e;}.cls-31{fill:#912735;}.cls-32{fill:#662619;}.cls-33{fill:#ea7d1b;}.cls-34{fill:#a13a42;}.cls-35{fill:#da8c89;}.cls-36{fill:#9b313f;}.cls-37{fill:#e2c59c;}.cls-38{fill:#52507a;}.cls-39{fill:#4a486e;}.cls-40{fill:#462c25;}.cls-41{fill:#7c4f2e;}.cls-42{fill:#6b2605;}.cls-43{fill:#9d64aa;}.cls-44{fill:#844c8f;}.cls-45{fill:#6a3777;}.cls-46{fill:#e8435b;}.cls-47{mask:url(#mask-3);}.cls-48{fill:url(#linear-gradient-3);}.cls-49{mask:url(#mask-4);}.cls-50{fill:url(#linear-gradient-4);}.cls-51{filter:url(#luminosity-noclip-2);}.cls-52{filter:url(#luminosity-noclip);}</style><filter id="luminosity-noclip" x="369.35" y="-8056.41" width="420.2" height="32766" filterUnits="userSpaceOnUse" color-interpolation-filters="sRGB"><feFlood flood-color="#fff" result="bg"/><feBlend in="SourceGraphic" in2="bg"/></filter><mask id="mask" x="369.35" y="-8056.41" width="420.2" height="32766" maskUnits="userSpaceOnUse"><g class="cls-52"/></mask><linearGradient id="linear-gradient" x1="579.45" y1="314.73" x2="579.45" y2="102.9" gradientUnits="userSpaceOnUse"><stop offset="0"/><stop offset="0.94" stop-color="#fff"/></linearGradient><filter id="luminosity-noclip-2" x="773.36" y="-8056.41" width="120.77" height="32766" filterUnits="userSpaceOnUse" color-interpolation-filters="sRGB"><feFlood flood-color="#fff" result="bg"/><feBlend in="SourceGraphic" in2="bg"/></filter><mask id="mask-2" x="773.36" y="-8056.41" width="120.77" height="32766" maskUnits="userSpaceOnUse"><g class="cls-51"/></mask><linearGradient id="linear-gradient-2" x1="833.74" y1="83.45" x2="833.74" y2="-34.88" xlink:href="#linear-gradient"/><radialGradient id="radial-gradient" cx="538.77" cy="353.72" r="695" gradientUnits="userSpaceOnUse"><stop offset="0" stop-color="#d6ffff"/><stop offset="0.94" stop-color="#45d0d9"/></radialGradient><clipPath id="clip-path"><path class="cls-5" d="M971,327.32s-28-89.39,22.86-147.18c19.89-22.62,50.27-40.92,92.7-52.78,24.91-7,42.43-11.51,58.88-21.1.74-.43-50.65,56.3-66,100.81s-24.06,86.78-56,102.25S971,327.32,971,327.32Z"/></clipPath><clipPath id="clip-path-2"><path class="cls-5" d="M916,586c1.15.24-7.54-77.6-69.85-106.67-23.54-11.5-52.68-16.48-85.81-13.69-19.47,1.67-32.91,3.23-48.62,1.93-.55-.6,63.8,19.48,92.66,47.57,29.61,27.08,48.69,57.49,73.33,64.5S916,586.07,916,586Z"/></clipPath><filter id="luminosity-noclip-3" x="369.35" y="160.04" width="420.2" height="132.32" filterUnits="userSpaceOnUse" color-interpolation-filters="sRGB"><feFlood flood-color="#fff" result="bg"/><feBlend in="SourceGraphic" in2="bg"/></filter><mask id="mask-3" x="369.35" y="160.04" width="420.2" height="132.32" maskUnits="userSpaceOnUse"><g class="cls-1"><path class="cls-2" d="M789.55,292.36s-7.2-9.71-16.57-9.71-9.14-7-13.68-12c-12.39-13.73-17.07-1.88-28.59-3s-24.7-21-34.07-35.84-18-22.86-31-24-24.48,10.86-36.72,3.43-18.69-25-31.11-23.72c-19.69,2-22.19,6.59-32.27-4.84s-11-23.44-25-22.58c-20.84,1.27-27.39,48.63-41.05,36.85-24.84-21.43-34.57,17.14-46.3,37.15a120.23,120.23,0,0,1-83.88,58.27Z"/></g></mask><linearGradient id="linear-gradient-3" x1="579.45" y1="314.73" x2="579.45" y2="102.9" xlink:href="#radial-gradient"/><filter id="luminosity-noclip-4" x="773.36" y="0" width="120.77" height="51.42" filterUnits="userSpaceOnUse" color-interpolation-filters="sRGB"><feFlood flood-color="#fff" result="bg"/><feBlend in="SourceGraphic" in2="bg"/></filter><mask id="mask-4" x="773.36" y="0" width="120.77" height="51.42" maskUnits="userSpaceOnUse"><g class="cls-3"><path class="cls-4" d="M894.12,51.42H773.36S802.42,0,823.54,0c19.66,0,20.39,36.3,32.93,38.12s10.26-5.47,20.4-5.45C886.4,32.69,894.12,51.42,894.12,51.42Z"/></g></mask><linearGradient id="linear-gradient-4" x1="833.74" y1="83.45" x2="833.74" y2="-34.88" xlink:href="#radial-gradient"/></defs><title>flores-mobile_3</title><g class="cls-6"><g id="Layer_2" data-name="Layer 2"><g id="dizajn"><path class="cls-7" d="M1186.8,817.71S1469,480.33,1017.45,265.81C812.7,168.53,929.75,332.11,935.8,377s-11.11,58.49-75.6,33.15c-59.55-23.39-126.08-74.1-201.68-56.55-25.45,5.91-42.34,29.26,32.32,124.81,41.19,52.71-5.11,44.86-181.45-21.45-91.47-34.4-114.14,5.68,13,138.47,127,132.61-124-46.81-227.75,13.64-57.21,33.33-51.41,165.77,66.53,208.67S1186.8,817.71,1186.8,817.71Z"/><path class="cls-8" d="M573.71,604.62s7.38-6.81,8.58-16.23c.43-3.41-1.68-9.66-5.23-10.12s-7,3.53-7.6,8.49C568.26,596.17,573.71,604.62,573.71,604.62Z"/><path class="cls-8" d="M570.55,620.16s0-8.79-5.35-15c-1.94-2.24-7.24-4.44-9.65-2.35s-1.88,6.62.94,9.88C561.86,618.9,570.55,620.16,570.55,620.16Z"/><path class="cls-8" d="M570.47,638.66s-3.58-8-11-11.5c-2.69-1.25-8.42-1.08-9.76,1.8s1,6.81,4.89,8.64C562,641.06,570.47,638.66,570.47,638.66Z"/><path class="cls-8" d="M570.74,620.63a28.61,28.61,0,0,0,15.28-3c2.61-1.42,6.11-5.72,4.86-8s-5.56-2.34-9.35-.28A28.64,28.64,0,0,0,570.74,620.63Z"/><path class="cls-8" d="M569.29,638.63s8.22,1.2,15.42-2.71c2.6-1.42,6-5.83,4.72-8.25s-5.7-2.57-9.49-.5C572.75,631.08,569.29,638.63,569.29,638.63Z"/><path class="cls-8" d="M571.85,663.39s6.84,2,12.33-1c2-1.09,4.36-4.91,3.05-7.33s-4.92-3-7.81-1.42C573.93,656.59,571.85,663.39,571.85,663.39Z"/><path class="cls-8" d="M570.86,663.39a22.16,22.16,0,0,0-7.75-10.1c-2-1.33-6.5-2.09-7.75-.19s.26,5.13,3.19,7.07A22.18,22.18,0,0,0,570.86,663.39Z"/><path class="cls-9" d="M556.84,762.67s29.67,5.86,15.26-94.14c-5.86-40.69,1.32-58.08,2.4-68.6"/><path class="cls-10" d="M1016.12,788.54c-92-2.19-377.23-10.08-550.18-23.91-320.68-25.65-583.35,5.64-411.71,48,48,11.83-91.8,76.79,247.76,96.68,298.07,17.45,602.52-6.68,749.86-16.8s215.54-30.8,247.21-40.12C1326.91,844.2,1337.84,796.19,1016.12,788.54Z"/><path class="cls-11" d="M565.33,768.42S537.42,746,554.12,744.83c4.43-.33,9.53,2.81,15,6.25,11.93,7.55,22.28,19.86,11.42,13.59C547.1,745.39,545,718.94,559.25,733s40.94,46.12,28,37-39.66-51.73-36.2-64.89,31.82,25.53,30.86,43.35S561.41,702,569.12,702.42c17.22,1,27.94,75.22,15.33,73.07s-1.69-46.74,1.53-55.55c6.14-16.76,9.76,10.48,2.66,23.37-7.69,14-7.89-14.31,5.53-8.4,5.43,2.39,7,4.72,4.73,28.14C596.88,783.94,581.37,782.62,565.33,768.42Z"/><path class="cls-12" d="M772.24,144.63s-4.67-7.31-12.68-10.3c-2.9-1.09-8.73-.77-9.74,1.92s1.86,6.26,6.08,7.84C763.91,147.08,772.24,144.63,772.24,144.63Z"/><path class="cls-12" d="M785.1,152a27,27,0,0,0-14.74-1c-2.73.67-7,3.8-6.37,6.21s4.55,3.5,8.53,2.52A27.06,27.06,0,0,0,785.1,152Z"/><path class="cls-12" d="M805.78,166.42s-6.76-2.21-12.81.39c-2.19.93-5.14,4.5-4.11,6.88s4.64,3.13,7.83,1.77C802.74,172.86,805.78,166.42,805.78,166.42Z"/><path class="cls-12" d="M783.89,152.3s4.53-5.43,4.36-12c-.07-2.38-2.27-6.41-4.85-6.34s-4.59,3.14-4.5,6.58C779.08,147.13,783.89,152.3,783.89,152.3Z"/><path class="cls-12" d="M898.55,260.59a23.94,23.94,0,0,0,9-10.28c1-2.39.87-7.26-1.36-8.18s-5.28,1.38-6.71,4.86C896.71,253.58,898.55,260.59,898.55,260.59Z"/><path class="cls-12" d="M806.62,165.09s4.69-6.61,4.48-14.6c-.08-2.9-2.4-7.84-5.09-7.76s-4.75,3.8-4.64,8C801.58,158.74,806.62,165.09,806.62,165.09Z"/><path class="cls-12" d="M828.55,180.67s5.61-5.82,5.42-12.81c-.07-2.52-2.76-6.83-5.94-6.74s-5.67,3.37-5.57,7C822.65,175.15,828.55,180.67,828.55,180.67Z"/><path class="cls-12" d="M826.93,181.93s-7-3.83-13.93-2.09c-2.52.63-6.29,4.08-5.55,7s4.53,4.47,8.19,3.54C822.6,188.62,826.93,181.93,826.93,181.93Z"/><path class="cls-12" d="M898.49,261.91a21.71,21.71,0,0,0-11.75-6.9c-2.74-.58-8.37.2-9.46,2.4s1.5,4.73,5.49,5.58C890.36,264.59,898.49,261.91,898.49,261.91Z"/><path class="cls-12" d="M865.51,217.22a18.35,18.35,0,0,0-11.24,1.71c-2.23,1-6,4.5-6,6.48s2.92,2.24,6.17.7C860.59,223.18,865.51,217.22,865.51,217.22Z"/><path class="cls-12" d="M849.25,199.08A15.7,15.7,0,0,0,851.33,189c-.26-2.2-2.22-6.39-4.08-6.88s-3,1.91-2.67,5.1C845.29,193.27,849.25,199.08,849.25,199.08Z"/><path class="cls-12" d="M883.27,240.43s-5.55-6.34-11.55-8.09c-2.16-.63-5.6.48-5.22,3.2s3.46,5.73,6.62,6.65A11.49,11.49,0,0,0,883.27,240.43Z"/><path class="cls-12" d="M865.71,218.37s6.48-7.41,8.17-15.19c.6-2.82-.62-7.2-3.44-6.59s-5.89,4.69-6.78,8.8A17.17,17.17,0,0,0,865.71,218.37Z"/><path class="cls-12" d="M884.82,240.66s6.13-7,7.38-14.12c.46-2.57-1-6.43-3.86-5.72s-5.68,4.56-6.34,8.29A14.18,14.18,0,0,0,884.82,240.66Z"/><path class="cls-12" d="M740,221s6.24-3.68,9-10.28c1-2.39.87-7.26-1.36-8.18s-5.29,1.38-6.72,4.86A24,24,0,0,0,740,221Z"/><path class="cls-12" d="M911.13,282.9a18,18,0,0,0-10.5-4.32c-2.47-.24-7.53.78-8.52,2.53s1.34,3.48,4.92,3.81C903.82,285.56,911.13,282.9,911.13,282.9Z"/><path class="cls-12" d="M791.7,186.27s-7-3.51-13.21-3.17c-2.25.12-5.23,2-4.14,4.1s4.85,3.62,8.11,3.44A12.8,12.8,0,0,0,791.7,186.27Z"/><path class="cls-12" d="M849.82,200.86a27.41,27.41,0,0,0-14.21-2.22c-3,.3-8.58,2.51-9,4.57s3,3.37,7.37,2.92A44.87,44.87,0,0,0,849.82,200.86Z"/><path class="cls-13" d="M760.93,139.66s95.22,39.61,161.76,161.22,105.55,465.8,101,504.81"/><path class="cls-12" d="M1257.58,815c9.91-12.81-1.11-24.84-44.94-33.46-47.84-9.41-94.05-7.62-132.27-1.67,91.13-35.21,197.84-85.9,103.13-98-29.53-3.79-75.7,6.95-127.35,24.94,58.52-39.7,91.26-73.23,57.33-81.8-31.51-8-98,23.22-169.13,65.61,41.13-36.61,65.47-69.24,48.56-86.29-13.8-13.92-45.25-.72-81.91,25,2.71-24.35-7.6-39.76-32.8-38.26-23.71,1.4-44.14,28.58-59.35,61.73-20.18-54-78.44-89.68-139.46-77.22-71.69,14.62-20.68,144.18,8.21,206.05Z"/><path class="cls-11" d="M894.58,728.82c1.72-24.09-36.14-56.79-94.65-24.09.45-1.7-34.85-57.19-63.67-32.7-16.64-20.45-73.32-46.11-79.53-.38-17-17.89-36.92-25.71-53.75-2.84-38.83,52.75,12.25,94.24,114.35,128.85C818.86,832.07,890.68,783.5,894.58,728.82Z"/><path class="cls-10" d="M860,812.83c6.08-8.73-.89-16.54-28.3-21.44-29.92-5.35-58.73-3.27-82.52,1.44,56.57-25.24,122.73-61.09,63.55-67.36-18.44-2-47.16,6.11-79.24,19.1,36.2-27.61,56.35-50.6,35.12-55.66-19.72-4.7-39.9,5.11-84,34.75,25.37-25.21,23.92-45.17,8.58-46.21-29.23-2-36.11,15.23-55,37.6,1.5-16.29-20.66-37.86-48.19-18.93-12.23,8.41-18.93,22.37-10.33,51.63-13.76-12-49.51-9.39-60.23,12-10.32,20.66,18.93,39.59,62,43Z"/><path class="cls-14" d="M971,327.32s-28-89.39,22.86-147.18c19.89-22.62,50.27-40.92,92.7-52.78,24.91-7,42.43-11.51,58.88-21.1.74-.43-50.65,56.3-66,100.81s-24.06,86.78-56,102.25S971,327.32,971,327.32Z"/><path class="cls-9" d="M982.35,813.14s-43-235.76-36.22-308c6.3-66.94,8.92-157.4,39.57-212.5,41.68-74.92,128.3-167.18,154.83-182.39"/><g class="cls-15"><path class="cls-9" d="M961.78,293.23c7.23,11.52,12.9,20.93,13.27,22.69"/><path class="cls-9" d="M961.13,266.29c10,15.21,19.59,30.64,20.48,34.78"/><path class="cls-9" d="M962.93,244.28c11.05,16.3,24,36.51,25.6,43.63"/><path class="cls-9" d="M967.26,226.1c11.2,15.56,26.85,38.63,29.15,49"/><path class="cls-9" d="M972.38,209.76c10.6,13.93,28.61,39.1,31.74,53.2"/><path class="cls-9" d="M979.41,196.35c9.84,12.36,28.69,37.73,32.6,55.3"/><path class="cls-9" d="M987.29,184.09c9.24,11,28.3,35.6,33,56.46"/><path class="cls-9" d="M996.58,173.55c9,10.36,26.4,32.63,31.55,55.68"/><path class="cls-9" d="M1006.35,163.74c8.85,10.28,24.25,30.92,29.76,55.55"/><path class="cls-9" d="M1017.71,155.34c8.71,10.2,21.35,28.39,26.83,52.88"/><path class="cls-9" d="M1043.86,207.77a176.07,176.07,0,0,1,34.64,12.11"/><path class="cls-9" d="M1036.26,219A168.13,168.13,0,0,1,1075,233.3"/><path class="cls-9" d="M1028.13,229.23a168,168,0,0,1,42.5,17.15"/><path class="cls-9" d="M1020.12,240a163,163,0,0,1,44.65,19"/><path class="cls-9" d="M1012.35,251.87a149.81,149.81,0,0,1,47.79,20.86"/><path class="cls-9" d="M1004.12,263a143.72,143.72,0,0,1,48.7,21.79"/><path class="cls-9" d="M996.47,275.41a127.41,127.41,0,0,1,48.84,21.39"/><path class="cls-9" d="M988.53,287.91a112.88,112.88,0,0,1,45.9,18.54"/><path class="cls-9" d="M981.78,300.45s18.25,1.28,38.43,13.51"/><path class="cls-9" d="M974.87,315.08s12.51-.75,28.41,6.14"/><path class="cls-9" d="M1115.54,130.82a51.72,51.72,0,0,1,10.59,1.49"/><path class="cls-9" d="M1104.19,141.69a63.94,63.94,0,0,1,14.64,2.44"/><path class="cls-9" d="M1093.73,152.55a71,71,0,0,1,17.17,3.17"/><path class="cls-9" d="M1082.05,164.78a78.12,78.12,0,0,1,20.42,3.3"/><path class="cls-9" d="M1072.75,175.66a81.57,81.57,0,0,1,22.93,4.22"/><path class="cls-9" d="M1062.14,187.25a87.23,87.23,0,0,1,27.26,5.18"/><path class="cls-9" d="M1052.7,198.16a90.71,90.71,0,0,1,31.1,6.76"/><path class="cls-9" d="M1030.26,147.13c12.82,17.64,26.2,39.56,23.11,50.75"/><path class="cls-9" d="M1041.75,141c11.45,16.26,22.29,35.22,20.28,46.42"/><path class="cls-9" d="M1054.57,135.37c10,14.28,18.47,30,17.4,40.75"/><path class="cls-9" d="M1066.5,129.68c8.3,12.55,14.9,25.84,14.58,36"/><path class="cls-9" d="M1078.72,125.07c6.5,10.71,11.37,21.72,11.61,30.94"/><path class="cls-9" d="M1092,122.37c4.25,8.1,7.25,16.23,7.82,23.61"/><path class="cls-9" d="M1104.13,119a62.25,62.25,0,0,1,5.1,17.36"/><path class="cls-9" d="M1115.66,115.38a65.28,65.28,0,0,1,3.21,12"/></g><path class="cls-16" d="M1023.68,293.45a78.58,78.58,0,0,1-20,24.5c6-2.29,12.6-5.13,19.84-8.63,31.93-15.47,40.68-57.73,56-102.25s66.69-101.24,66-100.81-1.67.95-2.51,1.41c-24.33,18.29-65.16,27.68-92.7,73C1031.24,211.88,1041.77,258,1023.68,293.45Z"/><path class="cls-9" d="M1039.68,358.21s-55.38,50-67,101.51c-7.77,34.43-14.09,86.61-9.32,131.29,3.5,32.83,17.27,155,41.36,220.41"/><path class="cls-8" d="M1031,366.82s6.35-19.06,24.61-22.65c15.94-3.14,23.44.92,23.44.92.08-.28-8.75,17-17.6,21.42C1052.82,370.87,1042.81,370.08,1031,366.82Z"/><path class="cls-8" d="M1011.36,385.9s14.58-13.82,10.74-26.14-10.66-17.86-10.66-17.86S996.56,353.27,999,365.36A35.54,35.54,0,0,0,1011.36,385.9Z"/><path class="cls-8" d="M992.4,413.74s6.53-16.77.71-24.14-16.4-14.54-16.4-14.54S962.13,395.72,992.4,413.74Z"/><path class="cls-8" d="M980.28,434.74s3-11-3-17.62-15.77-8.35-15.77-8.35S955.77,428.36,980.28,434.74Z"/><path class="cls-8" d="M1013.45,387.41s11.58-9.69,24.22-4.83c13.59,5.23,15.62,13.44,15.62,13.44S1033.48,409.48,1013.45,387.41Z"/><path class="cls-8" d="M993.57,414.1s12.19-10.29,24.77-6.79,18,10.77,18,10.77S1018.41,438.54,993.57,414.1Z"/><path class="cls-8" d="M979.67,443.52s5-9.12,14-8a28.62,28.62,0,0,1,14.7,6.3S1000.67,455.64,979.67,443.52Z"/><path class="cls-8" d="M972.48,466.49s7.49-8.17,17.28-7.41c10,.76,17.31,7.54,17.31,7.54S990.59,482.41,972.48,466.49Z"/><path class="cls-8" d="M967.57,479.49s3.19-8.83-1-16.11-10.85-7.67-10.85-7.67S948.81,469.78,967.57,479.49Z"/><path class="cls-8" d="M968.66,489.66s5.74-10.17,20.76-7.61,12.83,2.73,12.83,2.73S995.87,502.44,968.66,489.66Z"/><path class="cls-8" d="M962.67,514.29s-3.12-11.93-9.73-16.72c-6.1-4.42-14.8-4.63-14.8-4.63S934.9,512.87,962.67,514.29Z"/><path class="cls-8" d="M964,541.62s2.22-10.36,7.55-15.11c5.52-4.91,13.5-4.38,13.5-4.38S992.23,542.77,964,541.62Z"/><path class="cls-10" d="M916,586c1.15.24-7.54-77.6-69.85-106.67-23.54-11.5-52.68-16.48-85.81-13.69-19.47,1.67-32.91,3.23-48.62,1.93-.55-.6,63.8,19.48,92.66,47.57,29.61,27.08,48.69,57.49,73.33,64.5S916,586.07,916,586Z"/><path class="cls-9" d="M943.42,812.62c-.85.44,13.29-46,9.44-100.93-2.3-54.91-22.59-118.38-56.32-151-48.9-54.26-153.78-91.83-179.51-92.09"/><g class="cls-17"><path class="cls-9" d="M911.93,557.39c-.94,10.23-1.87,18.6-1.61,20.06"/><path class="cls-9" d="M903.25,536.24c-.86,13.41-2.15,27-1.47,30.43"/><path class="cls-9" d="M893.87,519.76c-.58,14.24-1.91,31.94-.64,37.72"/><path class="cls-9" d="M883.77,507c-.52,13.53-1.86,33.63.17,42"/><path class="cls-9" d="M873.5,496c-.47,12.07-1.78,33.87,1.23,45"/><path class="cls-9" d="M863,487.76c-.45,10.68-1.54,32.48,2.52,46.21"/><path class="cls-9" d="M852.23,480.74c-.53,9.5-1.45,30.5,3.75,46.56"/><path class="cls-9" d="M841.22,475.4c-.58,8.93-1,27.7,5.18,45.19"/><path class="cls-9" d="M830.14,470.84a112.89,112.89,0,0,0,7,44.2"/><path class="cls-9" d="M818.65,467.73c-.25,8.58,1,23.19,8.36,41.22"/><path class="cls-9" d="M827.25,508.51a80.9,80.9,0,0,0-16.69,15.21"/><path class="cls-9" d="M837,514.89a78,78,0,0,0-18.59,17.48"/><path class="cls-9" d="M846.4,520.59a79.05,79.05,0,0,0-20.08,20.22"/><path class="cls-9" d="M855.83,526.87a78.72,78.72,0,0,0-21,21.93"/><path class="cls-9" d="M865.38,534.19A73.49,73.49,0,0,0,842.69,558"/><path class="cls-9" d="M874.73,541a71.38,71.38,0,0,0-23.3,24.68"/><path class="cls-9" d="M884,549.16a64,64,0,0,0-23.91,24.38"/><path class="cls-9" d="M893.23,557.48s-13.66,5.91-23.29,21.68"/><path class="cls-9" d="M901.49,566.21s-11.12,3.88-20.33,16.54"/><path class="cls-9" d="M910.19,576.75s-8.12,1.29-16.26,9.13"/><path class="cls-9" d="M744.08,474.5a26.07,26.07,0,0,0-5.83,3.36"/><path class="cls-9" d="M757,478.39a31.64,31.64,0,0,0-7.9,4.84"/><path class="cls-9" d="M769.27,482.7a34.58,34.58,0,0,0-9.17,5.82"/><path class="cls-9" d="M782.83,487.83a38.68,38.68,0,0,0-11.22,6.56"/><path class="cls-9" d="M794.06,492.84a40,40,0,0,0-12.43,7.65"/><path class="cls-9" d="M806.31,498.26a42.57,42.57,0,0,0-14.81,9.12"/><path class="cls-9" d="M817.34,503.68a43.35,43.35,0,0,0-16.63,10.9"/><path class="cls-9" d="M806.43,465.15c1.29,14.13,3.36,31.47,10.35,38.47"/><path class="cls-9" d="M795.93,463.81c1.54,12.81,4,27.46,10.53,34.54"/><path class="cls-9" d="M784.82,463.18c1.5,11.12,4.08,23,10,29.8"/><path class="cls-9" d="M774.22,462.41c1.68,9.56,4.42,19.34,9.69,25.8"/><path class="cls-9" d="M764,462.45c1.85,7.95,4.62,15.81,9.17,21.66"/><path class="cls-9" d="M754.18,464A53.72,53.72,0,0,0,762,480"/><path class="cls-9" d="M744.72,464.86A54.36,54.36,0,0,0,751,476.35"/><path class="cls-9" d="M735.47,465.5a58.49,58.49,0,0,0,4.64,7.74"/></g><path class="cls-16" d="M872.73,567.46a89.35,89.35,0,0,0,20.06,15.9c-4.42-.92-9.44-2.12-15.06-3.71-24.64-7-43.72-37.42-73.33-64.5-28.86-28.09-93.22-48.17-92.66-47.57l2.37.16c25.22,4.55,56.92-.41,96.61,23.63C838,508.19,850.28,543.3,872.73,567.46Z"/><path class="cls-11" d="M896,362.24s10.18-12.6,9.88-27.88c-.11-5.55-4.95-15-10.71-14.9s-10.27,7.25-10.12,15.3C885.36,350.05,896,362.24,896,362.24Z"/><path class="cls-11" d="M894.65,387.74s-2-14-12-22.62C879,362,870,359.76,866.68,363.64s-1.45,11,3.81,15.54C880.49,387.79,894.65,387.74,894.65,387.74Z"/><path class="cls-11" d="M898.87,417.25s-7.59-12-20.24-15.74c-4.58-1.37-13.67.25-15.14,5.16s3.17,10.62,9.83,12.62C886,423.07,898.87,417.25,898.87,417.25Z"/><path class="cls-11" d="M895.06,388.44s13.12-.36,23.66-8.29c3.83-2.87,8.4-10.55,5.87-13.89s-9.41-2.41-15,1.76C899.06,376,895.06,388.44,895.06,388.44Z"/><path class="cls-11" d="M897,417.48s13.38,0,23.93-8c3.82-2.87,8.25-10.7,5.59-14.24s-9.68-2.76-15.24,1.42C900.71,404.64,897,417.48,897,417.48Z"/><path class="cls-11" d="M906.88,456.34s11.35,1.52,19.4-4.54c2.92-2.19,5.8-8.85,3.14-12.39s-8.54-3.63-12.78-.44C908.59,445,906.88,456.34,906.88,456.34Z"/><path class="cls-11" d="M905.29,456.57s-5-9.71-14.72-14.27c-3.51-1.65-10.85-1.81-12.4,1.52s1.63,8.11,6.74,10.51C894.6,458.89,905.29,456.57,905.29,456.57Z"/><path class="cls-9" d="M915.81,811.42s39.12-190.94-7.33-346.95c-18.9-63.47-11.54-92.87-12.3-109.89"/><path class="cls-18" d="M909.54,652.92l-8.69,8.24a124.6,124.6,0,0,1-23.05-14.82,100.56,100.56,0,0,1,15.12-20.66c29.51-31.07,94.37-11.51,103.31,44-16.66,7.8-41.45,9-68.13,1.83a146.9,146.9,0,0,1-19.85-6.92Z"/><path class="cls-9" d="M877.8,646.34s64.43-33,114.06,18.72c43.84,45.69,59.6,139.59,61.05,141.2"/><line class="cls-9" x1="888.75" y1="630.32" x2="899.96" y2="639.14"/><line class="cls-9" x1="899.01" y1="620.6" x2="915.7" y2="636.63"/><line class="cls-9" x1="911.63" y1="614" x2="931.67" y2="636.57"/><line class="cls-9" x1="928.61" y1="610.99" x2="946.38" y2="639"/><line class="cls-9" x1="944.39" y1="612.97" x2="958.57" y2="642.64"/><line class="cls-9" x1="962.06" y1="619.96" x2="973.4" y2="650.33"/><line class="cls-9" x1="977.62" y1="631.97" x2="986.16" y2="659.79"/><line class="cls-9" x1="890.13" y1="655.01" x2="899.46" y2="638.95"/><line class="cls-9" x1="915.7" y1="636.63" x2="899.63" y2="660.55"/><line class="cls-9" x1="931.67" y1="636.57" x2="914.29" y2="666.89"/><line class="cls-9" x1="946.38" y1="639" x2="929.76" y2="672.03"/><line class="cls-9" x1="958.57" y1="642.64" x2="943.72" y2="674.82"/><line class="cls-9" x1="973.4" y1="650.33" x2="960.28" y2="676.33"/><line class="cls-9" x1="986.16" y1="659.79" x2="976.49" y2="675.15"/><path class="cls-11" d="M1055,589.3a81.82,81.82,0,0,1-69.1,32.4A81.62,81.62,0,0,1,1067.14,514,81.82,81.82,0,0,1,1055,589.3Z"/><line class="cls-19" x1="1061.08" y1="522.7" x2="989.35" y2="617.87"/><line class="cls-19" x1="1046.17" y1="542.24" x2="1041.93" y2="522.47"/><line class="cls-19" x1="1033.94" y1="558.47" x2="1028.71" y2="534.1"/><line class="cls-19" x1="1021.71" y1="574.7" x2="1012.97" y2="533.95"/><line class="cls-19" x1="1009.48" y1="590.92" x2="1000.97" y2="551.28"/><line class="cls-19" x1="997.25" y1="607.15" x2="992.51" y2="585.08"/><line class="cls-19" x1="1047.93" y1="540.5" x2="1068.1" y2="539.13"/><line class="cls-19" x1="1035.7" y1="556.73" x2="1067.16" y2="554.59"/><line class="cls-19" x1="1023.47" y1="572.95" x2="1062.85" y2="570.28"/><line class="cls-19" x1="1011.24" y1="589.18" x2="1051.69" y2="586.43"/><line class="cls-19" x1="999.01" y1="605.41" x2="1033.75" y2="603.05"/><path class="cls-20" d="M1085.66,409.78c-.25-.21-.51-.41-.76-.6l.41-.14c3.66-1.29,6.07-3.89,5.39-5.8s-4.19-2.4-7.83-1.11c-.32.11-.62.24-.91.36l.09-.43c.7-3.81-.34-7.19-2.33-7.56s-4.17,2.42-4.88,6.23c-.06.33-.1.65-.14,1l-.33-.3c-2.94-2.51-6.4-3.3-7.71-1.76s0,4.82,2.95,7.34c.26.22.51.41.77.61l-.41.13c-3.66,1.3-6.07,3.89-5.39,5.8s4.18,2.4,7.83,1.11c.32-.11.62-.23.91-.36l-.09.43c-.71,3.81.34,7.19,2.33,7.56s4.17-2.42,4.88-6.23c.06-.33.1-.65.14-1l.33.3c2.94,2.51,6.39,3.31,7.71,1.77S1088.61,412.3,1085.66,409.78Zm-8.71,2.33a3.79,3.79,0,1,1,4.42-3A3.79,3.79,0,0,1,1077,412.11Z"/><path class="cls-20" d="M1109.39,496c-.19-.16-.38-.3-.57-.44l.31-.1c2.7-1,4.48-2.87,4-4.28s-3.09-1.78-5.78-.82a5.85,5.85,0,0,0-.67.27l.06-.32c.52-2.81-.25-5.31-1.71-5.58s-3.09,1.79-3.61,4.6c0,.24-.07.47-.1.71l-.24-.22c-2.17-1.85-4.72-2.44-5.69-1.3s0,3.56,2.18,5.42c.18.16.37.3.56.44l-.3.1c-2.7,1-4.48,2.87-4,4.28s3.09,1.78,5.78.82c.23-.08.45-.17.67-.27l-.06.32c-.52,2.81.25,5.31,1.71,5.58s3.08-1.79,3.6-4.6c0-.24.08-.47.11-.71l.24.22c2.17,1.85,4.72,2.44,5.69,1.3S1111.56,497.85,1109.39,496Zm-6.43,1.72a2.8,2.8,0,1,1,3.26-2.24A2.8,2.8,0,0,1,1103,497.71Z"/><path class="cls-20" d="M1073.31,460.92a3.79,3.79,0,0,0-2.44-3.53l-.12-.05a2.55,2.55,0,1,0-3.55-3l-.08.1a2.55,2.55,0,1,0-4,2.45,1,1,0,0,1,.08.11,2.54,2.54,0,1,0,1.1,4.51l.13,0a2.55,2.55,0,1,0,4.63.35.53.53,0,0,0,0-.13A3.78,3.78,0,0,0,1073.31,460.92Zm-7.29-1.51a1.36,1.36,0,1,1,1.92-.15A1.36,1.36,0,0,1,1066,459.41Z"/><path class="cls-21" d="M1159.05,340.39s-54.72,19.16-66.35,115.6-19.15,307.11-15,327"/><path class="cls-8" d="M1112.88,390.67s11.62-15.05,29.07-17.79c14.44-2.26,19.15,2.06,27.83.11.26-.06-11.76,16.65-23.39,20.76C1127.85,400.29,1115.34,390.63,1112.88,390.67Z"/><path class="cls-8" d="M1122.94,367.55s8.24-14.6,9.48-24.83c1.46-12.09-4.9-24.2-4.9-24.2a90.87,90.87,0,0,1-3.57,8.7c-2.18,4.31-11.72,14.94-11.56,23.63C1112.5,356.41,1112.89,361.37,1122.94,367.55Z"/><path class="cls-8" d="M1099.19,428s7.9-6.12,15.19-8.23,17.88-2.74,28.74,6.21a20,20,0,0,0-6.15,2.7c-2.57,1.83-10.17,9-19.23,9.83-5.46.48-7.8-.49-10.82-2.1S1100.66,428.27,1099.19,428Z"/><path class="cls-8" d="M1107.88,394.7a7.39,7.39,0,0,1-1.88-4.41c-.09-5.82,1.43-8.83-.53-13s-7.46-9.18-7.46-9.18S1085.17,390.33,1107.88,394.7Z"/><path class="cls-8" d="M1149.3,346.32s.71-6.59,8.78-12.23,12-5.21,12.67-4.72.15,2.68-2.85,7.28c-2.54,3.89-4.58,6.73-9.9,8.88S1149.3,346.32,1149.3,346.32Z"/><path class="cls-21" d="M506.23,659.21s33.27,2.1,51,30.12c11.11,17.51,20.17,58.21,20.69,96.81"/><path class="cls-11" d="M534.73,670s-9.54-1.77-15.39-.89c-7.23,1.08-10.2,5.08-11.14,6.48a15.62,15.62,0,0,0,5.41,4.29c1.64.81,6.66,2.19,10.94.67S533.69,670.57,534.73,670Z"/><path class="cls-11" d="M526.24,663.68s-7-4.11-9.93-8.08c-3.51-4.69-3.77-11.27-3.77-11.27a42.73,42.73,0,0,0,3.58,2.77c1.94,1.27,8.48,3.41,10.51,7.08C527.92,656.53,529,658.69,526.24,663.68Z"/><path class="cls-11" d="M551.38,683.78s-5.88-.81-10.27.27a17.84,17.84,0,0,0-13,11.74,11.81,11.81,0,0,1,4-.44c1.87.18,7.93,1.63,12.83-.65a9.63,9.63,0,0,0,5-4.3C551,688.68,550.7,684.34,551.38,683.78Z"/><path class="cls-11" d="M538.76,670.23a3.59,3.59,0,0,0-.27-2.29c-1.37-2.45-2.72-3.34-2.91-5.55a18.92,18.92,0,0,1,.91-5.63s5.1,2.76,5.39,6S541.74,667.35,538.76,670.23Z"/><path class="cls-11" d="M553.16,682.4s-1.15-3.94-1.93-7.54.19-7.81,1.46-9.37a6,6,0,0,1,2.65-2,13.75,13.75,0,0,0,1,3.59c.52,1.16,3.44,6,3,8.56C558.36,681.79,553.16,682.4,553.16,682.4Z"/><path class="cls-11" d="M510.33,659.53a10.2,10.2,0,0,0-7.14-4c-4.72-.41-14.86,1.24-15.09,1.56s3.62,3.24,6,4.44a14.88,14.88,0,0,0,12.43-.2Z"/><path class="cls-14" d="M876.14,829.35s-183.39-40.75-47.68-50.5c36-2.59,70.55-2.17,108,2.82,82.21,10.94,143.46,32.69,67.54,24-233.48-26.68-169.15-84.83-80-61s212.19,83.33,124.21,69.56-175.46-72.59-124.8-102.11,158.69,20.14,119.84,58.51-32.5-59.4,23.26-84.09c109.55-48.52,24.8,114.55-72.32,115.39s90.73-73.75,132-93.91c78.47-38.35,59.67,18.12-19.68,48.64-85.94,33.06-38.08-27.08,58.91-20.27,39.29,2.75,58.63,23.79-11.43,57.9C1098.88,821.14,979.61,852.68,876.14,829.35Z"/><path class="cls-22" d="M959.52,729.49s-4.66-1.76-8.34-.47c-7.44,2.6-5.95,7.73-.47,8.34s11.38-2,13.62-3.21-6.78,2.32-4.45,9.1,11.43-7.13,3.94-14,5.07,10.38,9.25,13.92,7.18-1.44,4.93-5.14c-1.69-2.78-2.71-7.3-18-6.49s6.36,5,15-3.71,8.06-11.66,3.56-11.35-18.48,9.79-10.66,18.35-.85-.53-1.72-5.37c-.6-3.34-2.21-12.8-5.78-14.93-4.45-2.65-7.8-1.15-5.07,6.69S959.52,729.49,959.52,729.49Z"/><path class="cls-14" d="M965.27,732a1.45,1.45,0,1,1,.45-1.9A1.39,1.39,0,0,1,965.27,732Z"/><path class="cls-22" d="M918.25,785.44s2.76,2.27,5.56,2.25c5.66-.05,5.83-3.88,2.24-5.56s-8.18-1.29-10-1,5.14,0,5.13-5.15-9.41,2.2-5.9,8.56-1-8.22-3.07-11.58-5.21-.68-4.53,2.35c.5,2.27.15,5.58,10.69,8.55s-3.18-4.85-11-.95-8.17,6.07-5,6.89,14.81-2.38,11.48-10,.45.56-.07,4c-.37,2.42-1.46,9.21.48,11.49,2.41,2.82,5,2.58,5-3.38S918.25,785.44,918.25,785.44Z"/><path class="cls-14" d="M914.92,782.43a1,1,0,1,1-.74,1.19A1,1,0,0,1,914.92,782.43Z"/><path class="cls-19" d="M1254.51,476s-106.32,76.29-191.18,291.21"/><path class="cls-19" d="M1149.66,504s-76.19,106.36-98.32,237.8"/><path class="cls-19" d="M1211.92,608.76s-91.4,29.27-112.16,149.65"/><path class="cls-23" d="M1268.3,459.56c17,14.27,26,31.4,20.24,38.27s-24.21.88-41.17-13.38-26-31.4-20.24-38.27S1251.34,445.3,1268.3,459.56Z"/><path class="cls-14" d="M1261.16,468.06c5.38,4.53,8.26,10,6.43,12.15s-7.69.28-13.08-4.25-8.26-10-6.43-12.15S1255.77,463.53,1261.16,468.06Z"/><path class="cls-23" d="M1155.4,497.17c7.06,5.94,10.83,13.07,8.43,15.94s-10.08.36-17.14-5.58-10.84-13.07-8.43-15.93S1148.34,491.23,1155.4,497.17Z"/><path class="cls-14" d="M1152.43,500.7c2.24,1.89,3.44,4.16,2.67,5.07s-3.2.11-5.44-1.77-3.44-4.16-2.68-5.06S1150.18,498.82,1152.43,500.7Z"/><path class="cls-23" d="M1219.08,603.78c6.79,9.76,9.09,19.91,5.13,22.67s-12.67-2.94-19.46-12.71-9.09-19.91-5.13-22.66S1212.29,594,1219.08,603.78Z"/><path class="cls-14" d="M1214.19,607.18c2.16,3.1,2.89,6.32,1.63,7.19s-4-.93-6.18-4-2.89-6.32-1.63-7.2S1212,604.08,1214.19,607.18Z"/><path class="cls-8" d="M1077,837.44c31.27-2.62,62-9.22,75.72-29.19,18.06-26.2-8.6-56.84-34.42-61.45s-92.93,32.26-63.67,38.41,38.15-50.13-8.61-46.09c-26.67,2.3-72.28,47.62-39.58,56.84s-8.6-21.51-29.25-23c-24.38-1.81-56.79,55.3,0,61.45S1049.47,839.74,1077,837.44Z"/><path class="cls-24" d="M217.42,479.59s19.43-1.07,24.41-9.22-12.31-3.3-3.62.86,25.11-7.81,19.12-16-14-11-20.46-4.76-.17,8.31,1.84,2.86-10.68-16.26-17.44,2.63-1.58,19.55-.07,7.45-6.89-18.41-10.47-3.94,5.82,20,7.07,13.6-18.51-16.8-18.25-4.92,1.12,26,10,24.95-16.13-28.79-20.74-2.61,10.68,16.26,10.52,10.54-29.21,9.05-4.38,13.93,14.53-3.88,15.72-9.87-18.63,12.13-5,22.61,24.62,6.61,20.47-5.76-16.63-3.84-10.86,6.1.05,17.11-2.33,18.56,17.6,6.6,19.82-4.09S233,481.11,217.42,479.59Z"/><path class="cls-25" d="M245,466.38,257.85,479l.65,5.35,11.27,11.51-3.18,7.93,5.12,22.14s3.34,11.83-8.6,9l-11.93-2.81s-8.48,23.71,0,22.77c38.93-4.35,19.13,13.25,16.92,16.95-2,3.36-29.77,27.64-29.77,27.64s-25.25-2.68-30.74-3c-3.71-.2-17-17.94-12.52-20.36,11-6,23.5-12.54,24.91-20.11,2.7-14.58,4.76-30.31,4.76-30.31a6.74,6.74,0,0,1-4.86.27c-3-.81-16.89-8.71-13.48-14.86s12.91-5,16.68-.1,8.53-1.56,5.57-12.9-26.93-14.85-1.17-22.08C244.8,471.18,245,466.38,245,466.38Z"/><path class="cls-25" d="M313.06,585.21s31.5,26.68,40.42,27.38c5.08.4,23.8,2.21,31.92,8.87,10.59,8.68,9.76,23.77-3.88,19.7s-20.88-1.59-37.26-3.32-29.33-1.88-32.89-7.39S306.18,579.55,313.06,585.21Z"/><path class="cls-11" d="M291.68,560.14l41.6,39.25s6.56,19.57-13.71,40.93c-2,2.08-24.7-9.51-30-17.78S285.47,559.78,291.68,560.14Z"/><polygon class="cls-25" points="487.11 818.25 497.54 843.18 477.81 856.11 461.75 819.74 487.11 818.25"/><path class="cls-26" d="M451.8,758.82c-8.35-3.32-17.06,5.32-17.06,5.32L408.68,777l2.21,12.88,47.63-10.33S460.12,762.12,451.8,758.82Z"/><path class="cls-11" d="M434.57,764.81s.19-1,2.83-5.26,5-5.4,7.31-5.58c8.86-.69,14.6,1.82,35.48,2.21s26.26,4.57,30.17,15.05-3.71,16.45-13.65,15.13c-14.38-1.93-21.93-5.22-29.54-5.67-8-.45-8.82,1.18-13.91,3-4.81,1.69-5.43-14.64-.65-17.4C456.82,763.89,438.82,759.57,434.57,764.81Z"/><path class="cls-26" d="M440.75,756.81c8.85-.7,14.6,1.81,35.47,2.2s26.28,4.57,30.19,15.06c1.81,4.86,1.14,8.69-1.08,11.34,5.05-2.11,7.68-7.1,5-14.18-3.91-10.48-9.3-14.67-30.17-15.05s-26.62-2.9-35.48-2.21c-1.78.13-3.59.89-5.54,3.14A6.77,6.77,0,0,1,440.75,756.81Z"/><path class="cls-26" d="M434.65,764.55a1.27,1.27,0,0,0-.08.26c.06-.09.17-.17.25-.27Z"/><path class="cls-26" d="M479.45,766.77c.68-.1,1,1.23.85,3a49,49,0,0,0,.13,10.82c.23,1.82-.11,3.31-.86,3.36s-1.61-1.42-1.82-3.19a49.55,49.55,0,0,1,0-10.68C477.9,768.35,478.75,766.89,479.45,766.77Z"/><path class="cls-26" d="M473,766.59c.73,0,1.08,1.32.94,3a45.51,45.51,0,0,0,.22,10.21c.23,1.71-.09,3.08-.86,3s-1.67-1.51-1.88-3.22a44.74,44.74,0,0,1-.12-10.07C471.45,767.87,472.29,766.6,473,766.59Z"/><path class="cls-26" d="M466.41,765.5c.72.06,1.17,1.46,1,3.17a52.54,52.54,0,0,0,.6,10.61c.28,1.77,0,3.16-.8,3s-1.73-1.67-2-3.43a48.35,48.35,0,0,1-.47-10.48C464.89,766.72,465.69,765.43,466.41,765.5Z"/><path class="cls-27" d="M275.11,729s32.16,72.72,39.44,89.38-4.62,49.12-14.73,50S246,838.57,225,798.71s-17.62-76,.41-75.45S275.11,729,275.11,729Z"/><path class="cls-27" d="M298.68,814.93S412,765.72,432.17,764.51s14.55,14.74,14.55,14.74-110.74,93-147.53,86.89S290.23,814.64,298.68,814.93Z"/><path class="cls-27" d="M252.73,715.63c15.53-2.69,43.7-24.75,63.44-40.87,18.65-15.23,60.48-45.27,75.19-42.93s19.48,28.66,3.24,48.88S363.41,708.72,327,733c-3.3,2.21-33.76,29.1-35.42,47.73-1.94,21.85-69.12-42.7-65.4-49.58S213,722.53,252.73,715.63Z"/><path class="cls-28" d="M391.36,631.83s22,2.68,43.86,51.52c22.73,50.88,57,146.8,57,146.8s-3.84,2.94-14,2.7-11.18,2.61-21.91-16.19-74.34-106.84-75-128.21S376.75,632.86,391.36,631.83Z"/><path class="cls-28" d="M378.59,796.62c-21.84,3.51-38.51,10.23-30,12.22s13.09,4.65.27,8.43-36.74,13-29.41,13.32-5.69,15.95-13.05,14.49c-4.5-.89-15.9-7.22-23.86-8.81-4.17,12.57-.49,29,18.85,32.21,26,4.34,86.74-43.2,121.43-70.08C415.34,797,395.83,793.85,378.59,796.62Z"/><path class="cls-27" d="M425,749.54c-4.28-10.55-8.07-23.38-12.33-15.93s-2.22-34.27-7.68-46.48-5.4-10.52-9.59-.82c-3.66,8.45-12.5-25.2-14.72-34-.79,11.39.37,25.41.71,36.17.26,8.28,10,26.57,22.4,47C417,749.41,428.34,757.92,425,749.54Z"/><path class="cls-11" d="M543.15,854.26c2.06,2.14,1.33,7.57,1.33,7.57s-37.15,6.22-49.46,4.84c-3.18-.35-8.7-2.12-13.92-4-.88-.32-2.59-2.53-3.45-2.86-1.59-.61-2.24.66-3.61.1a46.78,46.78,0,0,1-6-2.75c-4.68-13.63-.85-19.56-.85-19.56s15.24,5.76,13.1,2.51c-4.55-7,13.59-11.17,16.64-7.38C509,847.82,537.2,848.06,543.15,854.26Z"/><path class="cls-26" d="M544.54,857.14c-11.46,2.08-35.51,6.32-40.06,6-18.58-1.3-30.29-8.22-38.21-12.42a48.25,48.25,0,0,0,1.73,6.39,46.78,46.78,0,0,0,6,2.75c1.37.56,2-.71,3.61-.1.86.33,2.57,2.54,3.45,2.86,5.22,1.93,19.44,4.9,22.62,5.25,12.31,1.37,40.76-6,40.76-6A15.8,15.8,0,0,0,544.54,857.14Z"/><path class="cls-26" d="M521.61,845.76c.24.53-1.26.93-3.28,1a82,82,0,0,0-12.4,1.38c-2,.39-3.81.3-4-.27s1.38-1.42,3.4-1.79a82.42,82.42,0,0,1,12.24-1.29C519.61,844.75,521.4,845.23,521.61,845.76Z"/><path class="cls-26" d="M514.27,842.52c.18.54-1.3,1.07-3.29,1.28A82.89,82.89,0,0,0,498.81,846c-2,.5-3.71.51-3.83-.07s1.38-1.57,3.35-2.06a81.24,81.24,0,0,1,12-2.06C512.34,841.6,514.08,842,514.27,842.52Z"/><path class="cls-26" d="M507.15,839.59c.16.56-1.3,1.2-3.28,1.53a84.65,84.65,0,0,0-11.9,2.93c-1.93.62-3.62.73-3.7.11s1.35-1.7,3.27-2.31a81.63,81.63,0,0,1,11.79-2.8C505.27,838.73,507,839,507.15,839.59Z"/><path class="cls-26" d="M211.49,562.74S222.86,593,246.91,588.3s8.22-30.49,9.8-33.92,35,5.76,35,5.76,3.22,53.87,2.56,86a508.12,508.12,0,0,1-4.21,56.5s9.2,44.42-33.94,49.52c-28.18,3.33-33.64,20.17-36.36,37.74-1,6.35-40.15-73-33.11-99.73,10.36-39.32-2.66-81.27-18.35-81C155.92,609.3,194.12,576.15,211.49,562.74Z"/><path class="cls-25" d="M196.27,675.21s-.75,13.27-2.55,26c-1.83,13,2.1,12.88,2.71,32s-4.77,44.62-4,52.48-1.33,11.3-6.85,14.85-7.73,4.75-11.66,4.88-10.55,4.84-14.51,3.84-2.31-1.62.44-3.39,8.81-6.47,11.08-6-12-5.24-18.22-6.17-18-.55-20.91-2.71.54-.58,6.1-3a87.7,87.7,0,0,1,10-3.7,15.31,15.31,0,0,1,6.1-3c3.35-.67,21.5,3.26,21.5,3.26s-5.57-51-5.41-63.44,1.66-20.06-1.62-33.16C163.37,667.25,191,668.62,196.27,675.21Z"/><path class="cls-11" d="M198.88,686.39s-9.5-75-23-85.4c-9.81-7.57-17.55,18.72-19.43,44-2.41,32.54.7,39.38.7,39.38S183.27,708.84,198.88,686.39Z"/><path class="cls-25" d="M357.2,611.89,452.14,641s4,1,8.07,5.72,9.29,15.49,9.29,15.49l-2.31,13s-2.77-2.53-2.58-4.91-5.59-5.52-7.76-7.16-6.16-2.16-3.39.37,7.88,8.1,7.2,10.54-8-5.25-8-5.25-10.07-6-12.29-8.09-9.89-16.37-10.06-17.77-68.31,2.38-82.49-5C344.53,636.25,333.63,610.26,357.2,611.89Z"/><path class="cls-25" d="M538.13,837.2s-16.74,9.48-25.66,12.83-15.62,5-21.76,9.48,22.32,15.62,27.89,14,16.18-14,32.92-16.19S538.13,837.2,538.13,837.2Z"/><path class="cls-29" d="M735.88,789.78S645,763,631.56,765.8s-76,57.32-94.55,70.57c-3.9,2.78,8.65,20.91,15.34,22s56.95-20.26,68.06-27.32c12.27-7.82,21.19-21.76,25.1-20.65,8.17,2.33,81.44,35.7,94.83,36.82s55.23.56,58-8.37S735.88,789.78,735.88,789.78Z"/><path class="cls-30" d="M536.59,861.88s0,9.21-.83,12.55,0,8-4.18,8.79-16.74-.42-30.13,3.35-32.63,5-42.68,2.51S438.7,877,441.62,873.18s13-4.19,17.58-3.77,36-14.22,40.58-16.73,8.37-2.51,10,1.67,4.6,8.37,12.55,8.78A50.34,50.34,0,0,0,536.59,861.88Z"/><path class="cls-22" d="M522.37,863.13c-8-.41-10.88-4.59-12.55-8.78s-5.44-4.18-10-1.67-36,17.15-40.58,16.73-14.65,0-17.58,3.77a2.1,2.1,0,0,0-.32.59c2.2,4.29,9.77,9.93,17.36,11.74,10.23,2.46,29.84,1.23,43.47-2.44s26.44-2.46,30.7-3.28a4.09,4.09,0,0,0,2.32-1.2c.22-1.38.28-2.87.61-4.16.83-3.34.83-12.55.83-12.55A50.34,50.34,0,0,1,522.37,863.13Z"/><path class="cls-31" d="M710.18,798.76a155.55,155.55,0,0,1-.11-16.3c-28-7.7-69.76-18.48-78.51-16.66-13.38,2.79-76,57.32-94.55,70.57-1.49,1.06-.58,4.36,1.49,8.1,7.53-4,16.68-9.12,24-11,13.76-3.58,32.89-15.54,50.23-24.52s19.73-24.51,31.69-22.11S710.77,804.74,710.18,798.76Z"/><path class="cls-32" d="M737.55,555.5s3.35-16.74,29-3.35,60.24,32.35,66.94,78.09,20.08,72,42.39,77,11.72,21.75,6.14,29-25.66,31.24-53.55,20.09-89.81-112.13-87-138.34S740.34,556.05,737.55,555.5Z"/><path class="cls-32" d="M751.21,548.52s24.25-1.9,45.2,14.23,26.7,55.18,54.29,59.41c24.27,3.72,46.65,32.57,26,35.13-49.31,6.08-12.56,32.19-6.79,36.2,11.2,7.77,2.94,36.92-47.77-18.86-18.35-20.19-60.88-84.64-53.34-94.85S753.66,549.88,751.21,548.52Z"/><path class="cls-28" d="M743.06,551.82s29.6,1.79,35.87,16.14,17.94,20.63,11.66,31.39-15.24,19.73,7.18,29.6,37.67,35,39.47,48.43,4.48,18.84,17,28.71,12.56,41.25-26,39.46-87-105.84-87-140.81S726.92,557.8,743.06,551.82Z"/><path class="cls-25" d="M769.35,644.75s-11.71-2.79-12.28-13.4,1-20.59,6.15-22.86c5.4-2.41,6-2.45,9-5.1,3.79-3.32,3.14-10.32-1.74-10-6.74.49-8.93,5-8.93,5a10.47,10.47,0,0,1-1.12-7.81c1.12-4.46,4.46-6.14,0-16.74s-11.71-20.63-22.87-18.4-14.5,5.57-15.06,7.25a15.18,15.18,0,0,1-6.14,6.69c-5.13,2.56-8,1.63-7.8,4.46.43,7.06-3.71,11.93-5.4,17.83-1.79,6.28-2.34,10,.45,11.66s13.87,11.24,18.33,16.26,18.41,30.67,16.74,40.16S769.35,644.75,769.35,644.75Z"/><path class="cls-25" d="M648.85,822.13s-6.13,19.53-10.59,24-7.25,7.81-2.79,11.16,20.92.56,23.7-3.35,3.08-20.64,7.54-26.77-20.08-3.35-20.08-3.35Z"/><path class="cls-22" d="M737,669.29s41.29-47.42,59.13-26.77c27.37,31.64,27.89,54.66,38.49,83.11s11.72,53,14.51,65.27,2.79,12.27,2.79,18.41.56,11.15-3.91,8.93-41.84-17.3-46.86-21.76S670.61,687.7,737,669.29Z"/><path class="cls-30" d="M663.36,839.29s2.09,8,4.6,11.71,3.35,11.3-3.76,16.33S642.45,882,634.07,889.08,605.2,899.75,600.6,900c-7.32.32-13.8-7.52-11.29-12.54s15.48-12.14,21.34-16.74,22.59-22.59,24.68-24.69,12.55.42,11.71,5,4.19,4.19,6.28,2.51S663.36,839.29,663.36,839.29Z"/><path class="cls-22" d="M662.4,863.73c5.67-4,6.28-9.58,5-13.59a27.79,27.79,0,0,1-1.42-3,36.3,36.3,0,0,1-3.12-7.12c-1.74,2.72-7.78,12.06-9.57,13.48-2.09,1.68-7.11,2.1-6.28-2.51a.1.1,0,0,0,0,0c-1.28-.33-2.17-1.36-1.81-3.49-2.92-2.16-8.45-2.94-9.91-1.49-2.09,2.1-18.82,20.08-24.68,24.69s-18.83,11.71-21.34,16.74a5.76,5.76,0,0,0-.33,4.06,12.15,12.15,0,0,0,9.83,4.9c4.6-.2,25.1-3.77,33.47-10.87S655.29,868.75,662.4,863.73Z"/><path class="cls-33" d="M784.32,679.18s-1.2,21.52-7.78,29.29,1.2,9,6,15.55,13.16,15.55,13.16,29.3,4.18,19.13,10.76,26.31,20.33,24.51-4.79,21.53-103.43-73-89.68-92.09S782.52,664.83,784.32,679.18Z"/><path class="cls-34" d="M849.12,814.32s-22.2-23.06-39.61-24c-10.6-.56-5.57,3.35-14.5-7.25-12-14.21-61.36-84.23-77-87s-25.66,31.24,3.35,88.14,39.6,63.59,67.49,66.37S835.73,839.44,849.12,814.32Z"/><path class="cls-34" d="M716.35,731.77s0,43-21.75,64.15-28.45,35.15-28.45,35.15l-19.52-7.26s30.12-96.5,40.72-110.45S713,688.82,718.59,700,716.35,731.77,716.35,731.77Z"/><path class="cls-35" d="M646.67,823.66a1.1,1.1,0,0,0,0,.15l17.07,6.34Z"/><path class="cls-36" d="M706.21,729.12c-1.59,17,0,44.11-18.59,65.88-15.83,18.54-22.33,31.67-23.91,35.16l2.44.91s6.69-14,28.45-35.15,18-62.33,18-62.33S707.19,718.65,706.21,729.12Z"/><path class="cls-22" d="M771.67,645.55c-8.37,3-20.78,7.41-32.31,11.34-9,3.05-17.43,5.81-23,7.38-17.85,5-30.68,8.93-35.7,13.39s-18.4,29.57,10.61,33.47,41.83-7.25,53-10.6,22.87-1.12,30.67-.56c7,.5,16.78-27.9,9.71-50.67C783.85,646.77,777.69,643.39,771.67,645.55Z"/><path class="cls-30" d="M774.92,700c5.47.39,6.54-26.55-6.15-20.19-17.94,9-26.32,11.47-39.46,15.54-17.34,5.38-30.5,6-38.27,4.79-5.83-.9-18.15-1-13.83,5.34,2.8,2.69,7.26,4.77,14,5.68,29,3.91,41.83-7.25,53-10.6S767.12,699.41,774.92,700Z"/><path class="cls-36" d="M809.51,790.34c-10.6-.56-5.57,3.35-14.5-7.25-.49-.58-1-1.26-1.65-2,2.32,8,5.21,18.56,5.9,23.06,1.2,7.78-5.37,10.77-16.74,2.4s-43.65-45.45-49-58.6-17.33-35.28-20.93-29.9c-1.32,2,1.61,10.34.6,13.16.64,9.15-7.14,15.5-2.61,28.18a210.83,210.83,0,0,0,10.83,24.83c29,56.9,39.6,63.59,67.49,66.37s46.86-11.14,60.25-36.26C849.12,814.32,826.92,791.26,809.51,790.34Z"/><path class="cls-37" d="M745.49,605.49c-4.75,3.16-10.28,10.28-19,3.16-6.41-5.25-16.71-5.33-21.66-5a2.93,2.93,0,0,0,.26.19c2.36,1.41,11.76,9.52,15.55,13.78,1.82,2,5.52,8.19,8.7,14.88,5.15-7.58,6.68-13.63,7.85-16.3S750.24,602.32,745.49,605.49Z"/><path class="cls-37" d="M882.12,812.22s1.62-50.55-6.87-47.72-9.71,2.83-23.86,14.15S874.84,805.75,882.12,812.22Z"/><path class="cls-37" d="M818.1,830.53S797,812,794.7,801.7s-4.2-16.64,5.11-13.15,27,24,27.49,32.87S824.35,831.9,818.1,830.53Z"/><path class="cls-25" d="M875.52,771.52l1.91-2.89c3.16,7.23,4.37,27.66,4.79,38.3a11.29,11.29,0,0,1-1.55,2.28,18.41,18.41,0,0,1-1.73,1.71c-2.52-1.69-5.84-3.69-9.28-5.88C869.94,797.7,871.1,778.24,875.52,771.52Z"/><path class="cls-38" d="M857.05,806.56l7.68-21s10.11,8.09,14.56,15.77,7.68,12.54,6.47,23.46,2.43,18.2,4,22.25-36,32-37.62,31.54S832,847.81,823.48,839.73s-17.8-16.18-17.8-16.18a30.62,30.62,0,0,0,10.92-18.2C818.63,793.62,847.34,813.84,857.05,806.56Z"/><path class="cls-24" d="M912.46,858.73s1.21-8.08-5.67-10.51c-13.26-4.68-16.58-2.43-25.48,5.66s-24.67,13.35-29.12,15-3.23,14.57-1.21,17,14.56,2,19,0,10.52-9.71,21.83-8.09S914.07,866,912.46,858.73Z"/><path class="cls-39" d="M807.72,821.77A30.68,30.68,0,0,0,816.47,806a28.61,28.61,0,0,0,2.64-3.92c7.6-3,29.66,10.71,37.94,4.5l3.26-8.93c3.1-3.19,6.6-5.58,6.85-.37.4,8.49-4.86,12.94.4,16.58s13.35,10.92,7.69,12.94-15-2.42-16.58,5.26-5.26,7.28-.41,11.73,2,4-3.64,5.26-7.68,8.09-4,15-4.86-4.45-13.35-12.53S815.11,825.86,807.72,821.77Z"/><path class="cls-40" d="M861.09,776.63s4-10.92-.81-10.51-6.87-.41-11.32-3.64-23.86-9.71-24.67-3.65-2,6.07-10.52,5.67-11.32,3.23-6.87,6.07,3.23,6.87,1.21,11.32-3.23,6.88,5.66,12.94S854.22,801.3,861.09,776.63Z"/><path class="cls-25" d="M834.4,766.52c1.2-.13,7.57,10.64,19,6.07,4-1.62,14.15,26.69,9.71,34.78s5.25,8.09-1.62,12.94-15.78,6.88-19,4.45-7.69-2.83-13.75-4.85-18.61-21.44-18.2-27.91c.25-4,2.39-10.21,7.68-16.18,2.09-2.35,2.4,3.18,8.09,1.62C829.26,776.64,830.15,767,834.4,766.52Z"/><path class="cls-37" d="M895.47,917s-1.21,5.66-2.83,7.27,2.42,4,2,6.48-1.1,9.36,3.23,8.08c6.88-2,7.87-6.78,6.07-11.73a30.31,30.31,0,0,1-.81-14.55C904,909.29,895.87,915,895.47,917Z"/><path class="cls-25" d="M884.55,911.31a31.91,31.91,0,0,0,8.09,8.09c5.25,3.64,6.47,2.42,3.64,4.85s-4.85,6.07-7.28,7.28-4.45-2.42-6.47-3.64-4.45-2-4.45-4.44,1.21-7.29.81-12.14S880.91,905.24,884.55,911.31Z"/><path class="cls-40" d="M893.45,917s-6.88-24.67-7.28-37.62,2.42-22.24,6.87-27.5,17-3.64,19,0c1.59,2.85,4,6.47.81,26.69s-8.09,40.44-10.11,42.87S893.45,917,893.45,917Z"/><path class="cls-40" d="M887,908.48s-18.19-43.27-21.43-46.91-9.71-6.07-14.56-4.05c-4.5,1.87-7.68,13.35-8.09,21.44s23.05,27.9,28.31,34,5.66,4.85,5.66,4.85S890.61,914.14,887,908.48Z"/><path class="cls-37" d="M232.69,749.58s-3.89-2.26-3.09-2.79c1-.63,3.65.76,6.38,1.6C239.07,749.34,233.57,749.34,232.69,749.58Z"/><path class="cls-37" d="M396.94,704.7s4.18-6.13,3.23-6.19c-1.16-.07-2.8,2.47-4.75,4.56C393.21,705.42,396.06,704.93,396.94,704.7Z"/><path class="cls-37" d="M395.79,707.18s4.76-4.94,4.09-5.33-2.7,1.6-4.7,3.1C392.92,706.64,395.1,707.12,395.79,707.18Z"/><path class="cls-34" d="M347.36,724S353,741.61,344,742.11,335.54,724.3,347.36,724Z"/><path class="cls-41" d="M313.4,864s.93,8.22.23,10.28-2.53,3.5-6.8,2.75-12.5-2.22-14.71-5.81c-1.65-2.7,3-3,5.68-3.39s6-3.47,6.86-3.7S313.4,864,313.4,864Z"/><path class="cls-42" d="M306.83,877.06c-3.95-.69-11.28-2-14.11-5,2.4.2,5.85,1.18,10.09,1.69,1.82.22,6.34,1.06,8.53,1.15C314.07,874.94,311.1,877.81,306.83,877.06Z"/><path class="cls-42" d="M297.8,867.86c1.69-.25,3.58-1.53,5-2.52a37.05,37.05,0,0,0,4.87-.8c8-1.88,7.53,4.46-1.3,5.75a36.93,36.93,0,0,1-9.84-.8C294.63,869.05,296.34,868.08,297.8,867.86Z"/><path class="cls-41" d="M346.84,854.21s3.58,8.76,3.76,10.6,1.73,3,7.59,1.43,10.09-3.31,9.41-4.69-1.54-4.61-5.11-7.43S346.34,850,346.84,854.21Z"/><path class="cls-42" d="M351.27,866.28c.47-.4.94-.76,1.32-1.06,1.81-1.43,1.56-3.55,4-4.84s9-.2,9-.2c1.2.69,1.73,1.45,1.78,2.22-.9,1.21-4.56,2.59-9.26,3.84C354.18,867.31,352.18,867.1,351.27,866.28Z"/><path class="cls-43" d="M309.15,804.35s-14.44,12.92-17.89,28.26,4.5,31.09,5.06,34.39,19.19.23,19.19.23,6.17-25.15,6.7-29.05S329.29,820,329.29,820l8.65-1.67-10.81-20.64Z"/><path class="cls-43" d="M351.35,795.65s17.37,17,19.11,30.66-2.95,24.29-6.19,28.6-13.94,1.82-16.28,2.44-19.1-40.06-22.12-50.23S351.35,795.65,351.35,795.65Z"/><path class="cls-44" d="M325.67,805.6c7.18-2.93,15.89-3.45,24.24,2.34,15.37,10.65,16.32,15.41,17.1,18.34.62,2.34-2.88,18.61-5.58,30.51-4.48,1.52-11.58.07-13.44.56-2.34.63-19.1-40.06-22.12-50.23A4.9,4.9,0,0,1,325.67,805.6Z"/><path class="cls-44" d="M299.45,844.54c2,.41.67-4.57.53-8.61s5.85-12.21,11.91-20.09a34.26,34.26,0,0,1,18.59-11.75l7.46,14.24L329.29,820s-6.55,14.28-7.08,18.18-6.7,29.05-6.7,29.05a105,105,0,0,1-13.16,1.29c-1.57-4.77-3.85-11.74-5.21-16.16C294.9,845.12,297.46,844.13,299.45,844.54Z"/><path class="cls-25" d="M336.43,725.32s5.22-9.86,22.66-13.86,28.92-2,31.38-4.57,6.32-10.46,7.92-11.51-2.06,10-3.16,15.26a17.75,17.75,0,0,0,.15,8.42c.6,2,.78,4.26.23,5.43s-1.6-1.92-2.81-4.11-1-4.44-5.85-3.15c-4.4,1.17-20.25,7.57-26.09,10.37s-21,10.6-25.79,15S334.18,727.48,336.43,725.32Z"/><path class="cls-25" d="M293,732.79S277.43,731,264.35,736s-20.87,9.93-23.51,10.63a39.5,39.5,0,0,1-8.56,2c-3,.41-3.72-1.29-6-.28-1.12.48,2.24,2.54,4,3.33s4.57.66,5.56,3.22,1.81,3.28,1,6,.41,2.71,1.71,1.74,5.24-3.9,5.81-5.3,2.42-1.52,7.59-3.27c4.32-1.46,13.76-3.66,33.7-1.75C306.67,754.32,295.91,733.26,293,732.79Z"/><path class="cls-23" d="M328.75,722.34s12.06-4.14,12.94-4.38.5,12,2.15,16.36c1.07,2.85,1.42,6.52,3.76,5.9s-6.7,4.28-8.5,7,1.66,18.05,8.4,31.62,19,17.21,3,24.28-21.25,14.42-37.08,12.67-15.57-4.33-18.52-.1,2.67-13.56,1-25.66-1.84-25.84-2.76-28.11-3.37-1.86-10.56-3.15c0,0,.86-16.84-1.34-26.29-.56-2.43-.44-.5,5.94-1.26S324.53,725.34,328.75,722.34Z"/><path class="cls-45" d="M345.67,829.75c5.5,4.19,9.64,5.59,2.15,5.7s1.61,4.9,2,7.62c.35,2.33,2.64,11.08,3.7,14.38a29.63,29.63,0,0,0-5.55-.1c-1.71.46-11.13-21.16-17.25-36.8C334.51,821.83,341.67,826.7,345.67,829.75Z"/><path class="cls-46" d="M326.74,760.81c7.68,3,7.17,3.42,5.82-4.06s-1.24-9.39,3.15-15.26a68.44,68.44,0,0,1,7.72-8.58,11.51,11.51,0,0,0,.41,1.41c1.07,2.85,1.42,6.52,3.76,5.9s-6.7,4.28-8.5,7,1.66,18.05,8.4,31.62c5.68,11.44,15.29,15.83,8.57,21.16l-.55-.41c-5.94-4.69-12.59,3.35-13-.61s-11.12-6.46-5-8.09-.09-11-8.06-18.55S319.05,757.83,326.74,760.81Z"/><path class="cls-37" d="M342.59,686.86c-4,1-6.65-22.55-6.65-22.55s-13.91-5.1-32.62,2.43-11.58,42.55-11.58,42.55l5.47,26.91a18.7,18.7,0,0,0,13.23,3.19,9.55,9.55,0,0,0,8.66-7.29l-2.28-11.86s14.59.91,16-3.85c.2-.7,1.09-1.95,2-3.62-.88-1.58-1.37-4.3-1.41-7.68l4.85.82c2.53-5.14,5-10.39,5-11.36C343.39,692.7,346.59,685.89,342.59,686.86Z"/><path class="cls-31" d="M310.82,655.27s16.51.85,21.94-1.67,17.19,3.7,5.11,18.69-20.48,15.21-20.48,15.21,5.49-9.78,1-15.94S308.62,663.65,310.82,655.27Z"/><path class="cls-31" d="M314.48,660.43s-3.89-11.14-29.62-.1-26.28,46.19-5.71,53.9,23,5.32,24.36-1.65l1.34-7s-7.61-9-3.46-11.85,6.12.34,6.12.34l3.4,1.59s3-15.2,3.13-17.05,4.74-5.37,5.79-11.06S314.48,660.43,314.48,660.43Z"/><path class="cls-31" d="M274.65,708.08s1.14,9.53-10.78,12.86c-15.84,4.43-19.64,16.21-15.91,29.2A42.1,42.1,0,0,1,269,732.37C280.66,728.11,276.73,714.21,274.65,708.08Z"/><path class="cls-31" d="M291.39,714.91s1.2,10-4.64,10.77-16,8.7-16.4,19.66a89.59,89.59,0,0,0,2.11,21.23s2.81-13.36,14.82-18.67C309.12,738.23,296.76,719.65,291.39,714.91Z"/><g class="cls-47"><path class="cls-48" d="M789.55,292.36s-7.2-9.71-16.57-9.71-9.14-7-13.68-12c-12.39-13.73-17.07-1.88-28.59-3s-24.7-21-34.07-35.84-18-22.86-31-24-24.48,10.86-36.72,3.43-18.69-25-31.11-23.72c-19.69,2-22.19,6.59-32.27-4.84s-11-23.44-25-22.58c-20.84,1.27-27.39,48.63-41.05,36.85-24.84-21.43-34.57,17.14-46.3,37.15a120.23,120.23,0,0,1-83.88,58.27Z"/></g><g class="cls-49"><path class="cls-50" d="M894.12,51.42H773.36S802.42,0,823.54,0c19.66,0,20.39,36.3,32.93,38.12s10.26-5.47,20.4-5.45C886.4,32.69,894.12,51.42,894.12,51.42Z"/></g></g></g></g></svg>