<svg xmlns="http://www.w3.org/2000/svg" xmlns:xlink="http://www.w3.org/1999/xlink" viewBox="0 0 1519.04 1148.04"><defs><style>.cls-1,.cls-15{fill:none;}.cls-2{isolation:isolate;}.cls-3{fill:url(#linear-gradient);}.cls-10,.cls-4,.cls-6,.cls-7,.cls-8,.cls-9{opacity:0.7;mix-blend-mode:multiply;}.cls-4{fill:url(#radial-gradient);}.cls-5{clip-path:url(#clip-path);}.cls-6{fill:url(#radial-gradient-2);}.cls-7{fill:url(#radial-gradient-3);}.cls-8{fill:url(#radial-gradient-4);}.cls-9{fill:url(#radial-gradient-5);}.cls-10{fill:url(#radial-gradient-6);}.cls-11{fill:#298740;}.cls-12{fill:#094d0b;}.cls-13{fill:#36a895;}.cls-14{fill:#0e5e05;stroke:#36a895;}.cls-14,.cls-15{stroke-miterlimit:10;}.cls-15{stroke:#094d0b;}.cls-16{fill:#ff586b;}.cls-17{fill:#0c1153;}</style><linearGradient id="linear-gradient" x1="714.44" y1="-640.88" x2="783.14" y2="1199.03" gradientUnits="userSpaceOnUse"><stop offset="0" stop-color="#fff"/><stop offset="0.4" stop-color="#fdffff"/><stop offset="0.54" stop-color="#f6fdfd"/><stop offset="0.64" stop-color="#ebfafb"/><stop offset="0.72" stop-color="#daf6f7"/><stop offset="0.8" stop-color="#c4f0f3"/><stop offset="0.86" stop-color="#a8e9ed"/><stop offset="0.91" stop-color="#88e1e7"/><stop offset="0.96" stop-color="#64d8df"/><stop offset="1" stop-color="#45d0d9"/></linearGradient><radialGradient id="radial-gradient" cx="990.14" cy="1201.49" r="823.37" gradientTransform="translate(-0.39 98.44) scale(0.76 0.93)" gradientUnits="userSpaceOnUse"><stop offset="0" stop-color="#d6ffff"/><stop offset="0.94" stop-color="#45d0d9"/></radialGradient><clipPath id="clip-path" transform="translate(-0.82)"><rect class="cls-1" x="1.78" y="1.86" width="1517.67" height="1146.17"/></clipPath><radialGradient id="radial-gradient-2" cx="1491.97" cy="397.07" r="415.49" gradientTransform="translate(0.43) scale(0.76 1)" xlink:href="#radial-gradient"/><radialGradient id="radial-gradient-3" cx="305" cy="688.1" r="185.99" gradientTransform="translate(0.43) scale(0.76 1)" xlink:href="#radial-gradient"/><radialGradient id="radial-gradient-4" cx="1438.21" cy="597.15" r="294.94" gradientTransform="translate(0.43) scale(0.76 1)" xlink:href="#radial-gradient"/><radialGradient id="radial-gradient-5" cx="-24359.93" cy="838.43" r="154" gradientTransform="matrix(-0.76, 0, 0, 1, -18308.85, 0)" xlink:href="#radial-gradient"/><radialGradient id="radial-gradient-6" cx="1136.19" cy="843.3" r="145.88" gradientTransform="translate(0.43) scale(0.76 1)" xlink:href="#radial-gradient"/></defs><title>flores-mobile-bg_4</title><g class="cls-2"><g id="Layer_2" data-name="Layer 2"><g id="background"><rect class="cls-3" x="0.97" width="1517.67" height="1148.04"/><rect class="cls-4" x="0.97" y="889.69" width="1517.67" height="257.7"/><g class="cls-5"><path class="cls-6" d="M1519.85,675.09c-20.34-9.45-36.72-21.16-60.29-39.66-70.66-55.48-80.62-94.15-156.11-130.15-68.27-32.56-129.81,7.46-154.46,50.14s-28.43,44.51-78.88,24.53c-37.9-15-59.23-4-87.09,33.08-9.8,13-27.6,28.51-46,13.86-15.13-12-54.3-47.76-90.38-7.46C830.77,637.14,688.88,822.12,624.8,830.66s-107-42.2-134.75-60.81c-63.3-42.46-102.92,42.53-145.22,33.54-73.06-15.52-138.47-70.63-188.36-103.52C113.59,671.61,52.47,658.61,2,745.05c0,27.88-.34,10.84-.34,35.05,0,103.65.34,109.23.34,109.23H1519.37" transform="translate(-0.82)"/><path class="cls-7" d="M599.66,889.33H41s36.89,0,75.59-48.51c19.27-24.16,59-101,124.88-101.33,66.89-.29,88.52,83.32,147.89,84.09,39.77.51,34-11.61,66.89-11.61s54.6,28.9,76.08,46.1C558.5,879.07,576.65,888.25,599.66,889.33Z" transform="translate(-0.82)"/><path class="cls-8" d="M1519.39,889.33H587S603.43,871,624.8,871s20.87-13.16,31.22-22.64c28.26-25.89,39-3.53,65.24-5.68s56.36-39.6,77.72-67.62,41.08-43.12,70.66-45.28,55.87,20.48,83.8,6.47,42.65-47.18,71-44.76c44.92,3.85,50.61,12.42,73.62-9.14s25-44.22,57-42.6c47.54,2.4,62.49,91.75,93.66,69.53,56.7-40.43,78.88,32.34,105.66,70.09,49.14,69.26,119.15,95.76,164.87,105.76" transform="translate(-0.82)"/><path class="cls-9" d="M330.85,889.33H9.58s7.83-49.82,50.91-46.57,49.34-15,70.49-32.5c11.88-9.79,23.62-22.74,50.92-22.74,25.58,0,51,22.7,70.49,55.24C267.36,867.8,279.93,889.33,330.85,889.33Z" transform="translate(-0.82)"/><path class="cls-10" d="M709.78,889.33h305.1s-73.44-92.06-126.8-92.06c-49.66,0-51.51,65-83.2,68.23s-25.89-9.79-51.51-9.75C729.26,855.8,709.78,889.33,709.78,889.33Z" transform="translate(-0.82)"/></g><path class="cls-11" d="M1.78,962.63C131.43,862,256.89,951.89,287,979.72c25,23.13,104.43,11.95,144.15,18.16,96,15,99,51,88.31,57.54-45,27.51,34.7,41.47,95,46.26,44.86,3.56,92.73,22.21,91.25,46.36H1.78Z" transform="translate(-0.82)"/><path class="cls-12" d="M82.43,957.67c.23,0,5.14-14.61,3.1-20.41-1.2-4-5.32-7.53-5.32-7.53a32.22,32.22,0,0,0-.48,8.2C80.27,942,83.06,953.42,82.43,957.67Z" transform="translate(-0.82)"/><path class="cls-12" d="M84.45,955.49a76.72,76.72,0,0,1,8.41,1.4,51.24,51.24,0,0,1,9.49,2.91,17.73,17.73,0,0,1,3.66,2s-8.15,2.63-12.66,1S84.84,957.21,84.45,955.49Z" transform="translate(-0.82)"/><path class="cls-12" d="M94.11,945.37c.23,0,2-14.86,0-19.11-2-5.17-7.9-10.29-9-11.49,0,0,1.77,6.62,3,12.83C89.51,933.67,91.5,943.51,94.11,945.37Z" transform="translate(-0.82)"/><path class="cls-12" d="M95.58,944.75s1.37-.26,4.68-.75,12.69-2,16.15-2,9.47,2,11.52,2.77c.78.3-6.9,2.36-11.5,3-3.5.55-8.6,1.23-11.43.49-1.33-.34-6.91-2.85-10.25-1.68S95.59,944.76,95.58,944.75Z" transform="translate(-0.82)"/><path class="cls-12" d="M100.87,937.32c.14,0,2.67-11.83,1.53-16.37a29,29,0,0,0-5.82-12.56c-3-3.55-5.75-6.53-5.75-6.54s1.06,6.58,2.42,11.19,2.11,9.21,4.11,13.79A71.87,71.87,0,0,1,100.87,937.32Z" transform="translate(-0.82)"/><path class="cls-12" d="M103.54,934.57c1.67-1.36,3.37-2.49,7.49-3.16s14.06-3.7,19.18-3.61a122.11,122.11,0,0,0,13.11-.16c.44-.06-12.53,6.64-19,7.24a67.78,67.78,0,0,1-13.87-.08c-3.11-.26-6.38,0-8.43,1.31A19.33,19.33,0,0,1,103.54,934.57Z" transform="translate(-0.82)"/><path class="cls-12" d="M109.77,924a26.89,26.89,0,0,0,0-11.67c-1.36-6.84-3.26-12.62-4.71-15.19s-5.92-6.74-6.41-7.47.56,6.62,1,8.87a50.19,50.19,0,0,0,4.63,11C107,914.11,109.57,921.79,109.77,924Z" transform="translate(-0.82)"/><path class="cls-12" d="M110.54,923.27c2.23-1.09,7.19-2.28,10.2-3.18s5.36-.29,16.72-5.39a72.93,72.93,0,0,0,17.45-11.47,73.6,73.6,0,0,1-7.67,1.54c-5.85,1-14.85,6.53-22.27,9.82a101.06,101.06,0,0,0-12.42,6.61Z" transform="translate(-0.82)"/><path class="cls-12" d="M117.73,912.66c.14,0-.42-13-2.11-18.69-1.48-5.79-2.55-10.28-7.59-12.91a39.54,39.54,0,0,1-7.3-4.63s2.91,6.53,5.43,11.52,5.56,12,6.83,14.19S116.56,912.78,117.73,912.66Z" transform="translate(-0.82)"/><path class="cls-12" d="M120.43,905c2.58-2.17,5.23-4,11.13-7.38,5.6-3.25,12.14-7.39,15.53-8.79s14.46-6.25,14.74-6.45c.32,0-8.42,9.65-13.9,12.54s-10.16,5.88-17,7.25-10.6,3.66-12.6,6.05S119.83,905.52,120.43,905Z" transform="translate(-0.82)"/><path class="cls-12" d="M123.21,896.88s-.56-6-3-8.47-6.78-10.61-8.13-13.3c-1.13-2.85-7.57-13.22-7.95-14.05s3.53,2.79,7,4.8,7.27,7.5,9.26,12.49,4.06,14.82,3.91,16.37A2.67,2.67,0,0,1,123.21,896.88Z" transform="translate(-0.82)"/><path class="cls-12" d="M126.17,890.67s5.26-4,9.92-7.44,12.71-8.39,14.84-10.22c2.13-1.67,12.83-7.78,13.09-8.39s-6,8.92-13.14,14.55a56.78,56.78,0,0,1-17,9.69c-4.93,1.84-8,3.65-9.15,5.23S126.19,890.68,126.17,890.67Z" transform="translate(-0.82)"/><path class="cls-12" d="M129.85,874.81c.09,0-3.36-10.29-6-14.08s-5.29-8.56-8.27-11-7.6-6-7.61-5.94,3.48,7.25,6.17,11.91,5.62,9.86,9.1,14.4a68,68,0,0,0,6.75,7.59C129.92,876.75,129.89,875.77,129.85,874.81Z" transform="translate(-0.82)"/><path class="cls-12" d="M131.45,873.9c0,.07,8.84-8.1,13.42-12.26,4.63-4,12.28-10.35,15.55-12.51a53.42,53.42,0,0,0,6.19-4.68c.13.19-11.91,16.63-18.12,20.29-6.06,4.07-16.87,10.83-19.13,14.55S131.51,873.93,131.45,873.9Z" transform="translate(-0.82)"/><path class="cls-12" d="M132.86,859c.11-.06-4.24-11.08-6.22-14.25-1.82-3.28-6.42-7.78-9.49-9.13s-10.1-5-11.1-6.24,2.72,5.83,6.52,9.73S122,848.34,126,853s6.12,6.39,6.23,10.52S132.92,859,132.86,859Z" transform="translate(-0.82)"/><path class="cls-12" d="M134.08,857.38s4.62-5.6,8.32-9.35,9.33-8.25,11.94-10.9,12.17-10.08,12.58-11.16c.51-.92-6.86,13.73-14,19.46s-12.09,8.33-14.67,10.58-5.13,4.81-5.13,4.81C133.47,859.67,133.78,858.53,134.08,857.38Z" transform="translate(-0.82)"/><path class="cls-12" d="M133.78,840.9c.05,0-4.43-8.83-9.18-13.07s-12.5-6.61-15.29-7.55a17.37,17.37,0,0,0-4.51-1s3.86,3.94,8.24,8,10.67,7.5,13.53,9.07,7.07,6,7.35,7.65S133.79,840.9,133.78,840.9Z" transform="translate(-0.82)"/><path class="cls-12" d="M134.89,841.64s5.27-8.25,9.71-13.07,8.35-9.9,10.69-12.11a101.83,101.83,0,0,0,7.87-9.23s-2.87,9.78-8,16.56c-3.78,5.28-15.82,15.14-19.48,19.07C132.74,846.12,134.9,841.64,134.89,841.64Z" transform="translate(-0.82)"/><path class="cls-12" d="M133.19,827.05c.07,0-3.81-10.19-10.72-14.5A42.74,42.74,0,0,0,107,806.92a33.47,33.47,0,0,1-7.5-1.77,48.31,48.31,0,0,0,7,6.08c3.17,2,8.55,5.22,13,7.81s13.2,6.64,14,10.37S133.22,827,133.19,827.05Z" transform="translate(-0.82)"/><path class="cls-12" d="M133.21,825s2.38-3.85,4.56-7.63,6.41-11.82,9.5-15.62c3.19-3.63,11-14.59,11.16-15.55.29-.82-2.94,13.34-6.55,19.23-3.43,6.06-11.45,14.49-15.27,18.3S132.42,826.33,133.21,825Z" transform="translate(-0.82)"/><path class="cls-12" d="M131.1,811.61c.11-.1-7.88-11.21-13-14a50.34,50.34,0,0,0-16.64-6,41,41,0,0,0-7.25-.84c0-.09,9.08,6.51,13.41,8.92s8.68,5,13.41,6.94,9.65,4.77,10.6,8.52S131.13,811.6,131.1,811.61Z" transform="translate(-0.82)"/><path class="cls-12" d="M131.68,812.18s1.1-3.61,2.67-10.23,3.27-15,4.54-18.43c1.41-3.28,9-16,9-16.63.27-.45.37,15.11-2.33,21.71-3,7.89-7.2,12.74-10.63,20.15s-3.24,7.75-3.21,7.78C131.75,815.08,131.72,813.63,131.68,812.18Z" transform="translate(-0.82)"/><path class="cls-12" d="M127.53,798a39.48,39.48,0,0,0-9.62-10.22c-6.78-5.15-11.19-7.63-15.52-8.48a82.54,82.54,0,0,0-10.71-1.07,80,80,0,0,0,8.87,6c4,2,12.12,5.8,17,8.51s9.68,5.89,11.5,10.09S127.59,798,127.53,798Z" transform="translate(-0.82)"/><path class="cls-12" d="M127.09,795.83a53,53,0,0,1,.57-16.51c1.8-8.31,1.61-12.54,3-15.69s5.28-14.85,5.2-14.92c.27,0,1.56,20.12-.85,27-2.08,6.95-5.9,13-7.24,20.54C127.06,800.12,127.09,795.83,127.09,795.83Z" transform="translate(-0.82)"/><path class="cls-12" d="M122.64,783.06s-5.79-6.51-10.33-9.35A42.15,42.15,0,0,0,96.09,767a82.64,82.64,0,0,0-10.22-1.33s3.51,4.21,10.91,7.54,13.73,5.29,17.07,7,8.08,3.81,9.58,5.69S122.66,783.05,122.64,783.06Z" transform="translate(-0.82)"/><path class="cls-12" d="M119.74,774.27c.15,0-.23-14.76-1.44-20.41-1.34-7.93,2.44-19.49,2.38-20.87.19-1.3,5,16,4.34,22-.1,3.4-2.35,16-3,20.69S120.2,778,119.74,774.27Z" transform="translate(-0.82)"/><path class="cls-12" d="M116.42,769.6a95.65,95.65,0,0,0-9.06-6.84c-4.46-3-13-7.26-16.83-7.43s-10.33.09-10.33.1a21.21,21.21,0,0,0,9.3,6.1c6.24,2.13,11.87,4.1,16.09,5.3s11,4,12.51,6.52S116.46,769.58,116.42,769.6Z" transform="translate(-0.82)"/><path class="cls-12" d="M111.84,760.34a106.72,106.72,0,0,1-3-10.86c-1.15-5.62-2.88-12.32-3.9-16.65s-1.66-11.54-1.69-11.55,6.68,10.42,8.07,16.79c1.67,6.37,1.47,19,2.26,24.65C114.35,767.6,111.88,760.33,111.84,760.34Z" transform="translate(-0.82)"/><path class="cls-12" d="M109.35,758a92.61,92.61,0,0,1-8.77-7.84c-2.9-3.43-10.81-8.19-15.54-8.78s-10.68-1.27-10.68-1.26,5.48,3.34,8.48,5,6.49,3.67,13.49,7.15,14.48,8.26,15.78,9.51S109.37,757.94,109.35,758Z" transform="translate(-0.82)"/><path class="cls-12" d="M108.08,754.4s-1-2.19-3.75-7.69-9-14.47-11.76-16.65c-2.63-2.41-14.87-7.41-15.8-8-.78-.77,8,9.07,10.47,12.11,2.66,2.94,5.13,7,8.27,9.43s12,10.65,12.62,12.47S108.09,754.4,108.08,754.4Z" transform="translate(-0.82)"/><path class="cls-12" d="M59.44,976.65c.23.31,26.18-17.49,39.83-35.08,7.6-8.87,16.64-23.3,22.61-37.24a164.43,164.43,0,0,0,10.48-32.8,153.08,153.08,0,0,0,2.44-30.79A192,192,0,0,0,132,811.65c-.92-11.36-11.82-40.62-19.68-51.67-4.16-6.8-8.89-10.55-9.19-11.12s4.94,7.79,6.55,10.52c1.86,2.58,9.12,15.88,12.33,24,3.61,7.94,7.17,22.3,8.22,28.45,2,5.9,4.91,39.48,0,59.38a161.82,161.82,0,0,1-12.15,35.29c-7.13,15.48-18,30.81-24.35,37.65A123.63,123.63,0,0,1,69.25,965.4C64.52,968.48,59.24,975,59.44,976.65Z" transform="translate(-0.82)"/><g class="cls-5"><path class="cls-13" d="M2,1039.4H276.66c4.71-9.55-1.15-17.67-23.52-22-24.42-4.71-47.75-1.51-66.94,4.33,45.27-28.92,98-69.52,49.86-74.22-15-1.47-38.13,8.13-63.83,23.11,28.66-30.76,44.43-56,27.07-60.74-16.13-4.36-49,20.66-84,53.86,20-27.82,31.49-52.11,22.54-63.57-7.31-9.34-22.91,1.39-40.85,21.27.8-17.48-4.77-28-17.49-25.92-12,2-21.65,22.23-28.57,46.5-9-29.66-26.77-50.24-50.1-52" transform="translate(-0.82)"/><path class="cls-14" d="M66.3,998.59s-32.86,6.06-40.08-9.53-2.63-32-6.57-48.51S6.5,931.89,11.1,906.77s-14.45-56.31,5.26-53.71,15.77,25.12,33.51,25.12S66.3,893.77,66.3,906.77,72.87,918,82.73,923.23,97.84,951,87.33,970,66.3,998.59,66.3,998.59Z" transform="translate(-0.82)"/><path class="cls-14" d="M73.53,1035.84S57.1,905,9.79,853.93" transform="translate(-0.82)"/><path class="cls-14" d="M34.92,869.3s.5,18-.82,21.88" transform="translate(-0.82)"/><path class="cls-14" d="M44.78,877.75s.33,17.76-3.61,29" transform="translate(-0.82)"/><path class="cls-14" d="M56.44,879.92s6.58,31.18-7,52" transform="translate(-0.82)"/><path class="cls-14" d="M69.42,918S68.6,940.34,56,952.1" transform="translate(-0.82)"/><path class="cls-14" d="M60.88,969.57c18.73-23,17.9-47.64,17.9-47.64" transform="translate(-0.82)"/><path class="cls-14" d="M88.81,931.46s1.64,30.31-23.6,54.14" transform="translate(-0.82)"/><path class="cls-14" d="M8,863.89s12.21,19.34,22.29,20.5" transform="translate(-0.82)"/><path class="cls-14" d="M12.64,897.82s14.73,21.73,32.3,19.34" transform="translate(-0.82)"/><path class="cls-14" d="M10.94,913.48s11.83,27.07,41.12,25.92" transform="translate(-0.82)"/><path class="cls-14" d="M20.14,938.39S37.61,953.26,56,948.06" transform="translate(-0.82)"/><path class="cls-14" d="M22.44,957.66S43.3,976.36,60,966.54" transform="translate(-0.82)"/><path class="cls-14" d="M23.26,976.5s18.07,20.14,42.38,12.56" transform="translate(-0.82)"/></g><path class="cls-15" d="M253.74,776.73S176.57,832.1,115,988.07" transform="translate(-0.82)"/><path class="cls-15" d="M177.64,797.08s-55.29,77.19-71.36,172.59" transform="translate(-0.82)"/><path class="cls-15" d="M222.82,873.11s-66.33,21.25-81.39,108.61" transform="translate(-0.82)"/><path class="cls-16" d="M263.74,764.83c12.31,10.35,18.89,22.79,14.69,27.77s-17.57.64-29.88-9.71-18.89-22.78-14.69-27.77S251.43,754.48,263.74,764.83Z" transform="translate(-0.82)"/><path class="cls-17" d="M258.56,771c3.91,3.28,6,7.23,4.66,8.81s-5.58.21-9.48-3.08-6-7.23-4.67-8.82S254.65,767.71,258.56,771Z" transform="translate(-0.82)"/><path class="cls-16" d="M181.8,792.13c5.13,4.31,7.87,9.48,6.12,11.56s-7.31.26-12.44-4-7.86-9.49-6.12-11.57S176.68,787.82,181.8,792.13Z" transform="translate(-0.82)"/><path class="cls-17" d="M179.65,794.69c1.62,1.37,2.49,3,1.94,3.67s-2.32.09-4-1.28-2.5-3-1.94-3.67S178,793.32,179.65,794.69Z" transform="translate(-0.82)"/><path class="cls-16" d="M228,869.5c4.93,7.08,6.59,14.45,3.72,16.45s-9.19-2.13-14.12-9.22-6.59-14.46-3.72-16.45S223.09,862.41,228,869.5Z" transform="translate(-0.82)"/><path class="cls-17" d="M224.47,872c1.57,2.25,2.1,4.59,1.18,5.23s-2.92-.68-4.48-2.93-2.1-4.59-1.18-5.22S222.91,869.71,224.47,872Z" transform="translate(-0.82)"/><path class="cls-12" d="M180.26,955.89s15.74-9.72,26.67-10.13c13.49-.51,21.25,9,23.44,11.18.16.16-3,5.55-8.36,9.64-2.69,2-11.34,6.27-19.64,5s-10.88-2.07-14.13-5.07C185.18,963.66,182.34,956.58,180.26,955.89Z" transform="translate(-0.82)"/><path class="cls-12" d="M193.52,941.52s11.22-9.85,15.26-18.08c4.77-9.73,3-21.78,3-21.78a81.14,81.14,0,0,1-5.55,6.27c-3.1,3-14.23,9.11-16.65,16.46C188,929.1,186.89,933.37,193.52,941.52Z" transform="translate(-0.82)"/><path class="cls-12" d="M154.76,986.64s10.41-3.48,18.75-3,19.55,3.63,27.57,16.86a22.13,22.13,0,0,0-7.36.57c-3.33,1-13.83,5.68-23.52,3.23-5.84-1.48-7.92-3.33-10.47-6.1S156.19,987.43,154.76,986.64Z" transform="translate(-0.82)"/><path class="cls-12" d="M173,957.7a6.61,6.61,0,0,1-.28-4.26c1.63-4.91,3.79-7,3.37-11.07s-3.58-9.9-3.58-9.9-8,6.61-7.44,12.65S166.63,953.5,173,957.7Z" transform="translate(-0.82)"/><path class="cls-12" d="M221,928.51s2.54-5.32,11-7.7,11.62-.85,12-.24-.67,2.29-4.53,5.28c-3.29,2.53-5.83,4.31-10.93,4.55S221,928.51,221,928.51Z" transform="translate(-0.82)"/><path class="cls-12" d="M150.41,987.44A173.81,173.81,0,0,0,139,1008.65a8.85,8.85,0,0,1,1.73.67A172.2,172.2,0,0,1,152,988.43c12.4-19.6,34.87-45.79,71.45-59.19l-.64-1.74C185.72,941.08,163,967.59,150.41,987.44Z" transform="translate(-0.82)"/></g></g></g></svg>