<svg xmlns="http://www.w3.org/2000/svg" xmlns:xlink="http://www.w3.org/1999/xlink" viewBox="0 0 1610.61 928.34"><defs><filter id="e75a6e7c-a2f4-40dc-9770-13c36acb5949" x="982.67" y="-11190" width="282.56" height="32766" filterUnits="userSpaceOnUse" color-interpolation-filters="sRGB"><feFlood flood-color="#fff" result="bg"/><feBlend in="SourceGraphic" in2="bg"/></filter><mask id="ad3fda7b-2dac-422f-ba32-a0ecae1c9a93" x="982.67" y="-11190" width="282.56" height="32766" maskUnits="userSpaceOnUse"><g filter="url(#e75a6e7c-a2f4-40dc-9770-13c36acb5949)"/></mask><linearGradient id="aa4a540b-893a-4f94-a6cf-2cc409334147" x1="1123.94" y1="118.4" x2="1123.94" y2="234.58" gradientUnits="userSpaceOnUse"><stop offset="0" stop-color="#fff"/><stop offset="1"/></linearGradient><filter id="ba1f6236-c1b2-47ab-b83b-65757fd893ad" x="921.06" y="-11190" width="82.86" height="32766" filterUnits="userSpaceOnUse" color-interpolation-filters="sRGB"><feFlood flood-color="#fff" result="bg"/><feBlend in="SourceGraphic" in2="bg"/></filter><mask id="a259ddd8-b8e0-4954-9f45-5cbc0e445596" x="921.06" y="-11190" width="82.86" height="32766" maskUnits="userSpaceOnUse"><g filter="url(#ba1f6236-c1b2-47ab-b83b-65757fd893ad)"/></mask><linearGradient id="a1d340d2-e52c-4664-a6bf-8c9519660d16" x1="5202.95" y1="96.15" x2="5202.95" y2="140.35" gradientTransform="translate(-4240.45 0)" xlink:href="#aa4a540b-893a-4f94-a6cf-2cc409334147"/><filter id="b3b476cf-7a56-4987-8825-3edfe6904f62" x="1330.99" y="-11190" width="77.78" height="32766" filterUnits="userSpaceOnUse" color-interpolation-filters="sRGB"><feFlood flood-color="#fff" result="bg"/><feBlend in="SourceGraphic" in2="bg"/></filter><mask id="b428927f-7568-480a-8222-df561f2c0ceb" x="1330.99" y="-11190" width="77.78" height="32766" maskUnits="userSpaceOnUse"><g filter="url(#b3b476cf-7a56-4987-8825-3edfe6904f62)"/></mask><linearGradient id="e83aca70-f19f-428b-b77d-e146d480228d" x1="-778.9" y1="99.54" x2="-778.9" y2="168.03" gradientTransform="matrix(-1, 0, 0, 1, 590.98, 0)" xlink:href="#aa4a540b-893a-4f94-a6cf-2cc409334147"/><linearGradient id="f6251ddd-0472-40cd-96a2-0e0412ee4a4c" x1="1505.46" y1="488.52" x2="-1875.81" y2="375.17" gradientUnits="userSpaceOnUse"><stop offset="0" stop-color="#fff"/><stop offset="0.98" stop-color="#f4ebbe"/></linearGradient><linearGradient id="a69818c0-7afa-4e4b-be13-06afaa99f415" x1="779.74" y1="927.12" x2="779.74" y2="718.92" gradientUnits="userSpaceOnUse"><stop offset="0.22" stop-color="#f2db7c"/><stop offset="0.57" stop-color="#f4ebbe"/><stop offset="1" stop-color="#fff"/></linearGradient><clipPath id="f26d1091-85cb-4a44-aa14-1358a1630505"><rect x="104.98" y="325.15" width="1349.92" height="486.37" fill="none"/></clipPath><linearGradient id="b4067410-f8b8-4440-bc95-c5c4f22a36eb" x1="805.3" y1="356.72" x2="805.3" y2="780.95" gradientUnits="userSpaceOnUse"><stop offset="0" stop-color="#fff"/><stop offset="0.43" stop-color="#f4ebbe"/><stop offset="1" stop-color="#f2db7c"/></linearGradient><linearGradient id="b1767eb9-8f1a-4f9a-904f-6eb69ebc64e6" x1="388.3" y1="449.33" x2="388.3" y2="905.53" gradientUnits="userSpaceOnUse"><stop offset="0" stop-color="#fff"/><stop offset="0.43" stop-color="#f4ebbe"/><stop offset="0.78" stop-color="#f2db7c"/></linearGradient><linearGradient id="aa99b717-6421-4a90-9a73-d00fcd74bc31" x1="1051.9" y1="449.34" x2="1051.9" y2="905.53" xlink:href="#b1767eb9-8f1a-4f9a-904f-6eb69ebc64e6"/><linearGradient id="af19df03-d916-45fc-83d4-4dacc6428bc5" x1="-11319.57" y1="99.82" x2="-11319.57" y2="887.8" gradientTransform="matrix(-1, 0, 0, 1, -11064.78, 0)" xlink:href="#b1767eb9-8f1a-4f9a-904f-6eb69ebc64e6"/><linearGradient id="affe64e6-8d98-47f4-81be-744e037b7c90" x1="870.4" y1="99.82" x2="870.4" y2="887.8" xlink:href="#b1767eb9-8f1a-4f9a-904f-6eb69ebc64e6"/><filter id="bb7e77e4-d9e3-44d3-a807-8f73b0c438b2" x="982.67" y="95.23" width="282.56" height="88.98" filterUnits="userSpaceOnUse" color-interpolation-filters="sRGB"><feFlood flood-color="#fff" result="bg"/><feBlend in="SourceGraphic" in2="bg"/></filter><mask id="bfdfaf06-f6b6-41d9-bbdd-fb11b776054c" x="982.67" y="95.23" width="282.56" height="88.98" maskUnits="userSpaceOnUse"><g mask="url(#ad3fda7b-2dac-422f-ba32-a0ecae1c9a93)" filter="url(#bb7e77e4-d9e3-44d3-a807-8f73b0c438b2)"><path d="M1265.22,184.21s-4.84-6.53-11.14-6.53-6.15-4.69-9.2-8.07c-8.33-9.23-11.48-1.26-19.23-2s-16.61-14.11-22.9-24.1-12.11-15.36-20.82-16.13-16.47,7.3-24.7,2.3-12.57-16.81-20.93-16c-13.23,1.37-14.91,4.43-21.69-3.26s-7.36-15.76-16.81-15.18c-14,.85-18.41,32.7-27.6,24.78-16.71-14.41-23.25,11.53-31.14,25a80.86,80.86,0,0,1-56.39,39.19Z" fill="url(#aa4a540b-893a-4f94-a6cf-2cc409334147)" style="mix-blend-mode:multiply"/></g></mask><linearGradient id="b80b1905-2493-4b7d-83e3-34a56fa459ff" x1="1123.94" y1="118.4" x2="1123.94" y2="234.58" xlink:href="#f6251ddd-0472-40cd-96a2-0e0412ee4a4c"/><filter id="e17cf7b9-588d-4c1d-9fde-5da82ccf38da" x="921.06" y="99.04" width="82.86" height="22.12" filterUnits="userSpaceOnUse" color-interpolation-filters="sRGB"><feFlood flood-color="#fff" result="bg"/><feBlend in="SourceGraphic" in2="bg"/></filter><mask id="b4202d87-5a87-4ada-a6b4-128da395c362" x="921.06" y="99.04" width="82.86" height="22.12" maskUnits="userSpaceOnUse"><g mask="url(#a259ddd8-b8e0-4954-9f45-5cbc0e445596)" filter="url(#e17cf7b9-588d-4c1d-9fde-5da82ccf38da)"><path d="M921.06,121.16h82.87s-2-10.83-13.13-10.12-12.73-3.27-18.19-7.06c-3.06-2.13-6.09-4.94-13.13-4.94-6.6,0-13.16,4.93-18.18,12C937.44,116.48,934.2,121.16,921.06,121.16Z" fill="url(#a1d340d2-e52c-4664-a6bf-8c9519660d16)" style="mix-blend-mode:multiply"/></g></mask><linearGradient id="b78af9be-f8bf-4db9-8f3b-7004857e03f2" x1="5202.95" y1="96.15" x2="5202.95" y2="140.35" gradientTransform="translate(-4240.45 0)" xlink:href="#f6251ddd-0472-40cd-96a2-0e0412ee4a4c"/><filter id="fe9fd9c5-4f7c-4e40-b6c6-bc572aea624a" x="1330.99" y="107.54" width="77.78" height="33.12" filterUnits="userSpaceOnUse" color-interpolation-filters="sRGB"><feFlood flood-color="#fff" result="bg"/><feBlend in="SourceGraphic" in2="bg"/></filter><mask id="fd4e2996-e0d2-4c26-85c6-380a209bc715" x="1330.99" y="107.54" width="77.78" height="33.12" maskUnits="userSpaceOnUse"><g mask="url(#b428927f-7568-480a-8222-df561f2c0ceb)" filter="url(#fe9fd9c5-4f7c-4e40-b6c6-bc572aea624a)"><path d="M1408.77,140.66H1331s18.72-33.12,32.32-33.12c12.66,0,13.13,23.37,21.21,24.54s6.6-3.52,13.13-3.5C1403.8,128.59,1408.77,140.66,1408.77,140.66Z" fill="url(#e83aca70-f19f-428b-b77d-e146d480228d)" style="mix-blend-mode:multiply"/></g></mask><linearGradient id="a2a74064-ce34-4710-8fc7-3a96b0d1e78c" x1="-778.9" y1="99.54" x2="-778.9" y2="168.03" gradientTransform="matrix(-1, 0, 0, 1, 590.98, 0)" xlink:href="#f6251ddd-0472-40cd-96a2-0e0412ee4a4c"/></defs><title>nature-bg</title><g id="ac5caee0-12d4-4078-8ef2-bcf5ca2a2df1" data-name="Layer 2"><g id="ff2576fb-28a6-49c7-9400-ec85afa06ba5" data-name="Layer 6"><rect x="103.8" width="1350.59" height="928.34" fill="url(#f6251ddd-0472-40cd-96a2-0e0412ee4a4c)"/><rect x="104.95" y="718.92" width="1349.59" height="208.2" fill="url(#a69818c0-7afa-4e4b-be13-06afaa99f415)"/><g clip-path="url(#f26d1091-85cb-4a44-aa14-1358a1630505)"><path d="M0,745.32H1486s216-10.68,79.36-144.6c-55.49-54.41-100.85-48.9-163.7-103s-71.71-91.82-138.85-126.92c-60.73-31.75-115.47,7.28-137.39,48.89s-25.28,43.41-70.16,23.93c-33.71-14.64-52.68-3.92-77.46,32.25-8.72,12.72-24.55,27.81-40.93,13.52-13.45-11.73-48.3-46.57-80.38-7.28-14.11,17.28-140.32,197.66-197.32,206S564,647,539.28,628.81c-56.3-41.4-91.55,41.47-129.17,32.71-65-15.14-123.16-68.88-167.54-100.95-43.19-31.21-109.46-43.34-156.34,82.8C51.45,737,0,745.32,0,745.32Z" fill="url(#b4067410-f8b8-4440-bc95-c5c4f22a36eb)"/><path d="M636.77,745.32H139.82s32.82,0,67.24-47.3c17.14-23.56,52.45-98.53,111.08-98.81,59.49-.29,78.73,81.24,131.54,82,35.38.5,30.26-11.32,59.49-11.32s48.57,28.18,67.67,45C600.16,735.31,616.31,744.27,636.77,745.32Z" fill="url(#b1767eb9-8f1a-4f9a-904f-6eb69ebc64e6)"/><path d="M625.51,745.32s14.62-17.87,33.62-17.87,18.57-12.83,27.77-22.07c25.14-25.25,34.64-3.44,58-5.54s50.13-38.61,69.13-65.94,36.54-42,62.85-44.15,49.69,20,74.54,6.3,37.93-46,63.14-43.64c40,3.75,45,12.11,65.48-8.92s22.22-43.12,50.72-41.54c42.29,2.34,55.59,89.48,83.31,67.8,50.43-39.42,70.16,31.54,94,68.35,52.34,80.88,135.13,102,170.21,107.22Z" fill="url(#aa99b717-6421-4a90-9a73-d00fcd74bc31)"/><path d="M397.67,745.32H111.91s7-48.58,45.28-45.41,43.89-14.68,62.71-31.69c10.56-9.55,21-22.18,45.28-22.18,22.76,0,45.4,22.14,62.71,53.87C341.2,724.32,352.38,745.32,397.67,745.32Z" fill="url(#af19df03-d916-45fc-83d4-4dacc6428bc5)"/><path d="M734.72,745.32h271.37s-65.31-89.77-112.78-89.77c-44.17,0-45.81,63.37-74,66.54s-23-9.55-45.81-9.51C752.05,712.62,734.72,745.32,734.72,745.32Z" fill="url(#affe64e6-8d98-47f4-81be-744e037b7c90)"/></g><g mask="url(#bfdfaf06-f6b6-41d9-bbdd-fb11b776054c)"><path d="M1265.22,184.21s-4.84-6.53-11.14-6.53-6.15-4.69-9.2-8.07c-8.33-9.23-11.48-1.26-19.23-2s-16.61-14.11-22.9-24.1-12.11-15.36-20.82-16.13-16.47,7.3-24.7,2.3-12.57-16.81-20.93-16c-13.23,1.37-14.91,4.43-21.69-3.26s-7.36-15.76-16.81-15.18c-14,.85-18.41,32.7-27.6,24.78-16.71-14.41-23.25,11.53-31.14,25a80.86,80.86,0,0,1-56.39,39.19Z" fill="url(#b80b1905-2493-4b7d-83e3-34a56fa459ff)"/></g><g mask="url(#b4202d87-5a87-4ada-a6b4-128da395c362)"><path d="M921.06,121.16h82.87s-2-10.83-13.13-10.12-12.73-3.27-18.19-7.06c-3.06-2.13-6.09-4.94-13.13-4.94-6.6,0-13.16,4.93-18.18,12C937.44,116.48,934.2,121.16,921.06,121.16Z" fill="url(#b78af9be-f8bf-4db9-8f3b-7004857e03f2)"/></g><g mask="url(#fd4e2996-e0d2-4c26-85c6-380a209bc715)"><path d="M1408.77,140.66H1331s18.72-33.12,32.32-33.12c12.66,0,13.13,23.37,21.21,24.54s6.6-3.52,13.13-3.5C1403.8,128.59,1408.77,140.66,1408.77,140.66Z" fill="url(#a2a74064-ce34-4710-8fc7-3a96b0d1e78c)"/></g></g></g></svg>