<svg xmlns="http://www.w3.org/2000/svg" xmlns:xlink="http://www.w3.org/1999/xlink" viewBox="0 0 1535.02 1156.75"><defs><clipPath id="fd03295f-2a72-4221-afc2-bd6bceabf4a6"><rect x="57.33" y="612.91" width="541.86" height="406.39" fill="none"/></clipPath><clipPath id="a96af564-3b1f-4834-aab0-1f30d394a28c"><rect x="983.25" y="624.54" width="433.98" height="394.76" fill="none"/></clipPath></defs><title>nature-fg</title><g id="bcb7412e-2ad0-469c-b91f-ea3e6541c8e3" data-name="Layer 2"><g id="b3dbc632-4cb3-428f-ab87-17ff803302cf" data-name="Layer 6"><path d="M1417.57,773.56C1162.71,640.9,848,819.06,760.38,822.76c-112.24,4.73-145.07,14.17-204.09,45.81-69.55,37.29-99.34-21.23-207-10-102.48,10.65,139.45,76.68-213.93,95.26-88.08,4.63-189.6,38.06-101.42,64.13H1417.57Z" fill="#c6b739"/><g clip-path="url(#fd03295f-2a72-4221-afc2-bd6bceabf4a6)"><path d="M268.61,996.47c.29.08-6.8-13.73-15.18-17.5-5.61-2.54-15-2.7-15-2.7a24.74,24.74,0,0,0,6.78,7.67C249.78,987.19,265.14,993.48,268.61,996.47Z" fill="#874c87"/><path d="M269.51,993.52s7.37-3.07,14.15-5.17a149.51,149.51,0,0,1,17.06-4.52,61.63,61.63,0,0,1,7.4-1.1c.05,0-9.18,6.77-17.73,8.95S271.82,994.4,269.51,993.52Z" fill="#874c87"/><path d="M274.05,979.34c.22.09-11.32-13.15-17.95-16.24-7.64-3.55-20.88-5-23.53-5.58,0,0,8.39,6,15.87,10.92S268.3,979.85,274.05,979.34Z" fill="#874c87"/><path d="M275.63,977.87s1.78-1.15,6.17-3.68,16.61-9.41,21.63-11.2,15.58-3.53,19.23-4c1.4-.2-7.56,5.15-13.57,8.26-4.5,2.34-11.22,5.88-16.11,7.14-2.27.57-12.93,2.28-16.77,5.48S275.65,977.87,275.63,977.87Z" fill="#874c87"/><path d="M276.3,968.49c.15,0-7.22-11.67-12.91-15.59a69.9,69.9,0,0,0-19.59-9.61c-7.43-2.18-14-4.16-14-4.16s7.15,7.2,13.19,11.22,11.26,8.22,18.4,11.19S276.31,968.49,276.3,968.49Z" fill="#874c87"/><path d="M277.6,964.52c1.16-2.15,2.59-4.18,7.94-7.07s16.87-10.59,24.31-12.7,18.22-5.32,18.68-5.61-11.88,10.25-20.64,14.16c-7.23,3.21-15.31,5.79-20.08,7.35s-9.31,3.74-11,6.14A14.31,14.31,0,0,1,277.6,964.52Z" fill="#874c87"/><path d="M276.89,951.6s-2.39-5.07-10.38-11.28-15.61-11.83-19.85-14.15-14.26-5.34-15.56-6.06,6.26,8,8.89,10.27a70.37,70.37,0,0,0,16.17,9.87C264,943.78,274.55,949.74,276.89,951.6Z" fill="#874c87"/><path d="M277.33,950.5c2.25-2.24,8.34-5.86,11.87-8.08s7.45-3,19.4-11.86a74,74,0,0,0,15.84-15.51s-2.2.9-10,3.44-16.21,10.63-24,17a76.73,76.73,0,0,0-12.07,12.08C278,948.51,277.68,949.5,277.33,950.5Z" fill="#874c87"/><path d="M278.27,936.82c.11,0-11.85-12.68-18.9-18.66s-12-10.93-21.45-12.53a78.44,78.44,0,0,1-14.37-3.51s9.34,7.7,17.08,12.69,18,11.63,21.7,13.37S276.65,937.57,278.27,936.82Z" fill="#874c87"/><path d="M275.56,928c1.91-3.25,4.25-6.17,10.1-11.56,5.53-5.11,12-10.78,16-12.84s17-8.53,17.35-8.63-5.74,10.11-11.44,14.27-10.27,8.25-19.1,11.94-12.35,7.69-13.2,11S275.12,928.78,275.56,928Z" fill="#874c87"/><path d="M272.85,918.52s-5.72-6.19-11.19-8.21-18.26-10.24-22.24-13.37-20.86-15.41-21.94-16.72,7.23,3.22,13.88,5.1,16.18,8.06,22.86,13.36,17.44,15.56,18.53,17.17A2,2,0,0,1,272.85,918.52Z" fill="#874c87"/><path d="M272.19,910.93s4.59-5.89,9-10.56,13-11,15.06-13,14.53-8.75,14.64-9.22-3.86,8.68-10.52,15.36a72.77,72.77,0,0,1-18.2,13.33c-5.86,3.22-8.93,6.18-9.33,8.23S272.21,910.93,272.19,910.93Z" fill="#874c87"/><path d="M265.71,892.47s-12.25-11.14-18.66-15.63-13.34-10.22-19.3-13.29-15-7.85-15.05-7.87,9.33,10.1,16.41,15.87,14.9,12,23.31,16.76a120.33,120.33,0,0,0,15.51,7.41Z" fill="#874c87"/><path d="M267.47,891.16s7.69-10.53,12.29-15.11S292.81,864.89,296.9,863a65,65,0,0,0,7.44-4.22c0-.08-10.38,15.67-17.14,20.34-6.82,4.49-18.44,13.69-19,18.51S267.51,891.16,267.47,891.16Z" fill="#874c87"/><path d="M259.79,873.89s-13-12.81-17.58-16.93-13.73-10.09-19.12-12.19-17.91-7.73-20-9.76,6.51,8.77,14.41,14.18,19.25,12.5,28.16,18,13.15,7.26,15.93,12S259.8,873.9,259.79,873.89Z" fill="#874c87"/><path d="M260.69,872s3.77-6.75,7.67-10.78S279,852.66,282,850.23s15.5-8.49,15.92-9.32S291.48,853,283.48,858.8s-14.44,8.77-17.15,11.38a48.1,48.1,0,0,0-5,5.82C261.14,874.66,260.92,873.31,260.69,872Z" fill="#874c87"/><path d="M251.47,852.62s-10.88-10.8-19.69-17-21.75-10.9-26.42-12.84a40.92,40.92,0,0,0-7.38-2.42,195,195,0,0,0,15.39,12.71c8.31,6.15,19.65,11.26,24.81,13.45s13.74,7.86,15,9.73S251.47,852.62,251.47,852.62Z" fill="#874c87"/><path d="M253.56,853.55s4.46-9.35,10-13.86,10.37-9.05,13.64-10.73,11-7.07,11-7.05-3.38,8.51-9.5,14.56C274,840.9,259,850.31,255.3,855,252.35,858.73,253.56,853.55,253.56,853.55Z" fill="#874c87"/><path d="M245.07,836.07s-9.11-12.7-20.49-20.14a130,130,0,0,0-25-12.24,64,64,0,0,1-11.9-5.21s6.19,7.27,11.45,11,14.36,9.64,22.05,14,22.62,11,25.16,15.5S245.07,836.07,245.07,836.07Z" fill="#874c87"/><path d="M244.45,833.62s2.58-4.14,5.23-7.93,8.21-11.49,13-14.32,17.75-10.43,18.23-11.1c.3-.75-5.92,11.31-10.73,16.41-5,5-15.93,12.26-20.78,16.09S243.64,835.11,244.45,833.62Z" fill="#874c87"/><path d="M238.08,817.24c-.06,0-13.62-15.72-21.1-21.44a161.63,161.63,0,0,0-25-15.25c-8.45-4.12-10.94-4.89-10.94-4.88s12.59,13.68,19.46,18.49,13.56,9.92,21.18,14,15.7,8.84,17.89,13.49S238.06,817.25,238.08,817.24Z" fill="#874c87"/><path d="M239.08,818.09s1-4,3.31-11,6-15.14,8.82-18.05c2.59-3,18.29-11.22,18.8-11.48.2-.38-4.81,13.93-9.3,19.64-5.6,6.73-12.18,10.42-16.88,17.83s-3.81,8.22-3.83,8.2Q239.52,820.67,239.08,818.09Z" fill="#874c87"/><path d="M231.7,800.07s-4.39-6.83-13.65-16.26-14.69-15.1-20.78-18.71-15.24-8-15.24-8,5.27,8.33,10.56,13.25,16.76,13.89,23.94,19.28S231,800.72,234,806.26,231.65,800.08,231.7,800.07Z" fill="#874c87"/><path d="M231.13,797.34s-1.36-10.26,4-18.23,7.42-12.06,11-14.33,16.38-10.3,16.5-10.25c-.42-.07-10.35,18.54-15.24,24.62-5.4,5.94-12.62,10.73-15.25,18.92C230.87,802.31,231.13,797.34,231.13,797.34Z" fill="#874c87"/><path d="M226.45,780.66s-6.88-10.31-12-16.32S204,752.4,195.2,745.93s-12.84-9.15-12.85-9.14,1.11,8.07,9.83,17.14,17.48,14.93,21.87,18.74,11,8.71,12.9,11.55S226.43,780.66,226.45,780.66Z" fill="#874c87"/><path d="M225.14,769.32c-.24-.05,6.71-15.92,9.93-21.87,4-8.74,20.19-15.42,21.55-16.39.9-1.07-9.12,16.6-13.19,22-2.78,2.89-13.06,14.15-15.51,19.1C225.31,777,224.28,773.72,225.14,769.32Z" fill="#874c87"/><path d="M222.46,762.27s-4.59-7-8.74-13.27S202,731.7,197.63,728.39,185,720,185,720s-.7,7.33,5.65,14.67a143.87,143.87,0,0,0,17.93,17.66c5.15,4.19,13.37,11.45,14.57,15.08S222.41,762.27,222.46,762.27Z" fill="#874c87"/><path d="M221.58,749.49a44.45,44.45,0,0,1,4.65-13,101,101,0,0,1,12.58-17.9c3.89-4.4,12.69-10.32,12.75-10.31-.22,0-6.86,13.2-11.25,19.78-5,6.49-15.68,18.38-17.9,25.07C220.37,758.79,221.51,749.49,221.58,749.49Z" fill="#874c87"/><path d="M219.89,745.32s-4.34-8.8-4.71-14.45c-.58-5.64-4.18-16.78-8.1-21.61-4.08-4.8-8.85-11-8.83-11s.44,8.47,1.73,12.84a69.3,69.3,0,0,0,7.83,18.66c5.25,9.17,12.08,19.3,13.14,21.46S219.83,745.32,219.89,745.32Z" fill="#874c87"/><path d="M221,740.78a68,68,0,0,1,2.13-10.35c1.75-7.37,5.7-20.4,6.35-24.61.11-4.18-2.09-19.49-1.24-20.9.2-1.41-8.62,14.71-9.52,19.7-1.45,5-3.81,10.87-2.88,15.81.63,5,4,19.83,3.85,22.11C219.35,744.84,221,740.78,221,740.78Z" fill="#874c87"/><path d="M252,1025.23c1,.08,23.22-29.46,26-52.29,6.64-23.6-5.64-71.46-10.82-84.61-4.19-12.75-24.36-59.28-27.6-70.77-5.19-13.45-16.59-51.47-17-68.09-1-9.81-3-17.05-2.93-17.86s-.85,11.46-.26,15.43c.07,4,2.71,22.87,6.1,33.67,2.85,10.81,8.38,28.94,11.34,36.55,2.3,7.66,18.93,48,27,71,1.46,5.28,7.37,23.36,9.7,42.19,2.73,18.89,1.88,38.52-1.17,48.16a90.38,90.38,0,0,1-16.44,32.92C251.43,1017.28,249.78,1024.81,252,1025.23Z" fill="#874c87"/><path d="M218.37,1056.34c1.91-3.83,12.5-33.13,34.92-45.7,17.57-9.85,14.86-14.93,8-21s-20.64-3.37-16.39-14c13.89-34.85,18.62-51.35-2.9-50-13.84.85-9.48-18.69-3.86-26.4,11.93-16.37,12.55-32.83-2.29-30.09-14.59,2.68-23.47-1.46-21-10s15.12-20.84-.61-27.87c-6.21-2.77-21.2,5.52-25.22,19-2.29,7.68-2.76,33.13-17.59,19.22-15.27-14.34-20.4,2-15.34,12.3,1.89,3.86,16.58,40.94,4.25,36.33-14.54-5.45-20.23,6.79-8.28,22.65,5.42,7.2,22,19.25,15.42,23.43s-14.28,12.11-5.79,23C176.41,1005.92,222.32,1048.39,218.37,1056.34Z" fill="#0c1153"/><path d="M205.18,839.56s-22.68,52.39-8.08,116,23.78,89,22.84,129" fill="none" stroke="#eaa060" stroke-miterlimit="10" stroke-width="0.81"/><path d="M226.09,884.47S199,899.93,192.34,920.84" fill="none" stroke="#eaa060" stroke-miterlimit="10" stroke-width="0.81"/><path d="M163.89,877.14s22.21,21,28.79,48.85" fill="none" stroke="#eaa060" stroke-miterlimit="10" stroke-width="0.81"/><path d="M246.21,934.93s.5,8.58-43.26,44.53" fill="none" stroke="#eaa060" stroke-miterlimit="10" stroke-width="0.81"/><path d="M152.08,925.06s39.49,26.18,46.15,35.52" fill="none" stroke="#eaa060" stroke-miterlimit="10" stroke-width="0.81"/><path d="M166.26,977.77s34.64,17.53,45.47,39.57" fill="none" stroke="#eaa060" stroke-miterlimit="10" stroke-width="0.81"/><path d="M329.32,996l23.51,2.73a349.19,349.19,0,0,0,27-57.92,163.86,163.86,0,0,0-47.05-16c-82.86-14.74-180.14,108.86-142.55,219.77,37.4-9,83-40.74,123.81-90.12A415.59,415.59,0,0,0,342.91,1015Z" fill="#f6e19a"/><path d="M379.83,940.78s-153.17,31.76-189.6,203.78" fill="none" stroke="#eaa060" stroke-miterlimit="10" stroke-width="1.5"/><line x1="344.73" y1="927.32" x2="333.18" y2="958.35" fill="none" stroke="#eaa060" stroke-miterlimit="10" stroke-width="1.5"/><line x1="316.98" y1="924.1" x2="302.56" y2="975.46" fill="none" stroke="#eaa060" stroke-miterlimit="10" stroke-width="1.5"/><line x1="287.98" y1="929.68" x2="273.89" y2="997.24" fill="none" stroke="#eaa060" stroke-miterlimit="10" stroke-width="1.5"/><line x1="254.69" y1="947.61" x2="249.88" y2="1021.73" fill="none" stroke="#eaa060" stroke-miterlimit="10" stroke-width="1.5"/><line x1="228.33" y1="972.75" x2="231.58" y2="1044.9" fill="none" stroke="#eaa060" stroke-miterlimit="10" stroke-width="1.5"/><line x1="203.42" y1="1009.38" x2="212.43" y2="1078.87" fill="none" stroke="#eaa060" stroke-miterlimit="10" stroke-width="1.5"/><line x1="187.15" y1="1052.03" x2="198.7" y2="1113.17" fill="none" stroke="#eaa060" stroke-miterlimit="10" stroke-width="1.5"/><line x1="366.09" y1="973.09" x2="333.89" y2="957.33" fill="none" stroke="#eaa060" stroke-miterlimit="10" stroke-width="1.5"/><line x1="302.56" y1="975.46" x2="354.44" y2="995.93" fill="none" stroke="#eaa060" stroke-miterlimit="10" stroke-width="1.5"/><line x1="273.89" y1="997.24" x2="334.29" y2="1027.3" fill="none" stroke="#eaa060" stroke-miterlimit="10" stroke-width="1.5"/><line x1="249.88" y1="1021.73" x2="311.55" y2="1057.62" fill="none" stroke="#eaa060" stroke-miterlimit="10" stroke-width="1.5"/><line x1="231.58" y1="1044.9" x2="289.24" y2="1081.73" fill="none" stroke="#eaa060" stroke-miterlimit="10" stroke-width="1.5"/><line x1="212.43" y1="1078.87" x2="261.05" y2="1107.08" fill="none" stroke="#eaa060" stroke-miterlimit="10" stroke-width="1.5"/><line x1="198.7" y1="1113.17" x2="230.86" y2="1127.2" fill="none" stroke="#eaa060" stroke-miterlimit="10" stroke-width="1.5"/><path d="M380.1,936.16s-17.49-17.47-31.58-21.36c-17.4-4.8-30.4,5.13-33.94,7.34-.26.17,2.2,8.15,7.93,15.12,2.87,3.48,12.83,11.63,24,12.51s14.79.65,19.94-2.27C371.31,944.75,377.17,936.42,380.1,936.16Z" fill="#0c1153"/><path d="M367.26,913.4s-11.57-16.26-14.3-28.21c-3.22-14.13,2.8-29.24,2.8-29.24a106.53,106.53,0,0,0,5.3,9.84c3.12,4.84,15.72,16.23,16.61,26.53C378.24,898.92,378.39,904.84,367.26,913.4Z" fill="#0c1153"/><path d="M403.85,984s-12.48-7.73-23.47-9.7-26.54-1.27-41.05,13.48a29.27,29.27,0,0,1,9.4,3c4,2.29,16.25,11.62,29.62,11.41,8-.13,11.32-1.89,15.5-4.72S401.74,984.58,403.85,984Z" fill="#0c1153"/><path d="M389,940.75a8.81,8.81,0,0,0,1.68-5.46c-.62-6.89-2.78-10.27-1-15.43s7.69-11.8,7.69-11.8,8.42,11.08,5.8,18.75C400.58,934.31,398.57,937.24,389,940.75Z" fill="#0c1153"/><path d="M409.23,982.67s1.37-10,3.23-19,8.28-17.44,12.69-19.69a14.84,14.84,0,0,1,8-1.8,34.51,34.51,0,0,0-1.44,9.07c0,3.14,1.72,17-1.75,22.36C421.59,986.52,409.23,982.67,409.23,982.67Z" fill="#0c1153"/><path d="M335.52,888.05s-1.66-7.72-11.9-13.39-14.86-4.67-15.59-4,.16,3.2,4.28,8.27c3.49,4.3,6.25,7.41,12.82,9.27S335.52,888.05,335.52,888.05Z" fill="#0c1153"/><path d="M421,1044.43c0-.25-.7-25.91-11.79-58.06-10.25-29.68-31.71-71.15-75.77-100.2l-1.36,2.08c43.47,28.65,64.67,69.61,74.78,98.93,11,31.78,11.66,57.06,11.67,57.31Z" fill="#0c1153"/><path d="M469.5,990s20.17-14.3,34.7-15.79c18-1.82,29.12,10.15,32.23,12.92.23.21-3.52,7.67-10.34,13.58-3.4,3-14.59,9.32-25.76,8.31s-14.7-1.83-19.29-5.57C476.73,1000,472.34,990.77,469.5,990Z" fill="#0c1153"/><path d="M486,969.72s14.13-14.08,18.82-25.42c5.54-13.38,2.13-29.3,2.13-29.3a107.08,107.08,0,0,1-6.87,8.83c-3.88,4.25-18.22,13.37-20.82,23.38C477.57,953.62,476.43,959.43,486,969.72Z" fill="#0c1153"/><path d="M438.09,1033.22s13.6-5.54,24.75-5.65,26.39,3.19,38.23,20.16a29.51,29.51,0,0,0-9.78,1.38c-4.36,1.58-18,8.75-31.11,6.31-7.91-1.47-10.85-3.76-14.49-7.25S440.06,1034.14,438.09,1033.22Z" fill="#0c1153"/><path d="M460,993.06a8.82,8.82,0,0,1-.73-5.66c1.76-6.69,4.46-9.66,3.55-15s-5.62-12.92-5.62-12.92S447,968.94,448.34,977C449.62,984.77,451.11,988,460,993.06Z" fill="#0c1153"/><path d="M521.49,950s2.93-7.32,14-11.2,15.43-2.12,16-1.36-.69,3.12-5.6,7.44c-4.16,3.65-7.41,6.25-14.19,7S521.49,950,521.49,950Z" fill="#0c1153"/><path d="M432.36,1034.65a231.51,231.51,0,0,0-13.43,29.26,13,13,0,0,1,2.36.75,230,230,0,0,1,13.25-28.82c14.88-27.21,42.62-64.06,90.28-85l-1-2.27C475.53,969.8,447.42,1007.1,432.36,1034.65Z" fill="#0c1153"/><path d="M449.37,911.35c-.39-.58-.81-1.13-1.22-1.68l.92,0c8.23-.56,14.65-4.5,14.35-8.79s-7.19-7.32-15.4-6.75c-.71,0-1.4.12-2.07.22.14-.27.3-.55.43-.83,3.62-7.39,3.43-14.92-.44-16.82s-9.93,2.57-13.56,10c-.3.63-.58,1.27-.83,1.9-.17-.26-.33-.53-.51-.79-4.59-6.83-11.21-10.43-14.78-8s-2.74,9.89,1.85,16.73c.39.58.81,1.13,1.22,1.67l-.92,0c-8.22.56-14.64,4.5-14.35,8.79s7.19,7.32,15.4,6.76c.71-.05,1.39-.13,2.07-.23-.14.28-.29.55-.42.84-3.63,7.39-3.43,14.92.43,16.81s9.94-2.57,13.56-10c.31-.63.58-1.26.83-1.9.17.27.33.54.51.79,4.59,6.84,11.21,10.44,14.78,8S454,918.18,449.37,911.35Zm-19.18-.22a8.06,8.06,0,1,1,10.8-3.69A8.07,8.07,0,0,1,430.19,911.13Z" fill="#fff"/><path d="M185,981.66c.21-5.63-3.47-11.28-9.54-13.8-.15-.07-.33-.12-.49-.19,4.23-5,4.94-11.66,2.2-16.55-5.28-2-11.79-.19-16.07,4.8l-.32.41c-3.43-5.56-9.57-8.3-15.07-7.21-3.48,4.42-3.83,11.16-.4,16.77.09.15.2.29.29.44-6.35,1.54-10.84,6.53-11.51,12.1,3.13,4.68,9.43,7.08,15.83,5.56l.49-.14c-.48,6.51,2.87,12.33,7.95,14.69,5.43-1.53,9.67-6.79,10.19-13.34,0-.17,0-.33,0-.52C174.64,987.16,181.21,985.76,185,981.66Zm-28.51-5.9a5.32,5.32,0,1,1,7.5-.59A5.31,5.31,0,0,1,156.51,975.76Z" fill="#fff"/><path d="M445.54,999.29a5.74,5.74,0,0,0-3.68-5.85,5.8,5.8,0,0,0-2.83-7.07,5.71,5.71,0,0,0-6.69,1.69,5.78,5.78,0,0,0-7.6.51,5.7,5.7,0,0,0-.47,6.88,5.8,5.8,0,0,0-1.87,7.38,5.68,5.68,0,0,0,6.4,2.57,5.82,5.82,0,0,0,6.46,4.06,5.69,5.69,0,0,0,4.42-5.29A5.81,5.81,0,0,0,445.54,999.29Zm-12.21-2a.15.15,0,0,1,.06,0l.07,0,0,.05a.14.14,0,0,1-.09,0A.19.19,0,0,0,433.33,997.29Z" fill="#fff"/></g><path d="M695.46,625.4s5.76-17.64,6.17-20.29,17.94-9,12.26-20.38c-3.08-6.2-20.77-36.31-35-35-12.41,1.13-32.63,7.57-31.06,23.78s17.37,24.26,23.06,29.22c4.05,3.53,5.11,25.6-2,30C666,634.53,695.46,625.4,695.46,625.4Z" fill="#e2c59c"/><path d="M685.89,571.73c-.21,1.73,6.51,21.15,3,27-6,10-9.76,13.12-15,14-6,1-17.17-5-22.2-7.72s-1.62-2.82-8.74-5c-16.15-5-12.12-27.54-10.44-31.24s7.75-8.4,13.47-6.05S690.89,530.73,685.89,571.73Z" fill="#163f59"/><path d="M656.89,576.73s2,32.07-7.26,24.32-16.34-5.55-17.35-13.39-4.71-10.38-1.62-11.28-5.32-17.3,2.33-27.8,4.18-5.1,5.78-2.73c1.82,2.69,6.89-7.05,9.48-11.3,3.33-5.46,24.13-10.68,22.67-2s6.65-3.75,8.64.84,6.24-1.18,6.82-5.36,12.09,11.31,4.19,29.77S662.33,577.2,656.89,576.73Z" fill="#163f59"/><path d="M680.89,578.73s8-4,10,1l2,5,2-6s-13-18-13-23S679.89,574.73,680.89,578.73Z" fill="#163f59"/><path d="M917.09,117.32s-17.13-3-27.55,4,1.35,9.07-3.69,14.11-1,12.09-7.73,15.45-.67,5.71,5.38,5.37,1.68,3.36-1,9.41,5.38,10.07,4.37,16.12,4.7,16.12,14.44,13.44,66.51,10.07,59.79-43.67C958.63,131.94,932.54,98.17,917.09,117.32Z" fill="#6e3a2e"/><path d="M885.51,198.61s-6,6-5.71,14.44-6.71,25.86-7.72,32.92,8.39,24.85,11.42,17.46S906.67,201.63,885.51,198.61Z" fill="#e2c59c"/><path d="M876.78,274.18s-7.73-3-12.43-7.73S851.92,255.71,850.58,252s-3-6.38-1-7.39,4.71-1,9.07,1.35,8.4.67,10.41,0a3,3,0,0,1,4,3.69c-.68,3,.67,7.73,2.35,8.06S886.19,258.73,876.78,274.18Z" fill="#7dccd0"/><path d="M1014.16,203.31s7.05,19.48,7.39,25.19-3,10.08-5.37,4.7-15.46-22.17-12.1-26.53S1014.16,203.31,1014.16,203.31Z" fill="#e2c59c"/><path d="M988.63,182.48s21.5,11.42,24.86,16.8,2.68,13.43-2.69,20.49-16.12-10.08-26.2-9.75-71.54-4.7-80.61,6.39-10.42,25.19-14.11,17.13-1.68-30.23-5-32.25,2.35-8.39,7.06-10.07,7.05-7.06,27.87-11.43S984.94,178.79,988.63,182.48Z" fill="#163f59"/><path d="M623.85,697.74s-7.72,20.83-10.41,29.23-5.71,12.76-8.73,15.78.67,5,1.34,8.06a63.44,63.44,0,0,0,2,6.72s1.34-4.7,3-6.72,6.38-2.68,7-6.71a57.22,57.22,0,0,1,7.06-20.16c5-8.73,14.78-18.81,11.42-24.85S623.85,697.74,623.85,697.74Z" fill="#e2c59c"/><path d="M711.94,824.37s1.26,19.4,0,27.72-4.53,36.52-5.54,42.32-16.88,5.29-14.87-2-1-19.65-2.26-29.72-2.77-30.74.25-39.81S711.94,824.37,711.94,824.37Z" fill="#e9d6b8"/><path d="M673.3,821.35l-22.58-.5a73.66,73.66,0,0,0,1.62,15.62c1.88,9.82,8.33,32.75,8.6,41.31s-6.72,17.13,0,14.61,12.36,3.28,11.55.25-.54-26.2,1.08-36.78S675.45,825.89,673.3,821.35Z" fill="#e9d6b8"/><polygon points="722.27 762.24 721.26 815.98 722.94 827.73 684.65 828.74 680.95 791.46 678.6 776.68 662.48 764.59 722.27 762.24" fill="#7e5388"/><polygon points="722.94 821.69 684.31 823.37 684.65 828.74 722.61 829.08 722.94 821.69" fill="#703c7a"/><path d="M666.2,764.44l56.07-2.21,0,.95c-1.7,5.62-5.35,16-9.72,18.2-6,3-10.75,0-14.78,10.75s-4.7,23.18-8.73,14.44c-3.49-7.54-2.48-17.08-9.7-25.38l-.72-4.51-11.12-8.35A14.05,14.05,0,0,1,666.2,764.44Z" fill="#703c7a"/><path d="M706.21,771.75c-10,1.51-17.72,0-24.37,5.35a33.25,33.25,0,0,0-3.4,3.2l-.36-2.46-11.26-9a15.73,15.73,0,0,1-1.29-4.2l56.74-2.39,0,.48C719.44,765.5,713.41,770.67,706.21,771.75Z" fill="#452647"/><path d="M646.69,764.59,643.33,821h35.95l3-34.26s-8.73-21.84-10.08-21.84S646.69,764.59,646.69,764.59Z" fill="#703c7a"/><polygon points="679.95 817.99 642.66 818.66 643 823.03 679.61 823.37 679.95 817.99" fill="#452647"/><path d="M664.16,778c-4.59-1.69-13.33-4.76-17.89-6.36l.42-7.07s24.19.33,25.53.33,10.08,21.84,10.08,21.84l-.22,2.42c-1.86,10.29-5.16,21.21-5.16,20.08,0-1.34-3-11.42-4.7-15.11s-2.69-6,2-5.38S670.54,780.37,664.16,778Z" fill="#452647"/><path d="M963.86,938.24s.76,4.54.5,5.8a20.52,20.52,0,0,0,0,4l-29.72-.51a11.86,11.86,0,0,1,0-7C935.9,937.23,963.36,936.48,963.86,938.24Z" fill="#e2c59c"/><path d="M909.45,882.32s2.51,8.56-1.26,11.33-17.64,5-21.92,4.54S869.39,881.06,867.88,877s-3.28-16.88-.76-19.15,4.79-2.27,7.56-1.51S907.18,878,909.45,882.32Z" fill="#e9d6b8"/><path d="M824,465s5.71,3,4,21.16c-.68,7.43,1,16.46,1,18.81s-2.69,3.7-4,.67-.75-15.53-5-14.78-14.1,8.74-13.77,5S823.71,460.6,824,465Z" fill="#e2c59c"/><path d="M949.33,477.06l-4,191.46-9.4,33.59-1.35,210.27-1.34,11.42s5.38-3.36,14.78-.67l18.81,5.37L970.16,776s8.06-94,12.09-108.83S1001.73,485.8,997,457.58,951.35,470.34,949.33,477.06Z" fill="#194866"/><path d="M990.31,460.27s-25.31,23.62-41,27.54c-5.37,1.35-29.56,165.93-29.56,165.93l-9.4,191.46s2,18.14-.67,16.13,3.17,13.35,3.36,16.12c.67,10.08-25.89,14.75-30.23,8.73-8.74-12.09-3.36-24.18-2.69-55.76s2.69-161.23,2.69-155.18.67-18.14,1.34-22.84,3.36-122.27,10.08-157.2,2.68-57.77,9.4-60.46S989.64,457.58,990.31,460.27Z" fill="#163f59"/><path d="M988.3,262.09s9.07,70.54,20.15,80.61,18.14-3,22.17-9.07,9.07-25.19-9.07-77.59S988.3,259.07,988.3,262.09Z" fill="#e9d6b8"/><path d="M1007.78,254.7s5.37,26.2,4.7,45.68c-.35,10.28-1.42,35.43-7.22,37.73-6.4-12.45-11.81-42.12-14.7-60.5C993.35,261.71,989.79,246.32,1007.78,254.7Z" fill="#e2c59c"/><path d="M916.42,298.37s-20.83,52.39-26.88,71.54-13,36.16-30.23,53.41c-20.15,20.15-43,56.43-53.07,62.47s32.91-71.17,34.93-83.63,8.74-21.35,20.83-44.68c9.41-18.13,19.48-87.33,19.48-87.33Z" fill="#e9d6b8"/><path d="M876.87,298.3c.5-2.81,1-5.52,1.4-8.07a77.46,77.46,0,0,1,19.26-7.12l18.15,14.66c0,.92-.08,1.87-.16,2.85-2.95,7.47-12.64,32.09-19.71,51.35-.86-9.09-2.35-20.07-4.92-28.75C886.37,308,884.21,300.36,876.87,298.3Z" fill="#e2c59c"/><path d="M990.31,280.23s12.09-15.12,30.23-13.1,5-6.05,0-21.16-17.13-50.39-39.3-48.37S990.31,280.23,990.31,280.23Z" fill="#703c7a"/><path d="M908.69,202.64S890.55,213.72,880.47,251s-9.06,31.23-9.06,31.23,29.22,20.16,39.29,25.19S910.7,209.69,908.69,202.64Z" fill="#703c7a"/><path d="M989.3,198.61s5,32.24,10.08,102.78-3,167.27-3,167.27-21.16-6-37.29-5-45.34,12.09-56.43,1-7-56.43-3-90.69,6-154.17,2-165.26S961.09,187.52,989.3,198.61Z" fill="#7e5388"/><path d="M798.85,505.44l6,12.35,4.53,1L821,510.73s.25-3.27-4.28-2.77a20.88,20.88,0,0,0-8.06,2.77l-4.54-10.58Z" fill="#e2c59c"/><path d="M806.91,517l4.79,4.79,15.62-.76s-.5-3.27-3.53-4S806.91,517,806.91,517Z" fill="#e2c59c"/><path d="M807.59,473.7s-6.18,20.71-7.39,24.19-6.39,6.88-7.39,10.41,0,16.29-.51,18.81,4.54-1.28,4.54-15.62c0-2.18,4.28-4.79,13.35-14.86s10.33-17.89,9.82-27S807.59,473.7,807.59,473.7Z" fill="#e9d6b8"/><path d="M886.27,898.19c-8.78-.93-16.88-17.13-18.39-21.16A43.72,43.72,0,0,1,866,867.3c2.42,9,11.22,25.87,20.23,26.86,18.39,2,21.92-4.54,23.9-7.93.26,2.64.09,5.9-2,7.42C904.41,896.42,895.84,899.19,886.27,898.19Z" fill="#e2c59c"/><path d="M964.36,926.4s1,7.31.76,10.08-.5,5.79-10.58,5.29a145.43,145.43,0,0,0-18.9,0c-3.27.25-4.28-17.13,0-23.43S964.11,924.64,964.36,926.4Z" fill="#e9d6b8"/><path d="M793.81,511.66s-9.07,9.07-10.07,12.76S769,559,768.62,561s-7.73,11.41-10.41,16.45S745.45,591.94,736,598.32s-1.68,16.79-1.68,16.79,32.58-21.49,39.3-30.9,14.44-42.32,15.12-45.68,5.71,0,7.05-4.37,3.36-12.76,3.36-12.76S795.83,512.67,793.81,511.66Z" fill="#e2c59c"/><path d="M704.47,617.13s33.25-23.18,34.59-25.87,11.09,14.45,12.77,21.16,3.69,15.79-1,18.14-32.25,17.13-37,25.87S704.47,617.13,704.47,617.13Z" fill="#d1dbea"/><path d="M658.45,627.21c-.5-2-12.43,1.67-20.83,14.44s-16.12,57.77-16.12,57.77,4,5.38,8.06,6.05,17.47-2.69,21.83-1S658.78,628.55,658.45,627.21Z" fill="#d1dbea"/><path d="M674.57,621.83s28.89-6.72,32.58-7.72,13.1,27.54,12.77,51-3.7,35.94,2.35,56.1,2.68,44,2.68,44-33.92,8.39-59.45,5-25.19-1.68-27.21-1.68,13.78-50,10.75-87.67,2.69-52.74,9.07-55.09S674.57,621.83,674.57,621.83Z" fill="#aebddc"/><path d="M704.13,890.38s-11.08-7.31-14.61-2.27A31.38,31.38,0,0,0,685,899.7s5.55,13.1,7.56,14.61,17.89,3.78,17.89,3.78S719.25,907,717,904.23a7.52,7.52,0,0,0-6.05-3C709.67,901.21,705.64,891.64,704.13,890.38Z" fill="#d1dbea"/><path d="M698.84,900.2c1.51,3,10.08,15.37,11.59,15.12,1.15-.2,6-7.81,6-11.67.18.19.36.37.54.58,2.27,2.77-6.55,13.86-6.55,13.86s-15.87-2.27-17.89-3.78S685,899.7,685,899.7C688.26,889.62,697.33,897.18,698.84,900.2Z" fill="#aebddc"/><path d="M672.14,894.91s-4.29-6.3-7.81-5.79c-4,.56-6.3,1.26-7.31,5.29a20,20,0,0,0,0,8.31l16.12.25s3.78-7.55,2.78-10.58-3.53-4-3.78-3.27A42.62,42.62,0,0,0,672.14,894.91Z" fill="#aebddc"/><path d="M664.33,889.12c2.34-.34,7,4.28,6.55,8.06-.3,2.21-1.81,4-4,4H656.76a18.92,18.92,0,0,1,.26-6.8C658,890.38,660.38,889.68,664.33,889.12Z" fill="#d1dbea"/><path d="M904.66,27.64s-2,21.16,1,27.54,7.39,11.42,6.72,14.11,4,2.35,4,2.68,4.36,4,9.07,6,18.13,8.4,22.16,2.69,18.81,8.39,15.45-2.35.34-9.07,0-19.82S958.74-3.27,904.66,27.64Z" fill="#e9d6b8"/><path d="M965.46,10.84S954.71-6.62,932.2,2.78C911.08,11.61,914,18.57,904.29,20.59S907,14.06,906,14.2c-20.83,3-8.74,11.09-8.74,11.09-4-2-6.71-5.38-7.05,0-.3,4.83,9.39,2.53,4.37,6-6.72,4.7,5.74,4.7,9.77,3s7.73-5,15.12.67,12.09,9.07,11.42,12.09,6,.68,4.37-6c-1.05-4.36,7.39-6.38,9.74-.33s2.65,7.72,1,11.75,8.09,2.36,8.43,5,4.7,11.76,11.76,7.73-.67-3,2.35-6.72,20.67-19,4.7-40.31C969.15,12.86,965.46,10.84,965.46,10.84Z" fill="#163f59"/><path d="M997.7,125.38s-3,15.45-8.4,16.79-7.72-11.08-3.35-13.77S997,123.7,997.7,125.38Z" fill="#e9d6b8"/><path d="M909.36,119.67S903,131.09,896.6,130.76s-7.39-3.36-10.08-1a5.33,5.33,0,0,0-2,5l-.67,6,3.36,3.36s2.69-.33,2-2,0,.34,4,3,11.75,8.06,24.86-7.39S912.05,118,909.36,119.67Z" fill="#e9d6b8"/><path d="M976.54,80.37S986,84.07,990,92.13s8.39,30.56,9.4,32.91-4.37,10.42-13.77,5.72S976.54,80.37,976.54,80.37Z" fill="#3bb6d5"/><path d="M930.52,81.72s-8.06.67-14.44,16.12S911.38,118,909,117s-1.68,2.69-2,5.38.88,6.5,4,13.43c1.68,3.7,3.18,5.39,5,8.74,1.68,3,2.23,1.55,7.72,1C927.16,145.2,934.55,92.13,930.52,81.72Z" fill="#3bb6d5"/><path d="M973.85,76.68a29.52,29.52,0,0,1,2.88,2.47c3.12,3,7.92,8.58,9.89,16,3,11.42,3.69,77.93,3.69,82s11.76,8.73-3,10.41-25.86,9.41-48.37,3.36S911,182.15,911.71,180.8s2.69-3,4-3-1.34-.34-.67-3.36,2-3.69,4.7-3.36,1.68-2.68,1.68-6.38,7.06-47.7,6-64.83-1-19.14,6.38-19.81,3.36-4.37,3.36-4.37l29.56-2S976.88,71.64,973.85,76.68Z" fill="#7dccd0"/><path d="M1025.25,258.73s4.7-19.48,5.37-22.17-4.37-9.74-5-11.42-1.68-5-3.69-6.72-1.69.68-3,4-4,5.71-6.71,4S1017.52,252.35,1025.25,258.73Z" fill="#e9d6b8"/><g clip-path="url(#a96af564-3b1f-4834-aab0-1f30d394a28c)"><path d="M1346.74,1156.75c-12.16-11.82-26.83-35.6-64.09-87.1-26.59-36.76-38.28-99.14-18.4-99.63,10.14-.24,16.26,15.4,26.43,18.24,13.2,3.69,9.82-14.7,4.48-25.21-38.07-74.95-32.1-154.8,14.45-122.69,25.16,17.35,41.27-16.4,30.67-34.86-22.47-39.15-20.55-75.8,11-66.17,31,9.47,51,2.42,47.33-17.21s-28.49-49.84,6.9-61.65c13.94-4.65,44.65,17.35,50.64,48.18,3.41,17.58-.65,74.12,34.13,46.85,35.86-28.13,53.27,13.06,40.27,34.79-4.85,8.1-53.56,83-26,75.69,32.49-8.58,42.33,19.93,13.36,52.22-13.15,14.66-51.26,37.4-38,48.25s22.83,25.93,7.9,52.39C1422.75,1134.1,1342.28,1152.41,1346.74,1156.75Z" fill="#948c47"/><path d="M1269.82,808.09s7.66-9.49,7.44-21c-.08-4.18-3.73-11.31-8.07-11.23s-7.74,5.47-7.62,11.53C1261.79,798.9,1269.82,808.09,1269.82,808.09Z" fill="#fff"/><path d="M1268.79,827.3s-1.55-10.55-9.08-17c-2.73-2.35-9.48-4-12-1.12s-1.09,8.29,2.87,11.71C1258.12,827.34,1268.79,827.3,1268.79,827.3Z" fill="#fff"/><path d="M1272,849.53s-5.71-9-15.24-11.85c-3.46-1-10.3.18-11.41,3.88s2.39,8,7.4,9.51C1262.24,853.92,1272,849.53,1272,849.53Z" fill="#fff"/><path d="M1269.1,827.83s9.88-.28,17.82-6.25c2.88-2.16,6.32-7.94,4.42-10.46s-7.1-1.82-11.28,1.33C1272.11,818.42,1269.1,827.83,1269.1,827.83Z" fill="#fff"/><path d="M1270.54,849.7s10.08,0,18-6c2.88-2.16,6.22-8.06,4.22-10.74s-7.29-2.07-11.48,1.08C1273.35,840,1270.54,849.7,1270.54,849.7Z" fill="#fff"/><path d="M1278,879s8.55,1.14,14.62-3.42c2.2-1.66,4.36-6.67,2.36-9.34s-6.43-2.73-9.63-.33C1279.28,870.46,1278,879,1278,879Z" fill="#fff"/><path d="M1276.8,879.16s-3.79-7.32-11.09-10.75c-2.65-1.25-8.17-1.36-9.34,1.14s1.23,6.11,5.08,7.92C1268.75,880.91,1276.8,879.16,1276.8,879.16Z" fill="#fff"/><path d="M1277.54,1000.86s36.66,1.79,1.66-115.75c-14.23-47.82-8.69-70-9.26-82.8" fill="none" stroke="#fff" stroke-miterlimit="10" stroke-width="1.79"/><path d="M1229.62,981.92a348.85,348.85,0,0,1-64.73-163.18c-5.36-44.19-.11-74.4-.06-74.7l2.7.48c0,.3-5.24,30.19.1,74a346,346,0,0,0,64.21,161.78Z" fill="#0c1153"/><path d="M1165.25,747.9s-3.7-8.08-1.83-16.63c.68-3.09,4.18-7.93,7.06-7.31s4.35,5.08,3.37,9.59C1172,742.09,1165.25,747.9,1165.25,747.9Z" fill="#0c1153"/><path d="M1164.45,763.06a27.63,27.63,0,0,1,7.33-13.23c2.09-2,7.13-3.89,8.87-2s.49,5.86-2.56,8.74A27.7,27.7,0,0,1,1164.45,763.06Z" fill="#0c1153"/><path d="M1165.36,788.84s1.85-7,7.44-10.8c2-1.36,6.73-1.92,8.21.28s.11,5.73-2.83,7.71C1172.59,789.79,1165.36,788.84,1165.36,788.84Z" fill="#0c1153"/><path d="M1165.37,762.17s-7.18.89-12.71-2.89c-2-1.37-4.25-5.5-2.76-7.68s5.25-2.21,8.16-.22C1163.59,755.17,1165.37,762.17,1165.37,762.17Z" fill="#0c1153"/><path d="M1194.85,920.9s-6.63,3.32-13.81,2c-2.6-.48-6.73-3.28-6.28-5.71s4.12-3.78,7.9-3.08C1189.84,915.43,1194.85,920.9,1194.85,920.9Z" fill="#0c1153"/><path d="M1163.75,788.82s-8.29.37-15-4.25c-2.45-1.68-5.42-6.41-3.86-8.68s5.92-2,9.48.46C1161.09,781,1163.75,788.82,1163.75,788.82Z" fill="#0c1153"/><path d="M1165,816.33s-8.11,1.6-14-2.45c-2.14-1.46-4.35-6.16-2.51-8.85s6-3,9.15-.87C1163.51,808.2,1165,816.33,1165,816.33Z" fill="#0c1153"/><path d="M1167,815.64s.56-8.12,5.92-13.14c1.95-1.82,7-3.14,9.1-.9s1.32,6.37-1.51,9C1175.11,815.63,1167,815.64,1167,815.64Z" fill="#0c1153"/><path d="M1196,921.58a22.15,22.15,0,0,1,.58-13.93c1-2.68,4.82-7.09,7.32-6.81s3.24,3.92,1.75,7.82C1202.84,916.08,1196,921.58,1196,921.58Z" fill="#0c1153"/><path d="M1175.89,868.41a18.81,18.81,0,0,1,7.71-8.72c2.15-1.33,7.23-2.71,8.91-1.57s.31,3.75-2.82,5.69C1183.76,867.48,1175.89,868.41,1175.89,868.41Z" fill="#0c1153"/><path d="M1169.32,844.35a16,16,0,0,1-9.84-3.81c-1.74-1.44-4.26-5.45-3.65-7.32s3.33-1.57,5.87.53C1166.52,837.73,1169.32,844.35,1169.32,844.35Z" fill="#0c1153"/><path d="M1186,896.57s-2.37-8.3-.55-14.42c.66-2.22,3.53-4.56,5.66-2.72s3,6.16,2,9.38A11.74,11.74,0,0,1,1186,896.57Z" fill="#0c1153"/><path d="M1176.77,869.22s-10,1.45-17.6-1.41c-2.76-1-5.84-4.53-3.75-6.62s7.29-2.45,11.32-.94A17.55,17.55,0,0,1,1176.77,869.22Z" fill="#0c1153"/><path d="M1185.33,898s-9.46,1.36-16.25-1.49c-2.46-1-4.94-4.47-2.77-6.49s7.08-2.36,10.65-.86A14.5,14.5,0,0,1,1185.33,898Z" fill="#0c1153"/><path d="M1248.85,762.56s-6.63,3.32-13.81,2c-2.61-.49-6.73-3.29-6.28-5.71s4.12-3.79,7.9-3.08C1243.84,757.09,1248.85,762.56,1248.85,762.56Z" fill="#0c1153"/><path d="M1207.05,944.11a18.54,18.54,0,0,1,2.11-11.44c1.17-2.25,4.86-6,6.92-5.91s2.24,3.08.54,6.34C1213.39,939.3,1207.05,944.11,1207.05,944.11Z" fill="#0c1153"/><path d="M1199.35,833.3s.88-8,4.61-13.12c1.35-1.87,4.64-3.38,5.82-1.28s.43,6.18-1.54,8.89A13.11,13.11,0,0,1,1199.35,833.3Z" fill="#0c1153"/><path d="M1170.54,845.83a27.92,27.92,0,0,1,6-13.45c1.92-2.41,6.91-6,8.94-5.23s1.24,4.44-1.57,8A45.93,45.93,0,0,1,1170.54,845.83Z" fill="#0c1153"/><path d="M1177.06,1090.31S1279.39,982,1276,921.38s-69.17-128.25-89.4-16S1204.17,1045.08,1177.06,1090.31Z" fill="#874c87"/><path d="M1235.08,871.39s13,130-58,218.92" fill="none" stroke="#f6e19a" stroke-miterlimit="10" stroke-width="2"/><path d="M1278.76,953.65c-36.57,29.73-55.87,72-55.45,112.25,39.32,8.64,84.64-1.62,121.21-31.35s55.88-72,55.45-112.24C1360.65,913.67,1315.34,923.92,1278.76,953.65Z" fill="#0c1153"/><line x1="1385.66" y1="933.15" x2="1229.62" y2="1059.97" fill="none" stroke="#eaa060" stroke-miterlimit="10" stroke-width="1.79"/><line x1="1353.6" y1="959.47" x2="1385.03" y2="962.71" fill="none" stroke="#eaa060" stroke-miterlimit="10" stroke-width="1.79"/><line x1="1327" y1="981.09" x2="1365.73" y2="985.09" fill="none" stroke="#eaa060" stroke-miterlimit="10" stroke-width="1.79"/><line x1="1300.39" y1="1002.71" x2="1365.14" y2="1009.4" fill="none" stroke="#eaa060" stroke-miterlimit="10" stroke-width="1.79"/><line x1="1273.79" y1="1024.34" x2="1336.78" y2="1030.84" fill="none" stroke="#eaa060" stroke-miterlimit="10" stroke-width="1.79"/><line x1="1247.18" y1="1045.96" x2="1282.25" y2="1049.58" fill="none" stroke="#eaa060" stroke-miterlimit="10" stroke-width="1.79"/><line x1="1356.49" y1="956.45" x2="1359.73" y2="925.03" fill="none" stroke="#eaa060" stroke-miterlimit="10" stroke-width="1.79"/><line x1="1329.88" y1="978.08" x2="1334.94" y2="929.08" fill="none" stroke="#eaa060" stroke-miterlimit="10" stroke-width="1.79"/><line x1="1303.27" y1="999.7" x2="1309.61" y2="938.38" fill="none" stroke="#eaa060" stroke-miterlimit="10" stroke-width="1.79"/><line x1="1276.67" y1="1021.33" x2="1283.17" y2="958.34" fill="none" stroke="#eaa060" stroke-miterlimit="10" stroke-width="1.79"/><line x1="1250.06" y1="1042.95" x2="1255.65" y2="988.83" fill="none" stroke="#eaa060" stroke-miterlimit="10" stroke-width="1.79"/><path d="M1135.6,850.48c-6.89,8-11.3,20.37-11.3,34.21,0,20.69,9.88,38,23.15,42.66,6.89-8.05,11.31-20.37,11.31-34.21C1158.76,872.44,1148.88,855.1,1135.6,850.48Z" fill="#fff"/><path d="M1129.29,932.71c-10.44-12.86-24.41-20.08-36.36-20,.55,9.84,4.84,20.88,12.72,30.59,10.44,12.85,24.41,20.06,36.36,20C1141.46,953.45,1137.16,942.42,1129.29,932.71Z" fill="#fff"/><path d="M1145.59,976a50.07,50.07,0,0,0-25.83-15.62c-17.34-4.4-34.39.2-44.06,10.55a50.07,50.07,0,0,0,25.83,15.62C1118.87,990.92,1135.91,986.32,1145.59,976Z" fill="#fff"/><path d="M1183.39,953.44c-16.09,4.85-27.84,16.36-31.67,29.22,10.15,5.91,24,7.55,37.67,3.41,16.08-4.85,27.84-16.36,31.67-29.22C1210.9,950.94,1197.11,949.3,1183.39,953.44Z" fill="#fff"/><path d="M1177.36,907c-12.34,7-20.08,18.64-21.7,30.56a43.27,43.27,0,0,0,30.28-5c12.35-7,20-18.75,21.52-30.76A43.83,43.83,0,0,0,1177.36,907Z" fill="#fff"/><rect x="1145.86" y="923.05" width="1.98" height="161.94" fill="#fff"/><polygon points="1145.92 945.45 1147.2 946.96 1158.7 937.33 1157.44 935.82 1145.92 945.45" fill="#fff"/><path d="M1097.4,1021.92c11.62,8.11,25.48,10.07,36.93,6.4a43.25,43.25,0,0,0-17.56-25.16c-11.65-8.13-25.57-10-37-6.16A43.84,43.84,0,0,0,1097.4,1021.92Z" fill="#fff"/><polygon points="1145.69 1033.68 1146.51 1031.87 1132.86 1025.64 1132.04 1027.43 1145.69 1033.68" fill="#fff"/><rect x="1143.04" y="984.67" width="15.01" height="1.98" transform="translate(-287.91 1461.19) rotate(-58.88)" fill="#fff"/><polygon points="1146.58 968.71 1147.85 967.19 1140.94 961.43 1139.68 962.95 1146.58 968.71" fill="#fff"/><rect x="1144.51" y="975.72" width="1.98" height="2.72" transform="translate(-173.66 1702.81) rotate(-69.28)" fill="#fff"/><path d="M1164.39,998c10.44-12.85,24.42-20.07,36.36-20-.55,9.84-4.84,20.88-12.72,30.59-10.43,12.85-24.41,20.06-36.36,20C1152.22,1018.72,1156.52,1007.69,1164.39,998Z" fill="#fff"/><path d="M1148.09,1041.24a50.1,50.1,0,0,1,25.84-15.62c17.34-4.4,34.38.2,44,10.55a50,50,0,0,1-25.82,15.62C1174.82,1056.19,1157.77,1051.59,1148.09,1041.24Z" fill="#fff"/><polygon points="1147.1 1033.98 1145.83 1032.46 1152.74 1026.7 1154.01 1028.22 1147.1 1033.98" fill="#fff"/><rect x="1146.83" y="1041.36" width="2.72" height="1.98" transform="translate(-293.26 470.47) rotate(-20.59)" fill="#fff"/><path d="M1137.56,1061.39a35.64,35.64,0,0,0-15.86-14.5c-11.49-5.48-24-4.64-32.21,1.23a35.56,35.56,0,0,0,15.85,14.5C1116.83,1068.11,1129.37,1067.26,1137.56,1061.39Z" fill="#fff"/></g></g></g></svg>