<svg xmlns="http://www.w3.org/2000/svg" xmlns:xlink="http://www.w3.org/1999/xlink" viewBox="0 0 1098.28 1257.61"><defs><linearGradient id="aa797f4e-a219-4cda-86f5-fe6dd94586d0" x1="712.41" y1="170.57" x2="1053.55" y2="170.57" gradientUnits="userSpaceOnUse"><stop offset="0" stop-color="#8dcfff"/><stop offset="1" stop-color="#7dc2f5"/></linearGradient><linearGradient id="be35d32a-37d4-40fa-a633-2126c43994c0" x1="910.66" y1="810.81" x2="975.41" y2="810.81" gradientUnits="userSpaceOnUse"><stop offset="0" stop-color="#7eb3ff"/><stop offset="1" stop-color="#fff"/></linearGradient><linearGradient id="a8f3ef54-7cf0-488d-a21e-fdb1b38a6f6b" x1="880.87" y1="788.48" x2="945.63" y2="788.48" xlink:href="#be35d32a-37d4-40fa-a633-2126c43994c0"/><linearGradient id="f8f88805-a797-41b5-97b3-0dd1416b408f" x1="836.2" y1="766.14" x2="900.95" y2="766.14" xlink:href="#be35d32a-37d4-40fa-a633-2126c43994c0"/><linearGradient id="eb136d9d-b203-4b64-9dec-8b2debe80dd2" x1="682.83" y1="911.07" x2="1026.73" y2="911.07" xlink:href="#be35d32a-37d4-40fa-a633-2126c43994c0"/><linearGradient id="a01216ec-f3ce-4749-b546-8b96a0619da0" x1="451.72" y1="656.24" x2="673.64" y2="656.24" xlink:href="#aa797f4e-a219-4cda-86f5-fe6dd94586d0"/><linearGradient id="e5baa7ae-12a7-4917-bd42-ead0d799d3c2" x1="545.93" y1="768.67" x2="654.91" y2="768.67" xlink:href="#aa797f4e-a219-4cda-86f5-fe6dd94586d0"/><linearGradient id="b88f5499-4067-4123-802b-dbff90ce677d" x1="545.48" y1="784.82" x2="640.63" y2="784.82" xlink:href="#aa797f4e-a219-4cda-86f5-fe6dd94586d0"/></defs><title>sms-img_1</title><g style="isolation:isolate"><g id="a0b5b68d-b99e-4dac-a98d-dbb2905a2de6" data-name="Layer 2"><g id="b65be120-e0a7-4266-bec4-33073d0436a0" data-name="Layer 1"><circle cx="541.06" cy="596.6" r="485.19" fill="#e9f6ff"/><path d="M300.71,1073.22c-.22-5.91-.52-13.78-.74-19.68.15,4.06.57,15,.75,19.22C300.71,1072.91,300.71,1073.06,300.71,1073.22Z" fill="#ffc910"/><path d="M463.28,1045.26q.41,10.9.82,21.78c.21,5.55-7.06,11.41-22.11,16.45-32.51,10.89-89,13.86-126.12,6.65-19.94-3.88-30.26-9.91-30.5-16.35l-.83-21.78c.24,6.44,10.56,12.47,30.51,16.34,37.14,7.23,93.6,4.25,126.11-6.64C456.21,1056.67,463.49,1050.82,463.28,1045.26Z" fill="#ffab01"/><path d="M432.77,1028.92c37.14,7.22,40.9,21.9,8.39,32.79s-89,13.87-126.11,6.64-40.9-21.89-8.39-32.78S395.63,1021.7,432.77,1028.92Zm-107.62,36c30.77,6,77.53,3.51,104.46-5.5s23.82-21.18-6.94-27.17-77.53-3.51-104.46,5.51S294.39,1059,325.15,1065" fill="#ffc910"/><path d="M422.67,1032.3c30.76,6,33.87,18.14,6.94,27.17s-73.7,11.48-104.46,5.5-33.87-18.14-6.94-27.16S391.91,1026.33,422.67,1032.3Z" fill="#ffab01"/><path d="M318.21,1040.52c26.93-9,73.7-11.48,104.46-5.51,15.31,3,23.76,7.49,25.08,12.38,1.54-5.9-7-11.56-25.08-15.09-30.76-6-77.53-3.51-104.46,5.51-13.53,4.53-19.47,9.86-18.14,14.79C301.15,1048.48,307.13,1044.23,318.21,1040.52Z" fill="#f99b0f"/><path d="M293.08,1061.5v21.34c5.11,2.83,12.72,5.34,22.79,7.3a229.34,229.34,0,0,0,33.22,3.64V1072a230.1,230.1,0,0,1-34-3.69C305.5,1066.5,298.17,1064.15,293.08,1061.5Z" fill="#f99b0f"/><path d="M410.05,1039.09l-8.16,2.73q4.89,1.37,4.6,3.25c-.18,1.27-2.09,2.58-5.7,3.93l-8.39-1.63q3-1.15,2.64-2.25c-.26-.74-1.62-1.34-4.1-1.82a34.17,34.17,0,0,0-8.51-.52,31.14,31.14,0,0,0-8.08,1.44,9.3,9.3,0,0,0-2,.88c-.44.3-.65.6-.65.9,0,.64,1.48,1.44,4.56,2.43,1.85.59,3.17,1.06,4,1.42,2.85,1.25,4.11,2.5,3.73,3.77s-2.31,2.49-5.84,3.67a67.92,67.92,0,0,1-15.31,3,68.88,68.88,0,0,1-15.68-.17l-9.8,3.28-7.82-1.52,9.41-3.15c-4.12-1.1-6.11-2.41-5.94-3.92s2.49-3,7-4.55l8.09,1.57c-2.87,1.05-4.18,2-3.95,2.86s2,1.61,5.37,2.26a39,39,0,0,0,9.78.6,35.13,35.13,0,0,0,9.27-1.66,16.4,16.4,0,0,0,2.35-1,3.38,3.38,0,0,0,1.17-.89c.59-.93-.8-2-4.19-3.09l-1.24-.42q-6.19-2.16-6.5-4.06t5.28-3.77a58.81,58.81,0,0,1,13.75-2.69,71.68,71.68,0,0,1,15,.23l8.07-2.71Z" fill="#f99b0f"/><path d="M410.05,1036l-8.16,2.73c3.26.91,4.79,2,4.6,3.26s-2.09,2.57-5.7,3.92l-8.39-1.63q3-1.15,2.64-2.25c-.26-.74-1.62-1.34-4.1-1.82a34.17,34.17,0,0,0-8.51-.52,30.71,30.71,0,0,0-8.08,1.45,8.87,8.87,0,0,0-2,.87c-.44.3-.65.6-.65.91,0,.63,1.48,1.43,4.56,2.42,1.85.59,3.17,1.06,4,1.42,2.85,1.25,4.11,2.51,3.73,3.77s-2.31,2.49-5.84,3.67a67.9,67.9,0,0,1-15.31,3,69.42,69.42,0,0,1-15.68-.18l-9.8,3.29-7.82-1.52,9.41-3.16c-4.12-1.1-6.11-2.41-5.94-3.92s2.49-3,7-4.55l8.09,1.57c-2.87,1-4.18,2-3.95,2.86s2,1.61,5.37,2.26a39,39,0,0,0,9.78.6,35.13,35.13,0,0,0,9.27-1.66,16.4,16.4,0,0,0,2.35-.95,3.38,3.38,0,0,0,1.17-.89c.59-.92-.8-2-4.19-3.09l-1.24-.41q-6.19-2.18-6.5-4.06t5.28-3.78A58.81,58.81,0,0,1,379.2,1037a71.68,71.68,0,0,1,15,.23l8.07-2.71Z" fill="#ffc910"/><path d="M310.36,1049.57c-.23-5.9-.53-13.77-.75-19.67.15,4.06.58,15,.75,19.22A3.38,3.38,0,0,0,310.36,1049.57Z" fill="#ffc910"/><path d="M472.92,1021.62q.42,10.89.83,21.78c.21,5.55-7.07,11.4-22.12,16.45-32.51,10.89-89,13.86-126.12,6.64-19.94-3.88-30.26-9.91-30.5-16.34l-.83-21.78c.25,6.43,10.56,12.46,30.51,16.34,37.14,7.22,93.61,4.25,126.11-6.64C465.86,1033,473.13,1027.17,472.92,1021.62Z" fill="#ffab01"/><path d="M442.41,1005.27c37.15,7.22,40.91,21.91,8.39,32.8s-89,13.86-126.11,6.64-40.9-21.9-8.39-32.79S405.27,998.06,442.41,1005.27Zm-107.62,36.06c30.77,6,77.54,3.51,104.47-5.51s23.81-21.18-6.95-27.16-77.53-3.51-104.46,5.51-23.82,21.17,6.94,27.16" fill="#ffc910"/><path d="M432.31,1008.66c30.76,6,33.87,18.14,6.95,27.16s-73.7,11.49-104.47,5.51-33.86-18.14-6.94-27.16S401.55,1002.68,432.31,1008.66Z" fill="#ffab01"/><path d="M327.85,1016.88c26.93-9,73.7-11.49,104.46-5.51,15.31,3,23.76,7.48,25.08,12.37,1.54-5.9-7-11.56-25.08-15.08-30.76-6-77.53-3.51-104.46,5.51-13.52,4.53-19.47,9.85-18.13,14.78C310.79,1024.83,316.77,1020.59,327.85,1016.88Z" fill="#f99b0f"/><path d="M302.72,1037.85v21.35c5.11,2.83,12.72,5.33,22.79,7.29a229.42,229.42,0,0,0,33.23,3.65v-21.75a230.15,230.15,0,0,1-34.05-3.68C315.14,1042.85,307.81,1040.51,302.72,1037.85Z" fill="#f99b0f"/><path d="M419.69,1015.45l-8.15,2.73c3.25.9,4.79,2,4.59,3.25s-2.09,2.58-5.7,3.93l-8.39-1.63c2-.77,2.9-1.53,2.64-2.25s-1.62-1.35-4.1-1.83a34.15,34.15,0,0,0-8.51-.51,31.06,31.06,0,0,0-8.07,1.44,8.19,8.19,0,0,0-2,.88q-.66.43-.66.9c0,.63,1.48,1.44,4.57,2.43,1.84.59,3.16,1.06,4,1.42,2.86,1.25,4.11,2.5,3.74,3.77s-2.32,2.48-5.84,3.66a67.55,67.55,0,0,1-15.32,3,69.46,69.46,0,0,1-15.68-.17l-9.79,3.28-7.83-1.52,9.42-3.15c-4.13-1.1-6.12-2.41-5.95-3.93s2.49-3,7-4.54l8.08,1.57q-4.29,1.58-3.94,2.86c.23.85,2,1.61,5.37,2.26a39.41,39.41,0,0,0,9.77.6,35.05,35.05,0,0,0,9.27-1.66,15.83,15.83,0,0,0,2.35-1,3.23,3.23,0,0,0,1.18-.89c.58-.92-.81-2-4.2-3.08l-1.23-.42q-6.21-2.16-6.5-4.06t5.28-3.77a59.31,59.31,0,0,1,13.75-2.7,72.27,72.27,0,0,1,14.95.23l8.07-2.7Z" fill="#f99b0f"/><path d="M419.69,1012.39l-8.15,2.73c3.25.9,4.79,2,4.59,3.25s-2.09,2.58-5.7,3.93l-8.39-1.63q3-1.15,2.64-2.25c-.25-.74-1.62-1.35-4.1-1.83a34.64,34.64,0,0,0-8.51-.51,31.06,31.06,0,0,0-8.07,1.44,9.07,9.07,0,0,0-2,.88q-.66.44-.66.9c0,.63,1.48,1.44,4.57,2.43,1.84.59,3.16,1.06,4,1.42,2.86,1.25,4.11,2.5,3.74,3.77s-2.32,2.48-5.84,3.66a67.55,67.55,0,0,1-15.32,3,69.46,69.46,0,0,1-15.68-.17l-9.79,3.28-7.83-1.52,9.42-3.15c-4.13-1.1-6.12-2.41-5.95-3.93s2.49-3,7-4.54l8.08,1.57q-4.29,1.58-3.94,2.86c.23.85,2,1.61,5.37,2.26a38.93,38.93,0,0,0,9.77.6,35.05,35.05,0,0,0,9.27-1.66,14.81,14.81,0,0,0,2.35-1,3.12,3.12,0,0,0,1.18-.89c.58-.92-.81-1.95-4.2-3.08l-1.23-.42q-6.21-2.16-6.5-4.06t5.28-3.77a59.31,59.31,0,0,1,13.75-2.7,72.27,72.27,0,0,1,14.95.23l8.07-2.7Z" fill="#ffc910"/><path d="M302.62,1021.22c-.22-5.9-.52-13.77-.74-19.67.15,4.06.58,15,.75,19.22C302.62,1020.92,302.62,1021.07,302.62,1021.22Z" fill="#ffc910"/><path d="M465.19,993.27q.4,10.89.82,21.78c.22,5.55-7.06,11.41-22.11,16.45-32.51,10.89-89,13.86-126.12,6.64-19.94-3.88-30.26-9.9-30.5-16.34l-.83-21.78c.25,6.43,10.56,12.46,30.51,16.34,37.14,7.22,93.6,4.25,126.11-6.64C458.12,1004.68,465.4,998.82,465.19,993.27Z" fill="#ffab01"/><path d="M434.68,976.92c37.14,7.23,40.9,21.91,8.39,32.8s-89,13.86-126.11,6.64-40.9-21.9-8.39-32.79S397.54,969.71,434.68,976.92ZM327.06,1013c30.77,6,77.54,3.51,104.47-5.51s23.81-21.18-6.95-27.16-77.53-3.51-104.46,5.51S296.3,1007,327.06,1013" fill="#ffc910"/><path d="M424.58,980.31c30.76,6,33.87,18.14,6.95,27.16S357.83,1019,327.06,1013s-33.86-18.14-6.94-27.16S393.82,974.33,424.58,980.31Z" fill="#ffab01"/><path d="M320.12,988.53c26.93-9,73.7-11.49,104.46-5.51,15.31,3,23.76,7.48,25.08,12.37,1.54-5.9-7-11.56-25.08-15.08-30.76-6-77.53-3.51-104.46,5.51-13.53,4.53-19.47,9.85-18.14,14.79C303.06,996.48,309,992.24,320.12,988.53Z" fill="#f99b0f"/><path d="M295,1009.51v21.34c5.11,2.83,12.72,5.33,22.79,7.29a229.28,229.28,0,0,0,33.22,3.65V1020a230.15,230.15,0,0,1-34-3.68C307.41,1014.51,300.08,1012.16,295,1009.51Z" fill="#f99b0f"/><path d="M412,987.1l-8.15,2.73c3.25.9,4.78,2,4.59,3.25s-2.09,2.58-5.7,3.93l-8.39-1.64c2-.76,2.9-1.51,2.64-2.24s-1.62-1.35-4.09-1.83a34.27,34.27,0,0,0-8.52-.51,31.14,31.14,0,0,0-8.08,1.44,8.82,8.82,0,0,0-2,.88c-.43.29-.65.59-.65.9q-.06.94,4.56,2.43c1.85.59,3.17,1.06,4,1.42,2.86,1.25,4.11,2.5,3.73,3.77s-2.31,2.48-5.83,3.66a67.55,67.55,0,0,1-15.32,3,69.46,69.46,0,0,1-15.68-.17l-9.79,3.28-7.83-1.52,9.41-3.15c-4.12-1.1-6.11-2.41-5.94-3.93s2.49-3,7-4.54l8.09,1.57q-4.29,1.57-3.94,2.86c.22.85,2,1.61,5.37,2.26a39.41,39.41,0,0,0,9.77.6,35.05,35.05,0,0,0,9.27-1.66,15.22,15.22,0,0,0,2.35-1,3.17,3.17,0,0,0,1.17-.89c.59-.92-.8-2-4.19-3.08l-1.24-.42q-6.19-2.16-6.5-4.06t5.28-3.77a59.31,59.31,0,0,1,13.75-2.7,72.36,72.36,0,0,1,15,.23l8.07-2.7Z" fill="#f99b0f"/><path d="M412,984l-8.15,2.73c3.25.9,4.78,2,4.59,3.25s-2.09,2.58-5.7,3.93l-8.39-1.63q3-1.16,2.64-2.25c-.26-.74-1.62-1.34-4.09-1.83a34.75,34.75,0,0,0-8.52-.51,31.14,31.14,0,0,0-8.08,1.44,9.3,9.3,0,0,0-2,.88c-.43.29-.65.6-.65.9q-.06.94,4.56,2.43c1.85.59,3.17,1.06,4,1.42,2.86,1.25,4.11,2.5,3.73,3.77s-2.31,2.48-5.83,3.66a67.55,67.55,0,0,1-15.32,3,69.46,69.46,0,0,1-15.68-.17l-9.79,3.28-7.83-1.52,9.41-3.15c-4.12-1.1-6.11-2.41-5.94-3.93s2.49-3,7-4.54l8.09,1.57q-4.29,1.58-3.94,2.86c.22.85,2,1.61,5.37,2.26a38.93,38.93,0,0,0,9.77.6,35.05,35.05,0,0,0,9.27-1.66,15.22,15.22,0,0,0,2.35-1A3.07,3.07,0,0,0,374,999c.59-.92-.8-1.95-4.19-3.08l-1.24-.42q-6.19-2.16-6.5-4.06c-.2-1.27,1.56-2.52,5.28-3.77a59.31,59.31,0,0,1,13.75-2.7,72.36,72.36,0,0,1,15,.23l8.07-2.7Z" fill="#ffc910"/><path d="M300.71,979.53c-.22-5.9-.52-13.77-.74-19.67.15,4.06.57,15,.75,19.22C300.71,979.23,300.71,979.38,300.71,979.53Z" fill="#ffc910"/><path d="M463.28,951.58q.41,10.89.82,21.78c.21,5.55-7.06,11.41-22.11,16.45-32.51,10.89-89,13.86-126.12,6.64-19.94-3.87-30.26-9.9-30.5-16.34l-.83-21.78c.24,6.44,10.56,12.47,30.51,16.34,37.14,7.22,93.6,4.25,126.11-6.64C456.21,963,463.49,957.13,463.28,951.58Z" fill="#ffab01"/><path d="M432.77,935.24c37.14,7.22,40.9,21.9,8.39,32.79s-89,13.86-126.11,6.64-40.9-21.9-8.39-32.79S395.63,928,432.77,935.24Zm-107.62,36c30.77,6,77.53,3.51,104.46-5.51s23.82-21.18-6.94-27.16-77.53-3.51-104.46,5.51-23.82,21.18,6.94,27.16" fill="#ffc910"/><path d="M422.67,938.62c30.76,6,33.87,18.14,6.94,27.16s-73.7,11.49-104.46,5.51-33.87-18.14-6.94-27.16S391.91,932.65,422.67,938.62Z" fill="#ffab01"/><path d="M318.21,946.84c26.93-9,73.7-11.48,104.46-5.51,15.31,3,23.76,7.49,25.08,12.38,1.54-5.91-7-11.57-25.08-15.09-30.76-6-77.53-3.51-104.46,5.51-13.53,4.53-19.47,9.85-18.14,14.79C301.15,954.79,307.13,950.55,318.21,946.84Z" fill="#f99b0f"/><path d="M293.08,967.82v21.34c5.11,2.83,12.72,5.34,22.79,7.29a227.88,227.88,0,0,0,33.22,3.65V978.36a230.1,230.1,0,0,1-34-3.69C305.5,972.82,298.17,970.47,293.08,967.82Z" fill="#f99b0f"/><path d="M410.05,945.41l-8.16,2.73c3.26.9,4.79,2,4.6,3.25s-2.09,2.58-5.7,3.93l-8.39-1.63q3-1.16,2.64-2.25c-.26-.74-1.62-1.34-4.1-1.83a34.67,34.67,0,0,0-8.51-.51,31.14,31.14,0,0,0-8.08,1.44,9.3,9.3,0,0,0-2,.88c-.44.29-.65.6-.65.9q-.06.95,4.56,2.43c1.85.59,3.17,1.06,4,1.42,2.85,1.25,4.11,2.5,3.73,3.77s-2.31,2.49-5.84,3.67a67.92,67.92,0,0,1-15.31,3,69.45,69.45,0,0,1-15.68-.17l-9.8,3.28-7.82-1.52,9.41-3.15c-4.12-1.1-6.11-2.41-5.94-3.92s2.49-3,7-4.55l8.09,1.57c-2.87,1.05-4.18,2-3.95,2.86s2,1.61,5.37,2.26a39,39,0,0,0,9.78.6,35.13,35.13,0,0,0,9.27-1.66,15.22,15.22,0,0,0,2.35-1,3.16,3.16,0,0,0,1.17-.89c.59-.92-.8-1.95-4.19-3.08l-1.24-.42q-6.19-2.16-6.5-4.06c-.2-1.27,1.56-2.52,5.28-3.77a59.31,59.31,0,0,1,13.75-2.7,72.37,72.37,0,0,1,15,.23l8.07-2.7Z" fill="#f99b0f"/><path d="M410.05,942.35l-8.16,2.73c3.26.91,4.79,2,4.6,3.26s-2.09,2.57-5.7,3.92l-8.39-1.63q3-1.15,2.64-2.25c-.26-.74-1.62-1.34-4.1-1.82a34.17,34.17,0,0,0-8.51-.52,30.71,30.71,0,0,0-8.08,1.45,8.87,8.87,0,0,0-2,.87c-.44.3-.65.6-.65.91,0,.63,1.48,1.43,4.56,2.42,1.85.59,3.17,1.06,4,1.42,2.85,1.25,4.11,2.51,3.73,3.77s-2.31,2.49-5.84,3.67a67.92,67.92,0,0,1-15.31,3,69.45,69.45,0,0,1-15.68-.17l-9.8,3.28-7.82-1.52L339,962c-4.12-1.1-6.11-2.41-5.94-3.92s2.49-3,7-4.55l8.09,1.57c-2.87,1-4.18,2-3.95,2.86s2,1.61,5.37,2.26a39,39,0,0,0,9.78.6,35.13,35.13,0,0,0,9.27-1.66,15.22,15.22,0,0,0,2.35-1,3.27,3.27,0,0,0,1.17-.88c.59-.93-.8-2-4.19-3.09l-1.24-.42q-6.19-2.16-6.5-4.06t5.28-3.77a58.81,58.81,0,0,1,13.75-2.69,72.38,72.38,0,0,1,15,.22l8.07-2.7Z" fill="#ffc910"/><path d="M310.36,955.89c-.23-5.9-.53-13.77-.75-19.67.15,4.06.58,15,.75,19.22A3.38,3.38,0,0,0,310.36,955.89Z" fill="#ffc910"/><path d="M472.92,927.94q.42,10.89.83,21.78c.21,5.55-7.07,11.4-22.12,16.45-32.51,10.89-89,13.86-126.12,6.64-19.94-3.88-30.26-9.91-30.5-16.34l-.83-21.78c.25,6.43,10.56,12.46,30.51,16.34,37.14,7.22,93.61,4.25,126.11-6.64C465.86,939.34,473.13,933.49,472.92,927.94Z" fill="#ffab01"/><path d="M442.41,911.59c37.15,7.22,40.91,21.9,8.39,32.8s-89,13.86-126.11,6.64-40.9-21.9-8.39-32.79S405.27,904.37,442.41,911.59Zm-107.62,36c30.77,6,77.54,3.52,104.47-5.5S463.07,921,432.31,915s-77.53-3.51-104.46,5.51-23.82,21.17,6.94,27.15" fill="#ffc910"/><path d="M432.31,915c30.76,6,33.87,18.14,6.95,27.16s-73.7,11.49-104.47,5.5-33.86-18.13-6.94-27.15S401.55,909,432.31,915Z" fill="#ffab01"/><path d="M327.85,923.2c26.93-9,73.7-11.49,104.46-5.51,15.31,3,23.76,7.48,25.08,12.37,1.54-5.9-7-11.56-25.08-15.08-30.76-6-77.53-3.52-104.46,5.51-13.52,4.53-19.47,9.85-18.13,14.78C310.79,931.15,316.77,926.91,327.85,923.2Z" fill="#f99b0f"/><path d="M302.72,944.17v21.34c5.11,2.83,12.72,5.34,22.79,7.3a229.48,229.48,0,0,0,33.23,3.64V954.71A230.15,230.15,0,0,1,324.69,951C315.14,949.17,307.81,946.82,302.72,944.17Z" fill="#f99b0f"/><path d="M419.69,921.77l-8.15,2.73c3.25.9,4.79,2,4.59,3.25s-2.09,2.57-5.7,3.92L402,930q3-1.15,2.64-2.25c-.25-.73-1.62-1.34-4.1-1.82a34.62,34.62,0,0,0-8.51-.52A31,31,0,0,0,384,926.9a8.65,8.65,0,0,0-2,.87c-.44.3-.66.6-.66.91,0,.63,1.48,1.44,4.57,2.43,1.84.58,3.16,1.06,4,1.42,2.86,1.25,4.11,2.5,3.74,3.77s-2.32,2.48-5.84,3.66a68.1,68.1,0,0,1-15.32,3,69.46,69.46,0,0,1-15.68-.17L347,946.11l-7.83-1.52,9.42-3.16c-4.13-1.1-6.12-2.4-5.95-3.92s2.49-3,7-4.55l8.08,1.58c-2.86,1-4.17,2-3.94,2.86s2,1.6,5.37,2.26a39.89,39.89,0,0,0,9.77.6,35.46,35.46,0,0,0,9.27-1.66,15.83,15.83,0,0,0,2.35-1,3.34,3.34,0,0,0,1.18-.89c.58-.92-.81-2-4.2-3.08l-1.23-.42c-4.14-1.44-6.31-2.8-6.5-4.06s1.55-2.53,5.28-3.78a59.85,59.85,0,0,1,13.75-2.69,72.27,72.27,0,0,1,14.95.23l8.07-2.7Z" fill="#f99b0f"/><path d="M419.69,918.71l-8.15,2.73c3.25.9,4.79,2,4.59,3.25s-2.09,2.58-5.7,3.93L402,927q3-1.15,2.64-2.25c-.25-.74-1.62-1.35-4.1-1.83a34.62,34.62,0,0,0-8.51-.52,31.47,31.47,0,0,0-8.07,1.45,8.19,8.19,0,0,0-2,.88q-.66.43-.66.9c0,.63,1.48,1.44,4.57,2.43,1.84.59,3.16,1.06,4,1.42,2.86,1.25,4.11,2.5,3.74,3.77s-2.32,2.48-5.84,3.66a67.55,67.55,0,0,1-15.32,3,69.46,69.46,0,0,1-15.68-.17L347,943.05l-7.83-1.52,9.42-3.15c-4.13-1.11-6.12-2.41-5.95-3.93s2.49-3,7-4.54l8.08,1.57q-4.29,1.57-3.94,2.86c.23.85,2,1.61,5.37,2.26a39.41,39.41,0,0,0,9.77.6,35.05,35.05,0,0,0,9.27-1.66,15.83,15.83,0,0,0,2.35-1,3.12,3.12,0,0,0,1.18-.89c.58-.92-.81-2-4.2-3.08l-1.23-.42q-6.21-2.16-6.5-4.06t5.28-3.77a59.31,59.31,0,0,1,13.75-2.7,72.27,72.27,0,0,1,14.95.23l8.07-2.7Z" fill="#ffc910"/><path d="M302.62,927.54c-.22-5.9-.52-13.77-.74-19.67.15,4.06.58,15,.75,19.22C302.62,927.24,302.62,927.39,302.62,927.54Z" fill="#ffc910"/><path d="M465.19,899.59q.4,10.89.82,21.78c.22,5.55-7.06,11.4-22.11,16.45-32.51,10.89-89,13.86-126.12,6.64-19.94-3.88-30.26-9.91-30.5-16.34l-.83-21.78c.25,6.43,10.56,12.46,30.51,16.34,37.14,7.22,93.6,4.25,126.11-6.65C458.12,911,465.4,905.14,465.19,899.59Z" fill="#ffab01"/><path d="M434.68,883.24c37.14,7.22,40.9,21.9,8.39,32.79s-89,13.87-126.11,6.65-40.9-21.9-8.39-32.79S397.54,876,434.68,883.24ZM327.06,919.3c30.77,6,77.54,3.51,104.47-5.51s23.81-21.18-6.95-27.16-77.53-3.51-104.46,5.5-23.82,21.18,6.94,27.17" fill="#ffc910"/><path d="M424.58,886.63c30.76,6,33.87,18.14,6.95,27.16s-73.7,11.49-104.47,5.51-33.86-18.14-6.94-27.17S393.82,880.65,424.58,886.63Z" fill="#ffab01"/><path d="M320.12,894.85c26.93-9,73.7-11.49,104.46-5.51,15.31,3,23.76,7.48,25.08,12.37,1.54-5.9-7-11.56-25.08-15.08-30.76-6-77.53-3.52-104.46,5.5-13.53,4.54-19.47,9.86-18.14,14.79C303.06,902.8,309,898.56,320.12,894.85Z" fill="#f99b0f"/><path d="M295,915.82v21.34c5.11,2.83,12.72,5.34,22.79,7.3A229.28,229.28,0,0,0,351,948.11V926.36a230.15,230.15,0,0,1-34-3.68C307.41,920.82,300.08,918.48,295,915.82Z" fill="#f99b0f"/><path d="M412,893.42l-8.15,2.73c3.25.9,4.78,2,4.59,3.25s-2.09,2.57-5.7,3.92l-8.39-1.63c2-.77,2.9-1.52,2.64-2.24s-1.62-1.35-4.09-1.83a34.74,34.74,0,0,0-8.52-.52,31.12,31.12,0,0,0-8.08,1.45,8.87,8.87,0,0,0-2,.87c-.43.3-.65.6-.65.91q-.06.95,4.56,2.43a41.85,41.85,0,0,1,4,1.42c2.86,1.25,4.11,2.5,3.73,3.77s-2.31,2.48-5.83,3.66a68.1,68.1,0,0,1-15.32,3,69.46,69.46,0,0,1-15.68-.17l-9.79,3.28-7.83-1.52,9.41-3.16c-4.12-1.09-6.11-2.4-5.94-3.92s2.49-3,7-4.55l8.09,1.58q-4.29,1.57-3.94,2.86c.22.85,2,1.61,5.37,2.26a39.89,39.89,0,0,0,9.77.6,35.46,35.46,0,0,0,9.27-1.66,16.29,16.29,0,0,0,2.35-1,3.29,3.29,0,0,0,1.17-.89c.59-.92-.8-1.95-4.19-3.08l-1.24-.42q-6.19-2.16-6.5-4.06t5.28-3.78a59.33,59.33,0,0,1,13.75-2.69,72.36,72.36,0,0,1,15,.23l8.07-2.7Z" fill="#f99b0f"/><path d="M412,890.36l-8.15,2.73c3.25.9,4.78,2,4.59,3.25s-2.09,2.58-5.7,3.93l-8.39-1.63q3-1.15,2.64-2.25c-.26-.74-1.62-1.35-4.09-1.83a34.27,34.27,0,0,0-8.52-.51,31.14,31.14,0,0,0-8.08,1.44,8.87,8.87,0,0,0-2,.87c-.43.3-.65.6-.65.91q-.06.94,4.56,2.43c1.85.59,3.17,1.06,4,1.42,2.86,1.25,4.11,2.5,3.73,3.77s-2.31,2.48-5.83,3.66a67.55,67.55,0,0,1-15.32,3,69.46,69.46,0,0,1-15.68-.17l-9.79,3.28-7.83-1.52,9.41-3.15c-4.12-1.1-6.11-2.41-5.94-3.93s2.49-3,7-4.54l8.09,1.57q-4.29,1.57-3.94,2.86c.22.85,2,1.61,5.37,2.26a38.93,38.93,0,0,0,9.77.6,35.05,35.05,0,0,0,9.27-1.66,16.29,16.29,0,0,0,2.35-1,3.07,3.07,0,0,0,1.17-.89c.59-.92-.8-2-4.19-3.08l-1.24-.42q-6.19-2.16-6.5-4.06t5.28-3.77a59.31,59.31,0,0,1,13.75-2.7,72.36,72.36,0,0,1,15,.23l8.07-2.7Z" fill="#ffc910"/><path d="M413.58,1006.56l21.48-5.42c21.11-5.32,45.24,10.54,57.19,39.37,13.66,33,6.25,70.37-16.55,83.56l-21.47,5.42c22.79-13.2,30.2-50.61,16.54-83.56C458.82,1017.1,434.7,1001.23,413.58,1006.56Z" fill="#ffc910"/><path d="M466.88,1127.68l-21.48,5.42a34.67,34.67,0,0,0,8.83-3.61l21.47-5.42A34.39,34.39,0,0,1,466.88,1127.68Z" fill="#ffc910"/><path d="M413.58,1006.56l21.48-5.42a34.46,34.46,0,0,0-8.82,3.61l-21.48,5.42A34.39,34.39,0,0,1,413.58,1006.56Z" fill="#ffab01"/><path d="M466.88,1127.68l-21.48,5.42c-21.12,5.32-45.24-10.54-57.19-39.37-13.66-33-6.25-70.37,16.55-83.56l21.48-5.42c-22.8,13.2-30.21,50.61-16.55,83.56C421.64,1117.14,445.76,1133,466.88,1127.68Z" fill="#ffab01"/><path d="M470.17,1140.79l-21.47,5.41c-25.5,6.44-54.62-12.71-69.05-47.52-16.49-39.78-7.54-84.94,20-100.88l21.47-5.41c-27.53,15.93-36.47,61.09-20,100.88C415.56,1128.07,444.68,1147.22,470.17,1140.79Z" fill="#f99b0f"/><path d="M421.11,992.39c27.53-15.94,63.21,3.39,79.7,43.17s7.54,84.94-20,100.88-63.21-3.39-79.7-43.17S393.58,1008.32,421.11,992.39Zm54.59,131.68c22.8-13.19,30.21-50.6,16.55-83.56s-43.22-49-66-35.76-30.21,50.61-16.55,83.56,43.21,49,66,35.76" fill="#ffc910"/><path d="M426.24,1004.75c22.79-13.2,52.35,2.81,66,35.76s6.25,70.37-16.55,83.56-52.35-2.81-66-35.76S403.44,1018,426.24,1004.75Z" fill="#ffab01"/><path d="M410.29,993.45,431.76,988a41.25,41.25,0,0,0-10.65,4.36l-21.47,5.41A41.42,41.42,0,0,1,410.29,993.45Z" fill="#ee8f01"/><path d="M426.24,1004.75a38.89,38.89,0,0,0-10.22,8.66,38.48,38.48,0,0,1,9-7.33c22.8-13.2,52.35,2.82,66,35.77,11.35,27.37,8.15,57.81-6.33,74.9,15.47-16.8,19.16-48.13,7.51-76.24C478.59,1007.56,449,991.55,426.24,1004.75Z" fill="#f99b0f"/><path d="M448.7,1146.2l21.47-5.41c-12.45,3.14-25.76.16-37.81-7.74l-19.85,6.46C424.12,1146.64,436.81,1149.21,448.7,1146.2Z" fill="#ee8f01"/><path d="M435.3,1019.23l4.13,10a9.81,9.81,0,0,1,9,1.58q4.38,3,7.63,10l-6.22,3.6a10.83,10.83,0,0,0-4.56-5.29,5.39,5.39,0,0,0-5.45.23,7.37,7.37,0,0,0-3.62,5.35,14,14,0,0,0,1.13,8,12.64,12.64,0,0,0,1.5,2.72,7.48,7.48,0,0,0,1.95,1.83c1.47,1,3.81,1.08,7,.36a25.83,25.83,0,0,1,4.48-.74,14.75,14.75,0,0,1,9.94,3,22.53,22.53,0,0,1,7,9.7,33.88,33.88,0,0,1,2.84,15.61q-.57,7.4-4.85,11l5,12-5.8,3.36L461.58,1100a11.65,11.65,0,0,1-10.93-1.61q-5.28-3.57-8.74-11.85l6-3.47q2.52,5.46,5.64,7.13c2.08,1.12,4.36,1,6.84-.48a8.54,8.54,0,0,0,4.19-6.14,16.15,16.15,0,0,0-1.29-9.18,21.21,21.21,0,0,0-1.6-3.13,10.47,10.47,0,0,0-1.77-2.17c-2-1.83-4.83-2.35-8.46-1.61l-1.34.25q-6.84,1.24-11.41-1.41t-7.39-9.46a29.19,29.19,0,0,1-2.48-14,15.79,15.79,0,0,1,4.77-10.42l-4.09-9.88Z" fill="#f99b0f"/><path d="M439,1017.72l4.13,10a9.8,9.8,0,0,1,9,1.58c2.92,2,5.48,5.37,7.63,10l-6.21,3.6a10.94,10.94,0,0,0-4.57-5.29,5.41,5.41,0,0,0-5.45.23,7.39,7.39,0,0,0-3.62,5.35,14,14,0,0,0,1.13,8,12.23,12.23,0,0,0,1.51,2.72,7.18,7.18,0,0,0,1.94,1.84q2.21,1.44,7,.35a26,26,0,0,1,4.48-.74,14.75,14.75,0,0,1,9.94,3,22.63,22.63,0,0,1,7,9.7,34.17,34.17,0,0,1,2.84,15.61q-.57,7.4-4.85,11l5,12L470.1,1110l-4.78-11.51a11.66,11.66,0,0,1-10.92-1.6q-5.28-3.58-8.75-11.86l6-3.47q2.5,5.46,5.63,7.13c2.09,1.12,4.37.95,6.85-.48a8.57,8.57,0,0,0,4.19-6.14,16.18,16.18,0,0,0-1.3-9.18,19.72,19.72,0,0,0-1.6-3.12,10,10,0,0,0-1.77-2.18q-3-2.73-8.45-1.61l-1.34.26c-4.56.82-8.37.36-11.41-1.41s-5.51-4.91-7.4-9.47a29.29,29.29,0,0,1-2.48-14,15.81,15.81,0,0,1,4.77-10.42l-4.09-9.88Z" fill="#ffc910"/><polygon points="607.81 476.85 607.81 476.85 599.94 476.85 599.94 476.85 599.94 450.96 599.94 450.96 607.81 450.96 607.81 450.96 607.81 476.85" fill="#b6d2f8"/><polygon points="607.81 544.78 607.81 544.78 599.94 544.78 599.94 544.78 599.94 501.11 599.94 501.11 607.81 501.11 607.81 501.11 607.81 544.78" fill="#b6d2f8"/><polygon points="607.81 596.54 607.81 596.54 599.94 596.54 599.94 596.54 599.94 554.89 599.94 554.89 607.81 554.89 607.81 554.89 607.81 596.54" fill="#b6d2f8"/><path d="M889.23,923.71a42.19,42.19,0,0,1-42.06,42.06H645a42.19,42.19,0,0,1-42.06-42.06V416.32A42.19,42.19,0,0,1,645,374.27h202.2a42.19,42.19,0,0,1,42.06,42.05Z" fill="#b6d2f8"/><path d="M645,959.84a36.17,36.17,0,0,1-36.13-36.13V416.32A36.17,36.17,0,0,1,645,380.2h202.2a36.17,36.17,0,0,1,36.13,36.12V923.71a36.17,36.17,0,0,1-36.13,36.13Z" fill="#cee5ff"/><rect x="621.51" y="448.94" width="249.13" height="444.04" fill="#387bff"/><g style="mix-blend-mode:multiply"><path d="M764.24,338.76c-37.16,10-59.41-12.3-49.46-49.45L783.15,34.18c10-37.15,40.35-45.3,67.55-18.1l186.77,186.77c27.2,27.2,19,57.6-18.1,67.55Z" fill="url(#aa797f4e-a219-4cda-86f5-fe6dd94586d0)"/><path d="M995.79,332.69c-3-11.24,3.72-18,15-15l77.19,20.68c11.24,3,13.7,12.21,5.48,20.44l-56.51,56.51c-8.23,8.23-17.43,5.76-20.44-5.48Z" fill="#0063cb"/></g><path d="M819.63,629.14l-7.06,5.67c-22.38,18-55.08,21.28-84.43,5.62-40.5-21.62-59.28-71.15-41.94-110.62a70.3,70.3,0,0,1,20.32-26.71l7.05-5.67a70.24,70.24,0,0,0-20.31,26.7c-17.34,39.48,1.43,89,41.94,110.62C764.55,650.42,797.24,647.14,819.63,629.14Z" fill="#ffab01"/><path d="M798,491.81c40.51,21.63,59.29,71.15,42,110.62s-64.24,54-104.75,32.32-59.28-71.14-41.94-110.62S757.48,470.19,798,491.81Zm-57.4,130.67c33.55,17.91,72.4,5.93,86.76-26.77s-1.2-73.71-34.75-91.62-72.39-5.93-86.75,26.76,1.19,73.72,34.74,91.63" fill="#ffc910"/><path d="M792.6,504.09c-.53-.28-1.05-.56-1.58-.82l-.14-.07c-.82-.41-1.64-.8-2.47-1.18q-2.26-1-4.56-1.89c-.8-.3-1.61-.59-2.41-.86s-1.5-.48-2.26-.7l-1.4-.41c-29.46-8.07-59.65,4.74-71.93,32.69-6.73,15.33-6.89,32.49-1.7,48.23a.56.56,0,0,0,0,.12c.28.87.59,1.73.91,2.59.14.37.28.74.43,1.12a75.05,75.05,0,0,0,3.11,6.92c.54,1.08,1.12,2.14,1.72,3.19a77.67,77.67,0,0,0,7.87,11.29l1.22,1.42c1,1.1,2,2.19,3,3.24.89.9,1.81,1.78,2.75,2.64,1.1,1,2.23,2,3.39,2.92l1,.8a74.34,74.34,0,0,0,7.47,5.16l1.08.64c.8.46,1.6.91,2.41,1.35l1.58.82c1.42.72,2.86,1.38,4.3,2l.8.34q2.21.9,4.41,1.64l.07,0c30.6,10.23,62.81-2.46,75.6-31.58C841.71,563,826.15,522,792.6,504.09Z" fill="#ffab01"/><path d="M792.6,504.09c-.53-.28-1.05-.56-1.58-.82l-.14-.07c-.82-.41-1.64-.8-2.47-1.18q-2.26-1-4.56-1.89c-.8-.3-1.61-.59-2.41-.86s-1.5-.48-2.26-.7l-1.4-.41c-21.91-6-44.2-.45-59.25,14.28,14.91-12.58,35.69-17,56.12-11.43l1.4.4c.76.23,1.51.46,2.26.71s1.61.56,2.41.86q2.29.86,4.56,1.89c.82.37,1.65.76,2.47,1.18l.14.07c.53.26,1.05.53,1.58.81,33.55,17.91,49.11,58.93,34.75,91.63a58.87,58.87,0,0,1-12.61,18.35,58.28,58.28,0,0,0,15.74-21.2C841.71,563,826.15,522,792.6,504.09Z" fill="#f99b0f"/><path d="M687.45,545.11a76.6,76.6,0,0,1,5.81-21,70.24,70.24,0,0,1,20.31-26.7l-7.05,5.67a70.3,70.3,0,0,0-20.32,26.71,76,76,0,0,0-5.88,21.67Z" fill="#f99b0f"/><path d="M778.73,649.58a71.06,71.06,0,0,0,33.84-14.77l7.06-5.67A71.31,71.31,0,0,1,785,644Z" fill="#f99b0f"/><path d="M787.58,523.19l-4.35,9.89a19.23,19.23,0,0,1,7.49,10.68,22.22,22.22,0,0,1-.93,13.75l-9.15-4.88a10.71,10.71,0,0,0,0-7.84,11.48,11.48,0,0,0-5.54-5.87,10.13,10.13,0,0,0-8.08-1.09,9.32,9.32,0,0,0-5.63,5.53,9.5,9.5,0,0,0-.82,3.13,8.32,8.32,0,0,0,.36,3.11q.95,3.21,6.61,7.89a60,60,0,0,1,5,4.5,27.15,27.15,0,0,1,7.28,12.51,20,20,0,0,1-1.31,12.89q-3.57,8.11-10.37,11.49a17.11,17.11,0,0,1-14.08.63l-5.22,11.89-8.53-4.55,5-11.43a22.73,22.73,0,0,1-8-28.83l8.83,4.72q-2.14,5.67-.49,10t7.14,7.26q5,2.67,9.3,1.28t6.47-6.35a15.47,15.47,0,0,0,1.06-3.43,9.75,9.75,0,0,0,.1-3.12q-.68-4.76-7-10.13l-1.54-1.33q-7.76-6.84-10-13.27a17.45,17.45,0,0,1,.72-13.21q3.24-7.39,9.33-10.21t13.5-.37l4.31-9.8Z" fill="#f99b0f"/><path d="M790.47,521.74l-4.35,9.9a19.16,19.16,0,0,1,7.49,10.68,22.29,22.29,0,0,1-.92,13.75l-9.16-4.89a10.71,10.71,0,0,0,0-7.84,11.46,11.46,0,0,0-5.54-5.86c-2.89-1.54-5.59-1.91-8.08-1.09a9.26,9.26,0,0,0-5.63,5.53,9.39,9.39,0,0,0-.82,3.12,8.32,8.32,0,0,0,.36,3.11q1,3.23,6.61,7.89a59.82,59.82,0,0,1,5,4.51q5.77,6,7.28,12.5a20,20,0,0,1-1.31,12.89q-3.57,8.12-10.37,11.49a17.07,17.07,0,0,1-14.08.64L751.72,610l-8.53-4.56,5-11.43a22.75,22.75,0,0,1-8-28.82l8.83,4.71q-2.14,5.68-.49,10t7.15,7.27q5,2.67,9.29,1.28t6.47-6.35a15.54,15.54,0,0,0,1.06-3.44,9.7,9.7,0,0,0,.1-3.11c-.45-3.17-2.77-6.56-7-10.14l-1.54-1.32q-7.75-6.85-10-13.27a17.45,17.45,0,0,1,.72-13.21q3.24-7.4,9.33-10.21t13.51-.38l4.3-9.8Z" fill="#ffc910"/><path d="M910.66,771.7s28.29-14.89,41.69,7.45,14.89,31.27,22.34,59.56S930,865.51,910.66,771.7Z" fill="url(#be35d32a-37d4-40fa-a633-2126c43994c0)"/><path d="M880.87,749.36s28.3-14.89,41.7,7.45,14.89,31.27,22.34,59.56S900.23,843.17,880.87,749.36Z" fill="url(#a8f3ef54-7cf0-488d-a21e-fdb1b38a6f6b)"/><path d="M836.2,727s28.29-14.89,41.7,7.44,14.89,31.27,22.33,59.56S855.56,820.84,836.2,727Z" fill="url(#f8f88805-a797-41b5-97b3-0dd1416b408f)"/><path d="M902.73,1257.61s-56.11-246.17-77-262.55-61-40.2-92.32-108.7-50.63-102.75-50.63-102.75,16.38-14.89,29.78-4.46,29.78,31.27,47.65,49.13,23.82,7.45,28.29-4.46S799,602,804.93,587.05s17.87-37.22,22.34-8.93,19.36,144.44,23.82,169.75S904.7,779.15,937.46,800s35.74,17.87,40.2,62.54S994,948.9,992.56,981.66s29.7,231.28,34.17,275.95Z" fill="url(#eb136d9d-b203-4b64-9dec-8b2debe80dd2)"/><path d="M348.92,379.22l19.14-14.11c18.82-13.86,49.24-7.89,72.83,15.9,26.95,27.2,34.78,67.39,17.48,89.76l-19.14,14.1c17.3-22.37,9.47-62.55-17.49-89.75C398.16,371.32,367.74,365.35,348.92,379.22Z" fill="#ffc910"/><path d="M451.07,477.93,431.93,492a36.66,36.66,0,0,0,7.3-7.17l19.14-14.1A36.61,36.61,0,0,1,451.07,477.93Z" fill="#ffc910"/><path d="M348.92,379.22l19.14-14.11a37.21,37.21,0,0,0-7.3,7.17l-19.14,14.1A37.15,37.15,0,0,1,348.92,379.22Z" fill="#ffab01"/><path d="M451.07,477.93,431.93,492c-18.82,13.87-49.23,7.9-72.82-15.9-27-27.19-34.79-67.38-17.49-89.76l19.14-14.1c-17.29,22.38-9.47,62.56,17.49,89.76C401.83,485.84,432.25,491.8,451.07,477.93Z" fill="#ffab01"/><path d="M459.67,489.62l-19.14,14.11c-22.72,16.74-59.44,9.54-87.91-19.19-32.55-32.83-42-81.35-21.11-108.36l19.14-14.11c-20.88,27-11.44,75.53,21.11,108.37C400.23,499.17,437,506.37,459.67,489.62Z" fill="#f99b0f"/><path d="M350.65,362.07c20.88-27,64.18-22.29,96.73,10.54S489.37,454,468.49,481s-64.19,22.3-96.73-10.53S329.77,389.09,350.65,362.07Zm107.72,108.7c17.3-22.37,9.47-62.56-17.48-89.76s-62.83-31.1-80.13-8.73S351.3,434.84,378.25,462s62.83,31.11,80.12,8.73" fill="#ffc910"/><path d="M360.76,372.28c17.3-22.37,53.17-18.46,80.12,8.73s34.79,67.39,17.49,89.76S405.2,489.24,378.25,462,343.47,394.66,360.76,372.28Z" fill="#ffab01"/><path d="M340.32,367.53l19.15-14.11a44.8,44.8,0,0,0-8.82,8.65l-19.14,14.11A44.48,44.48,0,0,1,340.32,367.53Z" fill="#ee8f01"/><path d="M360.76,372.28A41.75,41.75,0,0,0,354.13,385a41.37,41.37,0,0,1,6-10.95c17.29-22.37,53.16-18.46,80.12,8.74,22.39,22.59,31.57,54.14,24.12,77,8.55-23-.51-55.61-23.5-78.81C413.93,353.82,378.06,349.91,360.76,372.28Z" fill="#f99b0f"/><path d="M440.53,503.73l19.14-14.11c-11.1,8.18-25.54,10.63-40.72,7.67l-17.1,14.48C416.28,514.14,429.93,511.54,440.53,503.73Z" fill="#ee8f01"/><path d="M375.65,383l8.15,8.22a10.48,10.48,0,0,1,9.56-2.07Q399,390.4,405,396l-4.72,6.11a11.65,11.65,0,0,0-6.68-3.41,5.79,5.79,0,0,0-5.32,2.44,8,8,0,0,0-1.43,6.79,15.09,15.09,0,0,0,4.37,7.49,13,13,0,0,0,2.61,2.09,8,8,0,0,0,2.67,1q2.79.53,7.11-2.5a28.59,28.59,0,0,1,4.15-2.55,15.83,15.83,0,0,1,11.08-1.1,24.25,24.25,0,0,1,10.89,6.8,36.49,36.49,0,0,1,9.16,14.36q2.44,7.59-.33,12.94l9.8,9.89-4.4,5.69-9.41-9.5a12.5,12.5,0,0,1-11.51,2.84q-6.71-1.41-13.51-8.23l4.54-5.87q4.71,4.4,8.5,4.8c2.52.26,4.72-.84,6.6-3.27a9.15,9.15,0,0,0,1.67-7.8,17.27,17.27,0,0,0-5-8.59A22,22,0,0,0,423,424a11.39,11.39,0,0,0-2.65-1.45q-4.09-1.48-9.05,1.84c-.55.36-.95.63-1.23.8q-6.29,4-11.91,3.23c-3.74-.5-7.46-2.64-11.19-6.4a31.45,31.45,0,0,1-8.13-12.87,16.89,16.89,0,0,1,.51-12.29l-8.08-8.15Z" fill="#f99b0f"/><path d="M378.75,380l8.15,8.22a10.56,10.56,0,0,1,9.57-2.07q5.59,1.25,11.64,6.83l-4.71,6.11c-2.3-2.09-4.52-3.22-6.69-3.41a5.81,5.81,0,0,0-5.32,2.44,7.94,7.94,0,0,0-1.42,6.79,15,15,0,0,0,4.36,7.49,12.92,12.92,0,0,0,2.61,2.09,7.88,7.88,0,0,0,2.67,1c1.86.36,4.23-.48,7.11-2.5a28.59,28.59,0,0,1,4.15-2.55A15.81,15.81,0,0,1,422,409.36a24.19,24.19,0,0,1,10.89,6.79A36.6,36.6,0,0,1,442,430.51c1.62,5.06,1.52,9.37-.34,12.94l9.8,9.89L447.08,459l-9.42-9.5a12.5,12.5,0,0,1-11.51,2.84q-6.7-1.41-13.51-8.23l4.55-5.87c3.13,2.93,6,4.53,8.49,4.8s4.72-.83,6.6-3.26A9.12,9.12,0,0,0,434,432a17.19,17.19,0,0,0-5-8.59,22,22,0,0,0-2.86-2.46,10.91,10.91,0,0,0-2.64-1.44c-2.74-1-5.75-.38-9.06,1.83l-1.22.8c-4.2,2.67-8.17,3.76-11.91,3.23s-7.47-2.64-11.2-6.4a31.39,31.39,0,0,1-8.13-12.87,17,17,0,0,1,.51-12.29l-8.08-8.15Z" fill="#ffc910"/><path d="M652,327.7c-21.83-4.57-54.52,18.47-73,51.46s-15.81,63.45,6,68,54.52-18.47,73-51.46S673.86,332.26,652,327.7Z" fill="#ffab01"/><path d="M580.92,381.7c18.5-33,51.2-56,73-51.46a21,21,0,0,1,11.75,6.69A20.88,20.88,0,0,0,652,327.7c-21.83-4.57-54.52,18.47-73,51.46-14.36,25.62-16,49.69-5.73,61.31C565.25,428.11,567.53,405.57,580.92,381.7Z" fill="#f99b0f"/><path d="M659,315.31c26.36,5.51,29.61,42.28,7.27,82.12s-61.81,67.65-88.17,62.13-29.6-42.27-7.26-82.11S632.62,309.79,659,315.31ZM585,447.17c21.83,4.57,54.52-18.47,73-51.46s15.81-63.45-6-68-54.52,18.47-73,51.47-15.81,63.44,6,68" fill="#ffc910"/><path d="M669.5,320l14.36,10.84c16.22,12.25,15.63,43.75-3.27,77.45-22.34,39.83-61.81,67.65-88.16,62.14a26.15,26.15,0,0,1-10.53-4.68h0l-.72-.54-13.64-10.3a26.2,26.2,0,0,0,10.53,4.67c26.36,5.52,65.82-22.3,88.17-62.13C685.13,363.73,685.72,332.23,669.5,320Z" fill="#ffab01"/><path d="M611.38,453c-11.88,6.09-23.5,8.66-33.31,6.6a26.2,26.2,0,0,1-10.53-4.67l13.64,10.3.72.54a26.15,26.15,0,0,0,10.53,4.68c9.12,1.91,19.81-.18,30.82-5.37Z" fill="#f99b0f"/><path d="M644.41,343.24l-5.6,10c2.31,1.18,3.44,3.45,3.35,6.81s-1.35,7.42-3.83,12.21l-6-1.25q2.07-4.06,1.76-6.78a3.44,3.44,0,0,0-3-3.25c-1.88-.4-3.87.15-6,1.67a20,20,0,0,0-5.61,6.63,16.28,16.28,0,0,0-1.33,3,8,8,0,0,0-.43,2.58c0,1.65,1.1,3.2,3.31,4.67a15.22,15.22,0,0,1,2.84,2.28,10.82,10.82,0,0,1,2.79,8.44q-.3,5.12-3.93,11.59a48.73,48.73,0,0,1-10.62,13.33q-6,5.14-11,5.14l-6.73,12-5.55-1.17,6.47-11.53q-4.41-2.07-4.34-8.05t4.71-14.28l5.73,1.2q-2.94,5.61-2.64,8.81t3.86,4c2.17.45,4.47-.18,6.89-1.92a23,23,0,0,0,6.43-7.61,26.1,26.1,0,0,0,1.6-3.33,12.2,12.2,0,0,0,.79-2.72c.37-2.6-.65-4.78-3.07-6.51l-.89-.64a11,11,0,0,1-4.73-8.23c-.19-3.21,1-7.11,3.55-11.67a41.7,41.7,0,0,1,9.53-11.88c3.57-3,7.06-4.53,10.49-4.73l5.55-9.89Z" fill="#f99b0f"/><path d="M641.18,343.25l-5.6,10c2.31,1.18,3.44,3.44,3.35,6.8s-1.35,7.42-3.83,12.21l-6-1.25c1.38-2.71,2-5,1.76-6.77a3.46,3.46,0,0,0-3-3.26c-1.88-.4-3.87.15-6,1.67a20,20,0,0,0-5.61,6.63,15.91,15.91,0,0,0-1.33,3,8,8,0,0,0-.43,2.58c0,1.65,1.1,3.2,3.31,4.67a15.22,15.22,0,0,1,2.84,2.28,10.85,10.85,0,0,1,2.79,8.44c-.21,3.42-1.51,7.27-3.94,11.59A48.37,48.37,0,0,1,609,415.14c-4,3.43-7.68,5.14-11,5.14l-6.73,12-5.55-1.16,6.46-11.54q-4.41-2.07-4.33-8.05t4.7-14.28l5.74,1.2q-2.94,5.61-2.64,8.81t3.86,4c2.17.45,4.47-.18,6.89-1.92a23,23,0,0,0,6.43-7.61,27.44,27.44,0,0,0,1.6-3.32,12.18,12.18,0,0,0,.78-2.73q.57-3.9-3.06-6.51l-.89-.64a11,11,0,0,1-4.73-8.22q-.28-4.83,3.55-11.68a41.7,41.7,0,0,1,9.53-11.88q5.34-4.44,10.49-4.72l5.55-9.9Z" fill="#ffca10"/><path d="M323.26,650.65c-2.7-4.89-6.31-11.4-9-16.28l8.82,15.89C323.13,650.39,323.19,650.52,323.26,650.65Z" fill="#ffc910"/><path d="M448.51,557.8q5,9,10,18c2.54,4.6-1.1,12.64-11.66,23.3-22.78,23-69.15,49.61-103.57,59.34-18.48,5.23-29.75,4.54-32.7-.79l-10-18c2.95,5.32,14.22,6,32.71.79,34.41-9.74,80.78-36.3,103.57-59.34C447.41,570.43,451.06,562.39,448.51,557.8Z" fill="#ffab01"/><path d="M415.81,557c34.41-9.74,43.84,1,21.05,24.09s-69.16,49.6-103.57,59.34-43.84-1.06-21.05-24.09S381.39,566.74,415.81,557Zm-75.44,76.27c28.5-8.07,66.91-30.07,85.79-49.16s11.07-28-17.43-20-66.91,30.07-85.79,49.15-11.07,28,17.43,20" fill="#ffc910"/><path d="M408.73,564.17c28.5-8.06,36.31.87,17.43,20s-57.29,41.09-85.79,49.16-36.31-.88-17.43-20S380.23,572.23,408.73,564.17Z" fill="#ffab01"/><path d="M324.09,615.61c18.88-19.09,57.29-41.09,85.79-49.16,14.19-4,23.24-3.81,26.44-.24-1.22-5.64-10.82-6.79-27.59-2-28.5,8.06-66.91,30.06-85.79,49.15-9.48,9.59-12.23,16.61-9,20.2C313.09,629.59,316.33,623.46,324.09,615.61Z" fill="#f99b0f"/><path d="M311.83,644l9.09,18c5.52.21,13-.92,22.34-3.56a216,216,0,0,0,29.58-11.08L363.58,629a218.45,218.45,0,0,1-30.29,11.4C324.44,642.94,317.25,644.08,311.83,644Z" fill="#f99b0f"/><path d="M401,575.27l-5.71,5.78c3.13-.63,4.88-.36,5.26.79s-.67,3.06-3.14,5.73l-7.77,2.21c1.37-1.51,1.79-2.52,1.27-3s-1.95-.44-4.24.21a32.52,32.52,0,0,0-7.4,3.19,29.27,29.27,0,0,0-6.2,4.66,8.47,8.47,0,0,0-1.28,1.57,1.12,1.12,0,0,0-.16,1c.23.54,1.86.58,4.88.1,1.81-.29,3.12-.45,4-.5,2.94-.16,4.53.36,4.75,1.59s-.89,3.08-3.36,5.58a64,64,0,0,1-11.63,9.08,64.67,64.67,0,0,1-13.3,6.54L350,626.76l-7.25,2.06,6.6-6.68c-3.95.83-6.18.58-6.68-.78s.81-3.61,4-6.81l7.49-2.11c-2,2.1-2.66,3.46-2.11,4.09s2.39.5,5.5-.38a37.12,37.12,0,0,0,8.5-3.66,33.36,33.36,0,0,0,7.12-5.35,15.44,15.44,0,0,0,1.57-1.81,3.09,3.09,0,0,0,.61-1.25q.17-1.55-4.85-.82l-1.22.18c-4.11.55-6.51.33-7.22-.66s.24-2.79,2.85-5.43a55.83,55.83,0,0,1,10.45-8.13A68.36,68.36,0,0,1,388.07,583l5.66-5.72Z" fill="#f99b0f"/><path d="M399.67,572.69,394,578.47c3.12-.63,4.88-.36,5.25.79s-.66,3.06-3.13,5.73l-7.78,2.21c1.38-1.51,1.8-2.52,1.27-3s-1.94-.44-4.23.21a32.08,32.08,0,0,0-7.4,3.19,29.27,29.27,0,0,0-6.2,4.66,8.47,8.47,0,0,0-1.28,1.57,1.14,1.14,0,0,0-.17,1c.24.55,1.86.59,4.89.11,1.8-.29,3.12-.45,4-.5,2.94-.17,4.54.36,4.76,1.59s-.89,3.08-3.36,5.58a71.87,71.87,0,0,1-24.94,15.62l-6.86,6.94-7.25,2.05,6.6-6.67c-3.95.83-6.18.58-6.68-.78s.81-3.61,3.95-6.81l7.49-2.12c-2,2.11-2.67,3.47-2.11,4.1s2.39.5,5.49-.38a37.19,37.19,0,0,0,8.51-3.66,33.28,33.28,0,0,0,7.11-5.35,15.66,15.66,0,0,0,1.58-1.81,3.09,3.09,0,0,0,.61-1.25c.1-1-1.51-1.3-4.85-.82l-1.23.18q-6.15.82-7.21-.66t2.85-5.43a55.18,55.18,0,0,1,10.45-8.13,68.59,68.59,0,0,1,12.71-6.18l5.66-5.72Z" fill="#ffc910"/><path d="M167.42,1118.06l2.71,17.55c2.83,18.22-14,38.52-45,50.89-41.13,16.38-91.72,12.68-113-8.27-5.2-5.12-8.17-10.8-9.08-16.7L.31,1144c.91,5.89,3.87,11.57,9.08,16.69,21.27,21,71.86,24.65,113,8.27C153.45,1156.58,170.24,1136.28,167.42,1118.06Z" fill="#f99b0f"/><path d="M158.33,1101.36c21.28,21,5.18,51.22-36,67.59s-91.72,12.68-113-8.27-5.17-51.21,36-67.58S137.06,1080.42,158.33,1101.36ZM22.18,1155.59c17.62,17.35,59.52,20.42,93.58,6.85s47.4-38.63,29.78-56S86,1086,52,1099.61s-47.4,38.63-29.78,56" fill="#ffc910"/><path d="M145.54,1106.46C127.93,1089.11,86,1086,52,1099.61s-47.4,38.63-29.78,56,59.52,20.42,93.58,6.85S163.16,1123.81,145.54,1106.46Z" fill="#ffab01"/><path d="M51.39,1103.31c34.07-13.57,76-10.5,93.58,6.85,5.75,5.66,8.19,12.14,7.7,18.78,1.85-7.91-.31-15.77-7.13-22.48C127.93,1089.11,86,1086,52,1099.61c-22.95,9.14-36.47,23.5-37.48,37.2C17.42,1124.27,30.5,1111.63,51.39,1103.31Z" fill="#f99b0f"/><path d="M159.27,1143.68c-7.61,9.68-20.19,18.62-36.89,25.27-41.06,16.36-91.55,12.69-112.88-8.17l.92,15.68c.53.59,1.09,1.19,1.69,1.77,21.27,21,71.86,24.65,113,8.27,15.6-6.21,27.59-14.42,35.31-23.36Z" fill="#ffab01"/><path d="M130,1115.31l-10.3,4.1q2.25,3.57-.47,7.35t-9.85,6.94l-4.8-4.74c2.68-1.2,4.38-2.56,5.13-4.09s.41-3-1-4.37a9.61,9.61,0,0,0-6.36-2.51,19.84,19.84,0,0,0-8.57,1.53A14,14,0,0,0,91,1121a6.36,6.36,0,0,0-1.72,1.71c-.85,1.26-.65,3.16.6,5.68a17.63,17.63,0,0,1,1.43,3.55,9.18,9.18,0,0,1-1.83,8.25c-2,2.48-5.17,4.61-9.61,6.38a46.69,46.69,0,0,1-16.65,3.5q-8.16.12-12.73-3l-12.39,4.93-4.49-4.41,11.9-4.74q-3-4.4.22-8.93t11.72-8l4.63,4.56q-5.61,2.43-7,5.09t1.49,5.48a11,11,0,0,0,7.29,2.89,22.51,22.51,0,0,0,9.84-1.75,22.15,22.15,0,0,0,3.19-1.54,10.23,10.23,0,0,0,2.14-1.58c1.69-1.77,1.88-4.08.56-7-.21-.47-.37-.82-.47-1.06q-2.31-5.41-.06-9.31c1.49-2.58,4.58-4.82,9.29-6.69a40.31,40.31,0,0,1,14.9-3.08,22.31,22.31,0,0,1,12.06,3l10.21-4.07Z" fill="#f99b0f"/><path d="M130,1112.41l-10.3,4.11q2.25,3.57-.47,7.35t-9.85,6.93l-4.8-4.73c2.68-1.2,4.38-2.56,5.13-4.09s.41-3-1-4.37a9.61,9.61,0,0,0-6.36-2.51,19.84,19.84,0,0,0-8.57,1.53,14,14,0,0,0-2.77,1.43,6.36,6.36,0,0,0-1.72,1.71q-1.27,1.89.6,5.68a17.63,17.63,0,0,1,1.43,3.55,9.18,9.18,0,0,1-1.83,8.25c-2,2.48-5.17,4.61-9.61,6.38a46.69,46.69,0,0,1-16.65,3.5q-8.16.12-12.73-3L38.12,1149l-4.49-4.41,11.9-4.74q-3-4.39.22-8.93t11.72-8l4.63,4.56q-5.61,2.43-7,5.09c-.93,1.76-.43,3.58,1.49,5.48a11,11,0,0,0,7.29,2.89,22.51,22.51,0,0,0,9.84-1.75,22.15,22.15,0,0,0,3.19-1.54,10.23,10.23,0,0,0,2.14-1.59q2.53-2.64.56-6.94c-.21-.47-.37-.82-.47-1.06q-2.31-5.41-.06-9.31c1.49-2.58,4.58-4.82,9.29-6.69a40.31,40.31,0,0,1,14.9-3.08,22.31,22.31,0,0,1,12.06,3l10.21-4.07Z" fill="#ffc910"/><path d="M420.27,714.91l13.48,11.56c14,12,14.44,38.35-1.12,68C412,833.61,371.2,863.7,341.42,861.62c-7.28-.51-13.23-2.89-17.76-6.78l-13.47-11.56c4.52,3.89,10.47,6.27,17.75,6.78,29.78,2.08,70.63-28,91.22-67.2C434.71,753.25,434.26,726.92,420.27,714.91Z" fill="#ffab01"/><path d="M402.51,708.13c29.79,2.08,37.24,35.54,16.65,74.73s-61.44,69.28-91.22,67.2-37.23-35.54-16.64-74.73S372.73,706.05,402.51,708.13ZM334.35,837.87c24.66,1.72,58.49-23.2,75.54-55.65s10.89-60.18-13.78-61.9-58.49,23.2-75.55,55.66-10.88,60.17,13.79,61.89" fill="#ffc910"/><path d="M396.11,720.32c-24.66-1.72-58.49,23.2-75.55,55.66s-10.88,60.17,13.79,61.89,58.49-23.2,75.54-55.65S420.78,722,396.11,720.32Z" fill="#ffab01"/><path d="M430.5,736.38,444,748.61c-.88-9.38-4.37-17.05-10.29-22.14l-13.48-11.56C426.06,719.88,429.52,727.3,430.5,736.38Z" fill="#f99b0f"/><path d="M331.39,850.14c-1.16,0-2.32,0-3.45-.08-7.28-.51-13.23-2.89-17.75-6.78l13.47,11.56c4.53,3.89,10.48,6.27,17.76,6.78.92.06,1.85.1,2.79.1Z" fill="#f99b0f"/><path d="M389,737.35l-5.16,9.83q4,1.23,4.43,5.88t-3,11.66l-6.73-.46c1.24-2.66,1.66-4.8,1.23-6.44s-1.62-2.54-3.61-2.67a9.58,9.58,0,0,0-6.46,2.23,19.51,19.51,0,0,0-5.52,6.74A13.62,13.62,0,0,0,363,767a6.44,6.44,0,0,0-.2,2.42q.26,2.28,4.15,3.92a17.32,17.32,0,0,1,3.4,1.77,9.2,9.2,0,0,1,4,7.45q.19,4.74-3.16,11.12a46.64,46.64,0,0,1-10.36,13.47q-6.13,5.4-11.66,6L343,824.94l-6.28-.44,6-11.35c-3.4-.94-5.29-3.24-5.64-6.92s.88-8.23,3.72-13.68l6.48.45c-1.78,3.67-2.46,6.47-2,8.42s2,3,4.7,3.2a10.94,10.94,0,0,0,7.42-2.55,25.39,25.39,0,0,0,7.77-11,10.5,10.5,0,0,0,.58-2.6c.14-2.43-1.22-4.32-4.08-5.64l-1.06-.5q-5.26-2.61-6.1-7c-.54-2.93.35-6.64,2.71-11.13a40.26,40.26,0,0,1,9.32-12,22.19,22.19,0,0,1,11.14-5.54l5.11-9.73Z" fill="#f99b0f"/><path d="M386.16,734.05,381,743.88q4,1.23,4.43,5.88t-3,11.67l-6.73-.47c1.24-2.65,1.66-4.8,1.23-6.43s-1.62-2.54-3.61-2.68a9.63,9.63,0,0,0-6.46,2.23,19.7,19.7,0,0,0-5.52,6.74,14.65,14.65,0,0,0-1.17,2.88,6.47,6.47,0,0,0-.2,2.43q.25,2.26,4.15,3.92a17.32,17.32,0,0,1,3.4,1.77,9.17,9.17,0,0,1,4,7.45q.2,4.74-3.16,11.11A46.55,46.55,0,0,1,358,803.86q-6.13,5.4-11.66,6l-6.21,11.8-6.27-.44,6-11.34c-3.4-.94-5.29-3.25-5.64-6.93s.88-8.23,3.72-13.68l6.48.45c-1.78,3.67-2.46,6.48-2,8.42s2,3,4.7,3.21a11,11,0,0,0,7.42-2.55,22.58,22.58,0,0,0,6.33-7.73,22.88,22.88,0,0,0,1.44-3.24,10.6,10.6,0,0,0,.58-2.6q.21-3.66-4.08-5.64l-1.06-.5c-3.51-1.75-5.55-4.08-6.1-7s.35-6.65,2.71-11.13a40.14,40.14,0,0,1,9.32-12,22.22,22.22,0,0,1,11.14-5.55l5.11-9.73Z" fill="#ffc910"/><path d="M528.92,202.44c40-12.36,66.13,3.13,58.43,34.61s-46.34,67-86.3,79.38-66.12-3.14-58.42-34.62S489,214.8,528.92,202.44Zm-25.48,104.2c33.1-10.23,65.11-39.67,71.48-65.74S559.63,202,526.53,212.23s-65.1,39.66-71.47,65.74,15.29,38.91,48.38,28.67" fill="#ffc910"/><path d="M526.53,212.23c-33.1,10.23-65.1,39.66-71.47,65.74s15.29,38.91,48.38,28.67S568.55,267,574.92,240.9,559.63,202,526.53,212.23Z" fill="#ffab01"/><path d="M583.93,210.49l10.46,14.72c4.68,6.58,6.1,15.6,3.42,26.56-7.7,31.48-46.34,67-86.3,79.38-26.05,8.06-46.24,4.27-55-8.06l-10.46-14.71c8.76,12.33,28.95,16.11,55,8.05,40-12.36,78.6-47.9,86.3-79.38C590,226.1,588.61,217.08,583.93,210.49Z" fill="#f99b0f"/><path d="M501.05,316.43c-11.34,3.51-21.57,4.77-30.23,4.06l11.32,14.78c8.47.56,18.4-.73,29.37-4.12,37.51-11.6,73.85-43.62,84.54-73.54l-10.73-14C574.32,273.31,538.26,304.92,501.05,316.43Z" fill="#ffab01"/><path d="M528.15,225.38l-1.93,7.89q5.88-1.12,8.68,1.31c1.87,1.63,2.48,4.27,1.84,7.94l-9,2.79c.32-2.06-.19-3.46-1.55-4.2s-3.37-.68-6,.14a18.55,18.55,0,0,0-7.35,4.2,12.8,12.8,0,0,0-3.92,6.3,5,5,0,0,0-.11,2.17,2.38,2.38,0,0,0,.93,1.45c1,.77,3.42.88,7.35.33a48,48,0,0,1,5.3-.54q6.27-.19,8.86,2.4t1.33,7.7a28.11,28.11,0,0,1-6.95,12.32,34.15,34.15,0,0,1-12.31,8.67L511,295.73l-8.42,2.6,2.23-9.11q-7.38,1.53-10.78-1.34c-2.27-1.91-2.9-5.05-1.85-9.41l8.7-2.69c-.53,2.88,0,4.77,1.51,5.67s4.1.78,7.71-.34a21.59,21.59,0,0,0,8.45-4.8,14.67,14.67,0,0,0,4.49-7.24,8.25,8.25,0,0,0,.28-2.49,3.44,3.44,0,0,0-.51-1.73c-1-1.44-3.72-1.88-8.1-1.32l-1.63.19q-8.17.93-11.42-1.19c-2.16-1.42-2.8-3.92-1.92-7.53A24.51,24.51,0,0,1,506,244a35.75,35.75,0,0,1,11.85-8.19l1.91-7.81Z" fill="#f99b0f"/><path d="M524.48,223.07,522.56,231q5.87-1.11,8.67,1.31t1.84,8l-9,2.79c.33-2.07-.18-3.47-1.55-4.2s-3.36-.69-6,.13a18.64,18.64,0,0,0-7.36,4.2,12.76,12.76,0,0,0-3.91,6.31,4.81,4.81,0,0,0-.12,2.16,2.48,2.48,0,0,0,.93,1.46q1.46,1.16,7.36.33a48.34,48.34,0,0,1,5.3-.55c4.18-.12,7.12.68,8.85,2.41s2.16,4.29,1.33,7.69a28.14,28.14,0,0,1-7,12.33,34.16,34.16,0,0,1-12.31,8.66l-2.32,9.48L498.86,296l2.23-9.12q-7.36,1.55-10.78-1.33t-1.85-9.41l8.7-2.69q-.8,4.32,1.51,5.66c1.53.9,4.1.78,7.71-.33a21.47,21.47,0,0,0,8.45-4.81,14.56,14.56,0,0,0,4.49-7.24,8.22,8.22,0,0,0,.28-2.49,3.43,3.43,0,0,0-.5-1.72c-1-1.45-3.72-1.88-8.11-1.33l-1.62.2c-5.46.61-9.26.21-11.43-1.2s-2.8-3.91-1.92-7.52a24.58,24.58,0,0,1,6.28-11,35.83,35.83,0,0,1,11.85-8.18l1.91-7.82Z" fill="#ffc910"/><rect x="451.72" y="617.86" width="221.92" height="76.76" fill="url(#a01216ec-f3ce-4749-b546-8b96a0619da0)"/><rect x="464.26" y="646.97" width="188.47" height="6.95" fill="#387bff"/><rect x="463.48" y="663.13" width="164.53" height="6.91" fill="#387bff"/><rect x="528.02" y="736.09" width="145.62" height="76.76" fill="#0063cb"/><rect x="545.93" y="765.2" width="108.98" height="6.95" fill="url(#e5baa7ae-12a7-4917-bd42-ead0d799d3c2)"/><rect x="545.48" y="781.36" width="95.14" height="6.91" fill="url(#b88f5499-4067-4123-802b-dbff90ce677d)"/></g></g></g></svg>